<?xml version="1.0" standalone="no"?>
<!DOCTYPE svg PUBLIC "-//W3C//DTD SVG 20010904//EN"
 "http://www.w3.org/TR/2001/REC-SVG-20010904/DTD/svg10.dtd">
<svg version="1.0" xmlns="http://www.w3.org/2000/svg"
 width="1024.000000pt" height="1024.000000pt" viewBox="0 0 1024.000000 1024.000000"
 preserveAspectRatio="xMidYMid meet">
<metadata>
Created by potrace 1.11, written by Peter Selinger 2001-2013
</metadata>
<g transform="translate(0.000000,1024.000000) scale(0.100000,-0.100000)"
fill="#000000" stroke="none">
<path d="M0 5120 l0 -5120 5120 0 5120 0 0 5120 0 5120 -5120 0 -5120 0 0
-5120z m5710 4198 c175 -87 313 -226 400 -403 54 -110 166 -434 178 -516 l7
-52 78 62 c44 35 107 79 140 99 34 19 114 68 177 107 277 173 424 225 638 225
181 0 294 -36 386 -121 73 -66 136 -210 136 -307 0 -75 -29 -249 -65 -397 -40
-164 -168 -570 -251 -800 l-57 -160 -1 -130 c0 -116 3 -147 36 -290 68 -290
63 -370 -26 -461 -53 -55 -97 -74 -168 -74 -74 0 -279 -51 -326 -81 -80 -50
-163 -65 -102 -18 14 11 35 29 47 40 27 24 118 62 238 99 158 47 210 82 256
170 21 40 24 58 24 165 0 105 -5 139 -39 275 -37 150 -38 159 -33 285 3 71 12
153 20 180 8 28 53 174 100 326 164 527 199 671 200 819 1 97 -10 126 -76 198
-90 97 -170 126 -347 126 -179 1 -278 -25 -490 -130 -173 -85 -284 -158 -428
-281 -47 -41 -88 -70 -92 -66 -4 4 -33 78 -65 163 -127 337 -245 550 -374 672
-90 85 -138 114 -246 147 -136 42 -278 38 -384 -12 -25 -12 -78 -52 -118 -90
-72 -69 -74 -70 -119 -64 -31 3 -57 14 -82 36 -123 103 -233 140 -363 120
-204 -31 -300 -131 -544 -564 -205 -365 -269 -475 -275 -475 -3 0 -44 32 -90
72 -271 229 -538 412 -779 532 -205 103 -410 132 -528 75 -103 -50 -165 -213
-135 -355 7 -32 51 -118 126 -246 166 -283 189 -334 188 -409 -1 -58 -38 -181
-78 -262 -46 -90 -113 -264 -150 -387 -26 -88 -28 -107 -29 -270 l0 -175 31
-66 c38 -80 119 -203 183 -279 53 -62 81 -101 81 -112 0 -40 -107 65 -230 225
-100 130 -134 187 -170 279 -80 206 -64 350 81 709 63 156 80 214 100 332 12
74 12 78 -15 149 -16 40 -64 141 -106 223 -43 83 -93 186 -111 230 -30 75 -33
88 -33 205 -1 117 1 128 27 182 40 82 111 142 201 171 58 18 94 22 196 22 118
-1 131 -3 235 -38 291 -100 508 -242 827 -541 l167 -156 25 42 c14 24 37 72
51 108 69 167 295 651 325 695 33 48 122 133 170 162 57 34 137 53 228 53 73
0 102 -6 220 -45 195 -65 223 -64 365 10 178 92 187 95 377 92 l165 -2 95 -47z
m-546 -791 c13 -52 26 -341 20 -452 -7 -141 -22 -182 -90 -255 -44 -47 -49
-50 -98 -50 -29 0 -66 8 -86 18 -46 23 -106 111 -119 175 -14 64 -19 517 -7
536 19 29 26 -18 26 -179 1 -275 25 -378 99 -427 44 -30 75 -29 135 5 87 48
90 61 94 380 3 247 10 313 26 249z m-109 -232 c25 -24 34 -76 17 -101 -12 -19
-76 -54 -98 -54 -12 0 -33 9 -48 21 -44 34 -33 129 17 149 42 17 87 11 112
-15z m-932 -954 c127 -85 207 -199 207 -292 0 -44 -21 -32 -41 22 -16 43 -18
44 -69 49 -43 5 -58 12 -81 38 -24 27 -29 41 -29 83 0 45 -4 54 -45 98 -75 80
-58 81 58 2z m1944 -22 c-47 -24 -57 -34 -51 -47 12 -26 7 -77 -11 -112 -18
-35 -66 -60 -117 -60 -28 0 -36 -6 -53 -37 -22 -42 -55 -57 -55 -25 0 10 16
51 35 91 60 123 179 220 270 220 l40 0 -58 -30z m-666 -626 c85 -43 91 -48 63
-51 -17 -2 -61 4 -98 12 -101 24 -328 21 -433 -4 -46 -11 -99 -27 -119 -35
-21 -8 -39 -13 -42 -10 -12 12 40 51 122 91 l90 44 161 0 161 0 95 -47z
m-1938 -214 c98 -47 194 -125 263 -213 64 -81 152 -240 175 -316 11 -35 16
-40 33 -36 12 3 40 6 62 6 l41 0 11 58 c7 31 17 99 24 150 l12 93 40 -6 c114
-18 199 -53 284 -118 75 -57 122 -155 159 -330 14 -69 17 -148 18 -487 1 -335
4 -422 18 -505 53 -306 127 -464 289 -622 80 -79 114 -102 241 -163 132 -64
194 -79 352 -87 201 -9 376 32 586 138 168 84 264 151 379 268 111 111 172
195 240 327 106 206 107 343 7 597 -65 164 -73 168 -165 83 -56 -53 -63 -56
-111 -56 -57 0 -118 -21 -127 -44 -3 -8 4 -41 16 -72 18 -49 19 -64 10 -106
-13 -64 -30 -95 -74 -137 -42 -41 -113 -53 -162 -28 -106 55 -209 262 -233
469 -5 46 -12 220 -16 388 -7 321 -3 364 42 457 32 68 125 103 186 72 47 -24
103 -89 192 -224 52 -77 115 -167 141 -200 100 -127 127 -230 81 -310 -34 -60
-65 -71 -157 -57 -187 29 -287 50 -318 66 -50 26 -56 16 -48 -93 8 -110 29
-222 57 -296 25 -68 88 -157 121 -173 93 -44 148 81 84 190 -25 43 -26 50 -14
74 20 41 54 61 143 84 71 18 86 26 135 74 64 62 87 76 129 76 65 0 76 -16 151
-233 54 -154 71 -251 63 -349 l-6 -63 87 110 c122 154 166 214 206 280 39 64
91 105 131 105 34 0 117 -73 169 -149 21 -31 76 -99 122 -151 46 -52 111 -132
145 -176 58 -76 64 -81 119 -96 140 -39 199 -111 245 -298 16 -67 41 -144 54
-171 39 -76 37 -79 -74 -128 l-99 -43 -26 -101 c-14 -56 -28 -112 -32 -124 -5
-18 4 -27 63 -62 248 -147 433 -375 531 -653 48 -134 64 -234 69 -433 5 -173
4 -185 -25 -311 -37 -161 -74 -252 -152 -372 -70 -109 -217 -265 -314 -333
-107 -76 -342 -161 -544 -196 -82 -15 -116 -15 -265 -6 -160 11 -180 15 -287
52 -225 78 -339 137 -435 225 -46 43 -48 43 115 -7 356 -109 593 -123 861 -51
217 58 352 138 510 302 124 128 157 180 208 325 59 167 75 271 75 477 1 181 0
188 -33 305 -44 156 -93 270 -163 377 -56 86 -176 221 -231 260 l-29 21 -86
-93 c-93 -100 -146 -132 -298 -180 -84 -26 -237 -36 -319 -21 -91 17 -220 69
-264 107 -21 19 -41 34 -44 34 -2 0 -21 -26 -42 -57 -172 -260 -516 -571 -705
-638 -24 -9 -51 -22 -60 -30 -18 -16 -269 -65 -333 -65 -30 0 -55 9 -87 30
l-45 30 60 0 c113 0 286 43 402 100 100 49 115 60 233 179 141 141 231 265
303 422 92 197 116 312 117 549 1 69 5 145 10 170 4 25 8 46 7 47 -1 1 -31
-35 -67 -79 -131 -161 -316 -302 -535 -408 -228 -110 -409 -159 -614 -166
l-133 -4 -28 -38 c-43 -59 -247 -251 -340 -320 -47 -35 -140 -98 -207 -140
-108 -68 -121 -78 -105 -89 9 -7 67 -46 127 -85 l110 -73 95 9 c87 8 104 6
196 -17 167 -44 299 -132 383 -257 53 -80 78 -150 91 -256 30 -243 -58 -472
-274 -713 -36 -40 -66 -76 -66 -80 0 -3 27 -14 59 -25 134 -43 192 -107 194
-215 1 -67 -25 -123 -78 -169 -49 -44 -88 -63 -178 -87 l-78 -21 29 -39 c16
-22 48 -53 72 -70 38 -26 52 -30 114 -30 67 0 75 3 132 42 34 23 82 65 107 93
42 46 48 50 68 39 31 -16 126 -6 175 19 22 11 58 42 79 68 36 43 39 52 43 125
l5 78 -70 108 c-153 237 -148 224 -151 335 -3 63 1 110 8 129 30 71 121 105
154 57 22 -31 20 -93 -4 -163 -31 -91 -27 -124 23 -185 126 -155 154 -218 143
-334 -9 -107 -45 -170 -126 -224 -35 -23 -105 -59 -154 -79 -83 -35 -100 -47
-208 -150 l-117 -113 -63 0 c-82 0 -151 38 -206 113 -52 71 -141 204 -148 220
-3 9 12 17 45 26 55 14 151 72 190 114 20 22 23 32 17 68 -14 88 -59 129 -141
129 -20 0 -115 -27 -213 -60 -185 -62 -374 -102 -394 -82 -12 12 20 31 148 82
125 50 221 117 339 235 153 153 244 300 301 490 24 77 28 108 28 220 l1 131
-38 76 c-39 80 -107 152 -176 188 l-36 18 3 -217 c3 -212 2 -217 -24 -291 -64
-181 -157 -328 -318 -502 -65 -71 -121 -128 -125 -128 -4 0 -34 -22 -65 -50
-31 -27 -62 -50 -67 -50 -6 0 23 39 64 88 157 185 247 338 305 523 59 185 64
282 22 444 -33 129 -46 142 -292 290 -118 72 -264 166 -324 211 -164 122 -426
301 -544 372 -131 79 -317 170 -434 211 -125 44 -362 81 -519 81 -262 0 -573
-98 -824 -259 -92 -58 -264 -230 -310 -308 -20 -35 -29 -43 -31 -30 -5 24 76
191 133 277 53 79 183 207 286 280 93 66 273 154 362 177 37 10 67 21 67 25 0
4 -30 40 -66 80 -252 279 -359 603 -300 910 30 154 83 247 226 393 54 55 101
112 104 125 3 14 13 66 21 115 21 119 68 282 109 376 84 194 276 424 409 489
84 41 115 47 240 49 90 1 102 -1 160 -30z m1820 -34 c57 -28 142 -93 133 -102
-2 -2 -35 5 -73 17 -120 38 -353 24 -514 -30 -77 -26 -93 -26 -79 0 16 30 126
101 199 127 57 20 80 23 171 20 92 -3 112 -7 163 -32z m55 -344 c50 -26 82
-58 82 -81 0 -26 0 -26 -72 10 -54 27 -69 30 -157 30 -53 0 -123 -6 -156 -14
-33 -7 -92 -21 -131 -29 -40 -9 -76 -18 -80 -19 -5 -2 -11 1 -13 7 -3 10 142
88 194 104 17 5 90 10 163 10 112 1 139 -2 170 -18z m-7 -310 c51 -20 89 -46
89 -63 0 -5 -93 -8 -207 -7 -176 2 -215 -1 -253 -15 -77 -30 -133 -46 -138
-41 -10 10 44 57 93 83 91 46 153 61 262 61 79 1 115 -4 154 -18z m-57 -338
c63 -11 110 -27 151 -50 l60 -34 -130 8 c-177 11 -232 7 -321 -22 -101 -33
-184 -43 -184 -23 0 36 99 94 205 119 91 22 109 22 219 2z m219 -367 c20 -9
37 -20 37 -24 0 -4 -51 -7 -112 -7 -91 -1 -127 -5 -183 -24 -74 -25 -167 -72
-224 -115 -55 -41 -81 -32 -81 29 0 48 87 120 183 151 61 20 328 13 380 -10z
m-49 -220 c-126 -49 -190 -99 -236 -184 -21 -39 -46 -41 -77 -8 -28 29 -24 58
13 98 78 83 158 117 276 117 l85 0 -61 -23z m50 -1578 c59 -30 116 -105 116
-153 0 -31 -1 -31 -57 2 -34 20 -63 27 -120 31 l-74 5 -25 48 c-13 27 -24 51
-24 54 0 3 15 13 33 21 34 15 114 11 151 -8z"/>
<path d="M3161 6355 c-35 -17 -85 -56 -141 -113 -270 -270 -389 -644 -350
-1102 33 -396 101 -595 262 -765 55 -59 93 -89 129 -104 115 -50 282 -65 394
-35 108 27 164 62 267 166 117 117 161 198 207 385 46 182 52 269 37 526 -8
130 -11 268 -7 332 4 61 6 111 6 113 -1 1 -31 -10 -66 -26 -97 -44 -178 -148
-261 -336 -26 -60 -50 -111 -53 -114 -13 -14 -15 13 -5 92 18 144 56 247 139
376 l39 60 -13 58 c-40 172 -128 339 -221 421 -74 65 -126 85 -224 89 -74 2
-92 0 -139 -23z m708 -1153 l1 -304 -31 -76 c-16 -42 -31 -77 -32 -78 -1 -1
-2 82 -2 184 -1 158 -4 201 -23 279 -24 101 -29 201 -11 236 6 12 28 39 47 60
32 33 37 35 44 20 3 -10 7 -155 7 -321z"/>
<path d="M5997 6143 c-9 -2 -24 -18 -33 -34 -34 -68 -44 -359 -14 -422 17 -35
68 -62 135 -71 28 -4 87 -16 131 -27 109 -25 130 -25 150 6 15 24 15 28 -1 70
-9 25 -32 67 -50 93 -65 91 -122 177 -156 236 -32 56 -122 157 -137 155 -4 -1
-15 -3 -25 -6z"/>
<path d="M4156 6048 c-4 -29 -19 -96 -32 -148 -28 -106 -26 -148 9 -220 59
-121 216 -122 300 0 23 33 22 112 -2 189 -34 108 -116 196 -206 220 -60 16
-62 15 -69 -41z"/>
<path d="M4063 5213 c2 -381 -2 -427 -48 -589 -46 -158 -98 -261 -168 -332
-73 -75 -158 -137 -244 -181 -62 -31 -73 -44 -185 -217 -5 -8 24 -24 90 -49
261 -101 643 -328 925 -552 65 -51 126 -93 135 -93 10 0 48 18 86 40 208 121
492 403 499 494 2 27 -3 30 -83 60 -107 41 -139 57 -218 113 -179 127 -368
485 -403 763 -22 179 -7 633 26 810 3 14 1 32 -4 40 -8 12 -20 9 -72 -18 -51
-26 -73 -32 -126 -32 -76 0 -116 15 -167 64 -21 20 -40 36 -41 36 -2 0 -2
-161 -2 -357z"/>
<path d="M2457 5188 c-34 -33 -68 -81 -83 -112 -66 -145 -52 -422 33 -635 47
-119 103 -201 208 -306 109 -110 176 -152 285 -180 87 -23 243 -25 291 -3 37
16 109 74 109 88 0 5 -43 22 -95 39 -166 54 -254 109 -376 238 -170 181 -263
418 -298 761 l-17 167 -57 -57z"/>
<path d="M7203 5208 c-11 -13 -33 -46 -48 -75 -15 -29 -88 -129 -161 -224
-149 -191 -160 -215 -150 -323 7 -79 29 -121 86 -166 123 -97 319 -129 500
-80 145 38 199 75 236 158 51 113 9 222 -166 431 -61 74 -129 160 -150 190
-77 113 -108 132 -147 89z"/>
<path d="M7770 4577 c0 -128 -56 -213 -195 -294 -114 -67 -180 -85 -335 -91
-155 -5 -221 5 -309 49 -60 30 -131 90 -168 144 l-22 30 -12 -30 c-20 -45 -16
-245 5 -325 26 -97 98 -242 147 -295 49 -53 101 -86 185 -117 50 -18 81 -21
204 -22 142 -1 146 0 220 32 196 84 319 237 354 441 8 45 18 86 23 90 4 4 44
15 87 24 44 9 84 21 88 25 5 5 0 24 -10 43 -11 19 -28 65 -37 104 -21 87 -53
151 -97 192 -29 28 -96 63 -119 63 -5 0 -9 -28 -9 -63z"/>
</g>
</svg>
