<?xml version="1.0" standalone="no"?>
<!DOCTYPE svg PUBLIC "-//W3C//DTD SVG 20010904//EN"
 "http://www.w3.org/TR/2001/REC-SVG-20010904/DTD/svg10.dtd">
<svg version="1.0" xmlns="http://www.w3.org/2000/svg"
 width="1280.000000pt" height="698.000000pt" viewBox="0 0 1280.000000 698.000000"
 preserveAspectRatio="xMidYMid meet">
<metadata>
Created by potrace 1.15, written by Peter Selinger 2001-2017
</metadata>
<g transform="translate(0.000000,698.000000) scale(0.100000,-0.100000)"
fill="#000000" stroke="none">
<path d="M2270 6810 c0 -5 -6 -10 -13 -10 -25 0 -77 -52 -77 -76 0 -13 5 -24
10 -24 6 0 10 -6 10 -13 0 -18 31 -18 53 1 11 10 17 11 17 4 0 -7 7 -12 15
-12 8 0 15 -4 15 -10 0 -14 33 -12 65 4 26 13 26 14 6 21 -12 3 -21 12 -21 20
0 7 -9 15 -20 18 -14 4 -20 14 -20 34 0 28 -15 53 -32 53 -4 0 -8 -4 -8 -10z"/>
<path d="M3854 6742 c-6 -4 -13 -15 -17 -24 -4 -11 -12 -15 -22 -12 -10 4 -15
0 -15 -10 0 -18 -21 -21 -37 -5 -8 8 -17 8 -30 0 -14 -7 -23 -7 -31 1 -8 8
-12 8 -12 1 0 -13 -116 9 -133 26 -14 14 -30 14 -21 0 3 -6 2 -14 -3 -18 -24
-15 -23 -47 2 -74 14 -15 30 -27 35 -27 14 0 12 -44 -1 -57 -17 -17 -3 -43 22
-43 19 0 21 4 14 36 -7 41 10 39 25 -2 14 -35 59 -32 115 8 25 17 45 37 45 42
0 6 23 31 51 56 47 42 50 47 36 61 -11 11 -12 20 -5 27 12 12 -3 24 -18 14z"/>
<path d="M3665 6720 c3 -5 11 -10 16 -10 6 0 7 5 4 10 -3 6 -11 10 -16 10 -6
0 -7 -4 -4 -10z"/>
<path d="M1883 6712 c-6 -4 -10 -21 -9 -39 1 -17 -1 -39 -5 -49 -6 -16 -8 -14
-8 7 -1 26 -26 57 -37 46 -3 -3 -1 -14 4 -24 5 -10 7 -23 5 -29 -2 -6 8 -19
22 -28 14 -9 25 -25 25 -36 0 -11 4 -20 9 -20 5 0 11 -14 15 -31 5 -25 10 -30
26 -26 10 3 24 -1 31 -9 6 -8 19 -14 29 -14 10 0 20 -7 24 -15 3 -9 18 -15 35
-15 36 0 52 24 49 72 -2 22 1 32 10 31 6 -2 12 1 12 7 0 5 7 7 15 4 20 -8 77
50 69 70 -6 16 -34 23 -34 8 0 -5 -16 -9 -36 -10 -29 -1 -34 1 -25 12 8 10 8
16 -2 25 -11 8 -19 6 -37 -9 l-24 -20 -26 25 c-14 14 -29 23 -33 19 -3 -3 -21
5 -39 19 -46 34 -52 37 -65 29z"/>
<path d="M2202 6568 c-23 -23 -8 -89 17 -74 6 4 11 3 11 -3 0 -6 -9 -15 -19
-21 -12 -6 -22 -26 -26 -52 -4 -24 -13 -53 -22 -66 -8 -13 -13 -31 -12 -40 3
-25 -12 -73 -21 -67 -14 8 -24 -17 -22 -52 2 -24 -1 -31 -11 -27 -8 3 -18 -6
-26 -22 l-12 -27 -24 39 c-14 21 -25 42 -25 46 0 4 -10 18 -22 32 -13 13 -29
32 -36 41 -20 24 -74 16 -87 -13 -8 -19 -15 -22 -40 -18 -71 14 -81 14 -97 10
-27 -8 -9 -34 22 -34 16 0 31 -4 34 -9 4 -5 33 -8 66 -7 58 3 61 2 98 -38 22
-23 44 -52 51 -64 17 -31 23 -90 10 -97 -5 -4 -7 -19 -4 -34 4 -19 0 -35 -15
-53 -11 -14 -20 -32 -20 -39 0 -7 -32 20 -71 60 -57 59 -73 70 -85 60 -11 -9
-14 -9 -14 0 0 7 -5 9 -10 6 -6 -4 -9 -1 -8 6 2 7 -22 19 -57 30 -33 10 -72
25 -86 33 -15 9 -53 17 -85 18 -60 2 -144 -16 -144 -31 0 -5 -27 -11 -59 -15
-52 -6 -62 -11 -85 -41 -18 -23 -31 -32 -45 -28 -23 6 -37 -13 -22 -31 6 -7 8
-16 4 -20 -9 -9 -14 -32 -16 -88 -2 -26 -8 -53 -15 -60 -14 -14 -16 -48 -3
-48 6 0 9 -8 9 -17 -1 -10 2 -28 6 -39 5 -18 2 -22 -18 -26 -14 -3 -27 0 -29
6 -2 6 -18 1 -41 -12 -20 -12 -46 -22 -57 -22 -10 0 -19 -5 -19 -11 0 -6 -6
-9 -12 -6 -7 2 -24 -4 -37 -14 -13 -11 -30 -19 -37 -19 -7 0 -12 -6 -10 -12 1
-7 1 -10 -1 -5 -16 28 -58 -17 -46 -50 5 -15 3 -16 -8 -5 -18 16 -32 15 -26
-3 4 -8 1 -17 -5 -21 -7 -4 -6 -9 3 -15 9 -5 2 -8 -20 -6 -31 2 -33 0 -36 -30
-2 -25 2 -34 17 -39 16 -5 18 -11 13 -32 -9 -35 -12 -37 -31 -22 -13 12 -17
11 -25 -1 -13 -21 -11 -39 6 -45 8 -4 15 -14 15 -25 0 -10 5 -30 12 -44 9 -21
9 -31 -1 -47 -11 -18 -10 -23 7 -40 20 -20 20 -20 27 1 9 29 23 27 18 -3 -5
-22 0 -26 36 -36 23 -6 51 -20 62 -31 10 -10 26 -19 34 -19 8 0 24 -9 34 -19
18 -18 23 -18 63 -7 39 12 186 12 198 0 2 -3 -2 -9 -10 -14 -8 -5 -15 -17 -15
-27 0 -10 -17 -27 -40 -40 -31 -17 -41 -30 -45 -55 -3 -19 0 -42 7 -54 25 -40
-19 -110 -60 -95 -12 4 -35 5 -51 2 l-29 -6 34 -17 c110 -53 129 -64 129 -75
0 -7 6 -13 14 -13 8 0 29 -20 47 -45 17 -24 35 -42 39 -40 11 7 93 -79 96
-100 0 -5 2 -16 2 -22 1 -7 8 -13 16 -13 21 0 26 -25 10 -55 -16 -31 -19 -85
-4 -85 15 0 12 -47 -2 -53 -10 -4 -10 -8 0 -15 11 -7 10 -11 -3 -16 -14 -5
-16 -14 -12 -41 5 -33 -6 -49 -16 -22 -2 6 -8 8 -13 4 -5 -4 -2 -12 5 -16 8
-5 11 -17 6 -30 -5 -16 0 -27 17 -41 14 -13 17 -19 8 -18 -22 4 -24 -42 -5
-97 15 -45 15 -47 -7 -65 -18 -15 -21 -22 -12 -36 8 -13 8 -26 0 -47 -8 -21
-8 -30 2 -36 7 -4 11 -25 10 -51 -1 -26 3 -45 10 -48 8 -2 9 -9 2 -22 -5 -10
-7 -26 -3 -36 5 -13 3 -16 -10 -11 -20 8 -22 -4 -4 -22 10 -10 8 -15 -7 -27
-11 -7 -16 -17 -12 -21 4 -4 10 -3 14 2 10 13 32 17 32 6 0 -6 -5 -13 -11 -17
-6 -3 -9 -20 -6 -38 2 -17 0 -39 -5 -48 -6 -12 -5 -18 3 -18 12 0 8 -57 -6
-92 -5 -14 -2 -18 13 -18 29 0 33 -23 12 -64 -18 -36 -18 -36 6 -53 26 -19 53
-88 31 -80 -7 2 -11 14 -10 25 2 15 -2 20 -12 16 -18 -7 -20 -30 -2 -37 9 -4
9 -8 -2 -15 -15 -11 -6 -56 10 -46 5 3 7 15 3 27 -6 19 -5 20 9 8 13 -10 14
-18 6 -32 -7 -15 -6 -21 6 -25 8 -3 15 -13 15 -21 0 -13 -3 -13 -15 -3 -19 16
-28 9 -19 -14 4 -11 13 -15 25 -11 11 4 20 2 20 -4 2 -16 4 -23 17 -54 16 -38
15 -48 -4 -40 -12 4 -15 2 -12 -8 3 -8 12 -13 22 -11 12 2 16 -5 16 -28 0 -16
5 -30 11 -30 7 0 8 -12 4 -33 -4 -17 -4 -29 0 -25 8 8 17 -4 57 -79 12 -24 28
-43 34 -43 7 0 16 -9 19 -20 3 -11 11 -20 16 -20 5 0 9 1 9 3 0 10 -50 198
-59 220 -6 16 -11 35 -11 43 0 23 28 16 36 -8 3 -13 26 -41 50 -62 44 -38 44
-39 23 -54 -16 -11 -20 -21 -16 -42 3 -15 1 -32 -4 -37 -8 -8 -7 -17 0 -31 17
-32 14 -63 -5 -55 -21 8 -44 -22 -44 -55 0 -15 7 -26 19 -29 20 -5 19 -34 -1
-30 -5 1 -15 -6 -21 -15 -9 -14 -9 -23 1 -38 10 -16 10 -34 2 -83 -11 -57 -10
-63 9 -78 12 -10 21 -29 21 -43 0 -14 10 -34 22 -46 18 -16 19 -20 5 -20 -11
0 -14 -5 -10 -17 10 -29 -259 232 -344 332 -23 28 -55 66 -71 85 -21 25 -31
50 -36 85 -3 28 -8 64 -11 80 -12 59 -25 331 -19 400 5 58 3 77 -13 105 -17
31 -18 46 -11 135 13 153 13 154 -1 247 -7 48 -10 104 -6 126 6 38 -11 132
-24 132 -13 0 -31 -24 -31 -41 0 -9 -6 -19 -14 -22 -23 -9 -25 -45 -5 -71 23
-30 24 -45 2 -61 -14 -11 -15 -15 -4 -29 9 -11 10 -23 3 -43 l-10 -28 -11 29
c-6 16 -9 43 -5 61 4 21 0 44 -10 63 -9 17 -16 40 -16 52 0 11 -6 23 -14 26
-8 3 -16 28 -20 62 -9 77 -22 97 -32 48 l-7 -39 -13 33 c-16 37 -19 166 -4
175 5 3 9 29 9 58 0 29 0 59 1 67 1 38 -16 121 -25 123 -5 1 -15 -17 -20 -40
-14 -58 -22 -61 -32 -12 -5 23 -14 44 -22 47 -9 3 -11 -2 -6 -17 5 -15 3 -19
-7 -16 -10 4 -18 -7 -25 -32 l-10 -38 -2 45 c-1 25 -6 63 -10 85 -5 27 -2 51
7 74 9 24 10 37 3 44 -6 6 -11 16 -11 21 0 6 5 4 10 -4 16 -25 42 11 51 71 9
59 5 75 -10 36 -5 -14 -15 -28 -21 -32 -6 -4 -15 -17 -20 -29 -8 -18 -9 -17
-9 11 -1 18 4 43 10 57 8 17 9 47 2 103 -8 60 -7 87 3 117 15 42 18 86 7 86
-5 0 -21 -28 -36 -61 -23 -47 -32 -57 -42 -49 -17 14 -22 6 -41 -65 -7 -31
-23 -75 -34 -97 -22 -47 -25 -74 -9 -84 14 -9 4 -62 -17 -86 -12 -13 -15 -30
-12 -68 3 -28 1 -53 -3 -56 -15 -9 -10 -42 7 -48 15 -6 15 -8 -1 -26 -12 -13
-15 -24 -8 -32 11 -17 4 -150 -8 -142 -12 7 -29 -40 -33 -93 -4 -48 -16 -71
-16 -32 0 13 -7 33 -15 43 -13 17 -17 18 -42 6 l-28 -14 28 -4 c31 -4 33 -10
13 -37 -9 -12 -11 -27 -6 -40 5 -11 14 -46 21 -79 11 -52 11 -59 -4 -68 -9 -5
-17 -14 -17 -19 0 -6 -7 -17 -15 -25 -17 -17 -20 -54 -5 -54 20 0 9 -21 -15
-30 -31 -12 -34 -49 -5 -57 11 -3 23 -17 26 -32 3 -14 7 -31 9 -38 2 -7 -2
-10 -11 -6 -10 4 -14 -3 -14 -25 0 -17 4 -33 9 -36 4 -3 7 -27 4 -53 -2 -26 2
-60 8 -76 8 -20 9 -31 1 -39 -18 -18 6 -68 33 -68 16 0 25 -7 29 -25 4 -15 17
-30 31 -35 16 -6 25 -17 25 -30 0 -11 7 -23 16 -27 12 -4 14 -14 10 -36 -5
-25 -1 -36 21 -59 25 -26 25 -28 7 -28 -33 0 -84 66 -84 109 0 12 -5 21 -10
21 -10 0 -35 48 -32 63 1 4 -3 7 -8 7 -6 0 -10 -6 -8 -13 2 -6 -7 -22 -20 -35
-27 -27 -28 -42 -2 -49 10 -3 22 -14 25 -24 3 -10 7 -27 10 -38 4 -13 -1 -20
-15 -24 -20 -5 -21 -7 -5 -37 9 -17 20 -28 25 -25 17 11 32 -5 20 -20 -7 -8
-9 -24 -5 -35 5 -17 13 -21 31 -17 16 3 30 -4 45 -19 l22 -24 -21 0 c-31 0
-27 -15 15 -67 27 -33 42 -44 58 -41 18 4 21 0 20 -23 -1 -16 4 -30 12 -33 7
-3 13 1 13 9 0 25 13 18 75 -41 57 -53 74 -66 168 -130 24 -16 37 -31 33 -40
-3 -9 1 -14 14 -14 12 0 20 -7 20 -16 0 -8 13 -28 28 -43 15 -16 36 -39 45
-52 17 -24 17 -24 12 -2 -5 19 -3 22 12 16 27 -9 43 -24 38 -33 -8 -12 6 -41
16 -34 5 3 9 -2 9 -12 0 -19 96 -114 115 -114 8 0 22 -10 32 -23 10 -12 35
-35 56 -51 27 -21 35 -32 27 -41 -13 -16 -3 -43 22 -56 23 -13 37 -4 20 13 -7
7 -12 17 -12 22 0 6 5 5 12 -2 13 -13 32 -16 24 -4 -2 4 -1 14 3 21 6 9 17 7
47 -10 21 -12 48 -30 59 -39 11 -9 28 -20 38 -23 9 -4 17 -13 17 -21 0 -20 36
-39 60 -31 14 4 20 2 20 -9 0 -21 38 -40 54 -27 18 15 53 2 71 -26 10 -15 22
-22 31 -19 8 3 33 -3 55 -14 22 -12 45 -20 52 -19 33 4 41 -1 22 -15 -19 -14
-19 -15 8 -27 32 -15 45 -6 26 17 -13 16 -11 17 15 10 15 -4 35 -13 42 -21 22
-21 87 -40 92 -26 5 15 53 13 75 -3 19 -14 67 -10 80 8 6 7 7 5 4 -5 -7 -23
77 -46 99 -28 11 9 14 8 14 -4 0 -14 20 -27 42 -27 6 0 7 7 4 16 -5 12 -2 15
10 10 8 -3 20 -6 25 -6 6 0 8 -8 4 -19 -8 -25 44 -40 60 -18 6 8 22 17 35 19
16 3 -4 11 -60 24 -68 16 -84 23 -82 37 2 12 -4 17 -19 17 -14 0 -19 -5 -16
-14 4 -10 1 -13 -9 -9 -7 3 -14 11 -14 18 0 19 -28 26 -67 19 -32 -6 -57 2
-123 37 -8 4 -34 18 -58 30 -24 12 -57 33 -74 47 -18 16 -29 20 -26 12 2 -8
25 -31 51 -50 58 -44 45 -52 -14 -10 -24 17 -58 40 -74 50 -17 11 -41 33 -53
50 -12 16 -35 36 -51 45 -38 19 -107 129 -116 185 -4 25 -7 108 -6 185 0 146
15 233 35 216 6 -5 45 -12 86 -16 41 -4 82 -11 90 -15 8 -4 76 -8 150 -9 123
-2 233 11 300 36 8 3 28 7 44 8 16 2 32 8 35 14 4 6 26 10 49 9 25 -1 49 5 59
14 10 8 50 25 88 37 39 12 107 40 152 62 46 21 91 39 101 39 24 0 72 60 72 90
0 12 39 71 55 82 19 14 50 8 63 -13 7 -11 21 -19 31 -17 10 2 26 -3 35 -11 9
-8 34 -14 54 -13 45 2 76 -13 49 -24 -9 -3 -17 -15 -17 -25 0 -10 -3 -19 -7
-19 -9 0 -64 -43 -105 -82 -16 -16 -41 -36 -56 -45 -15 -10 -33 -26 -40 -35
-7 -10 -20 -18 -28 -18 -8 0 -18 -10 -23 -22 -12 -30 -57 -72 -69 -64 -12 7
-36 -20 -28 -32 7 -11 -29 -61 -76 -105 -20 -19 -57 -65 -83 -103 -25 -38 -59
-80 -75 -94 -23 -20 -30 -35 -34 -75 -2 -27 -9 -64 -16 -82 -9 -24 -9 -41 -1
-66 14 -41 11 -85 -6 -91 -15 -6 -18 -56 -4 -56 5 0 13 9 16 21 6 17 9 18 22
7 13 -11 17 -11 21 0 3 9 11 2 23 -17 24 -41 24 -44 -5 -39 -38 7 -51 -5 -36
-33 12 -22 13 -22 26 -4 13 17 15 17 27 2 6 -9 30 -18 52 -21 22 -3 70 -16
106 -29 45 -16 81 -22 110 -20 73 7 162 6 196 -2 25 -5 41 -2 68 15 33 21 44
22 122 16 59 -5 89 -4 99 5 7 6 53 25 100 41 47 16 108 43 135 59 28 16 52 29
55 29 3 0 17 8 32 19 15 10 53 36 86 57 32 22 73 49 90 61 18 11 43 23 56 25
13 1 28 12 34 22 16 28 38 49 69 65 14 8 36 32 47 53 30 57 77 101 145 136 33
16 71 42 84 56 14 14 30 26 37 26 6 0 17 7 24 16 11 12 10 18 -3 31 -13 14
-21 14 -41 5 -17 -8 -27 -8 -32 -1 -3 6 -12 8 -20 5 -21 -8 -30 41 -11 62 8 9
12 22 10 29 -2 6 5 17 16 23 19 10 21 19 20 97 -2 85 -2 86 -43 134 -23 26
-49 48 -58 48 -10 1 -18 5 -18 11 0 5 -10 14 -21 21 -12 6 -19 7 -15 1 3 -6
-4 -5 -18 1 -14 7 -23 14 -20 16 7 7 -66 30 -127 40 -33 6 -73 6 -95 1 -21 -5
-41 -6 -44 -2 -3 4 -48 8 -100 10 -52 1 -97 7 -98 12 -6 16 -40 12 -50 -6 -7
-13 -16 -15 -38 -9 -42 10 -101 7 -127 -7 -12 -7 -30 -11 -40 -9 -10 1 -29 -5
-42 -13 -33 -22 -72 -20 -102 3 -13 11 -31 17 -39 14 -8 -3 -26 5 -39 17 -14
14 -38 24 -57 24 -18 1 -39 5 -45 9 -7 5 -17 6 -22 3 -4 -3 -16 0 -26 8 -17
12 -17 14 -1 39 14 20 15 30 6 47 -6 11 -15 18 -20 15 -6 -3 -22 6 -37 20 -26
25 -33 26 -106 22 -43 -2 -102 0 -130 5 -29 5 -87 11 -131 13 -66 3 -82 7
-105 28 -31 29 -80 41 -88 21 -3 -8 -9 -14 -15 -14 -5 0 -6 5 -3 10 7 11 -35
30 -66 30 -10 0 -19 -6 -19 -13 0 -8 -21 -13 -67 -14 -38 -2 -108 -12 -158
-22 -50 -11 -96 -16 -104 -11 -11 6 -9 9 8 15 13 4 39 24 59 44 21 21 57 49
82 64 25 14 72 51 104 81 38 35 64 52 74 48 11 -4 14 -1 9 12 -4 11 -2 16 7
14 13 -3 43 21 98 79 16 17 36 29 43 27 7 -3 22 6 33 20 11 14 24 26 30 26 5
0 17 11 26 25 9 14 21 25 27 25 5 0 44 33 85 73 42 39 81 72 87 72 6 0 18 12
25 27 7 15 21 29 31 33 10 3 44 38 74 78 30 40 69 82 86 95 17 13 31 32 31 43
0 22 39 99 50 99 6 0 15 16 108 210 74 154 132 305 132 346 0 41 -15 20 -60
-83 -77 -177 -80 -182 -93 -177 -8 3 -18 -9 -26 -31 -7 -19 -21 -40 -31 -45
-24 -13 -71 -80 -64 -92 7 -11 -36 -88 -64 -113 -13 -11 -33 -36 -45 -56 -40
-67 -131 -179 -150 -185 -10 -3 -22 -17 -27 -30 -5 -13 -16 -24 -24 -24 -8 0
-17 -8 -20 -18 -3 -10 -29 -40 -57 -67 -29 -28 -49 -45 -45 -38 14 26 -55 -20
-80 -53 -15 -19 -29 -32 -31 -30 -3 3 7 20 22 40 32 43 65 126 65 166 0 16 4
60 10 97 31 217 33 239 20 263 l-13 24 -9 -24 -9 -25 -20 24 c-11 13 -21 22
-22 20 -1 -2 -9 -17 -17 -34 -11 -20 -24 -31 -43 -33 -16 -2 -36 -15 -49 -33
-13 -17 -28 -27 -36 -24 -7 3 -22 0 -33 -5 -20 -11 -26 -36 -9 -42 6 -2 -21
-32 -60 -66 -38 -35 -75 -60 -81 -57 -15 10 -49 -24 -49 -48 0 -27 -28 -57
-46 -50 -8 3 -14 1 -14 -5 0 -5 7 -12 15 -16 23 -9 18 -21 -15 -33 -24 -9 -30
-17 -30 -42 0 -19 6 -34 15 -37 28 -11 16 -27 -15 -21 -23 5 -32 2 -41 -14 -9
-18 -8 -20 9 -15 33 11 35 -11 6 -63 -14 -28 -24 -57 -20 -66 4 -11 -2 -19
-19 -25 -20 -8 -25 -16 -25 -45 0 -20 6 -38 13 -41 21 -8 17 -43 -6 -59 -12
-8 -34 -15 -49 -15 -15 0 -31 -6 -35 -14 -4 -8 -29 -33 -54 -55 l-47 -41 19
83 c22 99 37 361 21 371 -6 4 -9 13 -6 21 3 8 2 20 -3 27 -4 7 -8 58 -9 113
-1 74 -6 110 -19 140 l-18 40 -11 -60 c-11 -62 -35 -97 -85 -122 -29 -16 -34
-16 -25 -2 4 8 0 8 -15 0 -12 -7 -33 -30 -46 -52 -39 -61 -85 -142 -91 -161
-4 -10 -12 -18 -20 -18 -7 0 -18 -9 -24 -21 -9 -16 -8 -24 5 -39 15 -17 15
-21 1 -49 -9 -17 -17 -34 -17 -38 -1 -5 -5 -16 -11 -26 -9 -18 -10 -18 -23 0
-13 17 -14 17 -20 1 -10 -24 -1 -54 14 -50 9 2 12 -4 8 -15 -10 -35 -40 -118
-48 -135 -5 -9 -5 -39 0 -65 10 -54 8 -61 -14 -43 -13 11 -15 8 -15 -23 0 -24
6 -39 21 -48 16 -11 21 -26 22 -78 3 -112 -40 -79 -49 37 -3 37 -10 75 -16 85
-5 11 -12 51 -14 91 -6 96 -11 161 -23 286 -9 93 -8 115 9 179 10 41 24 77 31
81 6 4 9 12 5 18 -12 20 19 109 49 139 17 17 43 48 58 68 16 20 40 40 54 46
14 5 27 18 30 29 3 11 14 20 24 20 11 0 19 6 19 14 0 8 15 26 33 41 17 14 57
49 87 76 30 28 62 57 71 65 9 8 21 14 27 14 7 0 12 6 12 14 0 21 16 23 84 14
49 -7 265 -5 286 3 3 1 10 2 15 3 56 9 125 31 125 40 1 6 31 26 68 44 76 37
136 41 217 17 74 -23 245 -29 281 -10 16 8 35 15 42 15 6 0 12 4 12 9 0 11
-104 26 -119 17 -5 -4 -28 -3 -51 0 -30 5 -38 10 -30 19 5 6 7 14 4 18 -3 3 5
8 18 12 28 9 143 77 178 106 l25 20 -25 -6 c-14 -4 -35 -13 -47 -21 -12 -8
-30 -14 -40 -14 -10 0 -35 -11 -55 -25 -19 -13 -62 -28 -94 -34 -33 -5 -63
-11 -69 -12 -5 -2 -20 2 -32 9 -12 6 -28 10 -35 8 -7 -3 -33 -7 -58 -10 -61
-8 -113 -26 -123 -42 -4 -8 -15 -14 -22 -14 -8 0 -15 -4 -15 -9 0 -9 -61 -34
-90 -37 -8 -1 -33 -9 -55 -19 -31 -14 -69 -19 -165 -21 -69 -1 -134 -5 -145
-9 -11 -4 25 37 79 90 99 96 204 175 232 175 9 0 29 14 46 30 16 17 34 30 40
30 5 0 48 39 94 86 52 54 88 83 95 78 7 -4 17 0 23 8 13 18 69 48 91 48 8 0
14 3 13 8 -2 4 0 7 4 7 3 0 16 12 27 27 14 18 27 25 38 21 23 -9 43 24 43 68
0 21 5 41 10 44 6 3 10 17 10 29 0 13 7 29 15 36 17 14 20 50 5 50 -5 0 -10 8
-10 18 0 31 -57 116 -114 170 -31 29 -54 57 -51 62 8 13 -58 49 -120 65 -70
19 -68 19 -62 -6 5 -17 3 -18 -9 -8 -8 7 -28 12 -44 11 -33 -1 -38 9 -14 28
23 20 35 48 49 114 22 109 26 145 14 151 -5 4 -21 31 -35 61 -20 44 -29 54
-49 54 -15 0 -25 6 -25 14 0 17 -23 25 -65 22 -16 -1 -35 1 -40 5 -16 12 -153
20 -160 9 -3 -5 -30 -14 -60 -21 -30 -7 -55 -16 -55 -20 0 -4 -8 -5 -19 -2
-12 3 -29 -8 -54 -37 l-35 -41 -16 22 c-10 14 -12 28 -6 38 11 22 51 57 57 51
3 -3 11 3 17 12 5 9 6 21 2 25 -5 4 -11 2 -13 -4 -3 -7 -9 -13 -13 -13 -5 0 0
16 11 35 12 19 25 33 29 30 4 -3 11 7 15 22 3 15 13 32 22 38 13 10 35 60 65
155 7 19 20 46 29 60 10 14 22 48 28 75 5 28 17 77 25 110 19 74 5 97 -22 37
l-19 -41 -1 66 c-1 69 -10 91 -30 71z m-682 -1514 c0 -4 -15 -21 -33 -39 -30
-29 -61 -97 -50 -109 3 -3 16 0 30 5 31 12 30 12 34 -31 3 -28 0 -35 -13 -34
-13 1 -19 -13 -28 -70 -22 -130 -29 -158 -23 -81 3 39 11 95 19 125 17 65 17
70 4 70 -5 0 -10 -7 -10 -16 0 -8 -6 -22 -14 -30 -8 -7 -12 -22 -9 -33 8 -33
-18 -163 -39 -191 -15 -21 -17 -31 -9 -53 7 -17 18 -27 31 -27 16 0 20 -7 20
-32 l0 -32 -42 39 c-23 22 -50 49 -59 60 -9 11 -31 35 -48 54 -17 19 -33 44
-36 55 -4 12 -10 30 -15 41 -15 32 -28 125 -19 130 12 8 39 65 55 118 10 32
20 47 32 47 31 1 88 11 138 25 56 15 84 18 84 9z m768 -236 c-3 -32 -1 -34 61
-54 51 -16 106 -24 106 -14 0 1 32 3 70 4 39 2 60 1 48 -1 -13 -2 -23 -9 -23
-14 0 -5 -6 -9 -14 -9 -7 0 -21 -11 -30 -25 -9 -14 -20 -24 -24 -22 -4 1 -32
-14 -62 -33 -30 -19 -57 -34 -60 -35 -19 -3 -50 -28 -50 -40 0 -8 -8 -15 -18
-15 -10 0 -29 -12 -43 -26 -15 -16 -31 -23 -42 -20 -20 5 -67 -12 -67 -25 0
-4 -11 -10 -25 -13 -15 -4 -30 -17 -35 -31 -5 -14 -21 -30 -35 -37 -14 -6 -25
-15 -25 -20 0 -4 -6 -8 -12 -8 -7 0 -30 -16 -52 -34 -21 -19 -50 -39 -65 -46
-14 -7 -37 -18 -50 -24 -13 -6 -27 -21 -32 -34 -5 -12 -17 -25 -26 -28 -55
-18 -84 -37 -79 -50 7 -19 -48 -71 -85 -79 -30 -7 -50 -25 -27 -25 7 0 2 -6
-12 -13 -16 -8 -25 -21 -25 -37 0 -14 -8 -36 -17 -50 -18 -24 -18 -24 -18 41
0 36 3 69 7 73 4 3 8 103 9 221 2 138 7 221 14 235 7 12 9 36 7 54 -10 56 24
87 34 31 3 -13 14 -21 32 -23 19 -2 31 -11 37 -27 5 -13 21 -32 35 -41 17 -11
24 -22 20 -34 -11 -36 54 -67 82 -39 8 8 17 4 32 -12 21 -22 22 -23 50 -6 16
9 39 17 50 17 12 0 21 5 21 10 0 6 5 10 10 10 6 0 10 -7 10 -16 0 -19 31 -11
71 17 14 10 29 16 32 12 8 -8 67 17 67 28 0 5 15 25 33 44 37 40 66 119 72
197 2 28 8 54 14 58 7 3 9 14 5 23 -4 12 -1 17 10 17 12 0 15 -8 14 -32z
m-720 -123 c-3 -3 -9 2 -12 12 -6 14 -5 15 5 6 7 -7 10 -15 7 -18z m623 -52
c-12 -20 -14 -14 -5 12 4 9 9 14 11 11 3 -2 0 -13 -6 -23z m-36 -63 c-3 -5
-13 -10 -21 -10 -8 0 -12 5 -9 10 3 6 13 10 21 10 8 0 12 -4 9 -10z m-1195
-790 c0 -5 -2 -10 -4 -10 -3 0 -8 5 -11 10 -3 6 -1 10 4 10 6 0 11 -4 11 -10z
m-20 -50 c0 -5 -5 -10 -11 -10 -5 0 -7 5 -4 10 3 6 8 10 11 10 2 0 4 -4 4 -10z
m-160 -634 c0 -5 -7 -1 -15 10 -8 10 -14 24 -14 29 0 6 6 1 14 -9 8 -11 15
-24 15 -30z m1796 -57 c11 -9 18 -8 29 1 16 13 71 5 81 -12 4 -7 -4 -8 -25 -3
-18 4 -37 2 -44 -3 -9 -8 -99 -25 -127 -25 -3 1 -24 -5 -48 -12 -23 -7 -44 -9
-47 -5 -7 11 -48 0 -58 -17 -4 -7 -17 -13 -27 -13 -24 0 -90 -31 -90 -42 0 -4
-8 -8 -17 -8 -10 0 -36 -12 -58 -25 -22 -14 -47 -25 -56 -25 -8 0 -29 -16 -46
-35 -17 -19 -34 -35 -37 -35 -13 0 -4 17 24 48 17 18 30 38 30 44 0 19 42 58
62 58 24 0 75 26 80 40 2 6 21 13 42 15 21 2 42 8 45 14 12 19 85 38 127 33
23 -2 44 0 47 5 9 14 97 15 113 2z m-1449 -121 c-3 -8 -6 -5 -6 6 -1 11 2 17
5 13 3 -3 4 -12 1 -19z m-316 -225 c13 -16 12 -17 -3 -4 -10 7 -18 15 -18 17
0 8 8 3 21 -13z m89 -68 c10 -12 9 -15 -8 -15 -11 0 -25 7 -32 15 -10 12 -9
15 8 15 11 0 25 -7 32 -15z m55 -65 c3 -5 1 -10 -4 -10 -6 0 -11 5 -11 10 0 6
2 10 4 10 3 0 8 -4 11 -10z m239 -89 c-8 -8 -24 54 -18 68 5 11 9 3 14 -24 5
-22 6 -42 4 -44z m-174 28 c0 -4 -7 -6 -15 -3 -8 4 -15 10 -15 15 0 4 7 6 15
3 8 -4 15 -10 15 -15z m234 -48 c-6 -6 -24 19 -24 34 1 6 7 1 15 -9 8 -11 12
-22 9 -25z m38 -53 c2 -12 13 -28 25 -34 33 -16 63 -45 63 -61 0 -7 4 -13 9
-13 13 0 165 -158 173 -181 4 -10 14 -19 23 -19 20 0 85 -51 85 -67 0 -6 5
-15 12 -19 7 -5 8 -2 3 7 -4 8 2 4 15 -7 12 -12 20 -29 18 -38 -3 -15 -8 -13
-38 9 -19 15 -48 33 -65 41 -46 22 -74 39 -98 60 -12 11 -38 30 -57 44 -70 48
-179 169 -214 237 -20 41 -20 43 4 43 11 0 20 5 20 10 0 20 19 9 22 -12z
m3198 -51 c0 -2 -10 -12 -22 -23 l-23 -19 19 23 c18 21 26 27 26 19z m-3320
-57 c0 -5 -2 -10 -4 -10 -3 0 -8 5 -11 10 -3 6 -1 10 4 10 6 0 11 -4 11 -10z
m680 -320 c0 -5 -2 -10 -4 -10 -3 0 -8 5 -11 10 -3 6 -1 10 4 10 6 0 11 -4 11
-10z m146 -178 c-20 -4 -56 25 -56 45 0 9 12 5 37 -14 28 -22 33 -29 19 -31z
m334 -102 c0 -5 -7 -10 -16 -10 -8 0 -12 5 -9 10 3 6 10 10 16 10 5 0 9 -4 9
-10z"/>
<path d="M1620 4546 c0 -9 7 -16 16 -16 9 0 14 5 12 12 -6 18 -28 21 -28 4z"/>
<path d="M3650 6490 c0 -5 5 -10 10 -10 6 0 10 5 10 10 0 6 -4 10 -10 10 -5 0
-10 -4 -10 -10z"/>
<path d="M3291 6479 c-17 -7 -22 -15 -18 -29 3 -11 1 -23 -4 -26 -5 -3 -9 2
-9 11 0 10 -7 15 -17 13 -23 -4 -28 -25 -6 -31 15 -4 15 -5 2 -6 -17 -1 -33
-34 -29 -61 2 -17 20 -31 32 -24 16 10 30 -7 18 -21 -7 -8 -9 -18 -6 -24 7
-10 46 -3 46 9 0 12 39 19 46 9 10 -18 45 -9 53 14 7 18 4 24 -20 36 -16 8
-29 19 -29 24 0 6 3 7 7 4 3 -4 12 -2 20 4 9 8 13 8 13 1 0 -6 12 -9 28 -8 27
3 40 31 14 31 -8 0 -20 9 -28 19 -12 17 -14 18 -14 3 0 -9 -5 -17 -11 -17 -7
0 -9 10 -6 25 3 18 -2 30 -17 40 -23 17 -32 18 -65 4z"/>
<path d="M4313 6442 c-6 -4 -13 -18 -14 -32 -3 -19 1 -26 16 -28 16 -2 20 4
22 27 2 32 -6 44 -24 33z"/>
<path d="M4353 6438 c2 -7 10 -13 17 -13 7 0 15 6 18 13 2 7 -5 12 -18 12 -13
0 -20 -5 -17 -12z"/>
<path d="M4107 6423 c-12 -11 -8 -21 13 -26 22 -6 23 -5 14 17 -7 17 -16 20
-27 9z"/>
<path d="M3511 6391 c-19 -14 -22 -22 -13 -36 7 -14 5 -24 -13 -43 -13 -14
-26 -41 -30 -61 -4 -20 -18 -51 -32 -70 -25 -33 -25 -34 -8 -47 16 -12 16 -14
3 -14 -18 0 -42 -56 -28 -65 15 -9 0 -35 -20 -35 -12 0 -22 -13 -31 -45 -11
-38 -17 -44 -33 -39 -55 18 -85 36 -101 61 -19 30 -109 117 -155 152 -24 17
-33 19 -66 9 -22 -5 -43 -16 -47 -24 -5 -9 -17 -12 -32 -8 -20 5 -27 1 -37
-22 -7 -16 -15 -31 -18 -34 -3 -3 -14 -20 -24 -39 -15 -27 -16 -33 -4 -29 10
4 8 -8 -11 -46 -13 -29 -31 -53 -38 -53 -7 0 -13 4 -13 9 0 4 -6 8 -13 8 -8 0
-13 -15 -14 -40 -2 -32 2 -40 16 -40 9 0 22 5 29 12 7 7 12 8 12 2 0 -6 -3
-14 -7 -17 -11 -11 -10 -91 1 -99 7 -5 6 -11 -4 -17 -12 -8 -12 -12 3 -29 9
-10 14 -21 11 -25 -4 -3 3 -26 15 -50 11 -24 21 -49 21 -55 0 -7 5 -12 11 -12
5 0 8 -4 5 -9 -3 -4 19 -33 49 -63 50 -50 74 -85 43 -61 -20 15 -48 23 -48 14
0 -5 18 -16 40 -25 26 -10 45 -27 56 -48 9 -18 32 -52 50 -75 19 -23 34 -45
34 -48 0 -17 -68 -81 -81 -77 -8 3 -4 -5 9 -17 l22 -22 30 21 c17 12 30 26 30
31 0 15 38 -13 43 -32 3 -9 1 -23 -4 -30 -5 -9 2 -23 22 -41 30 -28 66 -36 85
-19 12 11 156 61 176 61 8 0 29 7 47 16 17 9 39 13 48 10 8 -4 31 3 50 14 19
11 42 20 51 20 19 0 72 49 72 67 0 7 10 13 23 13 12 0 33 7 45 16 19 13 22 23
19 55 -2 22 -7 42 -10 46 -4 3 1 12 10 19 16 11 16 14 -7 33 -14 11 -38 21
-55 21 -16 0 -36 4 -44 9 -20 13 -18 88 2 104 24 18 50 104 43 141 -3 18 -13
42 -22 55 -22 30 -111 87 -152 95 -18 4 -37 16 -42 26 -6 11 -26 22 -44 26
-45 8 -51 28 -25 71 12 19 23 42 24 51 3 32 16 50 33 45 10 -2 34 12 60 36 34
32 47 39 61 31 10 -5 26 -7 37 -5 10 2 57 6 104 9 47 3 111 12 143 21 32 8 69
15 82 15 13 0 27 5 31 11 3 6 15 9 25 6 11 -3 22 1 27 8 9 15 68 46 75 39 3
-3 20 11 39 30 19 20 41 36 48 36 6 0 10 6 7 13 -4 10 2 13 18 9 23 -4 23 -5
8 -28 -14 -22 -14 -24 1 -18 12 5 15 2 10 -10 -7 -19 17 -22 46 -6 16 8 18 7
14 -4 -4 -10 2 -14 18 -13 13 0 30 -2 38 -4 8 -2 14 1 15 6 1 17 19 41 40 54
14 8 15 11 3 7 -9 -3 -18 -2 -20 2 -2 4 -22 17 -45 30 -32 17 -47 20 -66 13
-22 -8 -28 -6 -41 14 -9 13 -16 30 -17 37 0 7 -5 1 -10 -13 -9 -25 -12 -26
-47 -17 -78 19 -92 20 -98 4 -3 -9 -10 -13 -15 -10 -12 7 -39 -14 -39 -32 0
-7 9 -15 19 -19 18 -5 18 -8 4 -36 -11 -23 -19 -28 -35 -23 -11 3 -27 0 -36
-9 -9 -8 -39 -18 -67 -21 -27 -4 -61 -11 -75 -16 -34 -12 -160 -18 -160 -7 0
4 15 14 33 22 17 7 52 32 77 55 25 23 55 46 68 51 27 11 30 39 3 32 -10 -3
-22 0 -25 6 -9 14 -78 -21 -122 -62 -77 -73 -96 -87 -112 -87 -9 0 -30 -14
-46 -30 -35 -36 -57 -26 -38 15 7 14 12 34 12 43 0 9 7 30 15 46 16 30 20 101
7 110 -4 2 -18 -4 -31 -13z m622 -101 c4 -16 0 -20 -18 -20 -25 0 -42 26 -22
34 24 9 35 6 40 -14z"/>
<path d="M4036 6403 c-11 -11 -6 -23 9 -23 8 0 15 4 15 9 0 13 -16 22 -24 14z"/>
<path d="M2455 6350 c-3 -5 -24 -10 -46 -10 -22 0 -49 -5 -60 -11 -11 -6 -30
-12 -41 -14 -28 -6 -36 -15 -13 -15 14 0 8 -10 -24 -41 -37 -37 -39 -41 -21
-46 11 -3 20 -8 20 -12 0 -3 9 -12 20 -19 16 -10 29 -10 61 -1 35 11 41 10 52
-5 9 -12 26 -18 53 -18 21 0 42 -5 45 -10 4 -6 15 -2 28 11 11 11 26 21 31 21
6 0 10 4 10 10 0 10 -60 45 -72 42 -5 -1 -8 3 -8 8 0 6 8 10 18 10 13 1 12 3
-6 13 l-23 13 21 19 c27 24 25 39 -5 53 -31 14 -32 15 -40 2z"/>
<path d="M4537 6283 c-4 -3 -7 -16 -7 -27 0 -19 -6 -21 -45 -21 -28 0 -45 5
-45 12 0 6 -5 15 -11 19 -8 4 -9 0 -4 -15 4 -13 2 -21 -5 -21 -6 0 -15 -11
-20 -24 -8 -22 -12 -23 -52 -15 -24 4 -50 9 -58 9 -10 1 -11 3 -3 7 10 3 9 8
-2 19 -15 16 -69 9 -59 -7 3 -5 0 -9 -6 -9 -6 0 -8 -4 -5 -10 4 -6 -6 -7 -26
-3 l-31 6 16 -31 c9 -17 21 -34 26 -37 8 -5 8 -11 0 -20 -7 -9 -6 -16 5 -25 8
-7 15 -21 15 -31 0 -11 13 -25 33 -35 32 -16 77 -60 77 -76 0 -9 34 -11 43 -2
3 4 2 15 -4 25 -7 14 -6 17 5 13 8 -3 16 -14 19 -25 5 -20 31 -26 41 -10 3 5
14 7 24 4 16 -4 19 2 20 36 2 39 -11 61 -23 41 -8 -13 -45 -13 -45 0 0 11 83
51 114 55 50 5 86 17 80 26 -3 6 -13 8 -21 5 -11 -5 -13 -2 -9 10 3 8 6 18 6
20 0 10 39 3 43 -8 4 -9 6 -9 6 -1 1 6 -10 20 -24 31 -29 23 -37 89 -10 78 9
-3 15 0 15 10 0 11 -6 13 -20 9 -15 -5 -18 -3 -14 9 4 11 0 16 -13 16 -11 0
-23 -3 -26 -7z m-50 -130 c3 -7 -8 -11 -26 -11 -34 1 -42 14 -13 21 23 6 35 3
39 -10z m57 -31 c-8 -2 -21 3 -29 12 -13 13 -13 15 3 18 22 5 48 -25 26 -30z
m-281 -43 c3 -13 1 -19 -6 -16 -15 5 -22 37 -9 37 5 0 12 -9 15 -21z m41 -14
c-4 -8 -10 -15 -15 -15 -4 0 -6 7 -3 15 4 8 10 15 15 15 4 0 6 -7 3 -15z m89
-32 c-7 -2 -21 -2 -30 0 -10 3 -4 5 12 5 17 0 24 -2 18 -5z"/>
<path d="M4356 6212 c-2 -4 4 -9 15 -9 11 -1 17 2 14 8 -7 11 -22 12 -29 1z"/>
<path d="M4110 6130 c0 -5 7 -7 15 -4 8 4 15 8 15 10 0 2 -7 4 -15 4 -8 0 -15
-4 -15 -10z"/>
<path d="M4135 6100 c-3 -5 -2 -10 4 -10 5 0 13 5 16 10 3 6 2 10 -4 10 -5 0
-13 -4 -16 -10z"/>
<path d="M3992 6088 c-20 -20 -14 -45 12 -50 34 -7 47 9 34 38 -12 26 -28 30
-46 12z"/>
<path d="M3825 6051 c-3 -6 3 -14 12 -20 15 -9 13 -10 -12 -11 -45 0 -75 -11
-75 -26 0 -7 -9 -18 -20 -24 -28 -15 -11 -45 38 -68 42 -19 62 -36 62 -51 0
-16 48 -25 65 -11 8 6 19 9 25 5 5 -3 13 1 16 9 3 9 10 13 16 10 5 -3 20 -3
34 0 18 5 24 12 20 24 -2 9 -7 26 -10 37 -4 15 2 25 24 40 17 11 30 23 30 27
0 4 -19 12 -42 19 -24 6 -53 16 -64 21 -12 6 -36 7 -53 3 -23 -5 -32 -3 -37 9
-7 18 -20 21 -29 7z"/>
<path d="M4216 6011 c-4 -5 -2 -12 3 -15 5 -4 12 -2 15 3 4 5 2 12 -3 15 -5 4
-12 2 -15 -3z"/>
<path d="M4500 5970 c0 -6 7 -10 15 -10 8 0 15 2 15 4 0 2 -7 6 -15 10 -8 3
-15 1 -15 -4z"/>
<path d="M3795 5860 c3 -5 11 -10 16 -10 6 0 7 5 4 10 -3 6 -11 10 -16 10 -6
0 -7 -4 -4 -10z"/>
<path d="M2710 5820 c0 -5 5 -10 10 -10 6 0 10 5 10 10 0 6 -4 10 -10 10 -5 0
-10 -4 -10 -10z"/>
<path d="M2790 5570 c0 -5 5 -10 10 -10 6 0 10 5 10 10 0 6 -4 10 -10 10 -5 0
-10 -4 -10 -10z"/>
<path d="M740 5217 c0 -23 11 -47 22 -47 14 0 5 53 -9 58 -7 2 -13 -3 -13 -11z"/>
<path d="M6038 4985 c-10 -23 -87 -75 -111 -75 -5 0 -26 -12 -46 -27 -20 -16
-39 -27 -42 -26 -4 1 -17 -9 -29 -22 -13 -14 -29 -25 -35 -25 -6 0 -27 -18
-48 -40 -20 -22 -43 -40 -50 -40 -21 0 -101 -100 -103 -129 -3 -38 -27 -78
-44 -74 -13 4 -13 3 -1 -5 12 -9 12 -14 -3 -37 -9 -14 -24 -29 -32 -32 -8 -3
-14 -9 -14 -14 0 -4 7 -6 15 -3 11 5 13 2 9 -10 -3 -9 -12 -16 -20 -16 -7 0
-21 -11 -30 -25 -14 -21 -15 -31 -5 -51 16 -36 14 -52 -9 -59 -27 -9 -50 -56
-36 -78 8 -13 5 -22 -16 -44 -26 -29 -42 -80 -26 -85 16 -6 -4 -89 -28 -118
-25 -30 -31 -55 -14 -65 7 -4 5 -14 -4 -27 -11 -15 -12 -26 -5 -40 13 -24 0
-48 -13 -24 -14 25 -35 19 -41 -11 -6 -34 -2 -42 29 -54 l25 -9 -2 -140 c-1
-83 2 -144 8 -152 6 -7 13 -28 15 -47 4 -27 1 -35 -14 -39 -27 -7 -21 -72 7
-72 7 0 18 -12 24 -27 6 -16 20 -45 32 -65 19 -35 20 -40 6 -68 -9 -16 -14
-30 -12 -30 16 0 55 22 55 30 0 16 38 53 56 56 9 1 24 10 34 19 16 15 17 14
13 -12 -5 -25 -1 -23 43 26 83 92 218 226 246 245 15 10 30 27 34 39 4 12 30
49 58 83 28 33 67 83 86 112 19 29 40 52 45 52 19 0 66 99 80 167 7 38 23 100
34 138 12 39 22 93 22 120 0 86 29 267 60 372 18 59 8 253 -12 253 -5 0 -9 12
-9 28 0 43 -6 74 -20 115 -14 36 -30 49 -30 25 -1 -7 -7 1 -14 18 -16 36 -36
53 -36 30 0 -20 -9 -20 -34 -1 -27 21 -35 19 -48 -10z m-634 -1150 c3 -9 -3
-19 -14 -25 -21 -11 -25 -4 -14 24 8 20 20 21 28 1z m546 -89 c0 -8 -4 -17 -8
-20 -4 -2 -8 4 -8 15 0 10 4 19 8 19 4 0 8 -6 8 -14z m-46 -71 c-9 -14 -19
-23 -22 -20 -5 4 26 45 35 45 2 0 -4 -11 -13 -25z m-274 -64 c0 -6 -4 -12 -8
-15 -5 -3 -9 1 -9 9 0 8 4 15 9 15 4 0 8 -4 8 -9z m-40 -52 c0 -5 -4 -9 -10
-9 -5 0 -10 7 -10 16 0 8 5 12 10 9 6 -3 10 -10 10 -16z"/>
<path d="M1063 4950 c-26 -10 -30 -25 -9 -33 7 -3 20 3 30 14 26 31 20 36 -21
19z"/>
<path d="M999 4943 c-1 -4 -1 -11 -1 -14 1 -4 -9 -6 -22 -5 -13 0 -22 4 -19 9
2 4 -4 7 -14 7 -12 0 -19 -8 -20 -20 -1 -11 2 -20 8 -20 5 0 8 -10 6 -22 -2
-20 3 -22 41 -23 23 0 42 4 42 9 0 4 20 5 45 2 29 -5 45 -3 45 3 0 12 -52 41
-73 41 -8 0 -14 7 -13 16 1 17 -23 33 -25 17z"/>
<path d="M3226 4935 c-11 -8 -31 -13 -46 -10 -18 3 -35 -2 -49 -14 -21 -18
-21 -20 -4 -31 15 -9 13 -10 -14 -6 -28 5 -35 1 -50 -24 -9 -17 -25 -30 -35
-30 -10 0 -18 -7 -18 -15 0 -9 6 -15 13 -14 32 4 47 -2 47 -20 0 -10 9 -21 19
-24 12 -3 18 0 15 7 -3 7 11 12 37 13 36 1 38 0 22 -12 -30 -23 -3 -39 33 -20
16 8 37 15 46 15 10 0 32 9 49 19 l31 19 -31 7 c-26 6 -29 9 -21 25 6 11 26
21 50 25 41 7 56 25 20 25 -26 0 -71 21 -65 30 3 5 -3 17 -13 29 -15 18 -19
19 -36 6z m-116 -95 c0 -5 -7 -7 -15 -4 -8 4 -15 8 -15 10 0 2 7 4 15 4 8 0
15 -4 15 -10z m70 0 c0 -5 -4 -10 -10 -10 -5 0 -10 5 -10 10 0 6 5 10 10 10 6
0 10 -4 10 -10z"/>
<path d="M1010 4830 c0 -5 5 -10 10 -10 6 0 10 5 10 10 0 6 -4 10 -10 10 -5 0
-10 -4 -10 -10z"/>
<path d="M8041 4748 c-5 -13 -28 -38 -50 -56 -49 -40 -66 -74 -50 -104 10 -19
8 -20 -48 -17 -42 3 -57 0 -55 -9 1 -7 -8 -12 -20 -12 -18 0 -20 2 -8 10 28
18 0 22 -80 11 -87 -11 -165 -40 -218 -79 -29 -22 -32 -29 -26 -58 3 -19 7
-63 8 -98 1 -54 5 -68 25 -85 13 -12 29 -21 35 -22 6 0 20 -3 31 -5 65 -14
152 -20 168 -12 9 5 34 6 55 3 64 -11 68 -14 44 -31 -12 -8 -22 -24 -22 -34 0
-10 -5 -22 -11 -26 -6 -3 -8 -16 -4 -28 13 -42 12 -105 -2 -110 -18 -7 -16
-30 5 -49 22 -20 49 -22 55 -4 3 9 7 9 20 -1 26 -22 112 -17 152 8 19 12 35
29 35 37 0 19 29 42 53 43 20 0 23 16 5 23 -7 3 -1 6 15 6 21 1 27 -4 27 -19
0 -22 20 -26 38 -8 8 8 12 9 12 1 0 -6 3 -18 6 -26 4 -11 -1 -13 -22 -9 -24 4
-26 3 -19 -19 11 -36 18 -44 40 -44 21 0 27 -18 40 -128 5 -38 10 -47 22 -43
12 5 14 2 8 -16 -4 -13 -9 -44 -12 -69 -4 -37 -1 -49 14 -60 22 -17 26 -70 4
-66 -9 1 -17 -6 -19 -15 -2 -11 3 -18 11 -18 12 0 13 -9 5 -52 -5 -29 -11 -54
-13 -56 -1 -2 -13 17 -25 42 -12 26 -26 46 -31 46 -5 0 -9 7 -9 15 0 8 -4 15
-8 15 -5 0 -15 12 -23 28 -7 15 -32 52 -55 83 -43 57 -53 88 -57 174 -5 76
-57 159 -57 90 0 -18 -5 -25 -20 -25 -26 0 -32 -17 -22 -55 6 -19 15 -29 24
-27 11 1 17 -8 20 -28 6 -37 -25 -66 -67 -65 -31 2 -40 13 -50 59 -4 21 -9 26
-14 17 -6 -9 -12 -4 -22 18 -8 17 -17 31 -21 31 -12 0 -9 -33 6 -60 10 -17 11
-30 4 -43 -10 -20 6 -49 26 -45 6 1 25 -10 41 -24 87 -76 129 -110 155 -123
16 -8 35 -27 42 -42 7 -16 20 -29 28 -29 8 -1 19 -2 23 -3 4 0 -1 -11 -13 -23
-11 -12 -20 -28 -20 -35 0 -17 -37 -17 -43 0 -4 9 -6 9 -6 -1 -1 -7 -13 -31
-28 -55 -14 -23 -36 -65 -48 -94 -16 -41 -42 -72 -118 -143 -54 -50 -102 -88
-108 -84 -17 10 -49 -27 -47 -56 1 -17 -11 -44 -34 -76 -19 -27 -43 -64 -53
-83 -16 -32 -19 -33 -30 -17 -7 9 -16 13 -19 8 -3 -5 -3 -12 1 -15 3 -4 7 -22
9 -41 2 -29 0 -35 -19 -38 -24 -3 -35 -41 -18 -62 7 -8 5 -21 -9 -44 -11 -18
-20 -42 -20 -53 0 -11 -6 -27 -14 -35 -8 -8 -12 -23 -8 -36 5 -20 3 -21 -10
-11 -11 10 -17 10 -26 1 -16 -16 -15 -68 0 -68 9 0 9 -3 0 -12 -18 -18 -15
-75 6 -87 16 -10 16 -10 -2 -11 -15 0 -17 -5 -13 -29 3 -16 4 -31 1 -34 -11
-11 -33 5 -27 19 4 10 -3 14 -21 14 -17 0 -26 -5 -26 -16 0 -12 -3 -14 -13 -6
-10 9 -58 13 -149 13 -10 0 -17 6 -15 12 3 15 -44 22 -52 8 -11 -17 -78 8 -89
34 -9 19 -20 23 -89 28 -43 3 -92 13 -109 21 -32 16 -191 36 -251 31 -18 -2
-37 3 -44 11 -15 18 -48 18 -69 -1 -20 -18 -136 -28 -160 -13 -21 13 -53 3
-47 -15 2 -8 23 -11 68 -9 46 2 70 -1 84 -12 19 -15 18 -15 -17 -16 -20 0 -48
4 -63 10 -19 7 -34 6 -53 -3 -31 -16 -82 -13 -92 4 -8 13 -30 4 -30 -12 0 -6
4 -8 9 -5 8 6 59 -11 107 -35 13 -7 48 -8 90 -4 87 8 110 8 134 -5 22 -12 76
-12 105 -1 12 5 33 2 53 -6 22 -9 49 -12 77 -8 27 5 45 3 50 -4 3 -6 10 -9 15
-6 4 3 13 -2 20 -10 7 -8 23 -15 36 -15 12 0 26 -5 29 -11 4 -6 14 -8 22 -5 8
3 25 -1 39 -10 13 -9 24 -13 24 -9 0 5 8 1 18 -7 9 -8 44 -25 77 -38 33 -13
70 -30 82 -38 12 -7 29 -15 38 -16 9 -1 20 -7 23 -12 4 -6 16 -14 27 -19 18
-7 18 -9 3 -12 -22 -5 -23 -19 -2 -27 27 -11 36 -7 29 14 -6 19 -4 19 20 8 17
-8 22 -15 15 -22 -15 -15 -12 -23 11 -29 12 -3 22 0 26 9 8 21 31 17 38 -6 7
-23 54 -38 64 -21 5 8 22 9 57 2 27 -5 82 -12 122 -16 39 -4 72 -11 72 -16 0
-5 7 -9 15 -9 8 0 15 5 15 10 0 6 80 10 220 10 121 0 220 -4 220 -8 0 -4 -6
-14 -12 -20 -10 -10 -10 -17 0 -32 6 -11 12 -29 12 -40 0 -10 9 -24 20 -30 11
-6 20 -17 20 -25 0 -15 34 -30 49 -21 11 7 34 -20 27 -32 -3 -6 1 -15 9 -22 8
-7 15 -19 15 -26 0 -8 9 -14 21 -14 19 0 77 -33 90 -52 12 -18 208 -118 230
-118 8 0 7 -6 -2 -16 -10 -13 -10 -17 2 -25 23 -15 52 -11 45 6 -3 8 -3 15 0
15 10 0 34 -28 34 -39 0 -12 26 -13 54 -2 12 4 31 2 47 -6 34 -17 146 -36 160
-27 5 3 26 -3 47 -13 32 -16 60 -19 198 -18 140 0 165 2 197 20 20 11 37 25
37 32 0 7 5 13 10 13 6 0 10 5 10 10 0 6 -7 10 -15 10 -8 0 -29 9 -47 20 -18
11 -50 20 -71 20 -24 0 -40 5 -43 15 -4 8 -11 15 -18 15 -6 0 -22 16 -35 36
-14 19 -37 42 -52 50 -34 17 -97 104 -76 104 7 0 24 11 37 25 21 22 21 25 5
31 -9 4 -20 2 -25 -6 -5 -8 -9 -9 -14 -1 -4 6 -16 11 -27 11 -10 0 -24 9 -31
20 -7 12 -32 32 -56 46 -23 14 -40 30 -36 35 3 6 -9 25 -27 44 -19 18 -53 55
-76 83 -41 48 -77 69 -89 51 -3 -5 -10 -9 -16 -9 -6 0 -4 8 5 18 10 10 17 23
17 28 0 11 83 54 105 54 8 0 18 6 22 13 13 21 72 59 82 53 5 -4 22 5 38 18 15
13 39 27 53 31 14 4 27 11 30 14 3 4 32 20 65 36 33 17 65 36 73 43 7 6 18 12
23 12 6 0 24 13 41 30 16 17 35 30 41 30 13 0 127 113 127 125 0 4 -7 2 -15
-5 -8 -6 -19 -9 -25 -5 -6 4 -9 2 -8 -3 3 -11 -66 -62 -83 -62 -17 0 -4 24 18
35 12 6 62 51 112 100 50 49 99 94 110 100 11 5 38 34 61 63 23 28 46 52 51
52 5 0 9 6 9 13 1 6 25 38 54 71 l54 59 43 -24 c24 -13 49 -31 56 -40 7 -9 33
-19 60 -22 85 -10 138 -19 153 -24 33 -12 146 -10 175 2 142 62 150 66 133 76
-31 17 -20 29 28 29 35 0 47 4 50 18 3 9 24 25 46 34 23 10 39 20 37 22 -6 6
-99 18 -153 20 -25 1 -41 7 -44 17 -7 21 -34 49 -43 44 -4 -3 -11 0 -15 6 -3
6 -1 15 6 19 11 7 -50 21 -105 25 -49 4 -56 6 -50 15 3 6 -1 7 -9 4 -9 -3 -16
-1 -16 5 0 6 -7 11 -16 11 -8 0 -12 -4 -9 -10 11 -18 -10 -11 -34 11 -17 16
-20 24 -10 35 6 7 15 11 20 9 4 -3 11 1 16 8 4 8 21 22 36 32 34 22 28 31 -12
17 -16 -6 -32 -8 -35 -5 -9 9 18 30 34 26 8 -2 35 14 59 36 25 23 48 41 52 41
5 0 31 14 59 30 28 17 62 30 75 30 13 0 30 8 37 18 7 10 28 24 46 31 17 7 32
17 32 22 0 5 8 9 18 9 10 0 27 7 38 15 22 17 20 17 -71 5 -95 -12 -179 -41
-265 -89 -39 -23 -76 -38 -82 -35 -6 4 -14 1 -18 -5 -4 -7 -16 -14 -26 -16
-10 -2 -20 -4 -21 -5 -4 -3 -20 -7 -34 -9 -5 0 -7 -5 -4 -11 3 -5 0 -7 -9 -4
-8 3 -23 -3 -34 -14 -11 -11 -22 -18 -25 -16 -2 2 -20 -12 -40 -31 -26 -26
-45 -35 -69 -35 -42 0 -108 -43 -108 -70 0 -11 -3 -19 -7 -19 -5 1 -22 1 -40
0 -27 -1 -40 -12 -93 -80 -59 -77 -155 -161 -183 -161 -23 0 -56 -38 -50 -58
3 -13 -6 -28 -27 -45 -43 -37 -61 -36 -40 1 5 9 19 53 31 97 11 44 32 114 45
155 13 41 27 100 30 130 3 30 10 71 16 91 8 30 7 41 -7 62 -9 14 -16 36 -15
49 4 48 -1 66 -25 92 -14 15 -32 40 -40 57 -9 16 -20 29 -25 29 -6 0 -10 6
-10 13 0 7 -19 27 -41 45 l-42 31 33 18 c18 10 41 26 52 36 10 9 24 17 31 17
6 1 30 17 52 36 22 20 32 34 23 30 -28 -9 -21 10 11 31 16 10 44 37 60 61 23
30 38 42 56 42 51 0 57 103 9 135 -20 13 -32 14 -61 6 -32 -9 -40 -8 -56 10
-10 11 -25 18 -32 15 -28 -10 -36 19 -19 66 17 44 17 45 -6 71 -16 19 -30 25
-43 21 -11 -3 -26 1 -37 11 -10 9 -27 16 -37 14 -30 -3 -84 13 -90 27 -3 8 -9
11 -14 8 -5 -3 -9 2 -9 10 0 9 -6 16 -13 16 -8 0 -20 11 -27 25 -7 13 -21 27
-30 30 -10 3 -25 14 -35 25 -21 23 -55 27 -55 7 0 -18 -47 -40 -52 -25 -5 14
-46 -11 -53 -33 -3 -9 -14 -19 -25 -22 -11 -3 -24 -16 -29 -30 -6 -14 -18 -30
-27 -35 -15 -9 -16 -13 -5 -26 11 -14 11 -16 -2 -16 -9 0 -14 -6 -12 -12 3 -7
-6 -35 -20 -62 -14 -27 -25 -60 -25 -73 0 -14 -5 -23 -12 -21 -7 2 -14 -2 -14
-7 -1 -6 2 -9 7 -8 16 5 9 -15 -8 -21 -12 -5 -13 -10 -5 -18 6 -6 8 -24 5 -39
-5 -25 -2 -29 16 -29 11 0 21 -4 21 -10 0 -5 -4 -10 -9 -10 -5 0 -12 -12 -15
-26 -5 -19 -11 -24 -24 -19 -9 4 -21 7 -27 6 -5 -1 -23 -3 -40 -5 -55 -5 -105
-29 -152 -73 -7 -6 -18 -13 -24 -15 -7 -2 -13 -14 -14 -26 -1 -12 -9 -30 -19
-41 -21 -23 -14 -56 9 -47 9 3 19 -3 25 -14 6 -11 17 -20 24 -20 8 0 19 -7 26
-15 7 -8 15 -13 19 -10 4 2 20 -5 36 -15 20 -13 34 -16 46 -9 11 6 20 5 24 -1
3 -5 1 -10 -4 -10 -6 0 -11 -4 -11 -10 0 -5 7 -10 15 -10 8 0 15 5 15 10 0 20
37 9 50 -15 7 -14 17 -25 22 -25 5 0 6 5 3 10 -4 6 11 10 39 10 26 0 46 -5 49
-12 3 -10 12 -8 36 5 37 21 42 5 6 -19 -14 -9 -25 -25 -25 -35 0 -26 -55 -101
-86 -117 -13 -7 -24 -19 -24 -28 0 -14 -116 -175 -160 -222 -12 -13 -28 -21
-35 -18 -18 7 -37 -18 -29 -38 7 -18 -70 -116 -91 -116 -21 0 -45 -29 -45 -54
0 -12 -16 -37 -35 -56 -36 -35 -43 -31 -24 17 7 15 14 57 16 93 7 130 9 145
16 158 5 6 8 36 8 64 0 29 2 82 4 118 2 36 4 184 5 330 1 201 -2 278 -13 318
-8 28 -12 52 -9 52 2 0 19 -9 36 -20 35 -21 44 -22 131 -22 70 1 115 15 115
37 0 8 4 15 8 15 12 0 32 46 32 74 0 13 -7 29 -15 36 -9 7 -14 19 -11 26 5 13
-19 37 -75 74 -56 36 -65 57 -39 85 20 21 20 24 4 33 -21 11 -10 32 17 32 20
0 26 24 8 35 -6 4 -8 14 -5 22 8 19 -24 73 -42 73 -8 0 -21 9 -30 20 -17 20
-19 20 -112 4 -52 -9 -103 -20 -112 -25 -13 -7 -25 1 -55 36 -20 25 -42 45
-48 45 -14 0 -50 39 -58 63 -4 9 -13 17 -20 17 -8 0 -24 9 -37 20 -31 27 -68
26 -79 -2z m251 -638 c13 0 33 -7 44 -15 10 -8 29 -15 41 -15 18 0 23 -8 29
-45 7 -48 -1 -70 -16 -45 -30 54 -55 90 -61 90 -4 0 -15 -16 -24 -36 -17 -36
-17 -69 0 -151 11 -52 -26 37 -46 112 -21 78 -33 95 -51 77 -16 -16 -28 -15
-28 3 0 8 6 15 14 15 7 0 19 7 26 15 9 11 17 12 30 5 10 -6 29 -10 42 -10z
m913 -436 c-9 -9 -14 -25 -12 -36 4 -13 0 -18 -10 -16 -10 2 -20 -8 -25 -25
-8 -22 -6 -32 8 -48 16 -18 16 -20 -1 -39 -14 -15 -15 -23 -6 -34 9 -11 4 -20
-26 -47 -34 -30 -38 -38 -39 -86 -2 -62 -17 -85 -49 -77 -13 3 -26 1 -29 -5
-4 -6 -13 -11 -21 -11 -11 0 -11 6 3 33 9 17 23 36 30 40 6 4 12 13 12 19 0 6
7 19 16 29 28 31 11 43 -22 15 -17 -14 -34 -23 -37 -19 -4 3 -11 -7 -17 -22
-6 -15 -19 -29 -30 -32 -11 -3 -20 -11 -20 -19 0 -16 -38 -39 -65 -39 -14 0
-20 -7 -20 -22 0 -12 -10 -30 -22 -38 -32 -22 -29 -7 12 65 19 34 35 68 35 76
0 8 4 14 9 14 11 0 54 71 47 78 -3 2 15 46 40 96 25 50 49 98 53 105 4 8 21
19 37 24 82 25 159 44 163 41 2 -2 -4 -11 -14 -20z m-1090 -64 c3 -6 -1 -7 -9
-4 -18 7 -21 14 -7 14 6 0 13 -4 16 -10z m139 -246 c9 -3 16 -15 16 -26 0 -11
5 -28 11 -39 14 -26 1 -112 -16 -105 -15 5 -35 -12 -35 -31 0 -7 12 -23 26
-36 31 -29 27 -72 -6 -62 -23 7 -34 -20 -15 -39 11 -10 12 -22 5 -47 -14 -49
-13 -69 4 -63 11 4 13 0 9 -15 -3 -12 -11 -21 -19 -21 -7 0 -20 -12 -27 -27
l-15 -27 -7 32 c-7 36 2 111 17 129 5 6 7 40 4 76 -3 35 -2 67 1 71 4 3 7 50
8 104 2 84 9 132 20 132 2 0 10 -3 19 -6z m1656 -93 c0 -5 -7 -11 -14 -14 -10
-4 -13 -1 -9 9 6 15 23 19 23 5z m-820 -46 c9 6 11 4 6 -4 -5 -7 -14 -10 -22
-7 -9 3 -16 -4 -20 -22 -3 -15 -10 -41 -15 -58 -6 -18 -9 -36 -8 -40 1 -5 -1
-17 -6 -27 -4 -9 -2 -23 4 -30 8 -10 3 -23 -16 -51 -17 -23 -27 -50 -27 -71 0
-28 -4 -34 -19 -32 -11 1 -22 -4 -24 -10 -3 -7 2 -13 10 -13 8 0 20 -7 27 -15
6 -8 19 -13 28 -12 19 2 22 -3 22 -36 0 -16 -9 -28 -26 -36 -32 -14 -45 -6
-19 13 11 8 15 18 10 25 -5 9 -10 10 -18 2 -14 -14 -30 -14 -22 -1 7 11 -28
14 -39 3 -3 -4 -15 -8 -26 -10 -14 -2 -18 2 -14 12 4 10 0 15 -14 15 -25 0
-74 20 -84 35 -4 5 -4 21 -1 35 6 22 5 24 -10 11 -9 -7 -14 -18 -10 -24 4 -7
-8 -8 -35 -4 -23 3 -40 1 -37 -3 3 -5 -4 -15 -15 -23 -21 -15 -21 -15 10 -37
28 -20 30 -24 17 -39 -13 -13 -13 -18 -1 -29 7 -6 11 -19 8 -27 -3 -7 3 -24
15 -36 11 -12 18 -26 15 -30 -7 -12 56 -27 100 -23 25 2 49 13 65 28 39 37 79
50 98 31 11 -12 19 -13 28 -5 9 7 15 7 19 1 4 -5 2 -12 -4 -16 -5 -3 -10 -15
-10 -26 0 -10 -6 -19 -14 -19 -7 0 -16 -12 -19 -28 -7 -36 -66 -94 -125 -123
-26 -13 -49 -27 -50 -32 -5 -10 -77 -47 -92 -47 -6 0 -30 -9 -52 -20 -23 -11
-50 -20 -60 -20 -10 0 -30 -7 -43 -16 -14 -9 -25 -13 -25 -9 0 4 -7 2 -15 -5
-9 -7 -18 -11 -21 -8 -2 3 -30 -1 -61 -8 -31 -7 -60 -11 -65 -8 -4 3 -16 0
-27 -5 -23 -13 -122 -25 -174 -22 -21 1 -47 -5 -59 -13 -16 -11 -26 -12 -41
-4 -14 7 -22 7 -27 -2 -6 -9 -22 -11 -54 -7 -25 4 -46 3 -46 -1 0 -4 -16 -8
-36 -8 l-36 0 28 23 c19 15 32 19 40 12 7 -6 21 -4 40 6 16 8 34 15 40 15 6 0
17 7 24 15 7 8 25 15 40 15 15 0 39 11 53 24 15 14 36 27 47 31 11 3 21 11 21
16 1 5 2 13 3 18 0 5 30 40 66 78 35 37 75 86 88 108 13 22 36 50 52 63 28 22
51 60 65 109 3 11 17 28 30 37 14 9 25 23 25 31 0 9 18 35 40 59 22 24 40 48
40 53 0 16 61 88 72 85 5 -1 21 6 36 16 15 11 36 22 48 26 12 4 38 24 58 46
40 44 87 71 156 91 25 7 49 16 54 21 6 4 13 3 17 -3 4 -7 12 -8 19 -4z m734
-276 c-21 -22 -46 -39 -56 -39 -10 0 -22 -10 -27 -22 -12 -30 -62 -76 -82 -75
-14 0 -14 3 -1 29 8 16 25 33 38 38 13 5 24 14 24 20 0 6 17 18 38 26 20 9 47
29 60 45 13 16 28 26 34 23 5 -4 -7 -23 -28 -45z m-804 -39 c0 -5 -4 -10 -10
-10 -5 0 -10 5 -10 10 0 6 5 10 10 10 6 0 10 -4 10 -10z m-790 -100 c0 -5 -2
-10 -4 -10 -3 0 -8 5 -11 10 -3 6 -1 10 4 10 6 0 11 -4 11 -10z m1410 -24 c0
-2 -8 -10 -17 -17 -16 -13 -17 -12 -4 4 13 16 21 21 21 13z m-1447 -42 c-18
-37 -29 -31 -19 11 4 14 13 25 21 25 12 0 12 -5 -2 -36z m767 12 c0 -2 -7 -6
-15 -10 -8 -3 -15 -1 -15 4 0 6 7 10 15 10 8 0 15 -2 15 -4z m-80 -100 c0 -3
-4 -8 -10 -11 -5 -3 -10 -1 -10 4 0 6 5 11 10 11 6 0 10 -2 10 -4z m-714 -61
c-31 -40 -40 -44 -30 -13 6 22 45 60 53 52 2 -2 -8 -19 -23 -39z"/>
<path d="M8969 3103 c-1 -5 0 -16 1 -27 1 -15 -3 -18 -27 -14 -15 3 -36 8 -45
12 -13 6 -15 3 -11 -14 5 -19 3 -21 -14 -16 -18 6 -20 2 -19 -32 0 -31 -6 -44
-34 -71 -19 -19 -27 -28 -17 -21 19 14 23 0 5 -18 -9 -9 -6 -12 13 -12 25 0
71 39 82 70 3 9 6 10 6 3 1 -15 41 -18 41 -3 0 6 -4 10 -10 10 -21 0 -8 17 25
33 35 17 52 56 19 43 -14 -5 -15 -4 -4 9 7 8 9 15 5 15 -4 0 -2 6 4 13 6 8 8
17 4 20 -9 9 -23 9 -24 0z"/>
<path d="M8815 3059 c-4 -6 -5 -13 -2 -16 7 -7 27 6 27 18 0 12 -17 12 -25 -2z"/>
<path d="M8576 2861 c-4 -7 -5 -15 -2 -18 9 -9 19 4 14 18 -4 11 -6 11 -12 0z"/>
<path d="M4086 4728 c-24 -86 -35 -113 -45 -110 -17 4 -41 -17 -41 -34 0 -7
-12 -30 -26 -51 -14 -21 -30 -48 -35 -60 -6 -16 -14 -21 -26 -17 -15 5 -16 4
-3 -5 13 -10 13 -13 -2 -25 -10 -7 -18 -26 -18 -43 0 -16 -5 -34 -11 -40 -8
-8 -8 -17 1 -32 9 -17 8 -22 -4 -27 -20 -8 -29 -46 -31 -129 -1 -44 4 -77 12
-90 7 -11 13 -30 13 -43 0 -34 18 -62 46 -72 29 -11 32 -30 4 -30 -15 0 -20
-7 -20 -25 0 -20 5 -25 24 -25 20 0 25 -8 39 -62 23 -89 27 -129 16 -150 -7
-12 -6 -25 3 -40 6 -13 12 -39 12 -58 1 -26 5 -34 17 -33 10 2 21 -14 33 -50
10 -28 26 -65 36 -82 9 -16 15 -38 13 -47 -3 -12 2 -18 14 -19 17 0 17 -1 0
-8 -16 -6 -15 -11 17 -51 20 -25 36 -55 36 -66 0 -26 17 -40 47 -42 20 -1 148
-112 129 -112 -5 0 -3 -7 4 -15 7 -8 28 -15 47 -15 19 0 41 -7 49 -15 9 -8 24
-15 34 -15 11 0 25 -10 31 -22 9 -18 8 -24 -6 -34 -18 -13 -11 -39 18 -63 12
-9 16 -8 21 5 6 15 8 15 26 -1 11 -10 22 -16 25 -13 8 7 -22 117 -36 134 -10
12 -20 74 -12 74 2 0 17 -7 33 -15 16 -8 38 -16 49 -18 11 -2 24 -6 27 -10 13
-13 24 -7 24 14 0 19 1 19 16 5 19 -20 24 -20 51 -1 12 8 23 11 25 6 2 -5 10
-11 18 -13 8 -2 18 -7 21 -12 9 -12 47 11 54 34 7 22 31 27 38 8 2 -7 7 -10
11 -6 4 3 3 16 -3 27 -9 16 -9 19 2 15 7 -2 20 3 29 13 68 72 63 56 59 199 -2
92 1 137 10 151 7 12 9 28 4 39 -4 11 -8 39 -7 64 1 66 1 66 13 50 8 -11 9 -2
6 35 -11 112 -76 305 -103 305 -7 0 -17 14 -23 32 -12 33 -85 158 -126 216
-13 18 -21 40 -18 48 3 8 -5 27 -18 41 -18 20 -20 25 -6 20 13 -5 17 -1 17 15
0 16 -3 18 -14 9 -11 -9 -15 -8 -20 5 -3 9 -4 20 0 25 3 5 -7 9 -21 9 -26 0
-37 9 -128 110 -16 17 -34 29 -40 28 -23 -4 -57 13 -57 29 0 9 -6 13 -15 10
-8 -4 -17 -2 -20 3 -3 5 -30 12 -59 15 -35 5 -57 13 -60 22 -4 11 -14 13 -31
9 -15 -4 -34 -1 -48 8 -22 14 -46 14 -106 1 -36 -8 -36 -5 -16 61 8 27 15 52
15 57 0 12 -30 8 -34 -5z m830 -1535 c-10 -10 -19 5 -10 18 6 11 8 11 12 0 2
-7 1 -15 -2 -18z m-92 -29 c9 -24 7 -64 -3 -64 -11 0 -21 25 -21 56 0 27 15
32 24 8z"/>
<path d="M2915 4720 c-3 -4 -26 -7 -52 -6 -47 2 -71 -5 -105 -33 -10 -7 -24
-11 -33 -8 -25 10 -44 -3 -39 -27 3 -16 -5 -31 -27 -51 -21 -18 -28 -30 -20
-34 6 -4 9 -15 5 -24 -9 -25 24 -22 98 8 34 14 81 25 104 25 54 0 74 8 74 29
0 9 9 22 20 29 24 15 42 55 34 76 -6 15 -52 28 -59 16z"/>
<path d="M8190 4700 c0 -5 5 -10 11 -10 5 0 7 5 4 10 -3 6 -8 10 -11 10 -2 0
-4 -4 -4 -10z"/>
<path d="M3098 4694 c-4 -3 -14 -7 -25 -8 -10 -2 -17 -11 -17 -20 1 -9 -6 -16
-15 -16 -32 0 -32 -14 1 -27 25 -11 29 -16 18 -23 -10 -6 -7 -10 16 -15 16 -4
36 -9 44 -11 8 -3 28 2 45 10 16 8 38 17 48 20 23 7 22 26 -2 26 -11 0 -36 16
-55 35 -36 35 -47 40 -58 29z"/>
<path d="M3440 4550 c-9 -16 -8 -20 5 -20 8 0 15 9 15 20 0 11 -2 20 -5 20 -2
0 -9 -9 -15 -20z"/>
<path d="M3306 4512 c-2 -4 -1 -14 4 -22 7 -11 11 -11 24 -1 9 7 13 17 10 22
-7 11 -31 12 -38 1z"/>
<path d="M3920 4499 c0 -5 5 -7 10 -4 6 3 10 8 10 11 0 2 -4 4 -10 4 -5 0 -10
-5 -10 -11z"/>
<path d="M3186 4469 c-20 -29 -20 -36 -1 -55 15 -15 47 -12 71 7 6 5 22 8 35
8 13 -1 38 4 54 11 l30 12 -36 13 c-19 7 -58 16 -86 20 -46 6 -52 4 -67 -16z"/>
<path d="M3405 4470 c-3 -5 -1 -10 4 -10 6 0 11 5 11 10 0 6 -2 10 -4 10 -3 0
-8 -4 -11 -10z"/>
<path d="M2537 3993 c-4 -3 -7 -13 -7 -21 0 -12 3 -12 15 -2 8 7 15 16 15 21
0 11 -14 12 -23 2z"/>
<path d="M7586 3931 c-4 -6 0 -11 11 -11 19 -1 53 -22 53 -34 0 -3 -11 -6 -25
-6 -19 0 -24 -5 -22 -19 2 -10 8 -26 15 -34 10 -12 10 -16 -3 -21 -8 -3 -15
-12 -15 -21 0 -8 -6 -14 -12 -12 -7 1 -12 -4 -10 -12 1 -7 -5 -19 -15 -27 -17
-13 -17 -13 0 -14 13 0 17 -5 13 -18 -4 -13 3 -22 27 -34 41 -22 101 -19 105
5 2 9 14 20 28 23 33 8 30 20 -8 41 -18 10 -34 25 -34 33 -1 8 -5 23 -9 34 -7
17 -4 18 36 12 42 -7 43 -6 24 10 -14 11 -16 18 -7 21 17 7 5 23 -18 23 -27 0
-35 19 -14 34 22 17 10 24 -58 32 -37 4 -58 3 -62 -5z"/>
<path d="M7732 3891 c4 -13 18 -16 19 -4 0 4 -5 9 -11 12 -7 2 -11 -2 -8 -8z"/>
<path d="M3925 3800 c-7 -12 2 -30 16 -30 12 0 12 27 0 35 -5 3 -12 1 -16 -5z"/>
<path d="M7530 3606 c0 -11 53 -27 68 -21 8 3 12 8 9 11 -8 9 -77 17 -77 10z"/>
<path d="M5022 3570 c0 -14 2 -19 5 -12 2 6 2 18 0 25 -3 6 -5 1 -5 -13z"/>
<path d="M7779 3557 c-9 -16 -18 -19 -53 -14 -81 11 -118 -19 -53 -43 31 -11
31 -12 10 -21 -30 -11 -29 -35 2 -55 28 -18 55 -13 55 12 0 16 2 16 20 -1 18
-17 33 -17 87 1 15 5 15 4 3 -5 -10 -7 -11 -11 -2 -11 6 0 21 9 32 20 11 11
26 20 33 20 23 1 60 27 48 34 -6 4 -8 12 -5 18 4 6 2 8 -4 4 -6 -3 -14 -1 -18
5 -4 8 -9 7 -15 -2 -8 -11 -11 -11 -20 4 -5 9 -16 17 -23 17 -8 0 -19 6 -25
14 -20 24 -60 26 -72 3z"/>
<path d="M8226 3564 c-4 -10 -2 -22 3 -27 7 -7 13 -5 17 7 4 10 2 22 -3 27 -7
7 -13 5 -17 -7z"/>
<path d="M7910 3555 c7 -8 17 -15 22 -15 6 0 5 7 -2 15 -7 8 -17 15 -22 15 -6
0 -5 -7 2 -15z"/>
<path d="M8568 3493 c-22 -6 -23 -17 -3 -33 9 -7 14 -19 11 -27 -7 -17 -3 -17
41 7 21 11 43 20 50 20 7 0 13 5 13 11 0 6 -7 8 -16 5 -8 -3 -28 1 -44 9 -16
8 -30 14 -32 14 -2 -1 -11 -3 -20 -6z"/>
<path d="M12555 3470 c-3 -11 -9 -19 -13 -19 -20 3 -32 -3 -32 -16 0 -8 6 -15
13 -15 22 0 57 31 57 51 0 25 -17 25 -25 -1z"/>
<path d="M8511 3464 c0 -11 3 -14 6 -6 3 7 2 16 -1 19 -3 4 -6 -2 -5 -13z"/>
<path d="M4020 3451 c0 -5 5 -13 10 -16 6 -3 10 -2 10 4 0 5 -4 13 -10 16 -5
3 -10 2 -10 -4z"/>
<path d="M6873 3437 c-10 -17 -53 -29 -53 -16 0 6 -8 5 -19 -1 -28 -15 -51
-12 -51 5 0 21 -16 19 -32 -4 -14 -19 -105 -40 -93 -21 12 20 -64 22 -99 2 -5
-3 -25 -6 -45 -8 -20 -2 -40 -9 -46 -16 -15 -19 -62 -38 -94 -38 -16 0 -34 -6
-40 -14 -10 -12 -77 -36 -144 -51 -16 -3 -41 -19 -56 -35 -17 -19 -31 -27 -36
-21 -6 6 -23 -1 -45 -19 -29 -25 -32 -31 -20 -40 11 -7 6 -10 -21 -10 -43 0
-84 -35 -55 -46 15 -6 14 -10 -10 -35 -15 -16 -33 -29 -40 -29 -7 0 -15 -8
-18 -18 -11 -32 -51 -78 -66 -75 -21 4 -82 -35 -74 -48 3 -6 -8 -23 -25 -37
-22 -19 -29 -31 -22 -41 7 -11 16 -10 47 9 l39 24 -19 -23 c-20 -22 -20 -22 0
-16 19 7 19 6 0 -9 -11 -9 -26 -16 -33 -16 -11 0 -11 -4 -2 -22 10 -19 8 -25
-20 -47 -17 -14 -31 -34 -31 -44 0 -10 -4 -15 -10 -12 -5 3 -10 2 -10 -3 0 -5
-13 -15 -30 -22 -22 -9 -30 -19 -30 -37 l0 -24 99 6 c63 3 102 2 106 -5 4 -6
-6 -10 -25 -10 -18 0 -33 -6 -36 -15 -4 -8 -19 -15 -34 -15 -16 0 -32 -4 -35
-10 -5 -9 18 -15 29 -7 2 1 13 -6 23 -15 20 -19 95 -22 350 -17 80 2 106 -1
120 -13 21 -18 182 -23 278 -8 64 9 156 18 256 25 43 3 72 11 98 28 20 13 52
30 71 37 61 21 84 34 114 62 16 15 44 34 62 43 19 9 34 20 34 25 0 5 9 11 20
15 20 6 50 57 50 86 0 9 16 36 35 59 20 24 55 75 78 114 45 78 85 126 104 126
13 0 17 19 39 197 6 51 5 52 -22 59 -16 4 -35 16 -44 26 -12 15 -20 17 -40 10
-14 -5 -35 -6 -48 -1 -12 5 -29 6 -37 3 -8 -3 -31 4 -51 17 -29 17 -40 20 -54
11 -13 -8 -22 -7 -36 3 -11 8 -26 14 -34 14 -10 0 -8 -3 5 -9 16 -7 12 -9 -18
-7 -22 0 -44 9 -54 19 -19 21 -88 25 -100 5z m177 -711 c0 -2 -7 -9 -15 -16
-13 -11 -14 -10 -9 4 5 14 24 23 24 12z m-85 -61 c-16 -14 -34 -25 -40 -25 -5
1 -1 7 10 15 11 8 25 19 30 24 6 6 15 10 20 10 6 0 -3 -11 -20 -24z m-680 -95
c3 -5 -1 -10 -10 -10 -9 0 -13 5 -10 10 3 6 8 10 10 10 2 0 7 -4 10 -10z
m-465 -15 c0 -8 -2 -15 -4 -15 -2 0 -6 7 -10 15 -3 8 -1 15 4 15 6 0 10 -7 10
-15z"/>
<path d="M12460 3364 c-25 -24 -55 -47 -66 -50 -12 -3 -31 -19 -43 -35 -12
-16 -26 -27 -32 -24 -5 4 -9 0 -9 -7 -1 -14 -50 -54 -50 -40 0 8 23 31 122
124 34 32 36 48 6 48 -30 0 -51 -14 -54 -35 -3 -17 -50 -66 -57 -59 -2 2 -15
-6 -29 -19 -53 -50 -88 -37 -52 18 15 23 15 25 0 25 -9 0 -16 -4 -16 -9 0 -5
-16 -16 -37 -23 -22 -8 -40 -23 -47 -38 -14 -33 -148 -160 -169 -160 -8 0 -28
-10 -44 -23 -26 -21 -63 -48 -101 -72 -9 -5 -22 -16 -30 -22 -22 -21 -37 -15
-17 7 10 11 24 20 31 20 15 0 194 170 194 184 0 6 -4 5 -9 -3 -5 -7 -13 -11
-19 -7 -6 3 -15 -2 -21 -11 -6 -10 -11 -14 -11 -10 0 9 -52 -25 -90 -60 -14
-13 -30 -23 -35 -23 -6 0 -29 -18 -50 -40 -21 -22 -42 -40 -45 -40 -10 0 -8
34 2 47 18 23 -1 30 -44 18 -54 -14 -108 -46 -108 -63 0 -17 -46 -59 -74 -68
-11 -4 -23 -10 -26 -13 -3 -4 -26 -24 -52 -44 -47 -38 -61 -38 -53 2 2 12 -1
21 -8 21 -23 0 -119 -39 -138 -56 -19 -17 -39 -12 -39 10 0 8 -7 19 -15 26
-13 11 -25 5 -75 -34 -33 -26 -60 -43 -60 -37 0 18 -18 12 -42 -13 -13 -13
-32 -26 -43 -28 -11 -2 -20 -9 -20 -15 0 -15 -44 -48 -52 -39 -3 3 -23 -4 -44
-14 -51 -26 -57 -25 -25 5 15 14 34 25 42 25 7 0 14 9 14 20 0 10 8 23 17 29
15 8 15 11 3 26 -8 10 -22 14 -34 11 -11 -3 -24 1 -31 11 -9 13 -16 13 -33 4
-12 -6 -22 -18 -22 -25 0 -7 -9 -25 -21 -39 -19 -25 -21 -26 -44 -11 -13 9
-29 13 -35 9 -5 -3 -10 -2 -10 3 0 11 -45 32 -70 32 -22 0 -55 -41 -40 -50 9
-6 -91 -90 -107 -90 -4 0 14 20 40 45 27 24 46 49 43 54 -4 5 -2 12 4 16 5 3
10 13 10 21 0 19 -36 10 -66 -17 -11 -11 -30 -19 -42 -19 -13 0 -25 -8 -29
-17 -14 -40 -47 -74 -89 -93 -30 -14 -46 -28 -50 -45 -4 -16 -13 -25 -26 -25
-11 0 -22 -8 -25 -17 -7 -27 -160 -146 -175 -137 -14 9 -66 -35 -70 -57 -2
-14 -15 -25 -38 -33 -22 -7 -40 -21 -49 -40 -7 -16 -21 -31 -31 -33 -19 -5
-63 -59 -67 -83 -2 -8 -5 -26 -7 -39 -2 -13 -11 -30 -21 -37 -9 -7 -14 -17
-10 -23 4 -7 -5 -11 -24 -11 -16 0 -32 -4 -35 -8 -3 -5 48 -8 112 -7 117 2
118 2 130 -23 7 -15 12 -30 12 -34 0 -16 39 -50 49 -43 14 8 71 -32 71 -51 0
-8 10 -14 24 -14 13 0 29 -7 36 -15 7 -8 18 -15 25 -15 7 0 18 -7 25 -15 7 -9
15 -13 18 -10 3 2 26 -7 52 -21 25 -14 54 -26 62 -28 9 -1 23 -8 32 -15 8 -7
20 -10 25 -6 6 3 26 -1 44 -10 18 -8 50 -16 72 -17 41 -2 157 8 208 18 26 5
27 7 10 20 -17 12 -16 13 12 14 17 0 41 3 54 7 l24 6 -24 18 -24 19 25 0 c14
0 45 6 69 14 44 13 44 13 17 20 -36 9 -27 18 26 25 42 6 77 39 51 48 -23 8
-14 21 22 33 40 13 45 26 14 35 -33 11 -5 22 46 19 32 -2 51 3 70 17 14 11 25
18 25 16 0 -3 33 4 73 15 39 11 84 21 98 22 31 3 49 13 49 28 0 6 7 20 17 30
10 11 12 18 5 19 -7 1 -16 2 -22 3 -5 0 -10 5 -11 11 -1 13 39 26 47 14 8 -13
46 -1 64 22 8 10 53 37 100 61 106 54 160 87 160 98 0 15 -24 24 -28 12 -2 -7
-15 -12 -28 -12 -35 0 -22 16 39 47 29 14 66 36 83 49 17 13 35 24 41 24 5 0
19 11 32 23 24 27 19 57 -10 57 -24 0 -124 -44 -133 -59 -4 -6 -16 -11 -28
-11 -11 0 -32 -6 -46 -14 -55 -29 -103 -47 -115 -43 -17 6 47 37 77 37 14 0
27 4 31 10 3 5 60 37 127 72 75 38 123 69 126 81 3 10 11 16 18 13 7 -3 30 10
49 29 20 19 42 32 49 29 7 -3 26 9 44 25 17 17 37 28 45 26 7 -3 22 4 32 15
35 35 39 39 95 80 30 22 60 40 67 40 7 0 13 6 13 13 0 6 25 27 54 44 66 40
145 111 168 150 l17 30 -27 -5 c-15 -2 -32 -9 -39 -14 -7 -5 -18 -6 -24 -2 -7
4 -9 3 -6 -3 4 -6 -7 -13 -25 -17 -31 -6 -48 4 -48 31 0 16 78 93 129 126 23
15 41 33 41 40 0 6 18 32 40 55 22 24 40 48 40 53 0 20 -27 6 -70 -37z m-300
-163 c0 -5 -16 -19 -35 -31 -20 -12 -43 -29 -52 -38 -12 -13 -15 -13 -11 -2 2
8 24 29 49 47 51 37 49 36 49 24z m40 -60 c0 -5 -7 -12 -16 -15 -24 -9 -28 -7
-14 9 14 17 30 20 30 6z m55 -41 c-3 -5 -11 -10 -16 -10 -6 0 -7 5 -4 10 3 6
11 10 16 10 6 0 7 -4 4 -10z m-25 -24 c0 -2 -8 -10 -17 -17 -16 -13 -17 -12
-4 4 13 16 21 21 21 13z m-92 -79 c-1 -15 -15 -33 -36 -47 -35 -22 -35 -22
-29 -1 5 21 5 21 -21 2 -36 -25 -72 -43 -72 -36 0 5 148 105 156 105 2 0 3
-11 2 -23z m-448 -76 c0 -6 -4 -13 -10 -16 -5 -3 -10 1 -10 9 0 9 5 16 10 16
6 0 10 -4 10 -9z m-15 -91 c-10 -11 -23 -20 -29 -20 -6 1 0 10 13 20 30 26 39
26 16 0z m-375 -23 c0 -2 -12 -14 -27 -28 l-28 -24 24 28 c23 25 31 32 31 24z
m557 -12 c0 -8 -7 -15 -15 -15 -12 0 -12 3 -2 15 7 8 13 15 15 15 1 0 2 -7 2
-15z m-347 -33 c0 -4 -9 -13 -20 -20 -24 -15 -26 -9 -4 12 17 18 24 20 24 8z
m-812 -162 c-13 -20 -38 -35 -38 -23 0 10 32 43 42 43 4 0 3 -9 -4 -20z m651
-194 c-11 -9 -63 -17 -54 -8 6 6 19 12 30 14 20 4 32 1 24 -6z m-119 -31 c0
-3 -12 -10 -26 -15 -29 -11 -54 -3 -33 11 15 9 59 12 59 4z m-1250 -90 c-7 -8
-17 -15 -23 -15 -5 0 -2 9 8 20 21 23 35 19 15 -5z m-50 -40 c-7 -9 -15 -13
-17 -11 -7 7 7 26 19 26 6 0 6 -6 -2 -15z m-130 -85 c0 -5 -8 -10 -17 -10 -15
0 -16 2 -3 10 19 12 20 12 20 0z m233 -12 c-2 -5 -15 -8 -29 -8 -14 0 -23 4
-20 9 3 5 17 8 30 7 13 0 22 -4 19 -8z m797 -28 c0 -5 -4 -10 -10 -10 -5 0
-10 5 -10 10 0 6 5 10 10 10 6 0 10 -4 10 -10z m-643 -56 c-3 -3 -12 -4 -19
-1 -8 3 -5 6 6 6 11 1 17 -2 13 -5z m420 -281 c-9 -2 -15 -8 -13 -12 3 -4 -4
-7 -15 -7 -10 0 -19 3 -19 6 0 13 14 20 39 19 17 -1 20 -3 8 -6z"/>
<path d="M4060 3370 c0 -5 5 -10 10 -10 6 0 10 5 10 10 0 6 -4 10 -10 10 -5 0
-10 -4 -10 -10z"/>
<path d="M10325 3369 c-12 -19 5 -23 22 -6 16 16 16 17 1 17 -9 0 -20 -5 -23
-11z"/>
<path d="M8690 3305 c-10 -12 -10 -15 3 -15 8 0 17 7 21 15 3 8 2 15 -3 15 -5
0 -14 -7 -21 -15z"/>
<path d="M1600 3275 c0 -17 5 -25 13 -22 6 2 12 12 12 22 0 10 -6 20 -12 23
-8 2 -13 -6 -13 -23z"/>
<path d="M12390 3154 c0 -8 5 -12 10 -9 6 3 10 10 10 16 0 5 -4 9 -10 9 -5 0
-10 -7 -10 -16z"/>
<path d="M8550 3125 c-7 -9 -11 -18 -8 -20 3 -3 11 1 18 10 7 9 11 18 8 20 -3
3 -11 -1 -18 -10z"/>
<path d="M5110 3021 c0 -6 5 -13 10 -16 6 -3 10 1 10 9 0 9 -4 16 -10 16 -5 0
-10 -4 -10 -9z"/>
<path d="M4979 3000 c-19 -10 -48 -26 -65 -34 -17 -8 -36 -22 -44 -30 -7 -9
-20 -16 -29 -16 -36 0 -93 -28 -120 -59 -16 -18 -35 -30 -41 -26 -6 3 -10 3
-9 -2 2 -9 -8 -40 -23 -67 -5 -10 -12 -28 -15 -40 -2 -11 -9 -37 -13 -56 -5
-19 -12 -48 -16 -65 -3 -16 -14 -36 -22 -43 -14 -10 -14 -16 -4 -32 6 -11 12
-28 12 -38 0 -9 11 -34 25 -54 14 -20 25 -46 25 -57 0 -23 35 -47 45 -31 4 6
17 3 35 -10 15 -11 31 -20 35 -20 4 0 19 -12 33 -27 26 -28 44 -33 128 -33 46
-1 171 58 220 103 16 15 34 27 40 27 6 0 17 7 24 15 7 8 16 13 19 10 8 -4 41
57 41 75 0 6 8 18 18 28 16 16 18 32 16 100 -2 67 1 82 13 82 8 0 13 7 11 18
-2 9 -12 16 -21 16 -23 -2 -50 50 -41 78 4 14 2 18 -5 14 -7 -4 -11 0 -11 12
0 10 -3 22 -7 26 -5 4 -8 15 -9 24 -1 28 -28 82 -39 82 -6 0 -16 5 -23 12 -11
11 -18 13 -93 21 -20 2 -41 7 -46 10 -5 3 -25 -2 -44 -13z"/>
<path d="M4450 2970 c0 -5 5 -10 11 -10 5 0 7 5 4 10 -3 6 -8 10 -11 10 -2 0
-4 -4 -4 -10z"/>
<path d="M10270 2659 c0 -5 5 -7 10 -4 6 3 10 8 10 11 0 2 -4 4 -10 4 -5 0
-10 -5 -10 -11z"/>
<path d="M10105 2520 c-3 -5 1 -10 9 -10 9 0 16 5 16 10 0 6 -4 10 -9 10 -6 0
-13 -4 -16 -10z"/>
<path d="M5975 2400 c3 -5 10 -10 16 -10 5 0 9 5 9 10 0 6 -7 10 -16 10 -8 0
-12 -4 -9 -10z"/>
<path d="M5920 2393 c0 -7 -109 -13 -207 -13 -38 1 -50 -15 -30 -38 11 -12 13
-22 6 -35 -7 -11 -7 -17 1 -17 6 0 17 -15 25 -34 8 -19 23 -37 32 -41 10 -3
25 -16 34 -28 16 -22 16 -24 -17 -45 l-34 -22 -10 25 c-5 14 -13 25 -18 25
-13 0 -42 57 -42 84 0 14 -6 29 -13 33 -7 4 -20 20 -30 35 -16 26 -18 27 -36
10 -10 -9 -16 -20 -15 -23 2 -4 -2 -12 -10 -18 -19 -16 -29 -90 -16 -107 6 -7
17 -11 25 -8 8 4 17 -8 25 -33 12 -39 26 -75 41 -105 5 -10 6 -24 3 -32 -3 -8
-1 -17 5 -21 6 -3 11 -13 11 -21 0 -26 -17 -14 -35 26 -10 22 -27 47 -37 57
-23 21 -58 85 -58 106 0 19 -36 64 -45 55 -9 -9 13 -111 36 -163 13 -28 17
-53 13 -74 -6 -27 -3 -33 15 -38 11 -3 21 -9 21 -14 0 -6 16 -25 35 -45 19
-19 35 -41 35 -49 0 -8 7 -18 15 -22 24 -14 53 -79 47 -108 -5 -30 22 -67 44
-58 19 7 44 -15 44 -38 0 -11 5 -19 12 -19 9 0 9 -3 0 -12 -18 -18 -14 -36 14
-61 14 -12 32 -34 40 -49 16 -31 44 -28 44 4 0 14 22 -3 84 -63 55 -54 82 -87
79 -97 -4 -8 4 -22 18 -33 13 -10 25 -23 25 -28 1 -6 2 -15 3 -21 0 -5 10 -10
21 -10 13 0 24 -10 30 -26 8 -20 15 -25 31 -21 13 4 29 -2 43 -14 11 -11 36
-27 54 -34 18 -8 35 -22 39 -32 9 -24 45 -63 60 -63 6 0 13 -10 15 -22 2 -19
9 -23 32 -21 17 1 35 -2 41 -7 6 -5 40 -18 76 -29 77 -24 186 -26 211 -4 9 8
22 12 28 8 9 -6 9 -10 -1 -16 -11 -8 -10 -12 6 -25 48 -36 78 -3 138 156 48
127 31 374 -27 382 -13 2 -21 10 -21 23 -1 34 -16 85 -26 85 -4 0 -6 14 -2 30
5 26 3 30 -16 30 -11 0 -21 5 -21 10 0 6 -16 43 -35 82 -23 46 -32 75 -26 81
13 13 -12 54 -77 124 -16 18 -47 56 -68 85 -37 52 -124 152 -187 215 -18 18
-40 33 -50 33 -9 0 -36 14 -59 30 -22 17 -52 30 -66 30 -14 0 -40 11 -58 25
-39 30 -38 30 -60 8 -13 -13 -16 -14 -12 -3 3 10 -8 20 -36 32 -54 22 -78 23
-51 2 l20 -16 -20 5 c-11 3 -34 8 -52 12 -22 4 -30 11 -26 21 3 8 -1 14 -11
14 -9 0 -16 -3 -16 -7z m-19 -84 c35 1 48 -2 53 -14 8 -21 47 -35 66 -23 9 6
25 6 43 -1 27 -11 38 -30 15 -27 -7 0 -13 -3 -13 -9 0 -5 5 -10 11 -10 6 0 18
-6 27 -13 11 -10 21 -11 34 -4 23 13 53 -2 53 -27 0 -26 -27 -34 -33 -10 -4
15 -14 20 -39 20 -83 0 -88 1 -86 16 2 12 -8 16 -47 18 -36 1 -64 10 -100 33
-34 21 -52 27 -57 19 -5 -8 -13 -6 -27 7 -27 25 -17 39 22 30 18 -4 53 -7 78
-5z m379 -164 c10 -13 9 -15 -9 -15 -12 0 -21 6 -21 15 0 8 4 15 9 15 5 0 14
-7 21 -15z m-445 -595 c3 -5 1 -10 -4 -10 -6 0 -11 5 -11 10 0 6 2 10 4 10 3
0 8 -4 11 -10z m340 -360 c3 -5 1 -10 -4 -10 -6 0 -11 5 -11 10 0 6 2 10 4 10
3 0 8 -4 11 -10z"/>
<path d="M4710 2320 c0 -5 5 -10 10 -10 6 0 10 5 10 10 0 6 -4 10 -10 10 -5 0
-10 -4 -10 -10z"/>
<path d="M4883 2189 c-23 -8 -98 -97 -107 -127 -4 -10 -20 -28 -36 -40 -17
-13 -30 -29 -30 -36 0 -7 -7 -19 -15 -26 -13 -10 -15 -9 -15 9 0 11 5 21 10
21 6 0 10 5 10 11 0 6 -9 8 -22 3 l-21 -6 21 36 c12 20 18 36 14 36 -4 0 -12
15 -17 33 -6 17 -14 32 -20 32 -5 0 -21 -30 -34 -67 -15 -45 -30 -69 -43 -74
-10 -3 -23 -17 -28 -30 -5 -13 -18 -24 -28 -24 -27 0 -62 -41 -56 -66 4 -16 0
-23 -15 -27 -13 -3 -21 -13 -21 -27 0 -12 -15 -48 -34 -79 -39 -64 -71 -134
-81 -174 -4 -15 -20 -35 -35 -44 -16 -9 -31 -25 -33 -35 -7 -27 3 -58 20 -58
11 0 12 -9 8 -37 -13 -78 -15 -85 -31 -79 -23 9 -28 -21 -6 -44 11 -12 22 -38
25 -58 3 -20 8 -45 12 -54 5 -13 2 -18 -9 -18 -9 0 -16 -4 -16 -10 0 -5 6 -10
14 -10 14 0 26 -49 30 -120 1 -16 5 -32 9 -36 11 -11 8 -46 -3 -39 -5 3 -10 1
-10 -4 0 -6 4 -11 8 -11 9 0 37 -79 33 -94 -1 -4 4 -14 10 -22 7 -8 9 -17 6
-21 -4 -3 3 -17 13 -31 11 -13 20 -35 20 -48 0 -13 9 -29 20 -36 11 -7 20 -18
20 -24 0 -16 71 -124 81 -124 5 0 9 -6 9 -14 0 -8 7 -16 15 -20 8 -3 15 -12
15 -19 0 -8 9 -22 20 -32 11 -10 17 -22 14 -26 -3 -5 -1 -9 4 -9 13 0 72 -85
72 -104 0 -9 8 -16 18 -16 24 -1 55 -26 47 -39 -3 -6 1 -11 11 -11 23 0 118
-33 125 -44 4 -5 12 -5 18 -2 6 4 11 2 11 -3 0 -18 18 -13 40 11 18 20 20 20
20 4 0 -15 3 -16 15 -6 8 7 21 10 28 7 12 -4 56 6 125 28 12 4 22 11 22 16 0
5 6 9 14 9 8 0 44 29 80 65 56 55 69 74 81 121 8 31 19 62 25 69 6 7 15 39 21
71 6 33 15 63 20 69 5 5 9 29 10 55 0 25 5 68 10 95 6 28 11 61 13 75 1 14 5
32 8 40 10 26 28 158 28 204 0 23 5 69 12 101 8 42 8 62 0 75 -6 10 -12 46
-13 81 -1 35 -8 87 -16 115 -7 28 -13 64 -13 80 1 54 -8 102 -25 128 -10 14
-15 32 -12 40 3 8 -3 22 -14 32 -11 9 -22 35 -25 56 -4 21 -17 49 -30 63 -13
14 -27 38 -30 53 -4 15 -22 46 -41 70 -33 40 -37 42 -56 29 -24 -16 -33 -65
-14 -73 7 -2 13 -24 14 -47 1 -24 9 -61 18 -83 17 -39 23 -59 24 -80 2 -22 56
-80 72 -76 9 1 23 -8 32 -21 16 -25 30 -127 16 -127 -4 0 -9 17 -11 38 -2 25
-8 37 -18 37 -8 0 -21 4 -27 8 -8 5 -13 3 -13 -3 0 -6 -4 -8 -10 -5 -5 3 -10
21 -10 40 0 18 -7 40 -15 48 -7 8 -17 28 -21 43 -3 16 -12 39 -20 50 -7 12
-24 54 -38 95 -33 97 -49 141 -59 157 -13 19 -29 3 -22 -21 6 -21 6 -22 -9 -3
-9 11 -16 24 -16 29 0 4 -4 6 -9 2 -5 -3 -13 -31 -17 -63 l-7 -57 -15 33 c-11
23 -22 32 -36 30 -14 -2 -22 3 -24 17 -7 43 -33 85 -52 85 -19 0 -19 2 4 55
26 58 24 68 -11 54z m-5 -199 c2 -12 1 -38 -3 -56 -4 -26 -11 -34 -27 -34 -19
0 -20 4 -14 52 4 28 10 56 13 60 9 15 28 2 31 -22z m73 -83 c-10 -9 -11 -8 -5
6 3 10 9 15 12 12 3 -3 0 -11 -7 -18z m309 -68 c0 -6 -4 -7 -10 -4 -5 3 -10
11 -10 16 0 6 5 7 10 4 6 -3 10 -11 10 -16z m-630 -9 c0 -5 -4 -10 -10 -10 -5
0 -10 5 -10 10 0 6 5 10 10 10 6 0 10 -4 10 -10z m-90 -22 c-1 -7 -7 -24 -14
-38 -14 -24 -14 -24 -14 13 0 25 5 37 14 37 8 0 14 -6 14 -12z m748 -43 c7
-14 12 -32 12 -40 0 -24 -17 -17 -24 9 -3 13 -9 31 -12 40 -10 27 12 18 24 -9z
m-793 -103 c-3 -7 -5 -18 -5 -24 0 -6 -6 -8 -14 -5 -15 6 -54 -17 -74 -45 -7
-10 -17 -18 -22 -18 -9 0 49 112 63 122 16 10 58 -14 52 -30z"/>
<path d="M7020 2161 c0 -5 5 -13 10 -16 6 -3 10 -2 10 4 0 5 -4 13 -10 16 -5
3 -10 2 -10 -4z"/>
<path d="M9325 2063 c-27 -7 -46 -23 -39 -34 14 -23 114 1 114 28 0 13 -34 16
-75 6z"/>
<path d="M9523 2056 c-4 -8 -24 -16 -43 -19 -30 -3 -29 -4 12 -5 26 -1 50 -6
53 -12 13 -22 75 -4 75 21 0 21 -86 34 -97 15z"/>
<path d="M9418 2033 c7 -3 16 -2 19 1 4 3 -2 6 -13 5 -11 0 -14 -3 -6 -6z"/>
<path d="M2100 1880 c-18 -11 -3 -43 24 -48 21 -4 32 24 16 43 -14 17 -20 18
-40 5z"/>
<path d="M1572 1869 c2 -7 10 -15 17 -17 8 -3 12 1 9 9 -2 7 -10 15 -17 17 -8
3 -12 -1 -9 -9z"/>
<path d="M1800 1770 c0 -5 5 -10 10 -10 6 0 10 5 10 10 0 6 -4 10 -10 10 -5 0
-10 -4 -10 -10z"/>
<path d="M4350 1740 c0 -5 5 -10 10 -10 6 0 10 5 10 10 0 6 -4 10 -10 10 -5 0
-10 -4 -10 -10z"/>
<path d="M4292 1637 c-9 -11 -10 -17 -2 -22 15 -9 23 -1 18 21 -3 15 -4 16
-16 1z"/>
<path d="M2737 1590 c-8 -31 18 -46 48 -26 31 20 23 46 -15 46 -19 0 -29 -6
-33 -20z"/>
<path d="M6440 960 c0 -5 7 -10 16 -10 8 0 12 5 9 10 -3 6 -10 10 -16 10 -5 0
-9 -4 -9 -10z"/>
</g>
</svg>
