<?xml version="1.0" encoding="UTF-8" standalone="no"?><!-- Generator: Gravit.io -->
<svg xmlns="http://www.w3.org/2000/svg" 
  xmlns:xlink="http://www.w3.org/1999/xlink" style="isolation:isolate" viewBox="0 0 1000 284" width="1000pt" height="284pt">
  <defs>
    <clipPath id="_clipPath_SSC33FNW1mTFmzUYlY6RojfYdvuWbkdP">
      <rect width="1000" height="284"/>
    </clipPath>
  </defs>
  <g clip-path="url(#_clipPath_SSC33FNW1mTFmzUYlY6RojfYdvuWbkdP)">
    <path d=" M 772 7 L 769 16 L 768 21 L 767 26 C 766 26 765 27 765 29 C 765 32 765 32 762 32 C 759 32 759 32 759 37 C 759 41 759 42 757 42 C 755 42 755 43 755 45 C 755 49 755 49 752 49 L 748 49 L 748 237 L 742 234 L 735 231 C 734 230 720 226 711 225 C 699 223 699 224 697 217 L 695 212 L 697 218 C 698 223 698 223 696 223 C 695 223 694 224 694 227 C 693 231 693 233 696 238 C 701 250 701 249 692 251 L 687 251 L 687 224 L 678 224 L 678 190 L 670 190 L 670 156 L 661 156 L 661 122 L 653 122 L 653 113 L 627 113 L 627 177 L 626 241 L 620 240 C 616 239 615 238 615 236 C 615 234 615 234 611 234 L 607 234 L 607 214 L 598 214 L 598 224 C 598 232 598 234 597 233 L 595 234 L 584 235 L 573 234 L 573 238 L 574 242 L 564 241 L 549 240 C 542 239 542 238 542 246 C 542 252 541 253 539 253 L 537 253 L 537 197 C 537.269 176.593 535.931 156.197 533 136 L 532 134 L 531 131 L 526 124 L 522 112 L 521 106 C 520 104 519 108 519 113 C 519 117 513 131 511 131 L 510 134 C 510 137 510 137 509 136 C 508 135 508 135 508 137 L 507 140 C 506 141 505 154 505 202 L 505 264 L 499 264 L 499 218 C 499.436 192.533 497.427 167.083 493 142 L 488 133 L 484 127 L 482 131 C 476 139 475 143 474 148 L 473 153 L 472 162 L 471 172 L 470 208 L 470 243 L 468 241 L 465 239 C 463 239 463 229 463 155 L 463 71 L 460 72 L 451 70 L 444 69 C 442 69 442 69 442 59 L 442 37 C 442 25 442 25 441 32 L 441 69 L 438 69 C 435 69 426 72 424 74 C 422 75 422 81 422 159 L 422 244 L 419 245 L 415 245 L 414 201 L 413 134 L 412 111 L 408 105 C 401 91 398 83 398 76 L 398 69 L 397 77 C 395 84 392 93 386 105 L 382 112 L 381 135 L 380 205 L 380 251 L 377 249 L 373 247 L 373 209 C 373.154 195.992 372.82 182.983 372 170 L 370 165 L 368 163 L 365 165 C 364 167 363 169 364 170 L 363 171 L 362 172 C 362 174 361 174 357 174 C 353 174 352 174 352 172 L 351 171 L 350 170 L 349 166 L 347 162 L 346 160 L 346 162 L 344 165 L 342 167 L 340 165 L 338 163 L 336 166 L 334 170 L 333 171 L 333 172 C 333 173 333 174 331 174 C 324 175 324 175 323 173 L 322 171 L 321 170 C 321 169 321 167 319 166 L 317 163 L 315 165 L 313 169 L 312 171 L 311 210 L 310 250 L 308 250 L 307 209 C 307 155 306 139 300 123 C 298 117 295 116 295 121 L 296 124 C 296.199 135.689 296.867 147.365 298 159 L 297 156 L 297 153 L 283 153 L 283 156 L 282 159 C 280 159 280 160 281 143 C 282 126 283 123 284 123 C 285 124 285 123 285 121 C 285 113 279 123 277 137 C 274 150 273 167 273 206 L 273 244 L 269 247 L 265 249 L 264 207 L 263 164 L 261 164 C 256 164 256 164 256 160 C 256 158 256 157 254 157 L 252 155 L 250 151 L 242 145 C 234 138 231 138 223 145 L 218 149 L 212 144 C 204 138 192 132 183 130 C 174 128 159 129 150 132 C 133 138 118 153 113 167 L 110 173 L 109 178 L 109 182 L 99 182 L 99 187 L 98 222 C 98 249 98 252 96 252 L 94 251 L 93 202 L 92 151 C 92 149 85 148 85 150 L 82 151 C 79 151 78 151 77 148 C 76 144 72 142 62 142 C 54 142 54 142 55 144 L 55 151 L 54 201 L 54 251 L 48 251 C 42 252 37 256 38 261 L 39 264 L 0 264 L 0 284 L 1000 284 L 1000 264 L 987 264 L 974 263 L 974 252 L 974 241 L 969 240 C 964 238 963 238 960 239 L 956 241 L 956 237 L 955 232 L 933 232 L 933 237 L 932 241 C 930 241 930 240 930 234 C 930 228 930 226 928 226 C 926 225 927 219 929 217 C 931 215 931 215 929 211 C 929 209 926 206 923 203 C 919 199 919 198 919 195 C 920 193 919 192 918 191 L 917 187 L 916 184 L 915 187 L 914 190 L 913 196 L 912 200 L 911 201 L 909 203 C 904 205 900 214 903 217 C 905 219 905 225 903 226 L 902 234 L 901 241 L 900 238 L 900 233 L 877 233 L 877 238 C 877 241 876 242 874 239 L 873 179 C 874.363 158.619 873.357 138.149 870 118 C 870 115 869 114 867 113 C 866 112 865 111 865 108 C 865 99 865 98 864 100 L 855 100 L 854 100 L 854 106 C 854 111 853 112 852 113 C 850 113 849 115 849 117 C 849 121 846 123 838 123 C 829 123 826 121 826 117 L 824 113 C 822 112 821 112 821 106 L 821 100 L 820 100 L 811 100 C 810 98 810 99 810 108 C 810 111 809 112 808 113 C 806 114 805 115 805 118 L 804 121 C 802 121 802 129 802 180 L 802 238 L 797 238 L 797 49 L 794 49 C 790 49 790 49 790 45 L 789 42 C 787 42 787 41 787 37 L 787 32 L 784 32 C 780 32 780 32 780 29 L 779 26 C 778 25 777 23 777 19 L 775 13 L 773 9 L 772 7 L 772 7 Z  M 817 107 L 816 109 C 815 110 815 109 815 107 L 816 105 L 817 107 L 817 107 Z  M 860 108 C 860 109 860 110 859 109 L 858 107 L 859 105 L 860 108 L 860 108 Z  M 813 109 C 812 110 812 109 812 108 C 812 107 812 106 813 107 L 813 109 L 813 109 Z  M 819 108 L 818 110 L 818 108 L 819 106 L 819 108 L 819 108 Z  M 857 109 C 856 110 856 109 856 108 C 856 107 856 106 857 107 L 857 109 L 857 109 Z  M 863 109 C 862 110 862 109 862 108 C 862 107 862 106 863 107 L 863 109 L 863 109 Z  M 521 114 C 520 115 520 114 520 113 C 520 112 520 111 521 112 L 521 114 L 521 114 Z  M 168 132 C 168 134 168 134 170 134 C 172 135 173 134 173 132 L 175 130 L 175 145 L 171 145 C 168 145 167 145 167 142 L 166 131 C 166 129 168 130 168 132 Z  M 164 134 C 166 144 166 145 162 146 C 158 146 158 146 156 142 C 155 136 155 136 157 136 C 159 136 160 136 160 134 C 160 130 164 130 164 134 Z  M 181 133 C 180 134 181 135 182 136 C 184 137 185 136 186 133 L 187 132 C 188 133 187 136 186 140 L 184 147 L 180 146 C 176 145 176 145 176 141 L 177 134 C 177 132 177 131 179 131 C 181 131 181 131 181 133 Z  M 155 140 L 157 147 L 153 148 L 149 150 L 147 146 C 145 142 145 142 147 141 L 148 137 C 147 135 149 133 152 133 L 155 140 L 155 140 Z  M 193 137 C 193 140 194 140 197 140 L 193 150 L 189 148 C 186 147 185 146 186 145 L 188 138 C 189 134 189 133 191 134 C 193 134 193 135 193 137 Z  M 145 144 L 148 150 L 145 153 L 142 155 L 138 151 L 136 146 L 136 143 C 135 142 136 141 138 140 L 141 138 L 145 144 L 145 144 Z  M 203 139 C 204 140 205 141 204 143 L 205 146 C 206 147 205 149 203 151 L 200 155 L 197 153 L 194 150 L 201 138 L 203 139 L 203 139 Z  M 137 152 C 141 155 141 156 137 159 L 135 161 L 131 158 C 126 154 125 151 128 148 C 130 145 130 145 133 147 L 137 152 L 137 152 Z  M 213 147 C 215 150 215 150 214 151 L 213 155 L 211 157 L 209 159 C 208 162 207 162 204 158 L 201 155 L 205 150 L 210 145 L 213 148 L 213 147 Z  M 174 149 C 173 161 173 163 171 163 C 169 163 168 162 168 153 L 167 146 L 171 146 C 174 146 175 147 174 149 Z  M 166 152 C 167 161 167 163 165 163 C 163 164 163 163 161 156 C 158 148 158 147 163 147 C 165 147 166 147 166 152 Z  M 182 148 C 183 149 183 150 181 156 C 179 162 179 163 177 163 C 174 163 174 163 175 158 C 176 148 176 147 178 147 L 182 148 L 182 148 Z  M 160 157 C 162 163 162 164 160 164 C 158 165 157 165 154 158 L 150 151 L 152 150 C 156 148 157 149 160 157 Z  M 190 150 C 192 152 191 152 188 158 C 184 166 184 166 182 165 C 180 164 180 163 182 156 C 184 149 186 148 190 150 Z  M 153 159 C 156 165 157 168 154 168 C 152 168 143 158 143 156 L 149 152 L 153 159 L 153 159 Z  M 199 156 L 205 162 L 193 172 L 191 171 C 190 169 191 168 195 164 L 199 157 L 194 163 C 189 168 189 169 187 168 L 185 166 L 193 152 L 199 156 L 199 156 Z  M 131 159 L 134 162 L 132 166 L 130 169 L 125 167 C 118 163 117 162 120 158 C 122 155 126 155 131 159 Z  M 148 164 C 151 168 152 170 151 171 C 149 173 148 172 142 167 L 136 163 L 142 169 C 147 173 148 174 147 175 L 145 177 L 138 173 C 130 169 130 169 137 161 C 142 156 141 156 148 164 Z  M 169 174 L 169 182 L 166 174 C 164 167 164 166 165 165 C 167 164 168 165 169 174 Z  M 172 171 C 172 179 170 185 170 179 L 169 170 C 169 164 169 164 171 164 C 173 164 173 164 172 171 Z  M 177 165 C 178 166 178 167 176 174 C 173 183 171 186 172 180 L 174 171 C 174 164 175 163 177 165 Z  M 125 167 C 129 170 129 170 128 173 L 126 176 C 125 177 113 174 113 173 C 113 169 114 167 116 167 L 119 166 C 119 165 120 165 125 167 Z  M 165 174 L 167 182 L 159 167 L 161 166 L 165 174 L 165 174 Z  M 182 167 L 179 175 L 175 183 L 177 174 C 179 167 181 165 182 167 Z  M 162 176 L 166 184 L 160 177 C 155 171 154 170 155 169 L 157 168 L 162 176 L 162 176 Z  M 187 169 L 182 177 L 177 184 L 185 175 C 189 171 189 171 191 172 C 192 173 192 174 187 178 L 180 184 L 187 179 C 191 175 192 175 194 176 L 194 178 C 193 180 178 187 178 186 C 179 185 178 184 176 185 L 178 179 L 183 170 C 184 168 186 167 187 169 Z  M 201 171 C 201 176 198 178 195 175 C 194 174 194 174 197 171 L 201 168 L 201 171 L 201 171 Z  M 134 173 L 137 174 L 135 177 C 133 179 131 179 129 178 L 129 174 C 131 170 130 171 134 173 Z  M 158 177 C 165 186 165 186 163 187 C 160 188 146 184 146 182 C 145 179 146 179 154 183 L 162 187 L 157 183 C 149 179 147 178 148 176 C 149 174 149 175 156 180 L 163 185 L 157 179 C 151 175 150 173 151 172 L 153 171 L 158 177 L 158 177 Z  M 125 181 C 125 185 124 186 121 186 C 116 186 113 185 114 184 L 112 182 C 109 182 110 181 113 178 C 116 175 116 175 120 177 C 124 178 125 179 125 181 Z  M 145 179 L 143 178 C 142 177 142 177 143 178 L 145 179 L 145 179 Z  M 201 179 C 201 182 199 183 198 180 C 197 178 198 177 200 177 L 201 179 L 201 179 Z  M 131 180 L 131 185 C 131 187 131 187 129 187 C 127 187 126 186 126 185 C 126 181 127 179 129 179 L 131 180 L 131 180 Z  M 196 183 L 180 188 L 188 183 C 194 180 196 179 196 181 L 196 183 L 196 183 Z  M 201 186 C 201 188 201 188 200 187 L 200 183 L 201 186 L 201 186 Z  M 198 186 C 198 188 197 189 187 189 L 180 190 L 188 187 C 199 183 198 184 198 186 Z  M 155 187 L 163 190 L 155 189 C 146 189 145 188 145 186 C 145 184 146 185 155 187 Z  M 117 188 L 113 188 L 116 187 C 118 187 118 187 117 188 Z  M 131 189 L 130 190 L 129 189 L 129 188 L 131 189 L 131 189 Z  M 199 192 L 196 194 L 187 192 L 180 192 L 189 190 C 198 189 200 190 199 192 Z  M 160 191 L 150 193 C 147 193 146 193 146 191 L 152 190 L 160 191 L 160 191 Z  M 201 193 C 200 194 200 193 200 192 C 200 191 200 190 201 191 L 201 193 L 201 193 Z  M 155 196 C 146 198 146 198 146 196 C 146 195 148 194 154 194 C 162 193 162 193 155 196 Z  M 193 194 C 197 195 198 195 198 197 C 198 199 198 199 196 199 L 180 193 L 193 194 L 193 194 Z  M 161 196 L 153 201 C 146 204 146 204 146 202 C 146 200 148 199 154 197 L 161 196 L 161 196 Z  M 189 198 C 197 200 198 200 196 203 L 188 200 L 180 196 L 187 201 C 194 205 195 205 194 207 C 193 209 192 209 186 203 L 179 196 L 189 198 L 189 198 Z  M 201 200 C 199 201 199 199 200 197 L 200 194 L 201 197 L 201 200 L 201 200 Z  M 164 199 L 165 199 C 167 198 167 198 165 201 L 162 208 C 162 212 160 217 159 217 L 160 213 C 163 207 162 207 159 212 C 157 216 157 216 155 215 C 154 213 154 213 158 208 L 164 201 C 165 198 161 202 157 208 C 153 213 153 213 151 211 C 149 210 149 210 159 202 C 166 196 163 197 156 203 C 150 208 148 209 148 206 C 148 205 163 196 164 197 L 164 199 L 164 199 Z  M 186 204 C 190 208 192 210 191 211 C 189 213 188 212 183 205 L 177 199 L 182 207 C 188 213 188 214 186 215 C 185 216 184 215 182 211 L 179 207 L 181 212 C 183 216 183 217 182 217 C 181 217 178 208 179 207 L 177 202 L 176 198 C 176 197 178 198 186 204 Z  M 176 209 C 179 219 179 219 176 219 C 175 219 174 218 174 213 L 172 204 C 171 198 173 201 176 209 Z  M 201 204 C 201 207 201 207 199 206 C 198 205 197 204 198 203 C 199 200 201 201 201 204 Z  M 168 211 C 168 218 168 219 166 219 C 164 219 164 218 164 217 L 169 202 L 168 211 L 168 211 Z  M 199 207 C 201 208 201 210 201 212 L 201 215 L 197 213 C 195 210 194 209 195 208 C 196 206 197 206 199 207 Z  M 150 212 C 151 214 150 217 148 219 C 146 220 146 220 146 216 C 146 211 148 209 150 212 Z  M 197 214 C 201 217 201 218 201 222 L 200 226 L 195 220 C 191 215 190 214 191 212 C 193 210 193 211 197 214 Z  M 155 216 C 156 218 156 219 153 224 L 148 231 L 146 227 C 146 224 147 222 149 219 C 153 215 153 214 155 216 Z  M 195 221 L 199 227 L 197 229 L 194 231 L 189 224 C 185 218 185 217 187 216 C 189 215 189 215 195 221 Z  M 159 219 L 157 227 C 155 232 154 233 152 233 L 150 232 L 158 218 L 159 219 L 159 219 Z  M 188 225 C 192 232 192 232 190 233 L 188 234 L 183 219 C 184 217 185 218 188 225 Z  M 166 221 L 167 229 L 166 237 L 162 236 L 158 236 L 163 221 L 166 221 L 166 221 Z  M 181 227 L 183 235 L 176 237 L 175 229 C 174 221 175 220 178 220 L 181 227 L 181 227 Z  M 169 237 C 167 238 167 236 168 228 L 169 220 L 169 237 L 169 237 Z  M 174 231 C 175 235 174 237 173 237 L 172 229 C 172 219 174 221 174 231 Z  M 201 237 L 201 245 L 194 233 L 200 229 L 201 237 L 201 237 Z  M 153 236 C 153 239 149 247 148 247 C 146 247 146 239 148 236 L 147 234 L 146 234 C 146 232 147 232 150 234 L 153 236 L 153 236 Z  M 196 239 C 199 246 200 247 198 245 L 194 244 C 192 244 191 243 190 240 L 188 236 L 192 234 L 196 239 L 196 239 Z  M 163 238 C 165 238 165 239 165 242 C 165 247 165 248 158 248 L 154 249 L 156 244 C 158 237 158 237 160 237 L 163 238 L 163 238 Z  M 186 243 L 187 250 C 186 253 176 245 176 241 C 176 239 177 238 179 238 L 183 237 L 186 243 L 186 243 Z  M 169 242 L 168 245 C 166 245 166 243 167 241 C 168 238 169 239 169 242 Z  M 175 241 L 174 244 C 173 244 172 243 172 241 L 174 239 L 175 241 L 175 241 Z  M 189 246 L 188 246 L 187 243 C 187 241 189 245 189 246 Z  M 153 247 L 153 246 L 154 245 L 153 247 L 153 247 Z  M 689 259 C 690 262 690 263 688 263 L 687 258 C 687 253 687 253 689 259 Z  M 692 257 L 691 261 L 689 256 L 691 254 C 693 254 693 254 692 257 Z  M 697 260 C 697 263 697 263 695 263 C 692 263 692 263 693 258 C 694 253 695 254 697 260 Z  M 700 256 L 699 260 C 699 262 697 260 697 257 C 696 254 696 254 698 254 C 700 254 700 254 700 256 Z  M 703 256 L 704 260 C 704 262 704 263 701 263 C 700 263 699 263 699 261 L 701 257 C 701 254 703 253 703 256 Z  M 539 262 L 538 264 L 537 260 C 537 256 537 256 538 258 L 539 262 L 539 262 Z " fill="rgb(0,0,0)"/>
    <path d=" M 316 161 L 317 162 L 318 161 L 316 160 L 316 161 Z " fill="rgb(0,0,0)"/>
  </g>
</svg>
