<svg xmlns="https://www.w3.org/2000/svg" version="1" viewBox="0 0 1000 284">
  <path d="M636 5c-1 0 0 2 2 2 3 1 4 2 3 3 0 2 3 6 5 6l1-2c1-3 1-3 7-2 5 2 6 2 8 0 2-1 2-2 0-2V9 7l-3 1-5 1c-2-1-2-1 1-2 6-3 7-3 2-2h-21z"/>
  <path d="M772 7l-3 9-1 5-1 5c-1 0-2 1-2 3 0 3 0 3-3 3s-3 0-3 5c0 4 0 5-2 5s-2 1-2 3c0 4 0 4-3 4h-4v188l-6-3-7-3c-1-1-15-5-24-6-12-2-12-1-14-8l-2-5 2 6c1 5 1 5-1 5-1 0-2 1-2 4-1 4-1 6 2 11 5 12 5 11-4 13h-5v-27h-9v-34h-8v-34h-9v-34h-8v-9h-26v64l-1 64-6-1c-4-1-5-2-5-4s0-2-4-2h-4v-20h-9v10c0 8 0 10-1 9l-2 1-11 1-11-1v4l1 4-10-1-15-1c-7-1-7-2-7 6 0 6-1 7-3 7h-2v-56a389 389 0 0 0-4-61l-1-2-1-3-5-7-4-12-1-6c-1-2-2 2-2 7 0 4-6 18-8 18l-1 3c0 3 0 3-1 2s-1-1-1 1l-1 3c-1 1-2 14-2 62v62h-6v-46a398 398 0 0 0-6-76l-5-9-4-6-2 4c-6 8-7 12-8 17l-1 5-1 9-1 10-1 36v35l-2-2-3-2c-2 0-2-10-2-84V71l-3 1-9-2-7-1c-2 0-2 0-2-10V37c0-12 0-12-1-5v37h-3c-3 0-12 3-14 5-2 1-2 7-2 85v85l-3 1h-4l-1-44-1-67-1-23-4-6c-7-14-10-22-10-29v-7l-1 8c-2 7-5 16-11 28l-4 7-1 23-1 70v46l-3-2-4-2v-38a521 521 0 0 0-1-39l-2-5-2-2-3 2c-1 2-2 4-1 5l-1 1-1 1c0 2-1 2-5 2s-5 0-5-2l-1-1-1-1-1-4-2-4-1-2v2l-2 3-2 2-2-2-2-2-2 3-2 4-1 1v1c0 1 0 2-2 2-7 1-7 1-8-1l-1-2-1-1c0-1 0-3-2-4l-2-3-2 2-2 4-1 2-1 39-1 40h-2l-1-41c0-54-1-70-7-86-2-6-5-7-5-2l1 3a438 438 0 0 0 2 35l-1-3v-3h-14v3l-1 3c-2 0-2 1-1-16s2-20 3-20c1 1 1 0 1-2 0-8-6 2-8 16-3 13-4 30-4 69v38l-4 3-4 2-1-42-1-43h-2c-5 0-5 0-5-4 0-2 0-3-2-3l-2-2-2-4-8-6c-8-7-11-7-19 0l-5 4-6-5c-8-6-20-12-29-14s-24-1-33 2c-17 6-32 21-37 35l-3 6-1 5v4H99v5l-1 35c0 27 0 30-2 30l-2-1-1-49-1-51c0-2-7-3-7-1l-3 1c-3 0-4 0-5-3-1-4-5-6-15-6-8 0-8 0-7 2v7l-1 50v50h-6c-6 1-11 5-10 10l1 3H0v20h1000v-20h-13l-13-1v-11-11l-5-1c-5-2-6-2-9-1l-4 2v-4l-1-5h-22v5l-1 4c-2 0-2-1-2-7s0-8-2-8c-2-1-1-7 1-9s2-2 0-6c0-2-3-5-6-8-4-4-4-5-4-8 1-2 0-3-1-4l-1-4-1-3-1 3-1 3-1 6-1 4-1 1-2 2c-5 2-9 11-6 14 2 2 2 8 0 9l-1 8-1 7-1-3v-5h-23v5c0 3-1 4-3 1l-1-60a264 264 0 0 0-3-61c0-3-1-4-3-5-1-1-2-2-2-5 0-9 0-10-1-8h-9-1v6c0 5-1 6-2 7-2 0-3 2-3 4 0 4-3 6-11 6-9 0-12-2-12-6l-2-4c-2-1-3-1-3-7v-6h-1-9c-1-2-1-1-1 8 0 3-1 4-2 5-2 1-3 2-3 5l-1 3c-2 0-2 8-2 59v58h-5V49h-3c-4 0-4 0-4-4l-1-3c-2 0-2-1-2-5v-5h-3c-4 0-4 0-4-3l-1-3c-1-1-2-3-2-7l-2-6-2-4-1-2zm45 100l-1 2c-1 1-1 0-1-2l1-2 1 2zm43 1c0 1 0 2-1 1l-1-2 1-2 1 3zm-47 1c-1 1-1 0-1-1s0-2 1-1v2zm6-1l-1 2v-2l1-2v2zm38 1c-1 1-1 0-1-1s0-2 1-1v2zm6 0c-1 1-1 0-1-1s0-2 1-1v2zm-342 5c-1 1-1 0-1-1s0-2 1-1v2zm-353 18c0 2 0 2 2 2 2 1 3 0 3-2l2-2v15h-4c-3 0-4 0-4-3l-1-11c0-2 2-1 2 1zm-4 2c2 10 2 11-2 12-4 0-4 0-6-4-1-6-1-6 1-6s3 0 3-2c0-4 4-4 4 0zm17-1c-1 1 0 2 1 3 2 1 3 0 4-3l1-1c1 1 0 4-1 8l-2 7-4-1c-4-1-4-1-4-5l1-7c0-2 0-3 2-3s2 0 2 2zm-26 7l2 7-4 1-4 2-2-4c-2-4-2-4 0-5l1-4c-1-2 1-4 4-4l3 7zm38-3c0 3 1 3 4 3l-4 10-4-2c-3-1-4-2-3-3l2-7c1-4 1-5 3-4 2 0 2 1 2 3zm-48 7l3 6-3 3-3 2-4-4-2-5v-3c-1-1 0-2 2-3l3-2 4 6zm58-5c1 1 2 2 1 4l1 3c1 1 0 3-2 5l-3 4-3-2-3-3 7-12 2 1zm-66 13c4 3 4 4 0 7l-2 2-4-3c-5-4-6-7-3-10 2-3 2-3 5-1l4 5zm76-5c2 3 2 3 1 4l-1 4-2 2-2 2c-1 3-2 3-5-1l-3-3 4-5 5-5 3 3zm-39 2c-1 12-1 14-3 14s-3-1-3-10l-1-7h4c3 0 4 1 3 3zm-8 3c1 9 1 11-1 11-2 1-2 0-4-7-3-8-3-9 2-9 2 0 3 0 3 5zm16-4c1 1 1 2-1 8s-2 7-4 7c-3 0-3 0-2-5 1-10 1-11 3-11l4 1zm-22 9c2 6 2 7 0 7-2 1-3 1-6-6l-4-7 2-1c4-2 5-1 8 7zm30-7c2 2 1 2-2 8-4 8-4 8-6 7s-2-2 0-9 4-8 8-6zm-37 9c3 6 4 9 1 9-2 0-11-10-11-12l6-4 4 7zm46-3l6 6-12 10-2-1c-1-2 0-3 4-7l4-7-5 6c-5 5-5 6-7 5l-2-2 8-14 6 4zm-68 3l3 3-2 4-2 3-5-2c-7-4-8-5-5-9 2-3 6-3 11 1zm17 5c3 4 4 6 3 7-2 2-3 1-9-4l-6-4 6 6c5 4 6 5 5 6l-2 2-7-4c-8-4-8-4-1-12 5-5 4-5 11 3zm21 10v8l-3-8c-2-7-2-8-1-9 2-1 3 0 4 9zm3-3c0 8-2 14-2 8l-1-9c0-6 0-6 2-6s2 0 1 7zm5-6c1 1 1 2-1 9-3 9-5 12-4 6l2-9c0-7 1-8 3-6zm-52 2c4 3 4 3 3 6l-2 3c-1 1-13-2-13-3 0-4 1-6 3-6l3-1c0-1 1-1 6 1zm40 7l2 8-8-15 2-1 4 8zm17-7l-3 8-4 8 2-9c2-7 4-9 5-7zm-20 9l4 8-6-7c-5-6-6-7-5-8l2-1 5 8zm25-7l-5 8-5 7 8-9c4-4 4-4 6-3 1 1 1 2-4 6l-7 6 7-5c4-4 5-4 7-3v2c-1 2-16 9-16 8 1-1 0-2-2-1l2-6 5-9c1-2 3-3 4-1zm14 2c0 5-3 7-6 4-1-1-1-1 2-4l4-3v3zm-67 2l3 1-2 3c-2 2-4 2-6 1v-4c2-4 1-3 5-1zm24 4c7 9 7 9 5 10-3 1-17-3-17-5-1-3 0-3 8 1l8 4-5-4c-8-4-10-5-9-7s1-1 8 4l7 5-6-6c-6-4-7-6-6-7l2-1 5 6zm-33 4c0 4-1 5-4 5-5 0-8-1-7-2l-2-2c-3 0-2-1 1-4s3-3 7-1c4 1 5 2 5 4zm20-2l-2-1c-1-1-1-1 0 0l2 1zm56 0c0 3-2 4-3 1-1-2 0-3 2-3l1 2zm-70 1v5c0 2 0 2-2 2s-3-1-3-2c0-4 1-6 3-6l2 1zm65 3l-16 5 8-5c6-3 8-4 8-2v2zm5 3c0 2 0 2-1 1v-4l1 3zm-3 0c0 2-1 3-11 3l-7 1 8-3c11-4 10-3 10-1zm-43 1l8 3-8-1c-9 0-10-1-10-3s1-1 10 1zm-38 1h-4l3-1c2 0 2 0 1 1zm14 1l-1 1-1-1v-1l2 1zm68 3l-3 2-9-2h-7l9-2c9-1 11 0 10 2zm-39-1l-10 2c-3 0-4 0-4-2l6-1 8 1zm41 2c-1 1-1 0-1-1s0-2 1-1v2zm-46 3c-9 2-9 2-9 0 0-1 2-2 8-2 8-1 8-1 1 2zm38-2c4 1 5 1 5 3s0 2-2 2l-16-6 13 1zm-32 2l-8 5c-7 3-7 3-7 1s2-3 8-5l7-1zm28 2c8 2 9 2 7 5l-8-3-8-4 7 5c7 4 8 4 7 6s-2 2-8-4l-7-7 10 2zm12 2c-2 1-2-1-1-3v-3l1 3v3zm-37-1h1c2-1 2-1 0 2l-3 7c0 4-2 9-3 9l1-4c3-6 2-6-1-1-2 4-2 4-4 3-1-2-1-2 3-7l6-7c1-3-3 1-7 7-4 5-4 5-6 3-2-1-2-1 8-9 7-6 4-5-3 1-6 5-8 6-8 3 0-1 15-10 16-9v2zm22 5c4 4 6 6 5 7-2 2-3 1-8-6l-6-6 5 8c6 6 6 7 4 8-1 1-2 0-4-4l-3-4 2 5c2 4 2 5 1 5s-4-9-3-10l-2-5-1-4c0-1 2 0 10 6zm-10 5c3 10 3 10 0 10-1 0-2-1-2-6l-2-9c-1-6 1-3 4 5zm25-5c0 3 0 3-2 2-1-1-2-2-1-3 1-3 3-2 3 1zm-33 7c0 7 0 8-2 8s-2-1-2-2l5-15-1 9zm31-4c2 1 2 3 2 5v3l-4-2c-2-3-3-4-2-5 1-2 2-2 4-1zm-49 5c1 2 0 5-2 7-2 1-2 1-2-3 0-5 2-7 4-4zm47 2c4 3 4 4 4 8l-1 4-5-6c-4-5-5-6-4-8 2-2 2-1 6 2zm-42 2c1 2 1 3-2 8l-5 7-2-4c0-3 1-5 3-8 4-4 4-5 6-3zm40 5l4 6-2 2-3 2-5-7c-4-6-4-7-2-8s2-1 8 5zm-36-2l-2 8c-2 5-3 6-5 6l-2-1 8-14 1 1zm29 6c4 7 4 7 2 8l-2 1-5-15c1-2 2-1 5 6zm-22-4l1 8-1 8-4-1h-4l5-15h3zm15 6l2 8-7 2-1-8c-1-8 0-9 3-9l3 7zm-12 10c-2 1-2-1-1-9l1-8v17zm5-6c1 4 0 6-1 6l-1-8c0-10 2-8 2 2zm27 6v8l-7-12 6-4 1 8zm-48-1c0 3-4 11-5 11-2 0-2-8 0-11l-1-2h-1c0-2 1-2 4 0l3 2zm43 3c3 7 4 8 2 6l-4-1c-2 0-3-1-4-4l-2-4 4-2 4 5zm-33-1c2 0 2 1 2 4 0 5 0 6-7 6l-4 1 2-5c2-7 2-7 4-7l3 1zm23 5l1 7c-1 3-11-5-11-9 0-2 1-3 3-3l4-1 3 6zm-17-1l-1 3c-2 0-2-2-1-4 1-3 2-2 2 1zm6-1l-1 3c-1 0-2-1-2-3l2-2 1 2zm14 5h-1l-1-3c0-2 2 2 2 3zm-36 1v-1l1-1-1 2zm536 12c1 3 1 4-1 4l-1-5c0-5 0-5 2 1zm3-2l-1 4-2-5 2-2c2 0 2 0 1 3zm5 3c0 3 0 3-2 3-3 0-3 0-2-5s2-4 4 2zm3-4l-1 4c0 2-2 0-2-3-1-3-1-3 1-3s2 0 2 2zm3 0l1 4c0 2 0 3-3 3-1 0-2 0-2-2l2-4c0-3 2-4 2-1zm-164 6l-1 2-1-4c0-4 0-4 1-2l1 4z"/>
  <path d="M316 161l1 1 1-1-2-1v1z"/>
</svg>
