<?xml version="1.0" standalone="no"?>
<!DOCTYPE svg PUBLIC "-//W3C//DTD SVG 20010904//EN"
 "http://www.w3.org/TR/2001/REC-SVG-20010904/DTD/svg10.dtd">
<svg version="1.0" xmlns="http://www.w3.org/2000/svg"
 width="1000.000000pt" height="284.000000pt" viewBox="0 0 1000.000000 284.000000"
 preserveAspectRatio="xMidYMid meet">

<g transform="translate(0.000000,284.000000) scale(0.100000,-0.100000)"
fill="#000000" stroke="none">
<path d="M6356 2791 c-4 -6 8 -17 28 -25 24 -10 34 -20 30 -29 -5 -14 31 -57
47 -57 4 0 10 11 13 24 6 24 6 24 63 11 50 -12 59 -11 81 3 22 14 23 17 6 22
-12 5 -14 9 -6 14 7 4 10 11 7 16 -3 5 -20 1 -38 -9 -21 -13 -39 -16 -52 -11
-18 7 -17 9 10 20 67 27 70 30 20 22 -63 -9 -131 -8 -171 2 -20 5 -34 4 -38
-3z"/>
<path d="M7721 2766 c-1 -28 -24 -86 -33 -86 -4 0 -8 -22 -8 -50 0 -38 -4 -50
-15 -50 -10 0 -15 -10 -15 -30 0 -27 -3 -30 -30 -30 -29 0 -30 -1 -30 -50 0
-43 -3 -50 -20 -50 -16 0 -20 -7 -20 -35 0 -33 -2 -35 -35 -35 l-35 0 -2 -939
-3 -939 -59 24 c-33 13 -62 28 -65 32 -9 12 -156 49 -246 62 -116 16 -112 14
-134 83 -11 34 -20 55 -20 47 -1 -8 6 -36 14 -62 13 -46 13 -48 -5 -48 -15 0
-20 -10 -25 -44 -6 -37 -2 -55 23 -108 55 -117 56 -112 -35 -123 l-53 -6 0
136 0 135 -45 0 -45 0 0 170 0 170 -40 0 -40 0 0 170 0 170 -45 0 -45 0 0 170
0 170 -40 0 -40 0 0 45 0 45 -130 0 -130 0 0 -640 c0 -559 -2 -640 -15 -640
-8 0 -35 5 -60 12 -37 10 -45 16 -45 35 0 20 -5 23 -40 23 l-40 0 0 100 0 100
-45 0 -45 0 0 -100 c0 -84 -2 -98 -15 -94 -8 4 -15 1 -15 -6 0 -10 -26 -11
-111 -5 l-112 7 6 -40 7 -39 -103 3 c-56 1 -122 7 -147 13 -70 16 -69 17 -72
-56 -3 -61 -5 -68 -25 -71 l-22 -3 -3 562 c-2 439 -6 563 -15 567 -7 2 -13 15
-13 28 0 14 -4 22 -10 19 -6 -4 -10 5 -10 19 0 14 -4 26 -10 26 -5 0 -26 30
-46 67 -28 49 -38 81 -41 121 -2 30 -6 59 -10 65 -9 15 -21 -26 -22 -77 -1
-38 -66 -176 -83 -176 -4 0 -8 -15 -8 -32 0 -25 -3 -29 -10 -18 -8 12 -10 9
-10 -12 0 -14 -6 -28 -12 -30 -10 -4 -14 -139 -16 -621 l-3 -617 -29 0 -30 0
0 460 c0 300 -3 460 -10 460 -6 0 -10 38 -10 95 0 57 -4 95 -10 95 -5 0 -10
18 -10 40 0 22 -4 40 -9 40 -5 0 -12 16 -15 35 -4 20 -24 60 -45 90 l-39 55
-26 -40 c-53 -80 -68 -115 -73 -167 -3 -29 -10 -53 -14 -53 -5 0 -9 -40 -9
-89 0 -50 -4 -93 -10 -96 -6 -4 -10 -135 -10 -361 l0 -354 -20 20 c-11 11 -27
20 -35 20 -13 0 -15 102 -17 838 l-3 837 -30 -2 c-16 -2 -53 4 -82 12 -28 8
-61 15 -72 15 -21 0 -21 4 -20 98 1 53 0 153 -1 222 -3 123 -3 124 -10 45 -3
-44 -5 -144 -3 -222 l2 -143 -27 0 c-37 0 -122 -28 -144 -48 -17 -14 -18 -68
-18 -856 l0 -842 -31 -11 c-18 -7 -36 -10 -40 -7 -5 3 -9 203 -9 444 0 241 -5
541 -11 667 l-10 228 -35 65 c-77 144 -104 217 -105 288 l-1 67 -12 -75 c-12
-75 -45 -159 -110 -281 l-35 -66 -10 -234 c-6 -128 -11 -441 -11 -695 l0 -461
-35 16 -34 16 2 383 c1 210 -1 382 -5 382 -5 0 -8 6 -8 14 0 7 -10 26 -22 41
l-22 28 -22 -28 c-12 -15 -20 -34 -17 -42 3 -7 0 -13 -6 -13 -6 0 -11 -7 -11
-15 0 -11 -12 -15 -50 -15 -38 0 -50 4 -50 15 0 8 -5 15 -11 15 -6 0 -9 6 -6
13 2 6 -4 23 -14 36 -11 13 -19 32 -19 43 0 11 -5 16 -10 13 -6 -4 -8 -10 -5
-15 3 -4 -4 -18 -14 -31 l-19 -24 -19 24 -20 24 -21 -31 c-12 -16 -22 -35 -22
-41 0 -6 -4 -11 -10 -11 -5 0 -7 -7 -4 -15 4 -10 0 -16 -12 -17 -71 -6 -77 -5
-81 13 -3 11 -10 19 -15 19 -5 0 -8 6 -6 13 2 7 -7 25 -19 41 l-23 28 -20 -23
c-10 -13 -19 -32 -20 -41 0 -10 -4 -18 -10 -18 -6 0 -10 -138 -10 -394 0 -329
-2 -395 -14 -399 -8 -3 -17 -3 -20 0 -3 4 -6 191 -6 417 0 531 -15 700 -71
853 -23 59 -49 72 -49 23 0 -19 5 -30 14 -30 10 0 15 -26 20 -102 3 -57 9
-136 13 -175 5 -63 4 -73 -11 -73 -11 0 -16 9 -16 30 l0 30 -70 0 -70 0 0 -30
c0 -20 -5 -30 -15 -30 -18 0 -18 -7 -5 161 13 167 18 201 31 194 5 -4 9 8 9
25 0 84 -56 -25 -84 -163 -27 -130 -36 -295 -36 -692 l-1 -380 -35 -22 c-20
-13 -40 -23 -45 -23 -5 0 -10 174 -11 423 l-3 422 -25 1 c-48 2 -50 4 -50 39
0 28 -4 35 -20 35 -14 0 -20 7 -20 23 0 12 -9 27 -19 32 -10 6 -47 34 -80 63
-82 69 -111 70 -186 6 l-54 -46 -63 53 c-74 62 -198 122 -286 139 -94 19 -241
8 -330 -23 -167 -58 -322 -203 -376 -352 -10 -27 -23 -54 -27 -60 -5 -5 -9
-26 -9 -46 l0 -38 -47 -3 -48 -3 -7 -45 c-3 -25 -7 -182 -7 -349 -1 -272 -3
-303 -17 -297 -9 3 -20 6 -25 6 -5 0 -9 201 -9 494 0 272 -3 501 -6 510 -7 18
-74 23 -74 6 0 -5 -15 -10 -34 -10 -30 0 -35 4 -41 31 -10 42 -53 59 -155 59
-77 0 -80 -1 -70 -19 13 -25 13 -71 0 -71 -7 0 -10 -173 -10 -499 l0 -499 -55
-7 c-67 -8 -111 -50 -101 -97 l6 -28 -195 0 -195 0 0 -100 0 -100 5000 0 5000
0 0 100 0 99 -127 3 -128 3 0 112 c0 61 -2 110 -4 108 -2 -2 -26 5 -54 15 -45
17 -53 18 -85 5 -19 -8 -36 -15 -38 -15 -1 0 -4 19 -6 43 l-3 42 -115 0 -115
0 3 -43 c3 -33 0 -42 -12 -42 -13 0 -16 13 -16 74 0 56 -4 75 -15 80 -22 8
-19 62 6 84 19 19 20 21 4 58 -9 21 -36 58 -61 82 -41 39 -46 48 -41 77 4 23
1 38 -9 46 -8 6 -14 25 -14 41 0 17 -4 27 -10 23 -5 -3 -10 -17 -10 -30 0 -13
-4 -27 -10 -30 -5 -3 -10 -26 -10 -51 0 -24 -4 -44 -10 -44 -5 0 -10 -6 -10
-14 0 -8 -9 -17 -20 -21 -45 -14 -85 -110 -55 -135 20 -16 20 -79 0 -86 -11
-5 -15 -24 -15 -80 0 -46 -4 -74 -11 -74 -6 0 -9 15 -8 34 2 19 0 39 -5 43
-12 12 -220 12 -228 0 -3 -6 -4 -25 -1 -44 6 -36 -3 -42 -23 -15 -11 14 -13
131 -14 598 0 508 -2 583 -15 588 -8 3 -15 16 -15 28 0 28 -9 42 -31 50 -12 5
-17 19 -17 50 -1 90 -1 93 -14 80 -16 -16 -88 -16 -88 1 0 9 -2 9 -8 0 -4 -6
-7 -37 -6 -68 1 -44 -3 -58 -15 -63 -21 -7 -31 -22 -31 -47 0 -39 -34 -55
-115 -55 -85 0 -115 16 -115 62 0 21 -7 31 -24 37 -21 8 -23 15 -22 66 1 31
-2 62 -6 68 -6 9 -8 9 -8 0 0 -17 -72 -17 -88 -1 -13 13 -13 10 -14 -80 0 -31
-5 -45 -17 -50 -22 -8 -31 -22 -31 -50 0 -12 -7 -25 -15 -28 -13 -5 -15 -80
-15 -590 l0 -584 -25 0 -25 0 0 945 0 945 -35 0 c-33 0 -35 2 -35 35 0 24 -5
35 -15 35 -11 0 -15 12 -15 50 l0 50 -35 0 c-32 0 -35 3 -35 29 0 16 -6 31
-14 34 -8 3 -15 27 -18 62 -3 31 -10 60 -15 63 -6 4 -16 23 -21 42 -6 19 -11
26 -11 16z m449 -1001 c0 -8 -4 -17 -10 -20 -6 -4 -10 5 -10 20 0 15 4 24 10
20 6 -3 10 -12 10 -20z m430 -1 c0 -14 -4 -23 -10 -19 -5 3 -10 15 -10 26 0
10 5 19 10 19 6 0 10 -12 10 -26z m-473 -16 c-3 -7 -5 -2 -5 12 0 14 2 19 5
13 2 -7 2 -19 0 -25z m66 12 c-3 -11 -7 -20 -9 -20 -2 0 -4 9 -4 20 0 11 4 20
9 20 5 0 7 -9 4 -20z m374 -12 c-3 -7 -5 -2 -5 12 0 14 2 19 5 13 2 -7 2 -19
0 -25z m60 0 c-3 -7 -5 -2 -5 12 0 14 2 19 5 13 2 -7 2 -19 0 -25z m-3420 -50
c-3 -7 -5 -2 -5 12 0 14 2 19 5 13 2 -7 2 -19 0 -25z m-3531 -180 c-1 -18 5
-23 24 -23 18 0 26 6 28 23 2 12 10 22 18 22 16 0 17 -18 8 -97 l-7 -53 -38 0
c-33 0 -38 3 -43 28 -5 25 -9 97 -7 115 2 18 18 5 17 -15z m-32 -20 c16 -100
14 -107 -21 -114 -47 -9 -46 -9 -60 38 -17 56 -17 55 10 54 17 -1 23 5 25 27
5 41 40 37 46 -5z m161 13 c-4 -14 0 -23 13 -30 21 -11 34 -2 44 29 2 7 7 10
10 5 3 -6 -3 -40 -14 -76 l-20 -66 -40 10 c-39 10 -40 11 -34 46 3 20 6 51 6
69 0 26 4 32 21 32 16 0 19 -4 14 -19z m-258 -71 c11 -38 19 -70 18 -70 -1 0
-19 -7 -39 -15 l-36 -15 -20 41 c-20 38 -20 42 -4 53 11 9 15 21 11 35 -5 20
13 37 43 40 4 1 15 -30 27 -69z m385 26 c-3 -25 4 -31 35 -27 9 1 -20 -65 -42
-97 -2 -2 -19 5 -39 15 -23 10 -35 22 -31 30 2 8 12 38 20 68 15 49 18 53 38
46 16 -6 21 -15 19 -35z m-487 -63 c17 -32 30 -61 30 -66 0 -4 -13 -16 -29
-27 l-30 -19 -32 37 c-25 30 -29 40 -20 54 8 13 7 21 -2 30 -9 9 -6 16 16 30
15 10 29 18 32 18 3 0 19 -26 35 -57z m587 43 c11 -8 15 -20 11 -34 -3 -12 0
-28 6 -36 10 -11 5 -22 -20 -50 l-31 -36 -29 21 c-16 11 -29 24 -29 28 0 13
61 121 68 121 4 0 15 -6 24 -14z m-658 -123 c32 -38 32 -44 1 -73 l-25 -23
-37 29 c-51 42 -62 78 -33 109 22 24 23 24 46 6 12 -10 34 -31 48 -48z m756
42 c18 -20 21 -28 12 -37 -7 -7 -12 -22 -12 -35 0 -16 -6 -23 -19 -23 -10 0
-21 -9 -24 -20 -7 -27 -18 -25 -50 8 l-26 27 42 52 c23 29 45 52 48 52 3 1 16
-10 29 -24z m-387 -15 c-9 -118 -15 -140 -34 -140 -24 0 -26 6 -34 98 l-6 73
38 -3 c34 -3 38 -6 36 -28z m-79 -32 c10 -88 8 -105 -14 -111 -17 -4 -23 5
-43 71 -25 82 -22 92 24 92 24 0 27 -4 33 -52z m154 43 c11 -7 10 -21 -8 -80
-18 -63 -24 -71 -45 -71 -23 0 -24 2 -19 48 12 106 14 112 37 112 12 0 28 -4
35 -9z m-222 -88 c19 -61 20 -72 7 -77 -27 -11 -33 -6 -67 63 l-35 68 22 11
c39 19 50 10 73 -65z m300 63 c19 -14 18 -16 -15 -78 -43 -80 -44 -81 -64 -65
-16 11 -16 16 4 85 23 76 36 86 75 58z m-371 -82 c36 -64 40 -94 12 -94 -14 0
-107 104 -107 119 0 5 48 39 57 41 1 0 18 -30 38 -66z m468 21 c31 -25 57 -49
57 -53 0 -9 -109 -102 -120 -102 -4 0 -13 6 -19 14 -9 11 -2 26 35 70 25 32
44 59 42 62 -3 2 -26 -23 -52 -55 -43 -53 -50 -58 -67 -48 -11 7 -18 14 -17
18 15 33 74 139 78 139 3 0 31 -20 63 -45z m-688 -29 l35 -31 -21 -32 -21 -33
-47 24 c-68 35 -77 48 -56 84 22 36 60 33 110 -12z m174 -50 c31 -38 38 -53
29 -63 -17 -20 -27 -16 -85 33 -30 26 -56 44 -59 41 -3 -2 22 -26 55 -53 49
-40 58 -51 50 -66 -5 -10 -12 -18 -15 -18 -3 0 -36 17 -74 37 -78 42 -78 43
-7 120 45 49 38 51 106 -31z m206 -96 c4 -47 5 -83 2 -80 -2 3 -15 40 -27 83
-20 66 -21 80 -9 87 22 14 26 1 34 -90z m39 28 c-8 -83 -22 -134 -23 -82 -1
17 -4 59 -7 93 -7 58 -6 61 15 61 20 0 21 -3 15 -72z m44 63 c11 -7 8 -25 -13
-95 -27 -85 -42 -112 -31 -58 2 15 8 57 11 95 7 68 10 73 33 58z m-522 -26
c41 -24 42 -27 32 -55 -5 -17 -14 -32 -18 -35 -14 -8 -130 27 -130 39 1 31 14
56 31 56 10 0 21 5 24 10 9 14 13 13 61 -15z m402 -61 c13 -42 21 -78 18 -81
-5 -6 -76 131 -76 147 0 5 8 10 18 10 13 0 23 -19 40 -76z m175 70 c3 -4 -12
-42 -34 -86 -22 -44 -42 -78 -44 -76 -2 2 8 41 22 86 23 74 38 94 56 76z
m-205 -94 c24 -44 41 -80 39 -80 -3 0 -31 32 -62 71 -45 55 -55 73 -44 80 8 5
16 9 19 9 3 0 24 -36 48 -80z m248 66 c3 -9 -16 -40 -45 -76 -28 -34 -51 -64
-51 -68 1 -7 21 14 82 88 34 41 38 44 53 29 15 -14 11 -19 -39 -58 -56 -43
-96 -84 -66 -66 8 5 39 29 68 53 44 38 54 42 67 32 9 -7 12 -16 8 -20 -18 -17
-166 -93 -159 -82 7 11 -6 17 -28 13 -4 -1 8 27 27 61 19 35 40 73 46 86 13
25 29 29 37 8z m144 -21 c0 -44 -33 -67 -59 -40 -15 15 -14 19 19 46 19 16 36
29 37 29 2 0 3 -16 3 -35z m-668 -11 l30 -16 -23 -24 c-24 -26 -36 -29 -58
-15 -12 8 -12 14 -1 40 15 36 12 35 52 15z m238 -41 c74 -92 73 -91 51 -103
-28 -15 -168 26 -174 51 -8 31 5 29 80 -12 41 -23 77 -39 80 -36 3 3 -19 18
-49 33 -79 40 -97 54 -91 70 8 22 17 18 83 -37 33 -28 63 -49 65 -47 3 3 -24
28 -60 57 -52 43 -63 56 -54 67 6 8 14 14 18 14 3 -1 26 -26 51 -57z m-330
-39 c0 -41 -11 -54 -44 -54 -44 0 -77 11 -70 22 3 5 -3 12 -15 15 -27 7 -26 9
6 42 28 28 28 28 75 12 38 -12 48 -19 48 -37z m195 18 c-3 -3 -11 0 -18 7 -9
10 -8 11 6 5 10 -3 15 -9 12 -12z m565 -7 c0 -28 -24 -34 -34 -9 -8 20 1 34
20 34 8 0 14 -10 14 -25z m-699 -5 c6 0 7 -6 2 -12 -4 -7 -6 -23 -4 -35 2 -19
-2 -23 -23 -23 -21 0 -26 5 -26 24 0 37 11 58 27 52 8 -3 19 -6 24 -6z m653
-29 c-12 -11 -156 -52 -162 -47 -2 3 31 23 74 44 66 34 80 38 88 25 4 -8 4
-18 0 -22z m46 -28 c0 -22 -2 -25 -10 -13 -13 20 -13 40 0 40 6 0 10 -12 10
-27z m-30 -3 c0 -23 -14 -27 -115 -34 l-70 -5 85 28 c105 36 100 35 100 11z
m-430 -15 l75 -24 -75 5 c-91 7 -100 9 -100 29 0 20 12 19 100 -10z m-380 -5
c-20 -13 -40 -13 -40 0 0 6 12 10 28 10 21 0 24 -2 12 -10z m140 -10 c0 -5 -4
-10 -9 -10 -6 0 -13 5 -16 10 -3 6 1 10 9 10 9 0 16 -4 16 -10z m677 -35 c-4
-10 -15 -14 -29 -11 -13 3 -54 8 -93 12 l-70 8 90 11 c93 11 112 8 102 -20z
m-383 14 c30 -2 -61 -17 -106 -18 -29 -1 -38 3 -38 15 0 15 9 16 61 10 34 -3
71 -7 83 -7z m403 -21 c-3 -7 -5 -2 -5 12 0 14 2 19 5 13 2 -7 2 -19 0 -25z
m-457 -24 c-88 -28 -90 -28 -90 -9 0 15 19 22 80 28 79 8 81 4 10 -19z m383
11 c38 -5 47 -10 47 -26 0 -15 -5 -19 -17 -15 -112 32 -163 49 -163 53 0 4 14
3 133 -12z m-323 -16 c-8 -5 -46 -26 -83 -45 -67 -34 -68 -34 -65 -12 2 18 16
26 73 44 79 25 97 28 75 13z m276 -15 c85 -26 90 -29 75 -52 -6 -10 -26 -3
-85 29 -42 23 -79 39 -81 37 -3 -2 31 -23 75 -47 72 -38 79 -44 69 -62 -9 -18
-15 -15 -84 42 -41 34 -72 65 -69 70 7 12 5 12 100 -17z m120 -22 c-12 -11
-18 7 -10 30 l8 23 4 -23 c2 -13 1 -26 -2 -30z m-363 10 c-6 -15 -5 -15 11 -3
14 12 13 7 -5 -23 -12 -21 -23 -52 -25 -69 -3 -42 -21 -87 -34 -87 -6 0 -1 18
10 41 28 54 20 60 -9 8 -21 -37 -25 -39 -39 -25 -14 13 -11 20 30 68 24 29 48
60 53 68 18 30 -23 -10 -66 -66 -39 -51 -44 -54 -58 -39 -18 18 -23 12 80 97
66 56 41 46 -31 -12 -61 -49 -85 -57 -85 -30 0 14 154 102 166 94 5 -3 5 -12
2 -22z m215 -57 c46 -37 58 -52 50 -62 -17 -21 -24 -16 -78 52 -29 36 -55 64
-57 61 -3 -3 20 -36 51 -73 52 -62 55 -69 39 -81 -15 -11 -20 -7 -41 34 -13
25 -26 44 -28 41 -3 -3 4 -23 15 -46 23 -44 25 -51 13 -51 -10 0 -43 90 -37
101 3 4 -3 26 -14 47 -11 22 -17 42 -14 45 7 7 18 -1 101 -68z m-103 -46 c30
-96 30 -99 6 -99 -16 0 -20 10 -26 63 -3 34 -8 74 -11 90 -11 53 6 26 31 -54z
m255 51 c0 -27 -2 -29 -19 -20 -13 6 -17 17 -14 30 8 32 33 24 33 -10z m-326
-69 c-6 -76 -9 -82 -28 -79 -12 2 -20 8 -20 13 4 24 47 155 51 152 2 -3 1 -41
-3 -86z m309 35 c13 -10 17 -24 15 -47 l-3 -32 -32 27 c-27 23 -31 31 -23 47
13 22 19 23 43 5z m-494 -50 c14 -16 4 -43 -23 -66 -14 -11 -16 -8 -16 27 0
53 15 68 39 39z m474 -17 c33 -27 37 -36 37 -75 0 -24 -3 -44 -7 -43 -5 0 -30
27 -57 60 -39 49 -46 62 -36 74 17 20 20 19 63 -16z m-423 -24 c10 -12 5 -27
-25 -80 -20 -37 -42 -64 -48 -62 -7 2 -13 20 -15 41 -3 29 3 45 28 76 35 44
42 47 60 25z m395 -49 l48 -59 -24 -18 c-13 -10 -28 -19 -34 -19 -5 0 -27 32
-47 70 -35 63 -36 70 -20 79 23 14 23 14 77 -53z m-355 26 c0 -4 -11 -39 -24
-78 -19 -56 -27 -68 -42 -66 -11 2 -21 5 -22 7 -6 6 70 145 79 145 5 0 9 -4 9
-8z m291 -62 c35 -68 36 -71 17 -81 -11 -6 -21 -9 -22 -7 -11 15 -53 148 -48
152 11 12 18 4 53 -64z m-223 41 c11 -6 12 -26 7 -86 l-8 -77 -36 7 c-20 4
-37 8 -38 9 -2 2 29 108 42 144 5 14 15 15 33 3z m152 -60 c11 -37 20 -73 20
-78 0 -10 -59 -27 -66 -20 -2 1 -7 36 -12 77 -9 75 -5 89 25 90 7 0 21 -31 33
-69z m-125 -99 c-12 -13 -15 10 -8 84 l8 79 3 -79 c2 -43 0 -81 -3 -84z m57
61 c3 -48 1 -63 -9 -63 -10 0 -13 21 -12 83 0 93 14 80 21 -20z m268 -63 c0
-44 -2 -80 -4 -80 -5 0 -66 111 -66 119 0 7 51 40 63 41 4 0 7 -36 7 -80z
m-480 5 c0 -26 -39 -110 -51 -110 -16 0 -19 87 -4 119 6 14 5 17 -3 12 -7 -4
-12 -1 -12 7 0 12 5 12 35 -1 19 -9 35 -21 35 -27z m427 -27 c35 -67 39 -76
22 -60 -7 6 -25 12 -40 12 -22 0 -30 7 -43 40 -9 22 -16 42 -16 44 0 4 22 12
42 15 4 0 20 -23 35 -51z m-326 12 c16 0 19 -7 19 -45 0 -49 -2 -51 -67 -58
l-41 -5 15 52 c19 64 22 69 40 62 8 -3 23 -6 34 -6z m227 -52 c10 -35 17 -66
15 -70 -17 -32 -113 50 -113 96 0 20 6 25 33 29 17 2 35 5 39 5 4 1 16 -26 26
-60z m-168 12 c0 -20 -5 -30 -15 -30 -16 0 -19 17 -9 44 10 26 24 18 24 -14z
m60 5 c0 -16 -6 -25 -15 -25 -9 0 -15 9 -15 25 0 16 6 25 15 25 9 0 15 -9 15
-25z m139 -50 c0 -5 -4 -3 -9 5 -5 8 -9 22 -9 30 0 16 17 -16 18 -35z m-357
-7 c-8 -8 -9 -4 -5 13 4 13 8 18 11 10 2 -7 -1 -18 -6 -23z m5357 -120 c8 -31
7 -38 -5 -38 -10 0 -14 13 -13 48 1 50 2 49 18 -10z m30 20 c-5 -18 -9 -35
-10 -38 -1 -11 -18 36 -18 53 -1 10 6 17 18 17 17 0 19 -4 10 -32z m46 -25 c6
-31 5 -33 -19 -33 -30 0 -30 1 -15 54 12 43 21 37 34 -21z m31 35 c-3 -13 -6
-30 -6 -38 0 -21 -16 0 -24 33 -5 23 -3 27 15 27 17 0 20 -4 15 -22z m38 6 c3
-9 6 -29 6 -45 0 -24 -4 -29 -26 -29 -19 0 -24 4 -20 18 3 9 8 29 12 45 7 30
19 35 28 11z m-1645 -66 c1 -10 -3 -18 -9 -18 -5 0 -10 19 -9 43 1 36 2 38 9
17 4 -14 8 -33 9 -42z"/>
<path d="M3160 1230 c0 -5 5 -10 11 -10 5 0 7 5 4 10 -3 6 -8 10 -11 10 -2 0
-4 -4 -4 -10z"/>
</g>
</svg>
