<?xml version="1.0" standalone="no"?>
<!DOCTYPE svg PUBLIC "-//W3C//DTD SVG 20010904//EN"
 "http://www.w3.org/TR/2001/REC-SVG-20010904/DTD/svg10.dtd">
<svg version="1.0" xmlns="http://www.w3.org/2000/svg"
 width="914.000000pt" height="1280.000000pt" viewBox="0 0 914.000000 1280.000000"
 preserveAspectRatio="xMidYMid meet">
<metadata>
Created by potrace 1.15, written by Peter Selinger 2001-2017
</metadata>
<g transform="translate(0.000000,1280.000000) scale(0.100000,-0.100000)"
fill="#000000" stroke="none">
<path d="M8910 12790 c-92 -12 -118 -30 -420 -298 -198 -176 -218 -197 -250
-261 -21 -42 -95 -142 -185 -253 -170 -208 -237 -303 -430 -613 -156 -249
-431 -661 -562 -840 -64 -87 -112 -140 -177 -195 -49 -41 -148 -129 -220 -196
-113 -104 -139 -123 -186 -136 -30 -9 -86 -26 -125 -38 -38 -12 -82 -24 -97
-27 -17 -3 -35 -18 -47 -37 -11 -17 -36 -47 -56 -66 -66 -62 -138 -179 -146
-235 -4 -27 -25 -91 -47 -140 -73 -162 -141 -375 -193 -605 -77 -346 -80 -356
-223 -733 -169 -444 -332 -797 -808 -1742 -214 -427 -271 -533 -403 -755 -51
-85 -125 -216 -165 -290 -39 -74 -120 -211 -178 -305 -126 -202 -506 -752
-607 -880 -39 -49 -120 -155 -180 -235 -342 -456 -640 -789 -1086 -1216 -362
-345 -392 -373 -490 -455 -41 -35 -138 -118 -215 -184 -181 -156 -359 -301
-563 -458 -325 -250 -413 -342 -618 -646 -114 -168 -154 -257 -197 -431 -44
-180 -47 -251 -10 -347 32 -85 87 -133 179 -158 80 -22 131 -10 170 41 25 32
28 46 33 142 l5 107 66 65 c319 316 587 516 906 677 153 77 230 108 442 183
255 90 477 222 833 496 80 61 203 153 273 203 71 51 185 145 255 210 70 64
170 154 222 200 52 47 226 214 385 371 160 158 353 345 430 416 194 178 619
605 871 874 117 124 228 241 249 260 54 50 212 266 345 470 159 244 358 534
460 670 114 152 269 391 365 565 43 77 169 277 280 445 227 341 266 414 437
814 155 360 168 402 168 532 0 116 21 253 56 371 13 45 45 166 70 269 l46 188
-4 339 c-2 286 -5 340 -18 350 -11 9 -15 31 -15 77 0 36 -3 115 -6 175 l-6
110 -58 115 -59 115 3 131 c1 72 8 189 15 258 16 151 8 134 254 550 477 811
645 1046 1008 1416 l202 205 88 5 89 5 32 65 c45 91 49 128 23 186 -11 26 -32
63 -46 81 -27 36 -45 39 -164 23z"/>
</g>
</svg>
