<?xml version="1.0" standalone="no"?>
<!DOCTYPE svg PUBLIC "-//W3C//DTD SVG 20010904//EN" "http://www.w3.org/TR/2001/REC-SVG-20010904/DTD/svg10.dtd">
<svg version="1" fill="#000000" 
  xmlns="http://www.w3.org/2000/svg" width="682pt" height="609pt" viewBox="0 0 682 609" preserveAspectRatio="xMidYMid meet">
  <g transform="translate(0,609) scale(0.1,-0.1)">
    <path d="M 337 5686 c -76 -51 -125 -121 -170 -236 c -45 -115 -45 -112 28 -258 c 36 -72 65 -133 65 -135 c 0 -3 21 -42 46 -88 c 95 -171 166 -246 479 -504 c 218 -179 337 -313 415 -462 c 30 -56 33 -71 33 -146 c -2 -235 -97 -426 -407 -811 l -85 -106 l 42 -33 c 23 -18 52 -40 63 -48 c 60 -41 183 -131 214 -157 l 34 -29 l -33 -18 c -149 -77 -377 -90 -590 -34 c -67 17 -111 24 -111 17 c 0 -2 -10 -73 -21 -158 c -30 -222 -35 -198 46 -227 c 39 -14 71 -26 73 -28 c 1 -1 -6 -24 -17 -51 c -39 -102 -49 -265 -20 -342 c 9 -23 11 -22 97 55 c 48 44 139 124 202 178 c 63 54 179 155 258 224 c 79 69 148 128 154 130 c 7 2 7 -26 2 -85 c -11 -124 -8 -397 5 -534 c 27 -268 94 -512 202 -733 c 96 -195 128 -351 160 -770 c 7 -95 9 -161 3 -167 c -15 -15 -192 -58 -319 -77 c -106 -16 -180 -18 -652 -15 c -504 2 -533 1 -533 -15 c 0 -17 125 -18 2683 -17 c 2415 1 2687 2 2737 17 c 83 23 312 55 525 72 c 322 25 442 42 623 87 c 23 6 44 14 46 17 c 2 3 -63 89 -146 191 c -257 317 -326 438 -416 730 c -32 103 -60 225 -82 355 c -20 118 -50 410 -50 492 c 0 40 2 42 33 47 c 17 3 93 7 167 10 c 226 8 321 47 432 174 c 134 153 190 362 159 597 c -24 177 -69 290 -199 495 c -63 99 -290 312 -502 472 c -107 80 -215 164 -240 186 l -44 40 l 12 73 c 13 77 42 164 87 264 c 63 141 113 288 120 359 c 7 58 5 67 -21 107 c -67 104 -112 148 -361 354 c -51 42 -93 83 -93 90 c 0 12 41 99 169 358 c 30 60 44 97 36 97 c -21 0 -125 -81 -194 -151 c -76 -77 -175 -223 -229 -339 c -70 -150 -91 -200 -84 -200 c 4 0 43 14 87 31 c 120 46 112 47 185 -23 c 36 -35 114 -108 173 -162 c 84 -77 107 -105 107 -125 c -1 -41 -47 -282 -57 -291 c -4 -5 -75 36 -157 90 c -169 112 -234 148 -327 181 l -67 23 l -71 -24 c -49 -17 -109 -51 -192 -110 c -67 -47 -122 -89 -123 -95 c -1 -5 23 -13 51 -16 c 75 -10 81 -13 93 -61 c 7 -24 18 -56 25 -73 c 62 -142 87 -193 137 -281 c 32 -56 58 -107 58 -113 c 0 -7 -28 -50 -62 -96 c -35 -46 -92 -126 -127 -177 c -212 -306 -302 -408 -552 -624 c -288 -248 -334 -312 -427 -589 c -70 -209 -125 -395 -119 -402 c 11 -11 91 101 282 397 c 140 217 227 313 395 438 c 52 39 125 99 161 134 c 289 278 370 348 402 348 c 23 0 73 -69 87 -120 c 25 -93 -13 -208 -98 -294 c -28 -28 -83 -64 -160 -102 c -160 -80 -255 -145 -329 -222 c -35 -36 -63 -68 -63 -72 c 0 -4 15 -13 33 -20 c 17 -7 50 -21 72 -30 c 22 -9 86 -36 143 -60 c 56 -23 102 -44 102 -46 c 0 -2 -16 -34 -37 -71 c -179 -334 -433 -579 -891 -862 c -46 -28 -86 -51 -88 -51 c -3 0 -17 -8 -32 -19 c -15 -10 -108 -63 -207 -116 c -265 -144 -599 -334 -685 -390 c -101 -66 -261 -184 -282 -208 c -41 -46 -61 -107 -61 -186 c -1 -66 4 -85 29 -135 c 47 -94 161 -170 327 -219 c 108 -31 302 -30 417 2 c 113 31 209 78 311 151 c 93 67 142 85 205 75 c 56 -8 149 -69 203 -133 l 43 -52 l 163 0 c 238 0 429 -30 598 -93 c 98 -37 81 -42 -213 -63 c -58 -4 -593 -7 -1190 -7 c -997 0 -1491 7 -1513 20 c -11 7 -6 29 32 133 c 143 392 147 861 11 1390 c -28 107 22 232 141 353 c 43 43 84 77 91 75 c 10 -4 12 -34 10 -131 c -4 -156 12 -295 40 -350 c 34 -67 90 -136 185 -227 c 125 -121 152 -144 159 -138 c 3 4 -1 30 -10 60 c -56 190 -86 312 -79 318 c 4 4 44 15 88 25 c 75 16 123 26 340 74 c 50 11 109 22 132 26 c 23 4 47 13 53 20 c 18 21 24 154 11 231 c -14 83 -72 203 -140 294 c -55 73 -175 198 -298 311 l -82 76 l 30 74 c 17 41 46 117 65 169 c 19 52 38 98 42 101 c 4 4 79 -17 166 -45 l 160 -52 l 44 -85 c 57 -110 157 -277 247 -414 c 40 -60 95 -146 123 -190 c 29 -44 52 -74 52 -67 c 0 30 -264 803 -298 872 c -54 109 -140 211 -357 425 c -113 111 -238 246 -301 325 c -194 243 -313 379 -461 525 c -51 51 -93 95 -93 100 c 0 4 11 23 25 41 c 14 18 25 35 25 37 c 0 2 25 45 55 96 c 31 50 76 132 100 180 c 43 86 115 256 115 271 c 0 8 -179 86 -263 114 c -28 10 -81 16 -130 16 c -95 0 -136 -16 -203 -82 c -87 -84 -108 -176 -98 -438 c 6 -131 4 -173 -6 -185 c -32 -39 -210 1 -316 71 c -99 65 -152 110 -324 272 c -90 87 -200 191 -245 233 c -80 76 -235 215 -334 300 l -53 45 l 16 155 c 9 84 19 178 23 207 c 5 47 4 52 -13 52 c -10 -1 -41 -15 -67 -34 z m 1811 -2020 c 78 -49 201 -152 303 -255 c 108 -108 269 -303 269 -326 c 0 -16 -58 -5 -158 29 c -198 68 -363 186 -460 328 c -34 49 -95 178 -89 185 c 15 14 83 62 90 63 c 4 0 24 -11 45 -24 z m 3664 -306 c 31 -12 71 -38 90 -57 c 32 -33 33 -37 33 -113 c 0 -75 -2 -81 -30 -109 c -16 -16 -72 -48 -123 -70 l -93 -40 l -9 22 c -11 26 -46 235 -56 333 l -7 67 l 69 -6 c 38 -3 94 -15 126 -27 z m -958 -611 c 32 -25 33 -52 3 -102 c -26 -43 -72 -77 -104 -77 c -24 0 -78 49 -86 78 c -3 14 9 36 40 71 c 39 45 49 51 82 51 c 24 0 49 -8 65 -21 z"/>
  </g>
</svg>
