<?xml version="1.0" encoding="UTF-8" standalone="no"?><!-- Generator: Gravit.io -->
<svg xmlns="http://www.w3.org/2000/svg" 
  xmlns:xlink="http://www.w3.org/1999/xlink" style="isolation:isolate" viewBox="0 0 1100 159.148" width="1100pt" height="159.148pt">
  <defs>
    <clipPath id="_clipPath_FuNa61TSnAcmvukkiPNpivdjeoKN1BeU">
      <rect width="1100" height="159.148"/>
    </clipPath>
  </defs>
  <g clip-path="url(#_clipPath_FuNa61TSnAcmvukkiPNpivdjeoKN1BeU)">
    <path d=" M 7.483 81.473 C 3.349 81.473 0 84.816 0 88.956 C 0 93.079 3.349 96.428 7.483 96.428 C 11.612 96.428 14.961 93.079 14.961 88.956 C 14.961 84.816 11.611 81.473 7.483 81.473 Z " fill="rgb(0,0,0)"/>
    <ellipse vector-effect="non-scaling-stroke" cx="45.515" cy="88.06400000000019" rx="5.767000000000003" ry="5.772000000000006" fill="rgb(0,0,0)"/>
    <path d=" M 197.864 81.874 C 194.442 81.874 191.671 84.642 191.671 88.064 C 191.671 91.491 194.442 94.262 197.864 94.262 C 201.291 94.262 204.062 91.491 204.062 88.064 C 204.063 84.642 201.291 81.874 197.864 81.874 Z " fill="rgb(0,0,0)"/>
    <path d=" M 338.893 55.377 C 334.17 55.377 330.347 59.208 330.347 63.92 C 330.347 68.643 334.17 72.469 338.893 72.469 C 343.611 72.469 347.442 68.643 347.442 63.92 C 347.441 59.209 343.61 55.377 338.893 55.377 Z " fill="rgb(0,0,0)"/>
    <path d=" M 338.893 101.524 C 334.17 101.524 330.347 105.358 330.347 110.078 C 330.347 114.799 334.17 118.621 338.893 118.621 C 343.611 118.621 347.442 114.798 347.442 110.078 C 347.441 105.358 343.61 101.524 338.893 101.524 Z " fill="rgb(0,0,0)"/>
    <path d=" M 421.15 63.92 C 421.15 60.266 418.188 57.295 414.537 57.295 C 410.871 57.295 407.907 60.265 407.907 63.92 C 407.907 67.583 410.872 70.55 414.537 70.55 C 418.188 70.551 421.15 67.584 421.15 63.92 Z " fill="rgb(0,0,0)"/>
    <path d=" M 414.537 99.614 C 410.871 99.614 407.907 102.562 407.907 106.233 C 407.907 109.888 410.872 112.855 414.537 112.855 C 418.189 112.855 421.15 109.888 421.15 106.233 C 421.15 102.562 418.188 99.614 414.537 99.614 Z " fill="rgb(0,0,0)"/>
    <path d=" M 349.012 134.457 C 349.023 134.449 349.046 134.435 349.063 134.423 C 349.041 134.423 349.018 134.434 348.996 134.434 C 348.76 134.44 348.771 134.449 349.012 134.457 Z " fill="rgb(0,0,0)"/>
    <path d=" M 468.163 78.023 C 464.034 78.023 460.686 81.372 460.686 85.506 C 460.686 89.632 464.035 92.981 468.163 92.981 C 472.297 92.981 475.646 89.632 475.646 85.506 C 475.647 81.372 472.298 78.023 468.163 78.023 Z " fill="rgb(0,0,0)"/>
    <path d=" M 489.317 49.392 C 493.092 49.392 496.155 46.335 496.155 42.56 C 496.155 38.779 493.092 35.725 489.317 35.725 C 485.542 35.725 482.479 38.779 482.479 42.56 C 482.479 46.335 485.542 49.392 489.317 49.392 Z " fill="rgb(0,0,0)"/>
    <path d=" M 489.317 121.182 C 485.542 121.182 482.479 124.239 482.479 128.023 C 482.479 131.807 485.542 134.864 489.317 134.864 C 493.092 134.864 496.155 131.807 496.155 128.023 C 496.155 124.24 493.092 121.182 489.317 121.182 Z " fill="rgb(0,0,0)"/>
    <path d=" M 1092.517 81.473 C 1088.383 81.473 1085.045 84.816 1085.045 88.956 C 1085.045 93.079 1088.383 96.428 1092.517 96.428 C 1096.646 96.428 1100 93.079 1100 88.956 C 1100 84.816 1096.645 81.473 1092.517 81.473 Z " fill="rgb(0,0,0)"/>
    <path d=" M 1054.49 82.292 C 1051.292 82.292 1048.723 84.878 1048.723 88.064 C 1048.723 91.25 1051.292 93.836 1054.49 93.836 C 1057.665 93.836 1060.262 91.25 1060.262 88.064 C 1060.262 84.878 1057.665 82.292 1054.49 82.292 Z " fill="rgb(0,0,0)"/>
    <path d=" M 902.132 81.874 C 898.71 81.874 895.936 84.642 895.936 88.064 C 895.936 91.491 898.71 94.262 902.132 94.262 C 905.559 94.262 908.336 91.491 908.336 88.064 C 908.336 84.642 905.559 81.874 902.132 81.874 Z " fill="rgb(0,0,0)"/>
    <path d=" M 761.109 55.377 C 756.391 55.377 752.571 59.208 752.571 63.92 C 752.571 68.643 756.391 72.469 761.109 72.469 C 765.827 72.469 769.658 68.643 769.658 63.92 C 769.658 59.209 765.826 55.377 761.109 55.377 Z " fill="rgb(0,0,0)"/>
    <path d=" M 761.109 118.622 C 765.827 118.622 769.658 114.799 769.658 110.079 C 769.658 105.358 765.827 101.525 761.109 101.525 C 756.391 101.525 752.571 105.359 752.571 110.079 C 752.571 114.799 756.391 118.622 761.109 118.622 Z " fill="rgb(0,0,0)"/>
    <path d=" M 685.473 57.296 C 681.819 57.296 678.851 60.266 678.851 63.921 C 678.851 67.584 681.818 70.551 685.473 70.551 C 689.128 70.551 692.098 67.584 692.098 63.921 C 692.098 60.266 689.128 57.296 685.473 57.296 Z " fill="rgb(0,0,0)"/>
    <path d=" M 678.851 106.233 C 678.851 109.888 681.818 112.855 685.473 112.855 C 689.128 112.855 692.098 109.888 692.098 106.233 C 692.098 102.562 689.128 99.614 685.473 99.614 C 681.819 99.614 678.851 102.562 678.851 106.233 Z " fill="rgb(0,0,0)"/>
    <path d=" M 751.006 134.435 C 750.989 134.435 750.961 134.424 750.944 134.424 C 750.961 134.435 750.975 134.449 750.992 134.458 C 751.233 134.449 751.239 134.44 751.006 134.435 Z " fill="rgb(0,0,0)"/>
    <path d=" M 1031.873 77.125 C 1016.869 81.394 1001.981 85.517 986.942 88.955 C 962.277 82.291 938.611 74.71 912.768 74.129 C 864.296 73.058 816.122 78.605 767.925 83.169 C 771.532 81.924 775.055 80.445 778.466 78.628 C 790.56 72.197 803.013 58.207 787.161 47.136 C 773.412 37.527 750.994 44.887 739.082 54.925 C 731.223 61.553 726.107 69.338 721.799 78.359 C 722.026 70.379 721.631 64.487 725.515 57.217 C 728.648 51.35 736.546 41.735 742.857 39.474 C 729.882 44.113 719.443 52.415 715.926 66.781 C 715.452 68.722 714.271 84.827 716.933 85.04 C 715.64 84.936 714.37 84.81 713.088 84.67 C 712.903 74.525 708.791 64.723 700.526 57.461 C 686.37 45.028 667.674 44.251 649.92 47.611 C 636.298 33.467 622.024 20.966 602.195 24.435 C 595.606 25.585 590.098 28.866 585.31 33.427 C 574.456 21.698 558.188 13.81 550.004 0 C 541.825 13.81 525.549 21.697 514.701 33.427 C 509.913 28.866 504.399 25.585 497.814 24.435 C 477.99 20.966 463.714 33.466 450.088 47.611 C 432.339 44.251 413.637 45.028 399.485 57.461 C 391.222 64.722 387.108 74.525 386.92 84.67 C 385.641 84.81 384.368 84.936 383.077 85.04 C 385.736 84.827 384.564 68.722 384.087 66.781 C 380.573 52.415 370.125 44.113 357.153 39.474 C 363.467 41.735 371.365 51.349 374.495 57.217 C 378.377 64.487 377.99 70.38 378.214 78.359 C 373.9 69.339 368.784 61.553 360.926 54.925 C 349.012 44.887 326.601 37.527 312.853 47.136 C 296.998 58.206 309.448 72.196 321.542 78.628 C 324.953 80.445 328.475 81.924 332.088 83.169 C 283.894 78.606 235.722 73.058 187.236 74.129 C 161.401 74.709 137.729 82.291 113.064 88.955 C 98.025 85.516 83.134 81.393 68.135 77.125 C 54.436 73.224 29.292 69.137 23.402 87.312 C 17.803 104.601 53.141 104.676 61.684 103.939 C 78.622 102.478 95.518 98.091 112.209 93.259 C 136.728 98.582 161.797 101.519 186.852 102.459 C 213.214 103.46 239.66 100.686 265.884 98.277 C 290.998 95.963 316.257 91.417 341.382 89.204 C 334.892 90.755 328.536 92.932 322.416 95.885 C 308.454 102.625 299.005 114.615 312.179 127.388 C 323.864 138.725 347.934 127.912 358.845 120.516 C 367.478 114.665 372.353 105.497 377.822 97.04 C 379.421 105.589 376.044 114.716 370.143 120.807 C 364.27 126.851 356.361 130.441 349.068 134.424 C 353.32 134.236 360.354 130.523 364.348 128.755 C 369.711 126.377 374.905 122.753 378.776 118.347 C 381.973 114.715 383.673 110.987 384.397 106.2 C 384.661 104.461 385.188 90.247 383.101 90.022 C 384.486 90.173 385.869 90.336 387.238 90.521 C 387.746 94.442 388.823 98.349 390.472 102.119 C 397.085 117.197 411.367 122.849 426.659 124.094 C 433.637 124.66 440.475 124.475 447.195 123.735 C 461.104 139.032 475.186 153.785 496.66 150.038 C 505.279 148.521 512.064 143.598 517.78 136.987 C 526.963 145.64 540.998 152.607 550.007 159.148 C 559.016 152.607 573.056 145.64 582.234 136.987 C 587.95 143.598 594.732 148.52 603.354 150.038 C 624.827 153.785 638.907 139.032 652.824 123.735 C 659.544 124.475 666.371 124.66 673.349 124.094 C 688.649 122.849 702.928 117.197 709.542 102.119 C 711.197 98.349 712.268 94.443 712.773 90.521 C 714.153 90.336 715.533 90.173 716.915 90.022 C 714.826 90.246 715.353 104.461 715.619 106.2 C 716.34 110.988 718.045 114.715 721.237 118.347 C 725.111 122.753 730.296 126.377 735.665 128.755 C 739.664 130.522 746.699 134.235 750.951 134.424 C 743.656 130.441 735.744 126.851 729.876 120.807 C 723.969 114.715 720.598 105.588 722.194 97.04 C 727.666 105.496 732.53 114.665 741.168 120.516 C 752.081 127.912 776.154 138.724 787.833 127.388 C 801.004 114.615 791.552 102.625 777.596 95.885 C 771.479 92.932 765.126 90.755 758.63 89.204 C 783.761 91.417 809.023 95.964 834.128 98.277 C 860.358 100.686 886.796 103.46 913.163 102.459 C 938.218 101.519 963.287 98.583 987.8 93.259 C 1004.497 98.092 1021.39 102.478 1038.323 103.939 C 1046.866 104.677 1082.206 104.601 1076.608 87.312 C 1070.718 69.137 1045.571 73.224 1031.873 77.125 Z  M 73.86 98.326 C 64.733 100.281 22.555 105.201 28.827 85.848 C 34.004 69.866 63.331 79.866 73.619 82.987 C 83.626 86.019 93.634 88.86 103.79 91.323 C 93.864 93.842 83.845 96.192 73.86 98.326 Z  M 256.528 95.435 C 223.275 98.397 190.633 100.009 157.333 96.54 C 144.995 95.256 132.923 93.191 120.964 90.673 C 129.53 88.126 138.034 85.585 146.456 83.352 C 179.207 74.711 214.34 77.271 247.795 79.442 C 274.889 81.203 301.899 84.106 328.925 86.701 C 304.803 89.323 280.621 93.275 256.528 95.435 Z  M 336.912 80.626 C 329.081 78.18 321.346 74.537 315.139 69.118 C 312.104 66.456 310.222 62.95 310.183 58.866 C 310.065 45.252 329.384 45.614 338.604 48.483 C 355.553 53.756 366.867 65.098 374.614 80.788 C 375.354 82.285 376.011 83.828 376.622 85.405 C 362.755 85.887 348.748 84.314 336.912 80.626 Z  M 345.402 123.782 C 333.816 128.822 310.031 132.098 310.205 113.127 C 310.289 103.714 324.795 98.102 331.807 95.267 C 345.505 89.733 361.226 88.387 376.75 89.447 C 371.198 104.806 360.324 117.289 345.402 123.782 Z  M 385.446 87.15 C 385.939 87.097 386.439 87.055 386.935 87.004 C 386.938 87.111 386.938 87.217 386.943 87.321 C 386.444 87.264 385.945 87.203 385.446 87.15 Z  M 644.793 48.702 C 641.026 49.585 637.313 50.615 633.728 51.731 C 616.756 57.068 600.719 64.939 584.48 72.186 C 592.258 66.824 597.629 59.943 594.748 49.521 C 593.514 45.073 591.455 41.222 588.894 37.724 C 608.34 17.524 628.495 32.597 644.793 48.702 Z  M 586.563 40.321 C 587.186 41.477 587.758 42.666 588.251 43.917 C 596.326 64.246 577.896 71.6 562.767 79.607 C 570.865 66.608 576.618 51.97 586.563 40.321 Z  M 550.001 5.73 C 559.747 16.66 574.543 23.961 583.321 35.418 C 575.406 43.883 570.167 54.485 564.871 64.652 C 560.524 73.007 557.483 80.384 550 84.462 C 542.511 80.384 539.476 73.007 535.132 64.652 C 529.842 54.485 524.598 43.883 516.685 35.418 C 525.462 23.961 540.251 16.66 550.001 5.73 Z  M 605.507 76.839 C 615.296 73.821 626.941 68.767 637.307 70.248 C 645.615 71.418 659.661 77.417 656.239 88.628 C 650.094 108.839 618.072 100.024 603.706 96.45 C 590.069 93.062 576.595 89.685 562.689 88.375 C 577.232 85.831 591.438 81.178 605.507 76.839 Z  M 513.444 40.321 C 523.387 51.969 529.134 66.607 537.234 79.607 C 522.111 71.599 503.678 64.245 511.753 43.917 C 512.249 42.666 512.818 41.477 513.444 40.321 Z  M 537.315 88.375 C 523.409 89.685 509.938 93.062 496.296 96.45 C 481.93 100.023 449.911 108.839 443.757 88.628 C 440.346 77.417 454.387 71.418 462.695 70.248 C 473.067 68.767 484.713 73.821 494.492 76.839 C 508.569 81.178 522.772 85.831 537.315 88.375 Z  M 511.104 37.724 C 508.543 41.222 506.49 45.073 505.262 49.521 C 502.382 59.943 507.75 66.824 515.53 72.186 C 499.29 64.939 483.247 57.069 466.273 51.731 C 462.694 50.615 458.986 49.585 455.211 48.702 C 471.513 32.597 491.656 17.524 511.104 37.724 Z  M 408.782 54.048 C 419.804 46.714 433.963 46.798 448.015 49.782 C 436.639 61.761 425.552 74.38 411.862 79.207 C 405.596 81.423 398.68 83.03 391.491 84.079 C 391.987 72.251 398.763 60.712 408.782 54.048 Z  M 395.419 100.786 C 393.686 97.712 392.553 94.487 391.952 91.216 C 398.47 92.276 404.82 93.679 410.811 95.283 C 424.285 98.879 434.713 110.011 445.026 121.356 C 424.959 123.297 406.055 119.631 395.419 100.786 Z  M 448.379 118.164 C 440.61 109.932 432.7 102.031 422.94 96.172 C 413.749 90.666 402.16 89.219 391.527 87.89 C 391.493 87.416 391.505 86.937 391.493 86.451 C 414.116 83.352 429.447 75.299 445.776 58.362 C 448.059 55.989 450.466 53.481 452.967 50.949 C 464.915 54.032 476.516 58.833 485.729 62.552 C 502.325 69.25 518.374 77.807 535.202 84.045 C 512.548 79.1 490.988 68.577 467.877 66.67 C 455.564 65.655 440.646 72.212 438.503 85.406 C 436.167 99.789 454.179 104.147 464.481 104.487 C 487.713 105.247 509.91 95.851 532.841 92.488 C 505.697 102.762 479.64 116.449 450.729 120.634 C 449.927 119.802 449.142 118.972 448.379 118.164 Z  M 513.901 134.258 C 494.136 159.77 470.122 140.429 452.968 122.941 C 476.259 119.219 498.271 109.128 520.391 100.029 C 514.588 104.272 510.067 109.548 508.877 116.712 C 507.834 123.003 510.223 128.531 514.447 133.504 C 514.262 133.748 514.094 134.017 513.901 134.258 Z  M 518.029 128.421 C 505.736 112.03 523.366 101.627 537.951 94.486 C 530.802 105.472 525.341 117.538 518.065 128.457 C 518.052 128.438 518.046 128.427 518.029 128.421 Z  M 550.001 153.103 C 540.375 146.262 529.543 140.978 521.415 132.376 C 528.023 123.28 533.133 112.964 538.193 102.951 C 540.19 99.007 541.718 95.664 545.3 92.845 C 546.024 92.281 547.953 90.868 550.001 89.552 C 552.048 90.867 553.984 92.281 554.702 92.845 C 558.292 95.664 559.818 99.007 561.809 102.951 C 566.869 112.964 571.982 123.28 578.587 132.376 C 570.458 140.978 559.632 146.262 550.001 153.103 Z  M 581.969 128.421 C 581.958 128.427 581.947 128.438 581.935 128.457 C 574.665 117.538 569.201 105.472 562.052 94.486 C 576.635 101.628 594.271 112.03 581.969 128.421 Z  M 586.103 134.258 C 585.904 134.017 585.741 133.748 585.553 133.504 C 589.771 128.531 592.178 123.003 591.126 116.712 C 589.942 109.548 585.413 104.273 579.612 100.029 C 601.736 109.127 623.748 119.219 647.036 122.941 C 629.877 140.429 605.866 159.77 586.103 134.258 Z  M 704.587 100.786 C 693.951 119.631 675.045 123.297 654.977 121.356 C 665.29 110.011 675.71 98.879 689.189 95.283 C 695.183 93.679 701.535 92.276 708.051 91.216 C 707.454 94.487 706.321 97.712 704.587 100.786 Z  M 708.48 87.89 C 697.844 89.219 686.255 90.667 677.064 96.172 C 667.301 102.031 659.391 109.932 651.628 118.164 C 650.865 118.972 650.074 119.802 649.275 120.632 C 620.355 116.447 594.31 102.76 567.16 92.486 C 590.094 95.849 612.288 105.245 635.523 104.485 C 645.828 104.146 663.834 99.787 661.506 85.404 C 659.358 72.21 644.436 65.653 632.118 66.668 C 609.012 68.575 587.455 79.099 564.798 84.043 C 581.629 77.805 597.681 69.248 614.274 62.55 C 623.488 58.831 635.085 54.029 647.036 50.947 C 649.541 53.48 651.947 55.987 654.23 58.36 C 670.554 75.298 685.89 83.35 708.513 86.449 C 708.497 86.936 708.508 87.416 708.48 87.89 Z  M 688.135 79.207 C 674.453 74.38 663.369 61.762 651.993 49.782 C 666.045 46.798 680.203 46.714 691.226 54.048 C 701.244 60.712 708.015 72.251 708.514 84.079 C 701.328 83.029 694.412 81.422 688.135 79.207 Z  M 713.058 87.321 C 713.064 87.217 713.064 87.11 713.064 87.004 C 713.563 87.055 714.062 87.096 714.564 87.15 C 714.056 87.203 713.557 87.264 713.058 87.321 Z  M 768.196 95.267 C 775.21 98.103 789.711 103.715 789.795 113.127 C 789.972 132.098 766.19 128.823 754.606 123.782 C 739.679 117.289 728.802 104.805 723.249 89.446 C 738.777 88.387 754.498 89.733 768.196 95.267 Z  M 723.382 85.405 C 723.996 83.829 724.647 82.286 725.387 80.788 C 733.139 65.098 744.451 53.756 761.4 48.483 C 770.619 45.614 789.947 45.252 789.821 58.866 C 789.782 62.95 787.9 66.456 784.865 69.118 C 778.661 74.537 770.925 78.18 763.089 80.626 C 751.253 84.314 737.243 85.887 723.382 85.405 Z  M 942.672 96.54 C 909.368 100.009 876.741 98.397 843.479 95.435 C 819.38 93.275 795.206 89.323 771.077 86.701 C 798.109 84.106 825.119 81.204 852.21 79.442 C 885.662 77.271 920.8 74.71 953.549 83.352 C 961.969 85.585 970.473 88.126 979.039 90.673 C 967.081 93.191 955.01 95.255 942.672 96.54 Z  M 1026.141 98.326 C 1016.156 96.191 1006.143 93.841 996.214 91.322 C 1006.362 88.859 1016.372 86.018 1026.382 82.986 C 1036.668 79.864 1066 69.865 1071.184 85.847 C 1077.45 105.201 1035.261 100.281 1026.141 98.326 Z " fill="rgb(0,0,0)"/>
    <path d=" M 631.841 92.981 C 635.972 92.981 639.318 89.632 639.318 85.506 C 639.318 81.372 635.972 78.023 631.841 78.023 C 627.707 78.023 624.361 81.372 624.361 85.506 C 624.36 89.632 627.706 92.981 631.841 92.981 Z " fill="rgb(0,0,0)"/>
    <path d=" M 610.684 49.392 C 614.459 49.392 617.522 46.335 617.522 42.56 C 617.522 38.779 614.459 35.725 610.684 35.725 C 606.903 35.725 603.849 38.779 603.849 42.56 C 603.849 46.335 606.904 49.392 610.684 49.392 Z " fill="rgb(0,0,0)"/>
    <path d=" M 610.684 134.864 C 614.459 134.864 617.522 131.807 617.522 128.023 C 617.522 124.24 614.459 121.182 610.684 121.182 C 606.903 121.182 603.849 124.239 603.849 128.023 C 603.849 131.807 606.904 134.864 610.684 134.864 Z " fill="rgb(0,0,0)"/>
    <path d=" M 550.001 52.382 C 556.115 52.382 561.063 47.437 561.063 41.326 C 561.063 35.217 556.116 30.275 550.001 30.275 C 543.898 30.275 538.95 35.217 538.95 41.326 C 538.95 47.437 543.898 52.382 550.001 52.382 Z " fill="rgb(0,0,0)"/>
    <path d=" M 550.001 112.477 C 543.898 112.477 538.95 117.43 538.95 123.539 C 538.95 129.637 543.898 134.595 550.001 134.595 C 556.115 134.595 561.063 129.636 561.063 123.539 C 561.063 117.43 556.115 112.477 550.001 112.477 Z " fill="rgb(0,0,0)"/>
  </g>
</svg>
