<?xml version="1.0" encoding="UTF-8" standalone="no"?><!-- Generator: Gravit.io -->
<svg xmlns="https://www.w3.org/2000/svg" 
  xmlns:xlink="https://www.w3.org/1999/xlink" style="isolation: isolate" viewBox="0 0 1022.356 61.844" width="1022.4pt" height="61.8pt">
  <defs>
    <clipPath id="_clipPath_54L3GjIBkRQa1PMyFy5M5l5AdisCxWyL">
      <rect width="1022.4" height="61.8"/>
    </clipPath>
  </defs>
  <g clip-path="url(#_clipPath_54L3GjIBkRQa1PMyFy5M5l5AdisCxWyL)" fill="#000099">
    <path d="M 537.1 30.9 C 537.1 30.9 528.1 31.2 518.7 38.7 C 509 46.4 510.5 61.8 510.5 61.8 L 510.3 61.8 C 510.3 61.8 511.8 46.4 502.1 38.7 C 492.7 31.2 483.7 30.9 483.7 30.9 L 483.7 30.9 C 483.7 30.9 492.7 30.7 502.1 23.2 C 511.8 15.5 510.3 0 510.3 0 L 510.5 0 C 510.5 0 509 15.5 518.7 23.2 C 528.1 30.7 537.1 30.9 537.1 30.9 L 537.1 30.9 Z"/>
    <path d="M 558.7 41.1 C 567.7 39.8 570.5 36.5 582.2 35.4 C 590.1 34.7 592.7 35.1 600.7 35.3 C 606.9 35.5 613.5 36.5 619.7 37.4 C 637.3 39.8 643.4 39.4 647.9 35.7 C 652.4 32 652.6 31 652.6 31 L 541.2 31 L 541.2 31 C 541.2 31 543.8 43.4 558.7 41.1 Z"/>
    <path d="M 558.7 20.9 C 567.7 22.3 570.5 25.6 582.2 26.7 C 590.1 27.4 592.7 27 600.7 26.8 C 606.9 26.6 613.5 25.6 619.7 24.7 C 637.3 22.3 643.4 22.7 647.9 26.3 C 652.4 30 652.6 31 652.6 31 L 541.2 31 L 541.2 31 C 541.2 31 543.8 18.7 558.7 20.9 Z"/>
    <path d="M 658.8 31 C 658.8 34.6 661.7 37.5 665.3 37.5 C 668.9 37.5 671.8 34.6 671.8 31 C 671.8 27.4 668.9 24.5 665.3 24.5 C 661.7 24.5 658.8 27.4 658.8 31 Z"/>
    <path d="M 679.2 31.8 C 679.2 33.3 689.7 34.6 702.7 34.6 C 715.6 34.6 726.2 33.3 726.2 31.8 C 726.2 30.3 715.6 29 702.7 29 C 689.7 29 679.2 30.3 679.2 31.8 Z"/>
    <path d="M 730.5 32.2 C 730.5 32.2 733.9 32.3 737.3 35.1 C 740.9 38 740.4 43.7 740.4 43.7 L 740.5 43.7 C 740.5 43.7 739.9 38 743.5 35.1 C 747 32.3 750.4 32.2 750.4 32.2 L 750.4 32.2 C 750.4 32.2 747 32.1 743.5 29.3 C 739.9 26.4 740.5 20.7 740.5 20.7 L 740.4 20.7 C 740.4 20.7 740.9 26.4 737.3 29.3 C 733.9 32.1 730.5 32.2 730.5 32.2 L 730.5 32.2 Z"/>
    <path d="M 755.9 33.2 L 866.5 33.2 L 866.5 30.4 L 755.9 30.4 L 755.9 33.2 Z" />
    <path d="M 864 31.8 C 864 35.4 866.9 38.3 870.5 38.3 C 874.1 38.3 877 35.4 877 31.8 C 877 28.2 874.1 25.3 870.5 25.3 C 866.9 25.3 864 28.2 864 31.8 Z"/>
    <path d="M 881.5 40.7 L 882.5 40.7 C 882.5 40.7 874.9 36.3 925.7 34 C 975.1 31.9 1022.4 31.8 1022.4 31.8 L 1022.4 31.8 C 1022.4 31.8 975.1 31.7 925.7 29.6 C 874.9 27.3 882.5 22.9 882.5 22.9 L 881.5 22.9 L 881.5 40.7 Z"/>
    <path d="M 463.6 41.1 C 454.6 39.8 451.9 36.5 440.2 35.4 C 432.2 34.7 429.7 35.1 421.7 35.3 C 415.5 35.5 408.8 36.5 402.7 37.4 C 385.1 39.8 379 39.4 374.5 35.7 C 370 32 369.8 31 369.8 31 L 481.2 31 L 481.2 31 C 481.2 31 478.5 43.4 463.6 41.1 Z"/>
    <path d="M 463.6 20.9 C 454.6 22.3 451.9 25.6 440.2 26.7 C 432.2 27.4 429.7 27 421.7 26.8 C 415.5 26.6 408.8 25.6 402.7 24.7 C 385.1 22.3 379 22.7 374.5 26.3 C 370 30 369.8 31 369.8 31 L 481.2 31 L 481.2 31 C 481.2 31 478.5 18.7 463.6 20.9 Z"/>
    <path d="M 363.5 31 C 363.5 34.6 360.6 37.5 357 37.5 C 353.5 37.5 350.6 34.6 350.6 31 C 350.6 27.4 353.5 24.5 357 24.5 C 360.6 24.5 363.5 27.4 363.5 31 Z"/>
    <path d="M 343.1 31.8 C 343.1 33.3 332.6 34.6 319.7 34.6 C 306.7 34.6 296.2 33.3 296.2 31.8 C 296.2 30.3 306.7 29 319.7 29 C 332.6 29 343.1 30.3 343.1 31.8 Z"/>
    <path d="M 291.9 32.2 C 291.9 32.2 288.5 32.3 285 35.1 C 281.4 38 282 43.7 282 43.7 L 281.9 43.7 C 281.9 43.7 282.4 38 278.8 35.1 C 275.3 32.3 272 32.2 272 32.2 L 272 32.2 C 272 32.2 275.3 32.1 278.8 29.3 C 282.4 26.4 281.9 20.7 281.9 20.7 L 282 20.7 C 282 20.7 281.4 26.4 285 29.3 C 288.5 32.1 291.9 32.2 291.9 32.2 L 291.9 32.2 Z"/>
    <path d="M 266.4 33.2 L 155.8 33.2 L 155.8 30.4 L 266.4 30.4 L 266.4 33.2 Z"/>
    <path d="M 158.4 31.8 C 158.4 35.4 155.4 38.3 151.9 38.3 C 148.3 38.3 145.4 35.4 145.4 31.8 C 145.4 28.2 148.3 25.3 151.9 25.3 C 155.4 25.3 158.4 28.2 158.4 31.8 Z"/>
    <path d="M 140.9 40.7 L 139.8 40.7 C 139.8 40.7 147.5 36.3 96.6 34 C 47.3 31.9 0 31.8 0 31.8 L 0 31.8 C 0 31.8 47.3 31.7 96.6 29.6 C 147.5 27.3 139.8 22.9 139.8 22.9 L 140.9 22.9 L 140.9 40.7 Z"/>
  </g>
</svg>
