<?xml version="1.0" encoding="UTF-8" standalone="no"?>
<svg xmlns="http://www.w3.org/2000/svg" 
	xmlns:xlink="http://www.w3.org/1999/xlink" style="isolation:isolate" viewBox="0 0 916.75 68.664" width="916.75pt" height="68.664pt">
	<defs>
		<clipPath id="divider">
			<rect width="916.75" height="68.664"/>
		</clipPath>
	</defs>
	<g clip-path="url(#divider)">
		<path d=" M 916.75 33.414 C 916.75 33.331 916.75 33.331 916.75 33.248 C 916.75 33.164 916.75 33.164 916.75 33.081 C 916.75 32.998 916.667 32.831 916.667 32.748 C 916.583 32.664 916.583 32.581 916.5 32.498 C 916.417 32.414 916.333 32.331 916.333 32.248 C 916.25 32.164 916.167 32.081 916.083 31.998 C 916 31.914 915.917 31.914 915.833 31.831 C 915.75 31.748 915.583 31.748 915.5 31.748 C 915.417 31.748 915.417 31.748 915.333 31.748 L 776.667 19.581 C 776.583 19.581 776.583 19.581 776.583 19.581 C 776.583 19.581 776.5 19.581 776.5 19.581 L 755.75 20.664 L 747.917 13.081 C 747.917 13.081 747.833 12.998 747.75 12.998 C 747.667 12.914 747.583 12.831 747.417 12.831 C 747.333 12.748 747.25 12.748 747.083 12.748 C 747 12.748 746.833 12.664 746.75 12.664 C 746.667 12.664 746.5 12.664 746.417 12.664 C 746.333 12.664 746.333 12.664 746.25 12.664 L 691.417 23.914 L 623.167 27.331 L 548.25 11.998 L 562.083 7.498 L 561 4.248 L 541.417 10.664 L 522.167 6.748 C 522.167 6.748 522.083 6.748 522.083 6.748 C 522 6.748 521.917 6.748 521.75 6.748 C 521.583 6.748 521.5 6.748 521.417 6.831 C 521.417 6.831 521.333 6.831 521.333 6.831 L 475.917 21.498 L 465.083 18.498 L 473.667 16.164 C 474.5 15.914 475.917 15.164 476.167 14.331 C 476.5 13.414 476.083 12.414 475.167 12.081 L 463.5 7.748 C 463.5 7.748 464.083 7.498 464.167 7.498 C 464.25 7.498 464.333 7.414 464.417 7.331 C 464.583 7.248 464.667 7.164 464.75 7.081 C 464.75 7.081 464.833 7.081 464.833 6.998 C 464.917 6.914 464.917 6.831 464.917 6.748 C 465 6.664 465 6.581 465.083 6.414 C 465.167 6.331 465.167 6.164 465.167 6.081 C 465.167 5.998 465.167 5.831 465.167 5.748 C 465.167 5.664 465.167 5.498 465.083 5.414 C 465.083 5.331 465.083 5.248 465.083 5.164 C 465.083 5.164 465.083 5.164 465 5.081 C 464.917 4.998 464.917 4.914 464.833 4.748 C 464.75 4.664 464.667 4.581 464.583 4.498 C 464.583 4.498 464.5 4.414 464.5 4.414 L 459.75 0.414 C 459.167 -0.086 458.417 -0.086 457.833 0.164 C 457.583 0.248 457.25 0.331 457 0.498 L 452.417 4.331 C 452.417 4.331 452.333 4.414 452.333 4.414 C 452.25 4.498 452.167 4.581 452.167 4.664 C 452.083 4.748 452 4.831 452 4.998 C 452 4.998 451.917 5.081 451.917 5.081 C 451.917 5.164 451.917 5.248 451.917 5.331 C 451.917 5.414 451.833 5.581 451.833 5.664 C 451.833 5.748 451.833 5.914 451.833 5.998 C 451.833 6.081 451.833 6.248 451.917 6.331 C 452 6.414 452 6.498 452.083 6.664 C 452.083 6.748 452.167 6.831 452.167 6.831 C 452.167 6.831 452.25 6.831 452.25 6.914 C 452.333 6.998 452.5 7.081 452.583 7.164 C 452.667 7.248 452.75 7.248 452.833 7.331 L 453.417 7.581 L 441.75 11.914 C 440.833 12.248 440.417 13.248 440.75 14.164 C 441.167 15.164 442.25 15.748 443.25 15.998 L 451.833 18.331 L 441.25 21.248 L 395.583 6.664 C 395.583 6.664 395.5 6.664 395.5 6.664 C 395.417 6.581 395.25 6.581 395.167 6.581 C 395.083 6.581 394.917 6.581 394.833 6.581 C 394.833 6.581 394.75 6.581 394.75 6.581 L 370.917 11.414 L 347.25 4.081 C 346.333 3.748 345.417 4.331 345.083 5.248 C 344.833 6.164 345.333 7.081 346.25 7.414 L 363.917 12.914 L 293.75 27.248 L 225.5 23.831 L 170.667 12.581 C 170.583 12.581 170.583 12.581 170.5 12.581 C 170.417 12.581 170.25 12.581 170.167 12.581 C 170.083 12.581 169.917 12.581 169.833 12.664 C 169.75 12.664 169.667 12.748 169.583 12.748 C 169.5 12.831 169.417 12.831 169.25 12.914 C 169.167 12.914 169.167 12.998 169.083 12.998 L 161.25 20.581 L 140.5 19.498 C 140.417 19.498 140.417 19.498 140.417 19.498 C 140.333 19.498 140.333 19.498 140.333 19.498 L 1.667 31.664 C 1.583 31.664 1.583 31.664 1.5 31.664 C 1.333 31.664 1.25 31.748 1.083 31.831 C 1 31.831 0.917 31.914 0.833 31.914 C 0.75 31.998 0.583 32.081 0.5 32.164 C 0.417 32.248 0.417 32.331 0.333 32.414 C 0.25 32.498 0.25 32.581 0.167 32.748 C 0.083 32.831 0.083 32.914 0.083 33.081 C 0.083 33.164 0 33.164 0 33.248 C 0 33.331 0 33.331 0 33.414 C 0 33.498 0 33.498 0 33.581 C 0 33.664 0 33.664 0.083 33.748 C 0.083 33.831 0.167 33.998 0.167 34.081 C 0.25 34.164 0.25 34.331 0.333 34.414 C 0.417 34.498 0.417 34.581 0.5 34.664 C 0.583 34.748 0.667 34.831 0.75 34.914 C 0.833 34.998 0.917 34.998 1 35.081 C 1.083 35.164 1.25 35.164 1.333 35.164 C 1.417 35.164 1.417 35.248 1.5 35.248 L 141.583 48.914 C 141.667 48.914 141.667 48.914 141.75 48.914 C 141.75 48.914 141.833 48.914 141.833 48.914 L 161.667 47.914 L 168.917 55.498 C 168.917 55.498 169 55.498 169 55.581 C 169.083 55.664 169.25 55.748 169.417 55.831 C 169.5 55.831 169.5 55.914 169.583 55.914 C 169.75 55.998 170 55.998 170.167 55.998 C 170.25 55.998 170.417 55.998 170.5 55.914 L 225.333 44.748 L 293.583 41.331 L 367.167 56.331 L 346.083 63.164 L 347.167 66.498 L 374.083 57.831 L 394.583 61.998 C 394.667 61.998 394.833 61.998 394.917 61.998 C 395.083 61.998 395.25 61.998 395.417 61.914 L 440.5 47.164 L 451.667 50.248 L 443.083 52.581 C 442.083 52.831 441 53.331 440.583 54.414 C 440.25 55.331 440.75 56.331 441.583 56.664 L 453.25 60.998 L 452.667 61.248 C 452.667 61.248 452.583 61.248 452.583 61.331 C 452.5 61.414 452.417 61.414 452.333 61.498 C 452.25 61.581 452.167 61.664 452.083 61.748 C 452.083 61.748 452 61.748 452 61.831 C 451.917 61.914 451.917 61.998 451.917 61.998 C 451.833 62.081 451.833 62.164 451.75 62.331 C 451.667 62.414 451.667 62.498 451.667 62.664 C 451.667 62.748 451.667 62.914 451.667 62.998 C 451.667 63.164 451.667 63.248 451.75 63.331 C 451.75 63.414 451.75 63.498 451.75 63.581 C 451.75 63.581 451.833 63.664 451.833 63.664 C 451.833 63.748 451.917 63.831 451.917 63.831 C 452 63.914 452.083 64.081 452.167 64.164 C 452.167 64.164 452.25 64.248 452.25 64.248 L 457 68.248 C 457.333 68.498 457.75 68.664 458.083 68.664 C 458.25 68.664 458.333 68.581 458.5 68.581 C 458.5 68.581 458.583 68.581 458.583 68.581 C 459 68.581 459.333 68.414 459.667 68.164 L 464.333 64.248 C 464.333 64.248 464.333 64.164 464.417 64.164 C 464.5 64.081 464.583 63.914 464.667 63.831 C 464.667 63.748 464.75 63.664 464.75 63.664 C 464.75 63.664 464.833 63.581 464.833 63.581 C 464.833 63.498 464.833 63.414 464.833 63.331 C 464.833 63.248 464.917 63.081 464.917 62.998 C 464.917 62.914 464.917 62.831 464.917 62.664 C 464.917 62.581 464.917 62.414 464.833 62.331 C 464.833 62.248 464.75 62.081 464.667 61.998 C 464.667 61.914 464.583 61.831 464.583 61.831 C 464.583 61.831 464.5 61.748 464.5 61.748 C 464.417 61.664 464.333 61.581 464.25 61.498 C 464.167 61.414 464.083 61.331 463.917 61.331 C 463.917 61.331 463.833 61.331 463.833 61.248 L 463.25 60.998 L 474.917 56.664 C 475.833 56.331 476.25 55.331 475.917 54.414 C 475.667 53.664 474.167 52.831 473.417 52.581 L 464.833 50.248 L 474.75 47.498 L 521.083 61.914 C 521.25 61.998 521.417 61.998 521.583 61.998 C 521.667 61.998 521.833 61.998 521.917 61.998 L 543.333 57.581 L 571.083 66.414 C 571.25 66.498 571.417 66.498 571.583 66.498 C 572.333 66.498 573 65.998 573.25 65.331 C 573.583 64.414 573 63.414 572.167 63.164 L 550.333 56.164 L 623 41.331 L 691.25 44.748 L 746.083 55.914 C 746.167 55.914 746.333 55.998 746.417 55.998 C 746.667 55.998 746.833 55.914 747 55.914 C 747.083 55.914 747.083 55.831 747.167 55.831 C 747.333 55.748 747.417 55.664 747.583 55.581 C 747.583 55.581 747.667 55.581 747.667 55.498 L 754.917 47.914 L 774.75 48.914 C 774.75 48.914 774.833 48.914 774.833 48.914 C 774.917 48.914 774.917 48.914 775 48.914 L 915.167 35.248 C 915.25 35.248 915.333 35.164 915.333 35.164 C 915.5 35.164 915.583 35.081 915.75 35.081 C 915.833 34.998 915.917 34.998 916 34.914 C 916.083 34.831 916.167 34.748 916.25 34.664 C 916.333 34.581 916.333 34.498 916.417 34.414 C 916.5 34.331 916.5 34.248 916.583 34.081 C 916.583 33.998 916.667 33.914 916.667 33.748 C 916.667 33.664 916.667 33.664 916.75 33.581 C 916.75 33.498 916.75 33.414 916.75 33.414 Z  M 745.917 16.081 L 750.75 20.748 L 714 22.581 L 745.917 16.081 Z  M 668.917 28.331 L 648.833 32.414 L 636.667 29.914 L 668.917 28.331 Z  M 541.5 13.998 L 609.25 27.831 L 516.5 32.414 L 499.5 27.748 L 541.5 13.998 Z  M 509.833 34.164 L 494.917 38.248 L 481 33.831 L 493.583 29.748 L 509.833 34.164 Z  M 521.833 9.998 L 534.667 12.581 L 493.5 26.081 L 481.833 22.914 L 521.833 9.998 Z  M 475.833 24.831 L 487.5 28.081 L 475.333 32.081 L 464.333 28.581 L 475.833 24.831 Z  M 469.75 33.831 L 456.833 38.081 L 445.583 34.581 L 458.75 30.331 L 469.75 33.831 Z  M 458.417 3.748 L 459.917 5.081 L 458.417 5.664 L 456.917 5.081 L 458.417 3.748 Z  M 447.417 13.414 L 458.417 9.331 L 469.417 13.414 L 458.417 16.414 L 447.417 13.414 Z  M 458.417 19.998 L 469.75 23.164 L 458.667 26.748 L 447.25 23.081 L 458.417 19.998 Z  M 453.083 28.581 L 439.833 32.831 L 426.75 28.748 L 441.25 24.748 L 453.083 28.581 Z  M 434.167 34.664 L 422.5 38.414 L 407 34.164 L 420.583 30.414 L 434.167 34.664 Z  M 395 9.998 L 435.25 22.831 L 420.667 26.831 L 377.833 13.498 L 395 9.998 Z  M 370.75 14.914 L 414.5 28.581 L 400.333 32.498 L 307.583 27.914 L 370.75 14.914 Z  M 280.167 29.914 L 268 32.414 L 247.917 28.331 L 280.167 29.914 Z  M 170.917 16.081 L 202.75 22.581 L 166 20.748 L 170.917 16.081 Z  M 142 45.331 L 20.5 33.498 L 140.5 22.998 L 157.833 23.831 L 149.167 32.164 C 148.833 32.498 148.667 32.914 148.667 33.414 C 148.667 33.831 148.833 34.331 149.167 34.664 L 158.667 44.498 L 142 45.331 Z  M 170.917 52.248 L 166.417 47.581 L 202.75 45.748 L 170.917 52.248 Z  M 225.083 41.164 L 163.25 44.248 L 152.833 33.414 L 162.583 23.998 L 225.083 27.081 L 259.333 34.081 L 225.083 41.164 Z  M 247.917 39.998 L 268 35.914 L 280.167 38.414 L 247.917 39.998 Z  M 276.583 34.164 L 294 30.581 L 365.667 34.164 L 294 37.748 L 276.583 34.164 Z  M 374 54.081 L 307.583 40.498 L 400.25 35.914 L 416.417 40.414 L 374 54.081 Z  M 395 58.331 L 380.917 55.414 L 422.583 41.914 L 434.667 45.248 L 395 58.331 Z  M 440.667 43.414 L 428.583 40.081 L 439.917 36.414 L 451.25 39.914 L 440.667 43.414 Z  M 458.417 64.581 L 456.917 63.248 L 458.417 62.664 L 459.917 63.248 L 458.417 64.581 Z  M 469.417 54.914 L 458.417 58.998 L 447.417 54.914 L 458.417 51.914 L 469.417 54.914 Z  M 458.417 48.331 L 446.667 45.081 L 456.833 41.748 L 468.75 45.498 L 458.417 48.331 Z  M 462.5 39.914 L 475.417 35.664 L 488.833 39.998 L 475 43.831 L 462.5 39.914 Z  M 521.833 58.414 L 481.083 45.664 L 494.833 41.914 L 536.833 55.331 L 521.833 58.414 Z  M 543.75 53.914 L 500.917 40.248 L 516.5 35.914 L 609.25 40.498 L 543.75 53.914 Z  M 622.833 37.748 L 551.167 34.164 L 622.833 30.581 L 640.25 34.164 L 622.833 37.748 Z  M 636.667 38.414 L 648.833 35.914 L 668.917 39.998 L 636.667 38.414 Z  M 745.917 52.248 L 714.083 45.748 L 750.417 47.581 L 745.917 52.248 Z  M 753.583 44.248 L 691.75 41.164 L 657.5 34.164 L 691.75 27.164 L 754.25 24.081 L 764 33.498 L 753.583 44.248 Z  M 774.833 45.331 L 758.167 44.498 L 767.667 34.664 L 767.667 34.664 L 767.667 34.664 C 768.167 34.164 768.25 33.498 768 32.831 C 768 32.831 768 32.748 768 32.748 C 767.917 32.664 767.833 32.581 767.75 32.414 C 767.667 32.331 767.667 32.248 767.583 32.164 L 767.583 32.164 L 767.583 32.164 L 758.917 23.831 L 776.333 22.998 L 896.333 33.498 L 774.833 45.331 Z " fill="rgb(0,0,0)"/>
	</g>
</svg>
