<?xml version="1.0" standalone="no"?>
<!DOCTYPE svg PUBLIC "-//W3C//DTD SVG 20010904//EN"
 "http://www.w3.org/TR/2001/REC-SVG-20010904/DTD/svg10.dtd">
<svg version="1.0" xmlns="http://www.w3.org/2000/svg"
 width="1221.000000pt" height="1600.000000pt" viewBox="0 0 1221.000000 1600.000000"
 preserveAspectRatio="xMidYMid meet">

<g transform="translate(0.000000,1600.000000) scale(0.100000,-0.100000)"
fill="#000000" stroke="none">
<path d="M1235 15860 c-4 -6 7 -22 24 -36 30 -25 111 -138 111 -155 0 -5 -52
-9 -115 -9 -63 0 -115 -3 -115 -6 0 -3 15 -31 34 -62 61 -101 80 -172 80 -302
0 -96 -4 -124 -23 -172 -12 -32 -25 -60 -29 -62 -4 -2 -7 21 -7 52 -1 91 -28
162 -87 227 -28 31 -65 63 -82 72 -38 20 -122 43 -157 43 -51 0 -130 -31 -171
-68 -74 -67 -95 -149 -59 -227 60 -129 208 -155 299 -51 37 42 42 28 17 -43
-61 -175 -314 -263 -508 -177 -53 23 -167 123 -179 156 -22 63 -25 -65 -33
-1600 -3 -624 -10 -1439 -15 -1810 -5 -371 -12 -1091 -15 -1600 -3 -509 -7
-1042 -10 -1185 -6 -329 -13 -1399 -21 -3065 -3 -718 -7 -1323 -9 -1345 -2
-22 -6 -220 -10 -440 -4 -220 -8 -413 -10 -430 -3 -16 -7 -583 -10 -1260 -4
-676 -8 -1238 -10 -1248 -2 -9 -1 -17 1 -17 2 0 34 31 72 69 52 51 83 74 128
91 118 45 275 34 369 -27 85 -54 144 -142 145 -213 l0 -35 -20 33 c-25 40 -69
68 -122 76 -34 6 -52 2 -97 -21 -152 -76 -137 -285 25 -360 116 -53 265 -18
353 82 60 69 91 162 86 257 l-3 43 19 -38 c74 -143 59 -353 -36 -511 -19 -32
-35 -62 -35 -67 0 -5 28 -9 63 -10 34 -1 86 -4 115 -7 l52 -7 -34 -50 c-18
-27 -52 -70 -75 -94 -23 -24 -40 -46 -36 -49 8 -9 176 -10 1895 -17 855 -4
1607 -8 1670 -10 470 -15 6220 -22 6243 -8 4 2 -12 26 -36 52 -40 43 -97 123
-97 136 0 3 52 5 115 5 77 0 115 4 115 11 0 6 -9 23 -20 39 -57 79 -90 196
-90 317 0 75 5 105 25 160 33 86 41 94 37 35 -6 -93 50 -215 131 -282 70 -57
222 -78 302 -41 147 67 180 255 61 346 -69 53 -185 40 -241 -26 -25 -30 -25
-30 -25 -7 0 66 84 175 167 216 107 54 262 55 368 3 58 -29 136 -99 162 -146
7 -11 14 -18 16 -15 3 3 7 271 11 595 3 325 8 741 11 925 3 184 7 560 10 835
5 470 7 822 20 2665 3 410 8 966 10 1235 18 1694 25 2430 30 3045 3 382 7 862
10 1065 3 204 7 638 10 965 3 327 7 696 10 820 3 124 8 599 11 1055 l7 830
-62 -67 c-44 -48 -81 -77 -129 -100 -63 -31 -72 -33 -177 -33 -98 0 -116 3
-167 27 -101 47 -174 139 -185 232 l-5 41 20 -31 c61 -95 189 -107 272 -24 56
56 74 138 44 208 -21 50 -59 89 -118 119 -44 22 -59 25 -131 21 -65 -3 -91
-10 -134 -33 -101 -56 -164 -157 -180 -290 l-7 -60 -24 60 c-21 51 -25 76 -25
170 0 81 5 124 19 165 23 66 72 166 86 175 5 3 10 13 10 21 0 11 -21 14 -109
14 -61 0 -112 4 -115 8 -7 12 57 105 106 154 22 22 38 41 36 44 -2 2 -688 6
-1524 9 -835 3 -1539 8 -1564 10 -25 2 -1384 7 -3020 10 -1636 3 -3140 7
-3342 10 -238 3 -369 1 -373 -5z m3825 -35 c1246 -3 2459 -8 2695 -10 237 -2
1013 -5 1725 -6 712 -1 1325 -4 1362 -7 l68 -4 -34 -47 c-18 -25 -43 -65 -54
-87 l-21 -42 -148 -4 c-133 -3 -153 -6 -204 -29 -97 -46 -159 -136 -146 -216
9 -54 23 -63 50 -31 37 44 84 62 127 49 75 -22 108 -97 76 -169 -53 -117 -248
-124 -323 -11 -25 38 -28 52 -28 121 0 43 -3 78 -7 78 -5 0 -8 -4 -8 -10 0
-15 -76 -50 -110 -50 -21 0 -41 9 -61 29 -52 53 -33 136 49 208 l37 33 -120 1
c-249 4 -646 6 -2605 12 -1108 4 -2729 10 -3602 13 -874 4 -1588 3 -1588 0 0
-4 15 -20 34 -36 42 -37 66 -86 66 -135 0 -45 -47 -95 -88 -95 -30 0 -112 37
-112 51 0 5 -3 9 -7 9 -5 0 -8 -33 -8 -74 0 -66 -3 -79 -30 -117 -38 -55 -80
-79 -147 -85 -43 -4 -62 -1 -97 18 -62 32 -86 68 -86 128 0 40 5 54 29 79 53
55 121 50 178 -11 29 -32 30 -32 45 -13 23 31 12 115 -21 165 -33 51 -102 95
-167 109 -28 6 -96 11 -152 11 -56 0 -111 3 -122 6 -11 3 -33 29 -49 57 -16
29 -39 66 -52 83 -13 17 -20 35 -16 38 3 4 321 5 707 2 385 -3 1719 -8 2965
-11z m-3629 -297 c19 -73 20 -80 20 -188 1 -81 -4 -121 -21 -175 -72 -231
-235 -396 -460 -466 -100 -32 -281 -34 -383 -5 -37 10 -69 17 -72 15 -2 -3 -7
-351 -9 -774 -5 -728 -10 -1203 -21 -2130 -3 -220 -7 -794 -10 -1275 -7 -1163
-14 -2059 -20 -2365 -3 -137 -8 -889 -10 -1670 -5 -1462 -12 -2316 -20 -2465
-7 -130 -14 -655 -20 -1500 -3 -421 -7 -854 -10 -964 l-5 -198 28 5 c15 4 61
14 102 23 93 20 210 14 312 -17 240 -71 408 -247 470 -493 25 -97 21 -271 -7
-349 l-17 -47 -95 0 c-86 0 -95 2 -90 18 4 9 18 55 32 102 61 198 16 405 -119
546 -55 57 -75 57 -42 1 132 -225 6 -497 -230 -497 -60 0 -77 4 -115 29 -62
39 -93 91 -93 156 0 91 60 155 144 155 69 0 130 -63 130 -135 0 -32 10 -32 40
0 18 19 25 40 28 84 14 197 -211 356 -440 312 -35 -7 -96 -28 -136 -48 -41
-19 -75 -33 -77 -31 -6 5 13 2507 20 2623 10 190 15 635 20 1735 6 1292 16
2730 20 2780 1 19 5 494 9 1055 7 1150 14 1992 21 2610 3 231 10 845 15 1365
5 520 12 1051 15 1180 3 129 5 268 5 307 l0 73 62 -34 c181 -99 372 -86 500
33 89 81 124 213 78 289 -24 39 -60 45 -53 8 12 -58 -59 -126 -132 -126 -137
0 -189 178 -81 278 105 97 289 66 378 -63 37 -53 62 -154 53 -214 -8 -58 -40
-146 -66 -183 -35 -48 2 -33 60 25 137 137 185 370 115 559 -34 94 -39 88 69
88 l96 0 12 -42z m447 14 c46 -24 72 -67 72 -118 l0 -26 -31 26 c-107 90 -256
-4 -235 -148 15 -97 99 -166 206 -166 126 0 220 92 220 216 0 40 2 45 18 38
40 -18 107 -15 140 6 42 26 75 97 70 152 l-3 41 2265 -3 c1246 -1 2299 -4
2340 -6 41 -2 543 -4 1115 -6 572 -2 1232 -4 1467 -6 l426 -2 -1 -58 c-2 -68
24 -119 76 -147 33 -17 90 -18 130 -1 14 7 17 3 17 -29 0 -64 21 -123 57 -160
50 -52 89 -69 158 -69 75 -1 136 31 179 92 61 86 33 208 -56 248 -47 21 -98
14 -144 -21 l-34 -26 0 26 c0 15 8 43 17 62 27 58 80 75 250 81 78 3 148 2
156 -1 13 -5 13 -12 0 -59 -9 -33 -15 -99 -15 -173 0 -101 4 -134 26 -210 84
-279 293 -479 571 -546 75 -18 110 -20 210 -16 66 2 132 9 147 15 20 8 29 8
34 0 4 -6 4 -236 0 -512 -6 -478 -8 -688 -21 -2211 -3 -363 -7 -815 -10 -1005
-3 -190 -7 -671 -10 -1070 -3 -399 -10 -1164 -15 -1700 -5 -536 -12 -1285 -15
-1665 -3 -379 -7 -928 -10 -1220 -3 -291 -7 -872 -10 -1290 -3 -418 -7 -926
-10 -1130 -3 -203 -7 -579 -11 -835 -3 -256 -7 -472 -10 -481 -4 -15 -10 -15
-67 -2 -95 23 -270 13 -372 -20 -103 -34 -228 -107 -310 -180 -184 -165 -282
-439 -243 -678 8 -52 13 -96 11 -98 -9 -11 -291 -5 -324 7 -52 18 -90 62 -96
113 l-6 42 36 -27 c45 -35 103 -44 144 -22 108 55 121 203 26 286 -46 41 -76
52 -144 52 -117 1 -200 -79 -215 -206 -6 -49 -9 -54 -25 -46 -26 14 -86 12
-117 -4 -61 -32 -95 -101 -84 -174 l4 -32 -308 0 c-170 0 -563 4 -874 10 -311
5 -1411 11 -2445 15 -1034 3 -1981 7 -2105 10 -124 3 -600 8 -1057 11 l-833 6
6 38 c8 51 -9 100 -52 141 -30 29 -42 34 -82 34 -26 0 -57 -4 -69 -8 -22 -8
-23 -6 -23 40 0 72 -37 140 -100 182 -44 30 -58 34 -110 34 -120 -1 -209 -77
-217 -185 -11 -146 138 -222 245 -125 l22 20 0 -34 c0 -44 -31 -93 -72 -116
-27 -15 -63 -18 -202 -21 -160 -4 -168 -3 -162 15 20 49 28 140 23 258 -4 115
-8 140 -37 219 -39 106 -107 210 -187 288 -102 100 -175 145 -320 195 -70 24
-92 27 -218 27 -77 0 -157 -5 -177 -11 l-38 -11 0 131 c-2 934 4 1521 22 2242
5 231 12 1003 14 1715 2 712 8 1700 14 2195 12 1130 18 1805 25 2920 3 484 8
968 10 1075 2 107 7 569 10 1025 3 457 8 1055 11 1331 l7 501 56 -13 c87 -21
263 -18 357 6 334 86 571 370 591 709 3 68 0 118 -11 171 -9 41 -16 79 -16 84
0 4 71 6 158 4 139 -3 162 -6 200 -26z m9168 -10 c9 -5 4 -32 -17 -94 -31 -92
-40 -204 -25 -298 11 -67 79 -200 131 -258 63 -70 83 -69 46 2 -103 195 -30
418 156 476 109 33 212 1 264 -83 65 -108 0 -247 -116 -247 -74 0 -135 61
-135 135 0 34 -13 32 -45 -7 -25 -30 -27 -37 -22 -103 5 -83 37 -146 100 -201
131 -114 317 -125 493 -29 l62 33 -4 -331 c-2 -183 -6 -771 -9 -1307 -3 -536
-7 -1081 -10 -1210 -3 -129 -7 -730 -10 -1335 -3 -605 -7 -1251 -10 -1435 -7
-472 -23 -2205 -30 -3225 -3 -473 -8 -889 -10 -925 -3 -36 -7 -546 -11 -1135
-3 -588 -8 -1086 -9 -1105 -1 -19 -5 -354 -9 -745 -4 -390 -9 -774 -12 -852
l-6 -142 -62 34 c-180 98 -370 85 -500 -35 -96 -88 -128 -234 -68 -302 25 -29
42 -22 42 18 0 77 86 136 167 115 66 -18 103 -71 103 -148 0 -59 -33 -116 -88
-153 -52 -34 -161 -40 -224 -12 -64 28 -113 76 -145 139 -23 48 -27 69 -27
139 0 75 3 89 38 159 21 42 35 79 32 83 -11 10 -102 -93 -140 -158 -55 -94
-80 -195 -73 -300 5 -73 24 -155 52 -223 7 -16 0 -18 -91 -15 l-98 3 -14 50
c-22 78 -18 255 7 339 69 232 249 411 486 482 84 25 278 25 359 0 49 -15 60
-16 67 -5 5 8 9 176 10 374 1 198 3 369 4 380 1 11 5 245 9 520 6 484 10 964
21 2765 3 470 7 945 10 1055 3 110 7 605 11 1100 3 495 7 1004 9 1130 2 127 6
597 10 1045 3 448 10 1254 15 1790 11 1125 18 1859 26 2634 l5 549 -23 -7
c-247 -70 -477 -30 -654 113 -120 96 -210 240 -240 383 -12 53 -14 105 -11
188 6 124 21 187 46 193 28 8 155 7 167 -1z m-9199 -14653 c28 -13 54 -37 71
-63 23 -35 27 -52 27 -118 0 -43 3 -78 6 -78 4 0 12 7 19 16 22 25 82 46 117
39 74 -14 97 -109 44 -182 -16 -22 -41 -49 -55 -60 -14 -12 -26 -23 -26 -25 0
-3 456 -8 1013 -12 556 -3 1282 -9 1612 -11 330 -3 1241 -7 2025 -10 784 -2
1838 -7 2343 -11 504 -4 917 -4 917 1 0 4 -20 29 -44 55 -28 30 -47 61 -51 84
-21 109 96 164 186 88 l32 -27 -6 45 c-18 135 67 240 195 240 129 -1 209 -117
145 -211 -45 -67 -127 -69 -186 -5 -32 34 -37 33 -51 -8 -15 -45 -5 -95 30
-149 51 -81 160 -116 368 -117 67 0 92 -3 92 -12 0 -7 20 -44 44 -83 44 -69
44 -70 23 -79 -12 -4 -672 -5 -1467 -2 -795 4 -1956 9 -2580 11 -624 2 -1441
7 -1815 10 -374 2 -1344 8 -2155 11 -811 4 -1476 8 -1478 9 -1 1 21 40 50 87
l53 85 140 5 c205 9 288 46 340 153 30 60 30 114 1 143 -12 12 -15 12 -25 -6
-15 -28 -73 -62 -105 -62 -71 0 -122 61 -113 137 12 108 151 167 264 112z"/>
</g>
</svg>
