<svg xmlns="http://www.w3.org/2000/svg" style="isolation:isolate" viewBox="0 0 682 852">
  <defs>
    <clipPath id="a">
      <path d="M0 0h682v852H0z"/>
    </clipPath>
  </defs>
  <g clip-path="url(#a)">
    <path d="M360 1c-5 1-14 4-29 13-9 4-14 4-28-1-13-5-18-6-25-6-11 0-20 3-28 9l-9 9-5 7a2245 2245 0 0 1-28 60c1 1-2 6-4 11l-6 11-8-8-27-25-12-9a167 167 0 0 0-66-32l-14-1c-21 2-32 9-37 24-2 6-2 20 0 28 2 7 10 24 14 30a184 184 0 0 1 13 30l-4 20-3 9-7 17c-11 27-13 44-7 61 2 7 8 18 11 22l8 10c6 9 19 23 21 23s0-3-5-9c-6-6-15-20-19-27-5-10-6-15-5-32 0-14 1-17 4-26 3-10 12-34 17-42 2-5 6-19 5-22-1-7-4-13-7-18l-4-7-7-12-10-17c-4-7-4-8-4-17s0-10 3-16c6-12 14-16 30-15 20 2 33 7 71 32 6 3 19 13 36 27l14 12 7-12a6303 6303 0 0 0 35-62c6-9 22-26 25-26l3-1c1-2 13-4 20-4a31 31 0 0 1 19 6l6 4c5 5 9 7 13 7 3 0 5-1 11-8 8-8 13-10 25-12 11-2 27 2 38 8 8 5 17 14 22 21a277 277 0 0 1 27 56l6 16c1 1 3-1 5-3 5-5 28-23 35-26 22-11 27-14 41-17 11-3 32-3 41 1 8 3 15 9 19 16 3 6 3 7 3 14 0 14-5 34-19 78l-7 23c-4 9-7 24-7 35 0 10 1 13 7 37 2 12 2 23 0 29-5 12-11 16-29 21a118 118 0 0 0-21 8l-1 2c-2 0-8 6-7 6 1 1 15-6 16-8l23-5c12 0 18-2 23-8 7-7 8-15 5-32l-4-18c-4-15-4-27-2-39l6-18a265 265 0 0 0 9-25c6-19 14-44 18-63l2-12c1-5 2-17 1-23-2-8-7-19-13-24-8-8-21-12-38-12-20 0-35 5-61 21a543 543 0 0 1-28 17 112 112 0 0 1-11 9c-2 2-5 3-4 1 1-4-12-44-18-55-2-6-11-18-17-24a84 84 0 0 0-37-22h-26z"/>
    <path d="M343 84v22c2 32 0 39-12 44-5 2-5 2-10 0-9-4-12-15-11-45l-1-18c-2 0-3 9-2 29 0 24 1 29 6 36 4 6 7 8 14 9 6 0 6 0 10-4 3-2 5-5 7-9 3-6 3-8 3-19 1-12-1-40-2-44-1-2-1-2-2-1z"/>
    <path d="M322 108c-8 9 1 21 11 13 3-2 4-3 4-6 0-6-4-9-9-9l-6 2zm-91 91l5 5c4 3 4 3 4 8-1 8 5 15 13 14l3-1 2 5c2 6 3 7 4 4 0-2-2-10-5-15-2-3-10-12-12-12l-7-5c-7-4-7-5-7-3zm205 4a40 40 0 0 0-26 24l-1 3c-2 1-2 6-1 6 2 0 5-5 6-8l2-1c3 1 9 0 11-2 3-3 5-9 4-12-2-3-2-4 4-7l6-3h-5zm-105 61c-5 1-8 2-17 7-5 2-9 6-8 7l7-3 11-3 5-1h32l8 2 7 1h2c0-1-16-9-21-10h-26zm-188 25c-15 5-28 17-42 40-8 12-15 35-18 54-1 10-2 10-10 18l-7 7c-17 17-23 44-16 73 4 19 16 39 32 55 5 6 5 6-2 7a127 127 0 0 0-57 35c-7 6-16 21-21 33-2 6-3 10 0 4s18-23 28-30a176 176 0 0 1 73-28h28l26 4c17 4 46 18 65 31a993 993 0 0 1 58 41l12 7 5 3 2 1s1 2 3 2l17 10c6 5 9 12 11 25 2 8 2 11 1 18-3 17-8 31-17 47a216 216 0 0 1-26 33c0 1 6-3 9-7l6-4 19-20 4-5a138 138 0 0 0 23-46v-37l-1-5c1-1 12 6 16 11 13 15 14 34 4 62-9 24-33 50-55 61l-13 5c-9 4-9 4-8 5 2 1 16-1 26-4l18-6c18-8 29-5 31 8 1 5 1 5-4 10s-15 10-19 10c-3 0-3 0-1 4l4 6 2 3 5 7c5 8 9 11 16 14 4 2 5 2 10 1s6-3 16-13 12-11 18-13c9-3 18-9 22-12 4-5 6-9 7-16 2-12-1-21-12-33-8-9-8-11-5-20 4-11 4-14 1-18-2-2-3-2-6-2-3 1-7 4-9 8l-1 11c0 7 0 9 3 15l11 18 8 12v8c0 8 0 9-3 12-4 6-8 9-16 11h-10c-3-2-3-2-4-1-2 4-9 11-15 14-5 4-6 4-13 4-6 0-8 0-11-3-5-3-11-11-10-12l8-2c16-3 27-15 25-27 0-6-4-12-8-14l-5-3-8-3-5-1 3-5c14-13 26-32 30-48 3-10 3-28 0-37a56 56 0 0 0-31-36l-3-2-3-1-11-3c-8-2-10-2-18-1l-9 1-4-3-13-9-9-5 3-2 11-7a228 228 0 0 0 52-43l5-7 9 1c19 0 47-7 71-20a149 149 0 0 0 54-46c1-1 2-1 1 1-2 10-2 16-2 30 0 16-1 19-6 34a150 150 0 0 1-52 69c-7 4-21 10-25 10l-4 1-12 2h-12l5 3c4 3 4 3 15 2l17-3 8-2 2-2 2-1c3 0 14-6 21-11a212 212 0 0 0 54-56c2-4 3-5 5-2 2 2 8 7 11 7l2 1 8 3a69 69 0 0 0 47-3l7-3c5-2 6-2 14-11l8-9 2-2a116 116 0 0 1 42 65l3 11a144 144 0 0 1-14 86c-4 6-19 22-26 28a127 127 0 0 1-91 21 296 296 0 0 1-49-13 78 78 0 0 0 19 14c1 2 27 12 38 15 8 2 33 3 42 2a183 183 0 0 0 53-17l7-5c8-6 14-12 23-23 12-16 18-29 21-47l3-13c1-6 1-13-1-29a122 122 0 0 0-67-100l2-6 5-19 2-1 9-4 9-4v-3c-4-5-5-9-8-20-2-11-3-14-7-20-5-7-11-10-19-12-3 0-5-1-9-7a254 254 0 0 0-19-23l-6-7-4-6c-3-5-13-14-15-14-6 0-11 5-17 16a61 61 0 0 1-10 13 235 235 0 0 1-14 18l-2 3v-8c1-10-1-22-6-32l-4-12c-4-12-7-15-15-12-3 1-7 4-12 10-1 2-4 3-5 3-12 3-16 4-18 7-3 4-3 5 0 10 2 2 3 5 3 9 0 7-3 11-8 11-4 0-5-1-8-4-8-9-13-25-14-43-1-13 0-14 5-11 3 2 5 3 9 3l8 1c18 4 21 4 25 3 4-2 8-8 8-15 0-6-7-18-16-28l-7-10-8-13c-9-13-18-17-25-12-5 3-7 7-9 15-2 7-2 10-1 39 0 27 1 34 2 42 5 22 11 33 20 40 5 3 6 3 10 3 8-1 15-9 16-19 1-4 0-6-2-11l-2-5 2-2 3-2 3-1h6c6 0 6 0 11-6 9-9 12-8 16 6l4 10c4 7 6 28 3 37a128 128 0 0 1-66 74c-12 7-30 13-46 15-11 1-29 0-38-3-7-2-19-8-27-13a93 93 0 0 1-35-51 241 241 0 0 1-5-84l-1-23c-2-16-4-26-9-35l-3-6-1-1-5-4c-7-6-17-10-28-11l-4-1v6l-2 15-2 9h-5l-6 1c-2 1-2 0-3-3-2-7-10-23-15-29a73 73 0 0 0-34-27c-8-2-19-1-27 1zm23 11c12 3 23 14 30 28 3 7 9 24 9 29l-4 7c-8 10-13 25-14 40-1 9 0 8 6-7 4-11 14-25 20-30l9-4 5-2-1 2c-1 5-2 30 0 45 2 24 1 34-4 53-4 17-9 26-20 37a53 53 0 0 1-49 18c-9-1-19-4-24-8-20-17-30-39-33-79-5-48 6-85 32-113 8-9 15-14 22-16h16zm272 28l8 11c3 7 9 16 13 20 4 5 8 13 8 16 0 7-5 8-18 4l-10-2c-5 0-10-2-13-4-4-4-5-11-4-28 1-18 3-22 10-22l6 5zm-182 2c9 5 17 16 18 27 2 9 1 13-7 19-6 5-13 5-20 1-3-2-4-4-6-9-3-7-3-11 1-24a82 82 0 0 0 3-17l11 3zm-19 51c0 1 5 6 9 8 8 4 20 2 25-3l4-2c1 0 2 1 2 5l-2 16c-3 23-3 59 1 77a142 142 0 0 0 16 38c0 2 11 17 17 23 9 7 14 11 27 15l10 4-2 6c-9 16-35 39-54 49l-5 2-8-6a340 340 0 0 0-19-15l-24-16-17-10c-16-9-24-13-37-18l-11-4 3-4 7-10c2-5 3-6 9-9 11-5 20-12 25-18l6-6c1-2 9-18 11-27 5-15 7-36 5-75v-21l2 1zM82 425l2 20c5 24 10 36 19 50a93 93 0 0 0 25 25c0 1 16 9 23 10l8 3c3 0-4 7-10 10-6 2-7 2-16 2-18-1-29-6-41-18a86 86 0 0 1-22-31c-5-12-7-21-8-35-1-21 2-32 12-42l7-6 1 12zm475-9l7 9c3 6 9 12 22 28 7 8 12 18 12 25 1 4 0 6-2 10-1 4-3 7-4 7-7 6-10 7-19 9-12 4-21 4-33 1-11-3-17-7-22-12-5-6-5-9-5-18 0-8 0-8 4-14l11-14c9-11 17-22 18-26 1-2 5-7 7-7l4 2zm59 61c5 3 11 13 12 18 1 6 3 13 5 16l2 3-5 2-10 2c-5 0-5 0-6 9-3 23-18 40-42 48-8 2-26 2-35-1-13-4-21-10-27-22-8-15-11-28-10-45 2-11 3-13 5-9 4 8 16 17 26 19 9 3 29 2 38 0 9-3 12-4 18-8 9-5 13-10 16-15 2-5 3-7 3-13v-7h3l7 3z"/>
    <path d="M213 386c-6 5-8 9-8 16l1 9a120 120 0 0 1 3 53l4-9 3-8v-31l-1-32-2 2zm121-96c-9 2-16 4-22 9-7 4-9 7-8 8l4-1c4-2 16-5 26-6 12-2 23-1 31 2l6 2-3-3c-4-4-13-9-18-10l-16-1zm6 36c-6 0-13 2-16 4l-5 2-1 1-4 2-4 2c-1 1 1 2 4 0l10-2 7-2c1-1 30-2 30 0l1 1 5 2c4 2 5 2 3-2-1-3-9-7-13-8h-17zm0 31c-12 2-25 8-28 13-1 2-1 2 8-1 7-3 9-4 21-4l21 1h9c0-3-9-8-17-9h-14zm-4 36l-9 2-3 2c-4 1-10 6-10 8s4 1 16-2c7-3 11-4 20-4l15 1 12 1-8-4-2-2-11-2-11-2-9 2zm7 35c-8 2-13 5-17 9s-5 7-3 10c1 3 4 2 8-2l12-7c12-5 20-7 31-6 10 1 10 0 2-3-8-2-25-2-33-1zm24 21c-11 1-23 9-26 16-1 3-1 4 2 6 3 3 5 2 7-2 2-5 9-12 14-14l9-4 6-2h-12zm-4 160c-3 1-3 2 0 7 2 5 3 5 10 5 4 0 7 0 10 2l5 3 1 1 1-3c-2-7-6-12-13-15-4-1-11-2-14 0z"/>
  </g>
</svg>
