<svg xmlns="http://www.w3.org/2000/svg" style="isolation:isolate" viewBox="0 0 765 964">
  <path d="M352 1c-6 3-12 11-15 21-6 16-22 41-50 72a206 206 0 0 0-54 126l-4-3c-14-7-43-16-61-18-14-2-60-1-60 1l9 5a125 125 0 0 1 60 77h-6c-9-2-33-1-46 2-20 4-32 8-48 20a1172 1172 0 0 1-77 50l28 13c10 3 23 3 41 1 19-2 39-2 57 1 24 3 48 11 48 16l-3 14a1379 1379 0 0 0-9 37l20 1 20 1c2 2 7 31 6 32l-8 4c-48 19-94 57-117 96-25 42-35 85-34 139 2 52 10 91 28 127 18 38 46 68 84 90 25 15 44 22 71 27 56 11 146 14 219 7 46-4 77-11 101-23 79-40 118-98 130-193a484 484 0 0 0-1-90 231 231 0 0 0-148-181l-10-3 2-11 4-16 1-6h23l23-1-12-49a233 233 0 0 1 83-38c16-4 46-3 75 3l41 10a882 882 0 0 0-61-61c-17-14-38-24-63-31-19-5-26-6-46-7h-18l4-9c11-22 23-56 23-68 0-11-4-13-15-6-17 11-50 23-79 30-11 3-10 4-12-10-3-23-16-58-31-83-6-10-8-13-25-31-20-23-30-35-52-66-6-8-14-16-20-18-4-2-11-3-16-1zm14 13c5 3 9 8 14 15a602 602 0 0 0 72 89c14 22 28 56 32 82 3 15 3 15-4 18-16 5-31 16-44 29-11 12-13 14-19 23l-5 8-1-8c-2-15-10-34-21-53a53 53 0 0 1-5-8l-6-8c-6-9-16-20-21-23-4-3-8-3-10 0l-4 6c-2 7-12 28-18 37-9 16-15 31-18 48l-2 13-1 4-6-9c-11-15-35-38-50-48l-4-3v-8c4-42 20-80 48-112 30-35 47-59 54-77 6-17 11-21 19-15zm0 189c12 16 22 33 28 48 4 9 5 13 7 34l2 11-16 30-16 29v-26a682 682 0 0 0-6-60c-1 0-2 4-2 34-1 31-1 46-3 54v3l-2-3-33-41c-8-10-9-13-7-32 2-21 7-39 18-57 6-9 16-28 18-34l1-4 3 3 8 11zm221-2c-4 15-11 34-19 49l-8 15-10 4c-19 6-33 15-48 29-7 7-33 41-56 73l-5 6h-33v-3a258 258 0 0 1 47-74c6-7 7-10 4-11a269 269 0 0 0-59 75l-5 13h-22l1-2 11-21 15-27a18438 18438 0 0 1 14-28c16-32 36-54 61-66 8-4 14-6 32-11a350 350 0 0 0 83-30l-3 9zm-417 10c44 6 82 29 113 66 8 9 18 23 22 31l21 27 31 40c1 2 1 2-13 2h-15l-3-6a541 541 0 0 0-62-75c-6-6-10-3-4 4a1553 1553 0 0 1 55 75l1 2h-26l-26-1-13-21c-12-22-21-35-29-44-6-7-19-18-27-22-4-3-5-4-6-7-7-26-18-46-36-64l-9-9h10l16 2zm446 65c17 3 38 10 54 18 15 8 27 17 49 38l9 9-4-1c-39-6-65-7-86-1a425 425 0 0 0-80 36c-3 2-5 2-29 2l-26-1a170 170 0 0 1 46-48c7-6 21-13 23-13 1 0 2-1 2-3l-2-2c-4 0-24 10-36 18-12 7-33 29-42 41l-6 8h-16c-13 0-16 0-15-1l32-44a119 119 0 0 1 127-55v-1zm-434 20c8 3 16 8 26 17 11 11 19 22 31 44l6 11 5 8-12 1h-11l-7-9c-13-19-31-33-50-42-8-4-22-8-28-8-3 0-3 0-3 2s2 2 7 4c16 4 31 13 46 27 8 7 21 23 21 25l-15 1-14-1c0-1-15-9-22-11-26-9-62-12-99-8-11 1-17 2-22 1-7-1-16-4-17-5l9-7 45-29c17-12 27-17 40-20 15-3 20-4 40-4 15 0 18 1 24 3zm375 108l3 17v4H177l3-16 4-17 1-2h368l4 14zm-39 34l-3 15-3 14-146 1-145-1-4-15-3-15h152l152 1zm6 44c9 3 33 15 41 20l5 4H162l6-4 37-18 10-4h302l7 2zm-187 37c-8 1-24 5-47 12-40 13-51 16-58 12-4-2-5-5-3-7s4-1 4 2c0 2 3 5 6 5 5 0 8-8 4-14-5-5-14-7-20-3-3 2-3 2-7 0-9-5-22 0-22 9 0 8 9 11 12 4 2-4 4-5 5-2 2 2 0 5-4 7-5 2-12 1-28-4l-43-13 5-5 4-4h98c53 0 96 0 94 1zm42 0c-6 1-10 3-12 6-2 2-2 2-5-1s-6-4-12-5c-2-1 4-1 15-1 12 0 17 0 14 1zm213 2l5 4-22 8c-36 12-50 14-55 9-3-2-3-4-1-6s4-1 4 2c0 2 3 5 6 5s6-4 6-7c0-10-14-16-22-10l-4 3-3-3c-5-5-18-2-21 6-2 3-1 5 1 8 3 4 10 3 10-2 0-3 3-4 5-2 2 3 1 5-3 7-7 4-20 1-55-11l-48-13c-4-1 37-1 93-1h99l5 3zm-238 12c3 3 4 7 1 10-4 4-7 2-7-4 0-4-2-6-5-6-4 0-6 2-6 7 0 10 4 15 13 16 6 0 10-1 13-5 1-1 2-1 5 2 3 2 5 3 9 3 7 0 10-2 13-6s3-13 1-15c-2-3-6-3-8 0l-2 5c-1 3-1 4-3 5-5 0-7-9-3-12 7-6 20-4 64 10 31 11 42 13 53 13 8-1 9-1 13-4 4-2 5-3 6-2 3 4 10 6 18 6 10 0 20-3 51-13l25-7c3-1 5 1 13 10l9 10-50 1c-77 1-470 0-470-1l9-11 9-9 23 7c31 10 38 12 49 13 11 0 15-1 20-5l3-2 3 2c3 4 8 5 17 5s22-3 50-13c31-10 45-13 54-13 7 0 8 1 10 3zm287 43c15 24 26 56 30 89 2 15 2 58-1 76-4 43-16 80-34 108l-2 4H99l-5-9c-22-36-33-86-33-145 0-49 10-88 32-123l4-7h539l5 7zm-18 291c-9 11-17 19-18 19l-22-7c-29-9-40-12-50-13s-14 0-19 4l-5 3-2-3c-5-3-10-4-20-4-10 1-17 3-51 13-30 10-41 13-50 13-10 0-15-5-13-11 1-2 4-5 6-4l2 4c0 6 1 8 5 8 5 0 7-4 6-10l-1-7c-4-7-19-9-24-2l-2 2-2-2c-8-7-21-5-25 3-1 4-2 11 0 14 1 3 7 3 9-1l1-3c0-2 1-6 3-6s6 4 6 7c0 5-4 7-12 8-10 0-20-2-61-16-25-8-36-10-46-10-7 0-13 2-16 5-2 2-2 2-4 1l-6-4c-4-2-6-2-15-2-11 1-19 3-52 14l-18 6-9-10-9-10 258-1h258l-2 2zm-415 12c4 2 5 4 3 6-2 3-4 2-5-1-1-5-6-6-9-4-4 4-3 10 2 15 4 3 12 4 17 1l4-2 3 2c2 2 4 2 9 2 6-1 6-1 9-4s4-5 4-8c0-7-8-10-11-3-3 4-3 4-5 3-2-2-1-5 2-7 6-4 20-1 57 11 31 10 42 13 54 13 10 0 14-1 20-5l3-2 3 2c4 4 9 5 19 5 11 0 21-2 56-14 25-8 42-12 49-12 4 0 10 3 10 6 0 2-3 4-4 4l-2-4-4-4c-3 0-4 0-6 2-5 7 2 17 13 17 4 0 10-3 10-4l3 1c3 3 5 3 10 3 6-1 6-1 10-5 3-4 4-8 1-12-2-4-10-2-10 3 0 2-1 3-3 2-5-2-1-8 5-9s22 3 47 11l23 7-5 5-4 4H149l-6-4-5-5 44-15c13-3 21-4 26-1zm355 39l-36 17c-42 13-118 20-190 17-60-2-101-8-131-17l-37-18c-1-1 27-1 198-1 193 0 199 0 196 2z"/>
  <path d="M368 40l3 14 5 22 7 29a7019 7019 0 0 1 24 108l2 5v-5a200 200 0 0 0-5-52 379 379 0 0 0-36-120v-1zm38 46a22950 22950 0 0 0 49 126c1-7-6-38-9-40a302 302 0 0 0-41-92l1 6zm-73 33l-2 4a361 361 0 0 0-22 76c1 2-1 12-3 13-3 2-6 41-3 42l1-2 7-30 11-47 5-25a363 363 0 0 0 6-31zm27 108l3 19c1 0 1-3-1-14-1-11-3-14-2-5zm147 31c-13 5-25 13-25 14 0 3 0 2 8-3a195 195 0 0 1 27-15l-10 4zm-303-10l8 6a351 351 0 0 1 26 21v-4l-34-24c-3-1-3-1 0 1zm397 58l11 1a253 253 0 0 1 18 1c-5-3-30-4-29-2zM99 322l-18 8c-8 4-8 4 6-1l17-5c5-1 7-2 7-3 0-2-1-2-12 1zm283 283l-9 8 9 8 9 9 9-8 8-10-9-8-9-7-8 8z"/>
  <path d="M348 616c5 20 15 38 24 45 7 6 13 8 23 8 14 0 25-4 41-16 12-9 12-8 3-17-12-12-10-11-17-5-28 25-54 20-70-12-3-7-5-8-4-3z"/>
  <path d="M303 650c-12 3-31 14-31 18l15 26 2 3 4-6c7-10 13-15 21-17 10-1 22 10 24 21 1 6-2 13-8 15-3 2-5 2-13 2l-10 1 2 13 3 12c1 2 1 2 8 2 10 0 15 1 19 6 5 5 5 7 5 17-1 19-12 28-29 24-9-1-17-5-25-11-11-8-14-13-30-44l-5-10v6c-1 12 1 36 4 49 5 17 17 32 33 40 24 12 49 10 66-5 6-6 9-11 12-21 4-15 1-30-6-40l-3-4h5c7 0 20-3 25-6 5-2 6-3 10-11 6-12 12-20 18-26 5-6 9-8 13-8 9 0 16 13 16 28 0 17-10 34-22 40-7 4-19 1-33-7l-8-4v4c0 7 3 22 7 29 3 7 10 13 16 15 6 3 21 2 29-2 12-6 22-18 28-33 2-6 2-8 2-23 0-19-2-28-7-41-4-8-12-17-20-21-6-2-7-3-19-3s-13 1-18 3c-11 6-19 15-29 34-4 7-5 8-9 10-5 2-14 3-20 2h-3l7-7c13-12 17-22 15-37-2-16-9-26-22-31-7-3-28-4-39-2z"/>
</svg>
