<svg xmlns="http://www.w3.org/2000/svg" style="isolation:isolate" viewBox="0 0 800 600">
  <defs>
    <clipPath id="a">
      <path stroke="black" d="M0 0h800v600H0z"/>
    </clipPath>
  </defs>
  <g clip-path="url(#a)">
    <path fill="none" d="M800 0H0v600h800V0z"/>
    <path stroke="black" d="M404 304c3-2 1-7-2-7-3 1-2 5 0 4h2c0 2-2 3-4 3-2-1-4-3-4-5-1-3 3-5 6-5s6 3 7 6c2 7-7 10-12 8-4-1-7-5-5-9 0-3 2-4 4-5-4 4 1 14 8 10zm-14-3c0 6 6 9 11 9s9-4 9-9-5-9-9-8c-6-1-11 2-11 8z"/>
    <path stroke="black" d="M397 332h1c3 0 6-2 7-5a9 9 0 0 0 7 3l1 1c-1 3-4 6-8 7-4 0-7-3-8-6zm-12 3c-5 0-7-6-5-10l5 1 3-1 2-1c0 2 0 4 2 5l3 2c-3 3-6 5-10 4zm-16-13c-3-3-4-9 0-11l4 3h5c-2 3-2 7 1 10-4 2-8 1-10-2zm1-17c1-2 3-2 5-3 0 4 4 5 7 4-3 2-5 3-3 7-3 1-7 0-9-3v-5zm-10-2c-3-5 3-10 8-10 0 4 2 7 6 8-4 1-7 4-5 8-4-1-7-2-9-6zm5-20c1-4 7-8 11-6-3 3-1 8 2 11-4-2-9 0-10 4-3-3-5-5-3-9zm12-7c-1-3 1-6 3-8 4-3 9-2 12 1-3 2-5 5-4 9-3-3-8-5-11-2zm20-11c2-2 5-3 8-3 5 0 10 4 10 9-4-1-9 0-11 4 0-5-5-7-9-7l2-3zm32 7c5 3 5 10 1 14l-1-3c-2-2-7-3-10-1 1-4 1-8-3-10l5-2c3 0 6 0 8 2zm12 23c1 6-4 9-9 10v-1c0-3-2-7-5-8 3-2 4-5 4-9 5-1 9 4 10 8zm-4 21c0 5-6 7-10 5v-1-6l-2-3c3 0 6-1 7-5 4 2 6 6 5 10zm-19 4c2-3 1-5-1-7h1l4-2h2c2 2 3 6 2 8-1 4-6 3-8 1zm-12 5l3-4-1-3c3 3 6 5 9 3h1c1 3-1 6-3 7-4 2-7 0-9-3zm-8-6l1 4c2 2 3 3 5 3 0 3-3 4-5 4h-5c-2-1-3-4-3-6 4 2 6-2 7-5zm-14-3l5-2-2 5c0 2 1 3 3 4l-3 2-6-1c-4-2-4-6-1-10 1 2 3 2 4 2zm3-11l1 2c-2 1-6 2-4 5 1 1 5-1 6-2l1 1-6 4c-2 1-5-1-6-3-1-5 5-6 8-7zm0-7v2h-1c-1 0-4-1-5 1-1 1 0 2 1 3h5v1c-4 0-10 2-11-3-2-5 8-4 11-4zm-9-9l-1 1c-1 2 0 4 2 5l3 2c-3 0-8 0-8 4-3-1-5-4-5-7 0-5 5-6 9-5zm7-1l5 3-1 2-4-2-3 1c0 3 4 3 5 4v1h-1c-3-1-7-1-8-5s5-5 7-4zm2-9l-2 5 2 4c-2-1-6-2-8 0-3-3-5-8-2-11s8-1 10 2zm16-3h-1c-2 0-5 1-5 3l-1 2-2-1-5-2c-1-4 1-7 5-8 5-2 9 1 9 6zm15 7c-4-2-7-1-10 2a7 7 0 0 0-4-8v-1c2-3 5-4 9-4 6 0 6 6 5 11zm6 13c-1-3-3-4-6-3 3-2 3-7 1-9 1-4 8-1 9 1 4 4 1 10-4 11zm-10 6l1-1-1-1c3 0 8-1 6-3-1-2-4-1-6 0l-1-2 4-2 6 2c3 5-5 7-9 7zm9 8v-1c1-4-2-6-5-6 3-1 7-2 6-6h1c7 0 9 15-2 13zm-11-1v-1c2 1 4 2 6 0 0-2-2-3-4-3v-2h2c3 0 6 1 6 5 0 2-2 3-4 4l-6-3zm-6 4h1l3 3h3l-1-3-1-1-1-1 1-1 4 2c2 2 4 5 2 7-2 3-5 1-7-1l-4-5zm-7 2h1v3l1 1c1 2 2 1 3 0v-3l-1-1 2-1 2 2 1 5c0 2-2 4-4 4-5-1-5-7-5-10zm-6-2l-2 3 2 3 2-2 1-3 2 1c-1 4-2 10-6 8-3-1-4-4-3-6 0-2 2-4 3-5l1 1zm7-25a13 13 0 1 1 0 26 13 13 0 0 1 0-26zm-3-1l-2 1v-2l-2-2c0-1-2-2-3-1l-1 2 3 5-1 1v-1c-2-1-4-3-4-6-1-2 1-5 3-5 4 0 6 5 7 8zm10 0h-1v1l-2-1c1-1 1-4-1-5h-3v5h-1l-2-4v-2c0-3 3-4 5-4s3 2 4 3c2 2 1 5 1 7zm2 3l-2-1c2-4 5-7 9-5 4 1 5 7 1 9l-4 2-1-2c1-1 3-2 3-4v-2c-2-1-5 1-6 3zm17 32h1c4 6-10 15-13 8l2-1c2-1 4-4 3-7l3 1 4-1zm-20 22c5 0 9-5 8-10 4 3 9 5 13 2 2-2 4-4 4-7l-1-4c6 2 11-1 12-8a11 11 0 0 0-5-10c3 0 5 0 7-2s2-6 2-8c0-4-1-7-3-9-3-3-6-3-9-3 5-4 5-13 0-18-4-4-13-2-17 2 3-14-23-18-24-2-2-5-8-8-14-6-8 1-6 8-4 14-4-3-11-3-14 0-4 5-1 13 4 16-4 0-7 0-10 2-2 2-2 6-2 9 1 3 3 6 6 7l7 2c-5 3-8 8-5 13 3 3 6 4 9 4l6-1c-2 5-1 10 4 12 6 3 13 1 15-4l2 6 9 3zM518 298l2 1-3 1c-3 1-8 2-11 5l-4-1 7-4 7-3 2 1zm8 6l-6 1-5 2-7-2 7-3 5-2 6 4zm5 4h-3l-4 1-7-2 4-1 5-2 5 4zm5 4l-10-2 3-1 2-1 5 4zm1 1l-6 2-5-4h2l4 1h4l1 1zm-12 4l-5-5-2-2 6 1 6 4-5 2zm-5 2l-6-7-3-3h5l4 5 5 4-5 1zm-3 1l-4 1-5-5c-3-2-5-6-7-9l8 2 10 10-2 1zm-11 2l-8-10-3-5-1-1h1l5 1c4 5 7 10 12 14l-6 1zm-8 0l-7-9-6-8 8 1 6 9 6 7h-7zm-5 0l-6-1-6-8-6-9 9 1 6 8 7 9h-4zm-16-5l-3-4-6-9h6l7 10 5 7-9-4zm-11-6l-2-3-2-5h5c3 5 5 10 9 14l-10-6zm-14-9l9 1 2 5 2 3-13-9zm33 0l1-1 7-5 7-3 5-4 5 3-9 4-10 6h-6zm-9-1l9-7 13-8 6 3h-1l-8 5-12 8-7-1zm-6 0l-4-1 2-2 7-5 7-5 6-3a43 43 0 0 1 9 1c-8 4-16 9-23 15h-4zm-11-1l7-7 5-4 14-4-8 6-13 9h-5zm-6-1l15-9-2 1-4 4-4 5-5-1zm63-3c-6 2-11 4-16 8l-5-1h-2l6-5 12-6 5 4zm-14-13c-9-2-18-1-27 2-10 3-17 10-25 15l-1 2c14 10 35 23 49 26 24 4 47-14 51-17-8-1-19-11-24-15-7-5-14-11-23-13zM448 277l-4 8 1 1v1l15 3 1-2-14-3 6-12c1-1 0-2-1-2l-4 6z"/>
    <path stroke="black" d="M461 283l-9-1 5-8-2-1-5 9v2l11 1v-2zM468 278a4 4 0 1 0-7 0 4 4 0 0 0 7 0zM477 274a2 2 0 1 0-4 0 2 2 0 0 0 4 0zM484 272a2 2 0 1 0 3 0 2 2 0 0 0-3 0zM504 250l19 12c2 2-7 15-9 19-1 1 2 3 3 1l10-17-1-4-22-12v1z"/>
    <path stroke="black" d="M519 265c-1-3-13-8-17-10-1 0-2 1-1 2l15 8c2 1-5 13-6 13-2 1 0 4 1 3l8-16z"/>
    <path stroke="black" d="M503 277h2c1-2 6-9 5-10 0-2-9-5-12-6v2l10 4c1 1-4 7-5 9v1zM447 240l-3 16-3 3v-10-6l8-13-2 10zm9-17l2-1-6 27-3 3-3 3v-4l1-8 2-9 2-6 5-5zm9-4l-1 2-2 8-3 14-6 5 2-12 4-14 6-3zm6-2l-3 10c-2 3-3 7-3 11a222 222 0 0 0-4 3l1-9 2-7 2-6 5-2zm7-1c-2 5-5 11-6 17l-4 3-1 1 1-7 4-13 6-1zm3 0h2l-1 2-5 11-3 3 2-8c1-3 3-5 3-8h2zm9-1l-3 5-2 4-6 4 2-7 3-6h6zm7-1l-2 2-2 3-6 4 1-4 3-4 6-1zm7-1l-9 6 2-3 1-2 6-1zm-2 6l-6 1 1-2 3-2 4-3h1l-3 6zm-2 6h-8l-3-1 5-3 8-2-2 6zm0 0l-2 5-9-1-5-1 4-3h12zm-4 8l-2 3h-7l-11-2 6-5 15 1-1 3zm-6 9l-13-2-6-1h-1l1-1 4-3 18 2-3 5zm-6 5l-11-1-10-2 6-5 11 2c3 1 6 2 9 1l-5 5zm-3 3l-5 4-10-1-11-3 7-5 10 2 12 1-3 2zm-15 9l-5-1c-4 0-8-2-11-3l3-2 2-2 11 2 9 1-9 5zm-12 3l-4-1-5-2 4-3c5 1 10 3 16 3l-11 3zm-17 3l7-5 5 2h4c-5 2-11 2-16 3zm3-19v2 12l-4 3 4-17zm-6 20l1 1c17-3 41-8 53-16 20-14 23-43 24-47-6 4-22 5-27 6-9 1-18 2-26 7s-14 12-18 20c-4 9-5 19-7 29zM416 244c-1 2 0 4 1 7l2 8 2 1v-1l13-8-1-2c-4 2-7 6-12 8l-3-13h-2z"/>
    <path stroke="black" d="M422 253l1 1 8-6c1-1 0-2-1-2l-7 5-2-8h-2l3 10zM426 242a4 4 0 1 0 5-5 4 4 0 0 0-5 5zM436 228a2 2 0 1 0-4 3 2 2 0 0 0 4-3zM441 219a2 2 0 1 0-3 3 2 2 0 0 0 3-3zM460 184c-7 2-17 4-23 7v1l22-5c3-1 6 15 7 19 1 2 4 1 3-1l-5-19-4-2z"/>
    <path stroke="black" d="M462 208c-1 1 2 2 2 0s-4-15-6-16-14 3-18 5v2l16-5c2 0 6 13 6 14z"/>
    <path stroke="black" d="M455 211v1l2-1-3-12c-2 0-11 3-13 5-1 1 0 2 1 1l10-3c1-1 2 7 3 9zM404 182l1 5-1 7-3-7-2-5 4-6 1 6zm3-11v3l1 4-2 7-2-4-1-5 4-5zm4-5l-3 10v-3l-1-2 4-5zm1-1l2 6-4 5v-2l1-4v-4l1-1zm4 12l-5 5-2 2 1-6 4-6 2 5zm2 5l-7 6-3 3v-5l5-4 4-5 1 5zm1 3l1 4-5 5c-2 3-6 5-9 7l2-8 10-10 1 2zm2 11l-10 8-5 3-1 1v-1l1-5c5-4 10-7 14-12l1 6zm0 8l-9 7-8 6 1-8 9-6 7-6v7zm0 5l-1 6-8 6-9 6 1-9 8-6 9-7v4zm-5 16l-4 3-9 6v-4-2l10-7 7-5-4 9zm-6 11l-3 2-5 2v-5c5-3 10-5 14-9l-6 10zm-9 14l1-9 5-2 3-2-9 13zm-12-16l1 2 4 4 5 4-1 5-9-15zm-5-17l6 8 9 13v5l-7-7-4-5-4-14zm1-10v-2c4 8 9 16 15 23v4l-1 4-2-2-5-7-5-7-3-6 1-7zm3-9v1l5 8 8 12-1 7-7-9-8-13 3-6zm3-6l4 9 6 10v6l-1-1-5-7-3-7-4-5 3-5zm4-6c2 6 4 11 8 16l-1 5v2l-5-6-6-12 4-5zm2-2l1-2 1 3c1 3 2 8 5 11l-1 4-4-7-3-7 1-2zm-15 16c-2 9-1 18 2 27 3 10 10 17 15 25l2 1c10-14 23-35 26-49 4-24-14-47-17-51-1 8-11 19-15 24-5 7-11 14-13 23zM370 250l6 4 8 4 1-1h1l3-15-2-1-3 14-12-6c-1-1-2 0-2 1z"/>
    <path stroke="black" d="M372 247l9 5h2l1-11h-2l-1 9-8-5-1 2zM380 238a4 4 0 1 0-7 0 4 4 0 0 0 7 0zM373 229a2 2 0 1 0 0-4 2 2 0 0 0 0 4zM371 218a2 2 0 1 0 0-3 2 2 0 0 0 0 3zM360 176c-4 6-10 15-12 22h1l12-19c1-2 15 7 19 9 1 1 2-2 1-3l-17-10-4 1z"/>
    <path stroke="black" d="M380 191l-16-8c-3 1-8 13-10 17 0 1 1 2 2 1l8-15c1-2 13 5 13 6 1 2 4 0 3-1z"/>
    <path stroke="black" d="M375 199h1v-2c-2-1-9-6-10-5-2 0-6 9-6 12h2l4-10c1-1 7 4 9 5zM345 262h14l3 4-17-4zm3-1h-6l-13-8 10 2 16 3 3 3h-10zm-26-15l-1-2 27 6 3 3 3 3h-4l-8-1-9-2-6-2-5-5zm-4-9l2 1 8 2 14 3 5 6-12-2-14-4-3-6zm-2-6l10 3c3 2 7 3 11 3l4 5-1-1-9-1-7-2-6-2-2-5zm-1-7c5 2 11 5 17 6l3 4 1 1-7-1-13-4-1-6zm0-3v-2l2 1 11 5 3 3-8-2c-3-1-5-3-8-3v-2zm-1-10l5 4 4 2 4 6-7-2-6-3v-7zm-1-6l2 1 3 3 4 6-4-1-4-3-1-6zm-1-7l6 9-3-2-2-1-1-6zm0-1l6 3 1 6-2-1-2-3-3-4v-1zm12 5v8l-1 3-3-5-2-8 6 2zm5 2l-1 9-1 5-3-4v-6-6l5 2zm3 2l3 2v7l-2 11-5-7 1-14 3 1zm9 6l-2 13-1 6v1l-1-1-3-4 2-18 5 3zm5 6l-1 11-2 10-5-6 2-11 1-9 5 5zm3 3l4 5-1 10-3 11-5-7 2-10 1-12 2 3zm9 15l-1 5c0 4-2 8-3 11l-2-3-2-2 2-11 1-9 5 9zm3 12l-1 4-2 5-3-4c1-5 3-10 3-16l3 11zm3 17l-5-7 2-5v-4c2 5 2 10 3 16zm2 2c-3-17-8-41-16-53-14-20-43-23-47-24 4 6 5 21 6 27 1 9 2 18 7 26s12 14 20 18c9 4 19 5 29 7l1-1zM343 286c2 1 4 0 7-1l8-2 1-2-1-1-8-12-2 1c2 4 6 7 8 12l-13 3v2z"/>
    <path stroke="black" d="M342 281v2l10-3 1-1-6-8c-1-1-2 0-2 1l5 7-8 2zM341 276a4 4 0 1 0-5-5 4 4 0 0 0 5 5zM327 270a2 2 0 1 0 3-4 2 2 0 0 0-3 4zM321 264a2 2 0 1 0-3-3 2 2 0 0 0 3 3zM283 242c2 7 4 17 7 23h1l-5-22c-1-3 15-6 19-7 2-1 1-4-1-3l-19 5-2 4z"/>
    <path stroke="black" d="M307 238c-2 0-15 4-16 6s3 14 5 18h2l-5-16c0-2 13-6 14-6 1 1 2-2 0-2z"/>
    <path stroke="black" d="M311 247l-1-2-12 3c0 2 3 11 5 13 1 1 2 0 1-1l-3-10c-1-1 7-2 9-3h1zM306 317h-2c8-4 16-9 23-15h4l4 1-2 2-7 5-7 5-6 3-7-1zm-9-3h1l8-5 12-8 7 1-9 7-13 8-6-3zm-6-3l9-4 10-6a224 224 0 0 0 5 1l-7 5-7 3-5 4-5-3zm-6-4c6-2 11-4 16-8l5 1h2l-6 5-12 6-5-4zm-2-2l-2-1 3-1c3-1 8-2 11-5l4 1-7 4-8 3-1-1zm-8-6l6-1 5-2 7 2-7 3-5 2-6-4zm-5-4h3l4-1 7 2-4 1-5 2-5-4zm-5-4l10 3h-3l-2 1-5-4zm-1-1l6-2 5 4h-2l-4-1h-4l-1-1zm12-4l5 5 2 2-6-1-6-4 5-2zm5-2l6 7 3 3h-5l-4-5-5-4 5-1zm3-1l4-1 5 5c3 2 5 6 7 9l-8-2-10-10 2-1zm11-2l8 10 3 5 1 1h-1l-5-1c-4-5-7-10-12-14l6-1zm8 0l7 9 6 8-8-1-6-9-6-7h7zm5 0l6 1 6 8 6 9-9-1-6-8-7-9h4zm16 5l3 4 6 9h-6l-7-10-6-7 10 4zm11 6l2 3 2 5h-5c-3-5-5-10-9-14l10 6zm14 9l-9-1-2-5-2-3 13 9zm-7 2l-7 7-5 4-14 4 8-6 13-9h5zm6 1l-15 9 2-1 4-4 4-5 5 1zm-22 14c10-3 17-10 25-15l1-2c-14-10-35-23-49-26-24-4-47 14-51 17 8 1 19 11 24 15 7 5 14 11 23 13s18 1 27-2zM353 326l4-8-1-1v-1l-15-3-1 2 14 3-6 12c-1 1 0 2 1 2l4-6z"/>
    <path stroke="black" d="M346 330l5-9v-2l-11-1v2l9 1-5 8 2 1zM333 325a4 4 0 1 0 7 0 4 4 0 0 0-7 0zM326 327a2 2 0 1 0 0 4 2 2 0 0 0 0-4zM315 330a2 2 0 1 0 0 3 2 2 0 0 0 0-3zM297 354v-1l-19-12c-2-2 7-15 9-19 1-1-2-2-3-1l-10 17 1 4c6 4 15 10 22 12z"/>
    <path stroke="black" d="M282 338c1 3 13 8 17 10 1 0 2-1 1-2l-15-8c-2-1 5-13 6-13 2-1 0-4-1-3l-8 16z"/>
    <path stroke="black" d="M298 326h-2c-1 2-6 9-5 10 0 2 9 6 12 6v-2l-10-4c-1-1 4-7 5-9v-1zM335 350l11 3-7 5-10-2-12-1a61 61 0 0 1 8-6l10 1zm0-6l5 1c4 0 8 2 11 3l-3 2-2 2-11-2-9-1 9-5zm12-3l4 1 5 2-4 3c-5-1-10-3-16-3l11-3zm17-3l-7 5-5-2h-4c5-2 10-2 16-3zm-3 19v-2-5-7l4-3-4 17zm-9 16l2-10 3-16 3-3v16l-8 13zm-7 7l-2 1 6-27 3-3 3-3v4l-1 8-2 9-2 6-5 5zm-9 4l1-2 2-8 3-14 6-5-2 12-4 14-6 3zm-6 2l3-10c1-3 3-7 3-11a231 231 0 0 0 4-3l-1 9-2 7-2 6-5 2zm-7 1c2-5 5-11 6-17l4-3 1-1-1 7-4 13-6 1zm-3 0h-2l1-2 5-11 3-3-2 8c-1 3-3 5-3 8h-2zm-10 1l4-5 2-4 6-4c-1 2-1 5-3 7l-2 6h-7zm-6 1l1-2 3-3 6-4-1 4-3 4-6 1zm-7 1l9-6-2 3-1 2-6 1zm2-6l6-1-1 2-4 2-3 3h-1l3-6zm2-6h8l3 1-5 3-8 2 2-6zm0 0l2-5 9 1 5 1-4 3h-12zm4-8l2-3h7l11 2-7 5-14-1 1-3zm6-9l13 2 6 1h1l-1 1-4 3-18-2 3-5zm6-5l11 1 10 2-6 5-11-2c-3-1-6-2-9-1l5-5zm-28 43c6-4 21-5 27-6 9-1 18-2 26-7s14-12 18-20c4-9 5-19 7-29l-1-1c-17 3-41 8-53 16-20 14-23 43-24 47zM379 344l-12 8 1 2 11-8c2 4 4 9 4 13h2c1-2 0-4-1-7l-2-8-2-1-1 1z"/>
    <path stroke="black" d="M382 360l-3-10-1-1-8 6c-1 1 0 2 1 2l7-5 2 8h2zM370 366a4 4 0 1 0 5-5 4 4 0 0 0-5 5zM369 372a2 2 0 1 0-4 3 2 2 0 0 0 4-3zM363 381a2 2 0 1 0-3 3 2 2 0 0 0 3-3zM341 419c7-2 17-4 23-7v-1l-22 5c-3 1-6-15-7-19-1-2-4-1-3 1l5 19 4 2z"/>
    <path stroke="black" d="M337 395c0 2 4 15 6 16s14-3 18-5v-2l-16 5c-2 0-6-13-6-14 1-1-2-2-2 0z"/>
    <path stroke="black" d="M346 392v-1l-2 1 3 12c2 0 11-3 13-5 1-1 0-2-1-1l-10 3c-1 1-2-7-3-9zM391 427v2l-1 4v4l-1 1-2-6 4-5zm-6-1l5-5 2-2-1 6-4 6-2-5zm-2-5l7-6 3-3v5l-5 4-4 5-1-5zm-1-3l-1-4 4-5 10-7-2 8-11 10v-2zm-2-11l10-8a110 110 0 0 1 6-4v1l-1 5c-5 4-10 7-14 12l-1-6zm0-8l8-7 9-6-1 8-9 6-7 6v-7zm0-5l1-6 8-6 9-6-1 9-8 6-9 7v-4zm5-16l4-3c2-3 6-4 9-6v6l-10 7-7 6 4-10zm6-11l3-2 5-2v5c-5 3-10 5-14 9l6-10zm9-14l-1 9-5 2-3 2 9-13zm12 16l-1-2-4-4-5-4 1-5 9 15zm5 17l-6-8-9-13v-5l7 7 4 5 4 14zm-1 10v2c-4-8-9-16-15-23v-4l1-4 2 2 5 7 5 7 3 6-1 7zm-3 9v-1l-5-8-8-12 1-7 7 9 8 13-3 6zm-3 6l-4-9-6-10a233 233 0 0 0 1-5l5 7 3 7 4 5-3 5zm-4 6c-2-6-4-11-8-16l1-5v-2l5 6 6 12-4 5zm-2 2l-1 2-1-3c-1-3-2-8-5-11l1-4 4 7 3 8-1 1zm-6 8l-1-6-2-5 2-7 3 7 2 5-4 6zm-4 5v-3l-1-4 2-7 1 4 2 5-4 5zm-4 5l2-10 1 3 1 2-4 5zm16-11c5-7 11-14 13-23s1-18-2-27c-3-10-10-17-15-25l-2-1c-10 14-23 35-26 49-4 24 14 47 17 51 1-8 11-19 15-24zM431 353l-6-4-8-4-1 1h-1l-3 15 2 1 3-14 12 6c1 1 2 0 2-1z"/>
    <path stroke="black" d="M429 356l-9-5h-2l-1 11h2l1-9 8 5 1-2zM421 365a4 4 0 1 0 7 0 4 4 0 0 0-7 0zM428 378a2 2 0 1 0 0-4 2 2 0 0 0 0 4zM430 388a2 2 0 1 0 0-3 2 2 0 0 0 0 3zM441 427l12-22h-1l-12 19c-2 2-15-7-19-9-1-1-3 2-1 3l17 10 4-1z"/>
    <path stroke="black" d="M424 411c-1-2-4 0-3 1l16 8c3-1 8-13 10-17 0-1-1-2-2-1l-8 15c-1 2-13-5-13-6z"/>
    <path stroke="black" d="M439 399l-4 10c-1 1-7-4-9-5h-1v2c2 1 9 6 10 5 2 0 5-9 6-12h-2zM482 388l-4-2-4-6c2 1 5 1 7 3l6 2v7l-5-4zm6 10l-2-1-3-3-4-6 4 1 4 3 1 6zm1 7l-6-9 3 2 2 1 1 6zm0 1l-6-3-1-6 1 1 3 3 3 4v1zm-12-5v-8l1-3 3 5 2 8-6-2zm-5-2l1-9 1-5 3 4v6 6l-5-2zm-3-2l-3-2v-7l2-11 5 7-1 14-3-1zm-9-6l2-13 1-6v-1l1 1 3 4-2 18-5-3zm-5-6l1-11 2-10 5 6-2 11c-1 3-2 6-1 9l-5-5zm-3-3l-4-5 1-10 3-11 5 7-2 10-1 12-2-3zm-9-15l1-5c0-4 2-8 3-11l2 3 2 2-2 11-1 9-5-9zm-3-12l1-4 2-5 3 4c-1 5-3 10-3 16l-3-11zm-3-17l5 7-2 5v4c-2-5-3-10-3-16zm19 3h-14l-3-4 17 4zm-3 1h6l13 8-10-2-16-3-3-3h10zm26 15l1 2-27-6-3-3-3-3h4l8 1 9 2 6 2 5 5zm4 9l-2-1-8-2-14-3-5-6 12 2 14 4 3 6zm2 6l-10-3c-4-2-7-3-11-3a226 226 0 0 0-3-4l9 1 7 2 6 2 2 5zm1 7c-5-2-11-5-17-6l-3-4-1-1 7 1 13 4 1 6zm0 3v2l-2-1-11-5-3-3 8 2c3 1 5 3 8 3v2zm-1-22c-5-8-12-14-20-18-9-4-19-5-29-7l-1 1c3 17 8 41 16 53 14 20 43 23 47 24-4-6-5-21-6-27-1-9-2-18-7-26zM458 317c-2-1-4 0-7 1l-8 2-1 2 1 1 8 12 2-1c-2-4-6-7-8-12l13-3v-2z"/>
    <path stroke="black" d="M459 322v-2l-10 3-1 1 6 8c1 1 2 0 2-1l-5-7 8-2zM460 327a4 4 0 1 0 5 5 4 4 0 0 0-5-5zM474 333a2 2 0 1 0-3 4 2 2 0 0 0 3-4zM480 339a2 2 0 1 0 3 3 2 2 0 0 0-3-3zM516 365l2-4c-2-7-4-17-7-23h-1l5 22c1 3-15 6-20 7-1 1 0 4 2 3l19-5z"/>
    <path stroke="black" d="M494 365c2 0 15-4 16-6s-3-14-5-18h-2l5 16c0 2-13 6-14 6-1-1-2 2 0 2z"/>
    <path stroke="black" d="M490 356l1 2 12-3c0-2-3-11-5-13-1-1-2 0-1 1l3 10c1 1-7 2-9 3h-1zM482 180l-1 2h2v-1l-1-1zM525 208c6 11 4 28-10 35a1 1 0 0 0 1 2c14-8 17-26 11-38-5-9-17-18-34-10-2 0-5 0-7 2l-5 5v1l9-1 6-6c15-6 25 1 29 10z"/>
    <path stroke="black" d="M538 235c4-11 3-23-2-33-9-18-26-22-39-18h-7c-3 1-4 4-6 7l1 1c3-1 6 0 8-2l4-5c13-3 29 1 38 18 5 10 5 21 2 31-3 8-8 14-14 16a1 1 0 0 0 0 2c6-3 12-9 15-17z"/>
    <path stroke="black" d="M572 184c-2-2-7-2-10-1 1-2 0-6-3-7 2-3 7-4 10-2 4 2 5 7 3 10zm8 14c-3-4-5-5-8-5 2-2 2-6 0-8 7-6 17 6 8 13zm8 8c0 5-6 6-7 6 0-2-1-6-4-7 2 0 4-4 3-6 0 0 8-1 8 7zm-15 13c1-3-1-6-3-7v-1h1l5-5c3 1 4 4 4 7 0 4-4 6-7 6zm10 5c-2 5-7 5-11 5 2-2 3-7 1-9 0 1 7-2 8-6 4 4 3 7 2 10zm-23 5c3-1 5-5 3-7l1-1 1 1h2l5-2c2 3 1 7-2 9s-7 1-10 0zm6 11c-4 1-8 0-11-3 1 0 6-4 5-7 1 1 8 3 11 0 0 0 1 8-5 10zm-22 3l2-7 8 2c-2 5-8 6-10 5zm3-11l5-2 1-2c2 1 4 2 6 1h1c0 3-2 6-5 7s-6 0-8-1v-3zm2-7l4 1v1l-1 2-3 2h-1l1-6zm0-1v-6h1l1 3 2 1 1-2-2-3 2-1 2 4c1 2 0 4-2 5l-5-1zm-1-10c5-1 9-5 7-10-1-5-7-6-11-4l-2-4c7-2 13 0 15 6 2 3 2 6 0 9-1 4-5 5-8 6l-1-3zm-8-22v-4l4-1c3 1 4 5 4 7h-1v-1a10 10 0 0 0-2-2l-3-1-1 2 2 3-1 1-2-4zm-6-8l4-1 4 3-2 1-1 3-5-6zm-7-6c1-3 4-5 7-5 3-1 6 0 8 3-3 0-6 2-7 7h-2l-6-5zm34 6l-1-1c-2-1-5 0-7 2l-1-3-3-1c1-4 5-5 8-5 3 1 6 5 4 8zm1 6v-5-1l3-1c2 0 5 0 6 2 2 2 1 7-1 8-2-2-5-4-8-3zm6 9c-1-2-4-3-6-2 1-2 2-4 0-6 3-1 5 0 6 2 1 1 2 5 0 6zm7 4c-1-3-4-4-7-4 2-1 2-3 2-5 3-1 6 0 8 2l1 5c0 2-2 3-3 4l-1-2zm-16-19c3 0 4 4 3 6-2-2-5-2-7 0 1-2 0-3-1-4l-1-1c2-1 4-2 6-1zm-11-3c3 0 3 2 4 4-2-1-5 1-5 4 0-2-2-3-4-3 0-3 3-4 5-5zm-11 1h-1c1-7 9-7 13-1l-1-1c-2 1-5 2-6 5-1-2-3-3-5-3zm13 8v5l-1-1-1-5c0-2 1-3 4-3h1l1 2c1 3 0 5-1 7h-1l1-4-1-2-2 1zm4 6l1-5c2-2 4-2 6-1v1l1 1c1 3-2 6-5 8v-1c1-2 4-4 1-5-1-1-3 1-4 2zm5 6l-1-2 3-2c2-1 5 0 6 2 1 1 0 3-2 4l-6 2v-1c2-1 6-1 5-4-1-1-4 0-5 1zm10 5l-4-1 2-2c1-1 2-3 1-5 3 1 5 1 6 3 2 4-1 7-4 8l-1-3zm-11 5v-1c2 1 6 2 7-1 0-2-4-2-6-2v-1l5-1c3 1 7 2 5 5v1c-2 3-8 1-11 0zm7 6l-2-3c3 0 6 0 7-3 2 2 3 6 1 8l-6 1h-1l1-3zm-10-2v-1l2 3 2 1 1-3-3-2v-1l5 2 2 3c0 2-2 3-3 3-3 0-5-3-6-5zm7 6h1l-2 5c-2 2-7 2-7-1l1-1 2-4c1 1 3 2 5 1zm-4-47c-3 0-8 1-9 5-1-3-4-4-7-4 2-10 16-11 16-1zm16-5c-2-2-10-4-13 2 1-4-3-8-7-9-5-2-12 2-13 8-6-9-21 0-17 6-5-3-11-4-16-4-2-1-4-2-6-1-3 0-6 3-8 4v1l9 1c3 0 3-2 5-4 17 0 30 11 37 32 6 18 0 41-14 51a1 1 0 1 0 0 1c5-3 8-7 11-12 1 5 15 4 14-7 3 4 7 7 13 5 5-2 6-9 3-14 9 5 15 0 17-2 3-6-1-11-5-14 8 0 11-6 10-10-1-5-6-7-11-7 11-4 4-22-7-16 2-4 2-8-2-11z"/>
    <path stroke="black" d="M595 213l-2 1-3 1-1 1c1 1 3 3 3 5l1 1c1 1 1 0 1-1l-1-1-2-4c2 0 3-1 5-3v-1l-1 1z"/>
    <path stroke="black" d="M593 217l1 2 1 1v1h2l-1-2-1-2 2-2c1 0 0-1 0 0l-3 1-1 1zM598 218a2 2 0 1 0 3 0 2 2 0 0 0-3 0zM603 219a1 1 0 1 0 2 0 1 1 0 0 0-2 0zM607 220a1 1 0 1 0 2 0 1 1 0 0 0-2 0zM558 246l-3 4-1 2h1l1-1 3-4c1 2 3 3 5 3l-2-2-3-3-1 1z"/>
    <path stroke="black" d="M556 253l1 1 1-1 2-2 2 1h1l-3-3-1 1-1 1-1 1-1 1zM559 256a2 2 0 1 0 3-1 2 2 0 0 0-3 1zM560 261a1 1 0 1 0 3-1 1 1 0 0 0-3 1zM561 264a1 1 0 1 0 2 0 1 1 0 0 0-2 0zM577 237v7h1v-1l1-5 6 1v-1h-1-2l-4-2-1 1z"/>
    <path stroke="black" d="M580 240v3l-1 1c0 1 1 2 2 1v-1-3h3v-1h-4zM585 246a2 2 0 1 0-2-2 2 2 0 0 0 2 2zM587 250a1 1 0 1 0 1-2 1 1 0 0 0-1 2zM589 252a1 1 0 1 0 1-1 1 1 0 0 0-1 1zM595 189h-1l-1 3-3 3 1 1 4 2 2 1v-2l-1-1-4-1 3-6z"/>
    <path stroke="black" d="M597 191l-1-1-2 3 1 1 1 1h1l1 1c1 1 2 0 1-1l-1-1-2-1 1-2z"/>
    <path stroke="black" d="M599 190a2 2 0 1 0 2 3 2 2 0 0 0-2-3zM604 189v1a1 1 0 1 0 0-1zM608 189a1 1 0 1 0 1-1 1 1 0 0 0-1 1zM581 169h-1v3l-1 4 1 1h7v-2h-6v-6z"/>
    <path stroke="black" d="M583 169h-1v4l1 1h4l1-1-2-1h-3v-3zM586 170a2 2 0 1 0 2-2 2 2 0 0 0-2 2zM589 166a1 1 0 1 0 2-2 1 1 0 0 0-2 2zM592 163a1 1 0 1 0 1-1 1 1 0 0 0-1 1zM569 162l-2 1-3 2-3-5h-1v1l2 2 1 4h1l4-3 2-1-1-1z"/>
    <path stroke="black" d="M562 159l2 4h1l1-1 1-1h1v-1h-1l-2 1-2-2h-1zM564 157a2 2 0 1 0 4 0 2 2 0 0 0-4 0zM566 152a1 1 0 1 0 2 0 1 1 0 0 0-2 0zM568 148v1a1 1 0 1 0 0-1zM539 167h1l3-4 2-1-1-1-1 1-3 3-5-4v1l2 2 2 3z"/>
    <path stroke="black" d="M541 159l-2 2-2-2v1l2 3h1l1-2 1-1h1v-2l-2 1z"/>
    <path stroke="black" d="M538 157a2 2 0 1 0 3-1 2 2 0 0 0-3 1zM538 152a1 1 0 1 0 2-1 1 1 0 0 0-2 1zM538 148h1a1 1 0 1 0-1 0zM515 171v1h3l3 2 1-1 1-5 1-2h-2v2l-1 4-6-1z"/>
    <path stroke="black" d="M515 169l4 1h1v-2-1l1-1-1-1-1 1v3h-4z"/>
    <path stroke="black" d="M515 166a2 2 0 1 0 2-2 2 2 0 0 0-2 2zM514 160a1 1 0 1 0-2 2 1 1 0 0 0 2-2zM512 158a1 1 0 1 0-1-1v1h1zM491 176v0zM489 179v-1-1l-2 1 2 1zM487 179h-2 2zM485 180h-2 2zM483 192h-1c0 1 1 2 1 0zM481 193h-2l1 2 1-2zM479 195h-2 2zM475 197h2c0-1-2-2-2 0zM473 198c0 1 2 2 2 0h-2zM478 207h1l1-1-1-1-1 1v1zM475 208c0 1 2 2 2 0h-2zM385 174h1c2-2 5-5 5-8v-8c6-15 18-17 28-14 12 4 22 17 18 33a1 1 0 0 0 1 0c5-16-6-30-19-34-10-3-24-1-30 17-2 2-4 3-4 6v8z"/>
    <path stroke="black" d="M379 162l5-7-1-6c7-12 21-21 39-15 10 3 19 11 23 21 4 7 5 15 2 21a1 1 0 0 0 2 0c2-6 1-14-2-22-5-10-14-18-24-21-20-7-34 3-41 15l-5 4c-1 3 0 7 1 10h1z"/>
    <path stroke="black" d="M419 98c-3 2-6 7-4 10-3-1-5 0-7 2-6-8 3-19 11-12zm6-9c5-2 9 2 9 6-2-1-6 3-7 6-1-3-5-4-8-3 0-3 2-8 6-9zm25 9c-5-1-8 0-9 3 0-3-3-6-6-6 1-9 16-8 15 3zm11 0c4 4 1 8 0 9-1-1-5-3-8-2 1-1 0-5-2-6 0 0 5-6 10-1zm0 10c2 3 1 7-1 10-1-2-5-4-7-3v-1-7-1c3-1 6 0 8 2zm10 6c2 5-1 9-5 11 0-3-2-6-5-6 1 0 4-7 1-10 6 0 8 2 9 5zm-6 13c-1 3-4 6-7 7 1-3 0-7-3-7v-1h1l2-2 2-4v-1c4 1 6 5 5 8zm5 10c-2 4-6 6-9 6 0 0 0-7-2-8 1 0 7-4 7-8 0 0 7 5 4 10zm-10 8h1c2 5-2 10-4 10l-3-6c2-1 5-2 6-4zm-8 0l2-4-1-3c2 0 4-1 5-3 2 2 3 5 2 8s-4 4-7 5l-1-3zm-5-5l4-3 1 1v5l-1 1-4-4zm-5-5l1-1 3 2 2-1c1-1 0-2-1-2l-3-2 1-1 4 1c2 1 2 3 2 4l-4 4-5-4zm-3-3c3-4 3-9-2-12-5-2-9 1-11 5l-3-1c2-6 8-9 14-7 3 1 5 4 6 6 2 4 1 8-1 11l-3-2zm-22-9l-2-3 2-4c3-1 6 1 8 3h-1-1a10 10 0 0 0-2-1h-1l-2 2 1 2 4 1-1 1-5-1zm-2-6l-1 3 2 2-8-1 2-3c1-1 3-2 5-1zm1-9l-1 1c-1 1-2 5-1 7l-5 2h-1c-4-5 1-11 8-10zm5 1c-2 1-2 4-1 6l-4 1c-2-1-1-5 0-6 1-3 3-2 5-1zm18-7c-2-1-6 1-7 3-1-2-2-3-4-3v-1l1-3 5-3c4 0 6 4 5 7zm12 3c-3-1-6 0-8 2l-3-4 1-1c1-2 4-4 6-3l5 2v5l-1-1zm-2 8l-4 2v-3l-2-4c2-2 4-3 6-2 4 1 4 5 3 8l-3-1zm-17-2c-2 0-2 3-1 4l-1 1-2-5c-1-2 1-4 3-4h2c3 1 3 6 2 8h-1c0-1 1-5-2-4zm5-1c-1-2-2-4-5-4 2-2 4-4 7-3 1 0 4 3 3 4-2 0-4 2-5 3zm-14-2h-1c0-2 1-4 3-5s6 0 6 3c-2 0-4 2-4 4l-4-2zm1 4l-1 3 3 2v1l-5-3v-5l1-1c0 1 0 0 0 0l3 1c2 1 3 4 4 6h-1l-2-3-2-1zm14 4h-2l1-4c1-3 3-4 5-4 2 1 2 4 2 5 0 2-2 4-3 5h-1c1-2 4-5 1-6-2 0-3 3-3 4zm14 0c1 4-5 7-7 8l-1-1c2-1 6-3 4-5-1-2-4 0-5 2l-1-1 3-4c2-1 6-3 7 0v1zm2 7l-4-1c2-2 4-4 3-6 3-1 7 1 6 4 0 2-1 4-3 5l-1 1-1-3zm1 4c2 1 3 4 2 6 0 2-3 5-5 3v-1c0-1 0-3-2-4 2 0 4-1 5-3v-1zm-2 1c-2 2-6 1-8 1v-1h3l2-1c1-1 0-2-1-2l-4 1v-1l4-2 4 1c2 1 1 3 0 4zm-37-20c-1-3 0-6 2-9 3-2 8-1 9 3h-1c-3 1-5 4-5 6l-2-1-3 1zm-16 5c2-2 4-3 7-3-2 2-2 6 1 9l-1 2-8 1c-2-3-1-6 1-9zm3-6c-10-2-14 15-8 16-5 2-9 5-13 9l-6 4c-2 2-1 6-2 9h1l7-5c2-3 1-5 1-7 11-12 28-13 48-4 17 8 29 28 27 46v1l1-1c1-5 0-10-1-15 4 1 13-9 4-15 6 0 11-1 13-7 2-5-2-10-7-11 10-3 10-11 10-14-2-6-9-7-14-6 6-6 3-13 0-14-4-3-9-1-12 3 4-11-14-19-17-7-2-4-4-7-9-6-3 0-10 4-8 11-2-3-8-4-11-2-5 3-7 10-4 15z"/>
    <path stroke="black" d="M472 98v-1h-1v3l-2 4 1 1h5l2 1v-1h-1l-1-1-4-1 1-5z"/>
    <path stroke="black" d="M474 98l-1 3v1h2l1 1h1c1 1 1 0 1-1h-1l-3-1v-3c1 0 0-1 0 0z"/>
    <path stroke="black" d="M477 97a2 2 0 1 0 2 3 2 2 0 0 0-2-3zM481 97a1 1 0 1 0 2-2 1 1 0 0 0-2 2zM485 94a1 1 0 1 0 1-1 1 1 0 0 0-1 1zM476 146h-7v1l1 5v2h1v-2l-1-4 6-1v-1z"/>
    <path stroke="black" d="M476 148l-3 1-1 1 1 1v3h1v-1-3l2-1v-1z"/>
    <path stroke="black" d="M478 151a2 2 0 1 0-1 3 2 2 0 0 0 1-3zM480 155a1 1 0 1 0 3 1 1 1 0 0 0-3-1zM485 158a1 1 0 1 0-1-1 1 1 0 1 0 1 1zM482 123l-2 2-4 1v2l4 3 1 2v-1-1l-3-4 4-3v-1c1 0 1 0 0 0z"/>
    <path stroke="black" d="M480 127v1l1 1 1 1 1 1h1v-1l-2-3 2-1v-1l-4 2zM485 128a2 2 0 1 0 3 0 2 2 0 0 0-3 0zM490 128a1 1 0 1 0 3 0 1 1 0 0 0-3 0zM494 129l1 1a1 1 0 1 0-1-1zM462 86h-2l-4 1-2-5h-1 1v3l1 4h1l5-2h2l-1-1s0-1 0 0z"/>
    <path stroke="black" d="M458 84l-2-3 1 4h2l1-1h1l1-1h-2l-2 1z"/>
    <path stroke="black" d="M458 79a2 2 0 1 0 3 1 2 2 0 0 0-3-1zM460 75a1 1 0 1 0 3 0 1 1 0 0 0-3 0zM463 72h1l-1-1v1zM430 78v1l2 1 2 3 1 1 3-4 2-2h-1l-2 1-3 3-4-4z"/>
    <path stroke="black" d="M434 79h1l1-1 1-1 1-1-1-1-1 1-2 2-2-2-1 1 3 2z"/>
    <path stroke="black" d="M434 75a2 2 0 1 0 0-3 2 2 0 1 0 0 3zM435 68a1 1 0 1 0-2 0 1 1 0 0 0 2 0zM434 64l-1 1a1 1 0 1 0 1-1zM417 88c-1-2 0-3 1-5v-2h-1l-1 2-1 4-5-2h-1v1h1l2 1 3 2 2-1z"/>
    <path stroke="black" d="M414 84l1-1v-1l1-1-1-1-1 1-1 3-3-1v1l3 1 1-1zM412 78a2 2 0 1 0-3 2 2 2 0 0 0 3-2zM409 74a1 1 0 1 0-2 2 1 1 0 0 0 2-2zM407 72a1 1 0 1 0-1 0 1 1 0 0 0 1 0zM399 106l1-1-1-5 1-2h-2v6h-6v1h3l4 1z"/>
    <path stroke="black" d="M392 103h4l1-1v-2-1-1l-1-1-1 2v2l-3 1v1z"/>
    <path stroke="black" d="M391 100a2 2 0 1 0 2-3 2 2 0 0 0-2 3zM388 96a1 1 0 1 0 1-2 1 1 0 0 0-1 2zM386 92a1 1 0 1 0-1 1 1 1 0 0 0 1-1zM385 126h1l2-1 4-2v-1c-1-1-3-2-3-4l-1-2-1 1 1 2 2 3-5 4z"/>
    <path stroke="black" d="M384 124l4-2v-1l-1-1-1-1v-1h-2l1 1 1 3-2 2z"/>
    <path stroke="black" d="M382 123a2 2 0 1 0 0-4 2 2 0 0 0 0 4zM376 120a1 1 0 1 0 2 0 1 1 0 0 0-2 0zM372 119l1 1 1-1h-1-1zM373 148c1-1 0-2-1-2-1 1 0 3 1 2zM372 150v-1h-1v2l1-1zM371 152c-1-1-2 0-1 1s2-1 1-1zM371 154c-1-1-3 0-2 1s3 0 2-1zM370 156h-1v1c1 1 2 0 1-1zM378 163l-1 1c1 1 2 0 1-1zM378 167l-1-1-1 1h2zM377 169c-1-1-2 0-1 1s2-1 1-1zM377 171c-1-1-2 0-2 1 1 1 3 0 2-1zM375 175c1 0 3-1 2-2s-3 1-2 2zM386 176h-2l1 1 1-1zM385 179c-1-1-2 0-1 1s2 0 1-1zM286 366v-1h-1c-14 8-17 25-11 38 5 9 17 17 34 9l7-1 5-6v-1c-3 0-7 0-10 2l-5 6c-15 6-25-1-30-10-5-12-3-28 11-36z"/>
    <path stroke="black" d="M263 375c-4 11-3 22 2 32 9 18 25 22 39 18 3 1 4 2 7 1s4-5 6-7l-1-1-8 1-4 5c-14 4-30 0-38-18-5-9-6-20-2-31 3-8 8-14 14-16v-1h-1c-6 2-11 9-14 17z"/>
    <path stroke="black" d="M229 425c2 2 7 3 9 1-1 3 1 6 4 8-2 2-7 4-11 2s-4-8-2-11zm-8-13c2 4 5 5 8 4-2 3-2 6 0 9-7 5-17-6-8-13zm-8-8c0-6 5-6 7-7-1 2 1 6 4 7-2 1-4 4-3 6 0 1-9 1-8-6zm15-13c-1 2 0 5 3 7h-1c-2 1-4 3-5 6h-1c-2-1-4-4-3-7 0-4 4-6 7-6zm-10-5c1-5 7-6 11-5-2 2-3 6-1 9-1-1-7 1-8 6-4-4-3-8-2-10zm22-5c-2 1-4 5-2 7h-1-1-2c-2 0-4 0-5 2-2-3-1-8 2-9 3-2 6-2 9 0zm-6-11c5-2 9 0 11 3 0 0-5 4-5 7 0-1-7-3-10 0 0 0-1-9 4-10zm23-3l-2 6c-3-1-6-2-8-1 2-6 8-7 10-5zm-4 11c-1-1-4 0-4 1l-2 3c-1-2-3-2-5-2h-1c0-3 2-5 5-6 3-2 6 0 8 0l-1 4zm-1 6h-4v-1l1-2 2-2h2l-1 5zm0 2v5l-1 1-1-4-2-1-1 3 2 2-2 1-3-4 3-4c1-1 4 0 5 1zm0 10c-5 0-8 4-6 10 1 5 6 6 11 4l1 3c-6 3-12 1-15-5v-9c2-4 6-6 9-6v3zm9 22l-1 4h-4c-3-1-3-4-3-7h1v1a10 10 0 0 0 2 2v1h2c1 0 2-1 1-2l-1-3h1l2 4zm6 7l-4 1-4-2h-1c2 0 2-1 3-2l1-3 5 6zm7 6c-1 4-4 5-7 6-4 0-6-1-8-3 3-1 6-3 7-7l1-1h1l6 5zm-34-5h1c2 2 5 1 7-1l1 2 3 2c-2 3-5 5-8 4-4 0-6-4-4-7zm-2-6c-1 1 0 3 1 5l-4 1-5-1c-3-3-1-7 1-9 1 3 5 5 7 4zm-5-9c1 2 4 2 6 2-1 2-2 4 0 6-3 1-5 0-7-3 0-1-1-4 1-5zm-8-5c1 3 4 5 8 5-2 0-2 3-2 4h-1c-2 1-5 0-7-2l-2-4c0-3 2-3 4-4v1zm17 20c-3-1-4-4-3-6h6l2 4c-1 2-3 2-5 2zm11 2c-3 1-4-1-4-3 2 0 5-2 5-4l3 3c1 2-2 4-4 4zm11-1c0 7-9 8-12 2 3 0 6-2 7-4 1 2 3 2 5 2zm-13-8v-4h1l1 5c0 2-2 4-4 4h-1l-1-3c-1-2 0-5 1-7h1l-1 4 1 3 2-2zm-5-6l1 1-2 5c-1 2-4 1-5 0h-1v-1c-2-3 2-7 4-8l1 1c-1 1-4 4-2 5s4-1 4-3zm-4-5l1 1-3 3c-3 1-5 0-6-2s0-4 2-5l5-1 1 1c-2 0-6 1-5 3s4 1 5 0zm-10-6l4 2-2 1c-1 2-2 3-1 5-3 0-5-1-6-3-2-3 1-6 4-7l1 2zm11-5l-1 1c-1 0-6-2-6 1s4 3 5 3v1l-4 1c-3-1-7-3-5-6v-1c2-3 8-1 11 0zm-7-6l2 4c-3-1-6 0-7 2-2-2-3-5-1-8l5-1 2 1-1 2zm10 3l-2-2c-1-1-2-2-3-1v3l3 2-1 1v-1l-4-1-2-4c0-1 1-3 3-3 3 0 5 4 6 6zm-7-7l-1 1c-1-2 1-5 2-6 2-1 6-1 7 2h-1c-2 1-2 3-2 5l-5-2zm4 47c3 1 8-1 9-4 1 3 4 4 7 4-2 9-16 11-16 0zm-16 6c2 2 10 4 13-3-1 4 3 9 7 10 5 1 12-2 13-8 6 9 21 0 17-6 5 2 10 4 16 3 2 2 4 2 6 2 3 0 6-3 8-5v-1l-9-1c-3 1-4 2-5 4-17 0-30-11-37-31-7-18 0-41 14-52v-1h-1c-4 3-7 7-10 12-2-4-15-3-14 7-3-4-7-7-13-4-6 2-6 9-3 13-9-5-16 0-17 3-3 5 1 10 5 13-8 0-11 7-10 10 1 5 6 8 11 7-11 4-4 23 7 17-2 4-2 8 2 11z"/>
    <path stroke="black" d="M206 397l2-1 3-2 1-1c-2-1-3-2-3-4l-1-2-1 1v2l3 3-5 3v1h1z"/>
    <path stroke="black" d="M208 392l-1-1-1-1-1-1h-1l1 1 1 3-2 1v1l3-2 1-1zM203 392l-1-2a2 2 0 1 0 1 2zM198 391l-1-2a1 1 0 1 0 1 2zM194 390a1 1 0 1 0-2 0h2zM243 364c0-2 1-3 3-4l1-2h-1-1l-1 1-2 4-5-4v1l2 1 3 3h1z"/>
    <path stroke="black" d="M238 358l3 2h1l1-2 1-1v-2l-1 1-2 3-2-2-1 1zM242 353a2 2 0 1 0-3 2 2 2 0 0 0 3-2z"/>
    <path stroke="black" d="M241 349a1 1 0 1 0-3 1 1 1 0 0 0 3-1zM239 345zM224 372v-5-2l-1 1-1 1v5l-6-1c0 1 0 1 0 0l3 1 3 1 2-1z"/>
    <path stroke="black" d="M221 369v-1-2-1c1-1 0-1-1-1v2l-1 2h-2l-1 1 4 1 1-1zM218 364a2 2 0 1 0-3 2 2 2 0 0 0 3-2zM214 360a1 1 0 1 0-1 2 1 1 0 0 0 1-2zM212 358h-1c-1 0-1 0 0 0a1 1 0 1 0 1 0zM206 420l1 1v-1l1-2 3-3-1-1-4-2-2-1v1l1 1 4 2-3 5z"/>
    <path stroke="black" d="M204 419h1l2-3-1-1h-1l-1-1-1-1-1 1 1 1 2 1-1 3z"/>
    <path stroke="black" d="M202 419a2 2 0 1 0-2-3 2 2 0 0 0 2 3zM197 421a1 1 0 1 0-1-2 1 1 0 0 0 1 2zM193 421a1 1 0 1 0-1 0 1 1 0 0 0 1 0zM220 440h1v-3l1-3-1-1h-7v1h6v6z"/>
    <path stroke="black" d="M218 440h1v-4h-3-1-1l-1 1h4l1 3zM215 439l-2 1a2 2 0 1 0 2-1zM212 443a1 1 0 1 0-2 2 1 1 0 0 0 2-2zM209 446a1 1 0 1 0-1 1 1 1 0 0 0 1-1zM232 447h1l4-3 3 6h1v-1h-1l-1-2-1-4h-1l-4 2-2 1c0 1 0 2 1 1z"/>
    <path stroke="black" d="M239 450l-2-3h-1l-1 1h-1l-2 1v1h2l2-2 2 3 1-1z"/>
    <path stroke="black" d="M237 453a2 2 0 1 0-4-1 2 2 0 0 0 4 1zM235 458l-1-2a1 1 0 1 0 1 2zM233 461v-1l-1 1a1 1 0 0 0 1 0zM264 446l-2-3h-1l-4 4-1 1 1 1 1-1c2-1 3-2 3-4l4 5h1v-1l-2-2z"/>
    <path stroke="black" d="M260 450l1-2 3 2c0 1 1 0 0 0l-2-3h-1l-1 1-1 1-1 1v1l2-1z"/>
    <path stroke="black" d="M263 453a2 2 0 1 0-3 0 2 2 0 0 0 3 0zM263 458a1 1 0 0 0-3 0l2 1 1-1zM262 462v-1l-1 1h1zM286 438h-1l-2-1-3-1h-1l-1 5-1 2h2v-1l1-5 6 2v-1z"/>
    <path stroke="black" d="M285 440l-3-1-1 1v3l-1 1 1 1 1-2v-2h3v-1zM284 443a2 2 0 1 0 2 3 2 2 0 0 0-2-3zM289 449a1 1 0 0 0-2-1 1 1 0 1 0 2 1zM289 452a1 1 0 1 0 1-1 1 1 0 0 0-1 1zM310 432c-1-1-2 1 0 1v-1zM314 431h-2v1c1 1 2 0 2-1zM316 431c0-2-2-2-2-1 0 2 2 2 2 1zM318 430c0-2-2-2-2-1 0 2 2 2 2 1zM320 428h-2l1 1 1-1zM317 417h0zM320 416v1l2-1-2-1v1zM322 414c0 2 2 2 2 1 0-2-2-2-2-1zM326 413h-2 2zM328 411h-2c0 2 2 2 2 0zM322 404v-2l-1 1 1 1zM326 401h-2c0 2 2 2 2 0zM416 427l-1-1-6 8 1 8c-6 15-18 17-28 14-12-4-22-17-18-33a1 1 0 0 0-1 0c-5 16 6 30 19 34 10 4 24 1 30-16l4-6v-8z"/>
    <path stroke="black" d="M354 446c5 10 13 18 24 22 19 6 34-3 41-16 2-1 4-1 5-4s-1-6-1-9h-1l-5 7c-1 2 0 4 1 6-7 12-21 20-40 14-10-3-18-11-23-21-3-7-4-15-2-21v-1l-1 1c-2 6-2 14 2 22z"/>
    <path stroke="black" d="M339 502c-4-4-1-9 0-10 2 2 5 3 8 2-1 2 0 6 2 7 0 0-5 6-10 1zm1-11c-3-3-2-7 1-9 1 2 4 4 6 3h1l-1 1c-1 2-1 5 1 7l-1 1c-2 1-6-1-7-3zm-11-6c-2-4 2-8 5-11 0 3 3 7 6 7-1 0-4 6-2 10-5 0-7-3-9-6zm6-12c1-4 4-6 7-7-1 2 1 7 3 7v1h-1l-2 2-2 4v1c-3-1-5-5-5-8zm-5-11c2-4 6-6 10-5 0 0-1 6 1 8 0-1-7 3-7 7 0 1-7-5-4-10zm10-7c-2-5 2-10 4-11l3 7c-3 1-5 2-6 4h-1zm9 0l-2 4 1 3c-2 0-4 1-5 3h-1c-2-2-2-5-1-8s4-4 6-5l2 3zm4 5c-1 1-3 1-3 3l-1-1-1-2 1-3 1-2 3 5zm5 5v1l-4-2-2 1 1 2 3 1v2l-5-1c-1-1-2-3-1-4 0-2 2-3 4-4l4 4zm3 3c-3 4-2 9 3 12 4 2 9-1 10-5l4 1c-3 6-8 9-15 7-3-1-5-4-6-6-2-4 0-8 2-11l2 2zm22 10c1 0 2 1 2 3 1 1-1 3-2 3-3 1-6-1-8-3h2a10 10 0 0 0 3 1l2-1c1-1 0-2-1-3l-3-1v-1l5 2zm9 1l-2 3-5 2 1-4-1-2 7 1zm8 8c-2 3-4 4-7 3 2-2 2-6 0-9v-2c1 0 1 0 0 0l9-1c1 3 0 6-2 9zm-7 4c5 8-4 18-11 11 3-2 5-7 3-10 3 2 6 1 8-1zm-18 20c-5 2-9-2-9-6 2 1 6-3 7-5 1 2 5 3 8 2 0 4-2 8-6 9zm-25-16c3 1 5 0 8-2-1 1 0 3 2 4v1c-2 2-4 4-7 3l-5-2v-5l2 1zm1-8l4-2v3l2 4c-1 2-3 3-6 2-4-1-4-5-2-8l2 1zm26 5h1c0 2-1 4-3 5s-6 0-6-3c2 0 4-2 4-4l4 2zm-8-3v-4l1-1c1 2 1 4 3 5 0 3-2 4-4 4h-1-1c-3-1-3-6-2-8h1c0 1 0 5 3 4zm-5 0c0 3 1 5 4 5-1 2-4 3-6 3s-5-3-4-4v-1c2 1 5-1 6-3zm4 6l4 3v1l-1 3-5 3c-4 0-6-4-5-7 3 1 6-1 7-3zm16-3c2 3 0 7-2 9-3 2-8 1-9-3h2c2-1 4-3 4-6l2 1 3-1zm1-8c2 2 1 5 0 7-2 2-4 1-6 0 2-1 3-4 1-6l4-1h1zm7-2c4 5-1 11-7 10 1-2 3-6 1-8 2 1 4 0 6-2zm-16 6l1-3-3-2 1-1 4 3c2 1 1 4 0 5l-1 1-3-1c-2-1-3-4-4-6h1l2 3 2 1zm-13-4h1v4c-1 3-4 4-6 3-2 0-2-3-2-4 0-2 2-4 3-5h1c-1 2-3 5-1 6 2 0 3-3 4-4zm-15 0c-1-4 5-7 8-8v1c-2 1-6 3-4 5s4 0 6-2v1l-2 4c-3 1-7 3-8-1zm-1-8c0 2 2 2 3 2-2 1-4 4-3 6-3 0-6-1-6-5l3-4 1-1 2 2zm-2-3c-2-1-2-4-2-6s3-5 6-4v2c-1 1 0 3 1 4-2 0-4 1-4 3l-1 1zm2-2c2-2 6-1 9 0l-1 1-2-1-3 1 2 3 3-1v1l-4 2-4-1v-5zm4 31c4 1 7-1 8-3 1 3 3 6 6 6-1 9-16 8-14-3zm-3 2c-4 11 14 19 17 7 2 4 4 7 9 6 3 0 10-4 8-11 2 3 8 4 11 2 5-3 7-10 4-15 10 2 15-14 8-16 5-2 10-5 14-9 2 0 4-1 5-3 2-2 2-6 3-9l-1-1-7 6c-2 2-1 4-2 6-11 12-28 14-48 4-17-8-29-29-26-46v-1l-1 1c-1 5-1 10 1 15-4-2-13 9-5 15-5 0-10 1-13 6-2 6 3 11 8 12-10 3-11 11-10 14 1 6 8 7 13 6-6 6-3 12 0 14 4 3 9 1 12-3z"/>
    <path stroke="black" d="M328 502v1h1v-1l1-2 1-4v-1l-5-1h-2v1l1 1h5l-2 6z"/>
    <path stroke="black" d="M326 502l2-4-1-1h-2-1l-1-1-1 1 1 1 3 1v3z"/>
    <path stroke="black" d="M323 502a2 2 0 1 0-2-2 2 2 0 0 0 2 2zM319 503a1 1 0 1 0-2 2 1 1 0 0 0 2-2zM315 505h-1v1h1v-1zM325 454l3-1h3l1-1-1-5v-2l-2 1v2l1 4-5 1h-1l1 1z"/>
    <path stroke="black" d="M324 450v1h4l1-1-1-2v-1-1h-1l-1 1 1 3h-3z"/>
    <path stroke="black" d="M322 449a2 2 0 1 0 2-3 2 2 0 0 0-2 3zM320 443a1 1 0 1 0-2 2 1 1 0 0 0 2-2zM316 443a1 1 0 0 0 0-1h-1l1 1zM319 476l2-1 3-2v-1l-3-4-1-2c-1 0-2 1-1 2l1 1 3 3-5 4v1l1-1z"/>
    <path stroke="black" d="M320 473v-1l-1-2-1-1v-1l-2 1 1 1 2 2-3 2 1 1 3-2z"/>
    <path stroke="black" d="M316 471a2 2 0 1 0-4 1 2 2 0 0 0 4-1zM310 471a1 1 0 1 0-2 0 1 1 0 0 0 2 0zM306 471l-1-1a1 1 0 1 0 1 1zM338 514h2l4-2 2 6h1l-1-1v-2l-1-4h-1l-4 2h-3l1 1z"/>
    <path stroke="black" d="M342 516l2 3-1-4-1-1-1 1-1 1h-1l-1 1h2l2-1z"/>
    <path stroke="black" d="M342 521a2 2 0 1 0-3-1 2 2 0 0 0 3 1zM340 525a1 1 0 1 0-3-1 1 1 0 0 0 3 1zM337 528v-1a1 1 0 1 0 0 1zM361 522l2-1 3-3 4 4s0-1 0 0l-2-2-2-3-1-1-3 4-2 2h1z"/>
    <path stroke="black" d="M363 525l1-1 2-2 2 2 1-1-3-2h-1l-1 1-1 1-1 1 1 1zM366 528a2 2 0 1 0 0-3 2 2 0 0 0 0 3zM367 532l-1-2a1 1 0 1 0 1 2zM367 535h-1l-1 1h1l1-1zM384 512l-2 5v2h1l1-1 1-5 5 2h1v-1h-1l-2-1-3-1h-1z"/>
    <path stroke="black" d="M386 516l-1 1v2l-1 1 1 1 1-2 1-2h3v-1l-3-1-1 1zM388 522a2 2 0 1 0 3-2 2 2 0 0 0-3 2zM391 526a1 1 0 1 0 2-2 1 1 0 0 0-2 2zM394 528h-1v1h1v-1zM400 495l1 6v2l1-1v-1-5h6v-1l-1 1-2-1h-4-1z"/>
    <path stroke="black" d="M403 498l1 2v1l-1 1c0 1 1 2 2 1v-1-3h3v-1h-4-1zM407 504a2 2 0 1 0 2-3 2 2 0 0 0-2 3zM411 507a1 1 0 1 0 2-3 1 1 0 0 0-2 3zM414 509a1 1 0 1 0 1-1 1 1 0 0 0-1 1zM415 475v-1h-1l-2 2-3 1-1 1 3 4 1 2c1 0 2 0 1-1v-1l-3-4 5-3z"/>
    <path stroke="black" d="M416 476l-3 2v1l1 1v1l1 1h1v-1l-2-2 2-2v-1z"/>
    <path stroke="black" d="M419 478a2 2 0 1 0 0 3 2 2 0 0 0 0-3zM424 479a1 1 0 1 0-1 3 1 1 0 0 0 1-3zM427 481a1 1 0 0 0 1 0h-1c0-1 0 0 0 0zM428 454c1-1 0-2-1-1-1 0 0 2 1 1zM428 451l1 1 1-2-2 1zM429 449c1 1 3 0 2-1s-2 0-2 1zM430 447c1 1 2-1 1-1 0-1-2 0-1 1zM431 444l1 1v-2l-1 1zM422 437c1 1 3 0 2-1s-2 0-2 1zM423 434l1 1 1-2-2 1zM424 432c1 1 2 0 1-1s-2 0-1 1zM424 429c1 1 2 0 1-1l-1 1zM424 427c1 1 3 0 2-1s-3 0-2 1zM415 425h2v-1l-2-1v2zM416 422s2-1 1-2-2 1-1 2zM563 440a5 5 0 1 1 0-11 5 5 0 0 1 0 11zM552 443a4 4 0 1 1 0-9 4 4 0 0 1 0 9zM542 442a3 3 0 1 1 0-5 3 3 0 0 1 0 5zM723 274a5 5 0 1 1 0-10 5 5 0 0 1 0 10zM709 271a4 4 0 1 1 0-8 4 4 0 0 1 0 8zM698 273a3 3 0 1 1 0-5 3 3 0 0 1 0 5zM692 276c0-2-3-3-3-1s3 3 3 1zM688 282l-2-2-1 2 1 1c1 1 2 0 2-1zM686 290c0-2-3-2-3 0s3 2 3 0zM687 297l-1-2-2 2 2 1 1-1zM692 303c0-2-3-3-3-1s3 2 3 1zM696 307l-1-2-2 1 2 2 1-1zM536 439c0-2-3-3-3 0 0 2 3 2 3 0zM530 437c0-2-3-3-3 0 0 2 3 2 3 0zM524 433l-1-2-1 1 1 2 1-1zM521 428h-2c0 2 2 2 2 0zM518 425c0-2-2-2-2-1 0 2 2 2 2 1zM517 420h-2c0 2 2 2 2 0zM517 415h-2c0 1 2 2 2 0zM518 412c0-2-2-2-2-1l2 1zM519 407h-2 2z"/>
    <path stroke="black" d="M535 270a1 1 0 0 0-2 2c44 45 85 74 123 86 38 13 63 5 77-3 20-12 29-31 28-45 1-5 1-9-3-12-3-4-9-6-13-10l-1 1 4 6 3 7 3 5 4 3c1 13-7 31-26 42-14 8-38 16-75 4-38-12-79-41-122-86z"/>
    <path stroke="black" d="M685 348l5-1c1-1 2-3 1-4-1-2-5-1-7-1l-13 4-3-1c5-1 9-4 13-6l9-6c4-2 6 2 9 4 2 1 4 0 6-1h1c2 0 3 1 2 3l-2 3c-4 4-9 6-14 7l-7-1zm-45-13h4c1 0 4-2 3-4 0-2-4-2-6-2h-14l-3-2 12-1 10-5c3 0 4 4 6 6 4 3 11-2 13 3s-13 7-19 8l-6-3zm-28-19l-10-2-4-3h8c2 0 7-1 6-3-1-4-7-4-10-4h-14l-5-4h16l9-3c5-1 5 4 7 6l5 3 6 1c4 1 1 5-1 6-3 3-9 3-13 3zm-48-30l4-1 3-2v-3c-2-3-6-3-9-3l-11-2-3-3 5 2 11-2c3-1 10-3 11 1 1 3 2 5 5 6l7 4c6 3-3 6-6 6-5 0-13 0-17-3zm165 44c0-4-4-11 2-14l6-1 4-3c3-1 5-3 8-2 2 2 3 5 3 7 0 5-4 9-7 12l-8 8 1-1c1-2 2-5 0-6-3-2-7 1-9 3v-3zm-8 17c11-2 18-9 25-17 5-5 12-16 3-21-3-2-7 1-9 3l-8 2-4 3c-4 4 0 9 0 15 0 5-6 10-11 13-6 2-13 4-19 4l9-6c2-2 7-8 1-9-4 0-6 3-10 0-2-2-4-4-8-3s-7 4-10 7c-3 2-9 6-14 7l-16-6c5 0 11-2 15-5 2-1 2-3 1-5-1-3-3-3-5-3h-4c-3 0-5-1-6-3s-2-3-5-3c-4 0-7 4-11 5l-13 1-16-10c7 2 14 3 20-1 1-1 4-3 4-6-1-2-3-4-6-4-2 0-4 0-6-2-2 0-3-3-3-4-2-3-4-4-7-3l-12 3h-15l-12-9 12 1c2 0 6-1 8-3s2-4 0-6l-9-5c-3-1-3-6-6-7h-5l-9 1-8 2-6-2-5-5a1 1 0 0 0-2 2c53 47 99 74 136 82 23 4 37 1 46-3z"/>
    <path stroke="black" d="M727 249h-9c0-2 1-4 4-5s5 2 5 5zm9-3l1 5-9-2c2-2 5-5 8-3zm10 8l-7-3c3-4 11-3 7 3zm8-2c4-1 6 5 4 8l-10-5 6-3zm14 7c2 3 1 6 0 8l-9-6c2-3 6-4 9-2zm7 8c5 1 3 7 0 9a72 72 0 0 0-6-7c2-2 4-3 6-2zm6 9c3 1 5 4 4 6 0 2-2 3-3 4l-6-9 5-1zm7 13c4 1 1 9-1 9l-4-10 5 1zm6 13c2 4-2 7-5 8l-2-11h1l6 3zm2 14c1 4-2 8-6 8v-12c3 0 5 1 6 4zm-1 16c0 3-4 5-7 5l1-3 1-8c3 1 5 3 5 6zm-7 6c3 2 5 5 3 9-1 2-5 2-7 1l4-10zm-3 20c-2 3-5 2-7 1l5-9c2 2 4 5 2 8zm-9 11c-2 1-5 0-7-1l8-8c2 3 3 7-1 9zm-9 8c-2 2-6 1-8-1l9-6c1 2 2 5-1 7zm-19 5l10-5c4 6-5 10-10 5zm-3 6c-2 4-6 2-8-1a134 134 0 0 0 10-4l-2 5zm-20 3l10-3c0 5-8 8-10 3zm-8 1l6-1c0 3-4 3-6 1zm-10 2l1-1h2l-3 1zm5 3c-1 2-5 2-7 3v-1h-1l2-2 1-1 2-2h2c2 1 2 2 1 3zm0 3c2 0 3 2 1 3-2 3-5 0-8-1v-1l4-1h3zm-2 6c2 1 2 4-1 4-2 1-4-3-5-6v-1l4 2 2 1zm-6 6c-3 2-2-4-2-5l1-3v1c1 2 3 6 1 7zm-7-2c-1-1 1-3 1-4l1-2 2 1-1 3s-2 4-3 2zm4-12l1-5h5l-1 2-3 3h-2zm-9-1c-1 2 2 6 0 7-3 3-9 0-12-1l-11-5 2-5c2 1 7 4 10 3 2-1 3-4 3-6l12 2c1 2-3 3-4 5zm-10 12c2 1 4 3 5 6s-5 4-7 5l-3 4c-1 4-1 8-6 6-6-3-9-10-14-15l2-2v1l8 6c3 0 5-1 6-3 4-4-2-12-7-13l2-3 14 8zm-28 8l9 13c1 2 3 5 2 8 0 5-6 1-9 3l-4 5c-2 5-6 3-9 0s-3-6-4-10l-2-12a73 73 0 0 0 3-1l3 12c2 2 5 4 7 3 8-3 6-14 2-19l2-2zm-37 7c0 6-3 18 6 17 8-1 6-11 5-16h3l1 1 1 4v6l2 7c0 1 1 6-2 6s-6-4-10-2c-3 1-5 6-8 6-4 0-4-6-4-8 1-7 3-14 2-21h4zm-9 7l-1 10-1 4c-2 4-5 2-7 0-1-2-2-5-5-5l-3 1-3 2c-3 2-4-1-5-3l6-7c4 3 8 5 12 2l4-4 1-6v-2h4l-2 8zm-6-41v-7c6-1 13-3 19-7l7-5 5-7 7 5c-4 6-9 11-16 14-6 4-14 6-22 7zm0-23l-2 5v1l-1-5 3-1zm16-11l1-1a472 472 0 0 0 5 4l-6-3zm-9 15l-5-4 4-3 2-1-1 8zm6-7l-4-2 6-4c0 3 3 6 2 9l-4-3zm-19-3l12-5 6-5h1l3 3c-1 4-6 6-10 8-3 2-6 5-10 4l-2-5zm33 6c-1 4-5 6-9 8-5 3-12 6-19 6v-4l17-7c3-3 8-5 10-9l4 3-3 3zm30 13v2l-1 1-2-1-4-2 1-3 6 3zm-4 4l-2-1-2-1 1-2 6 4-1 2-2-2zm-4 1l-1-2 1-1 2 2 4 3-2 1-4-3zm-1 1l-2-2h2l1 1 3 4h-2l-2-3zm-6 8l-3-3 1-3 6 5-1 3-3-2zm-2 2l-3-3h1v-1l4 2 3 3-2 2-3-3zm0 5l-3-4-1-3 1-1 5 7-2 1zm-6-4l-1-2 2-1 4 7h-3l-2-4zm-5 7l-2-2-2-2 1-2 2 1 2 3-1 3v-1zm-4 0l-2-3 2-1 2 3 1 2a7 7 0 0 1-2 1l-1-2zm-3 0l-1-2h1l1-1 1 2 1 4h-2l-1-3zm-2 2l-1-4v-1l2 1v2l1 3-2-1zm-5-2l-1-2v-4c1 2 2 3 4 3v1l1 4-1-1c0-1-2-2-2 0l1 1v1l-2-3zm-3 4l-1-3 2-3 1 3 2 3-2 3-2-3zm-2 4l-1-3-1-3 3-1 2 6-3 1zm-5 0l-3-1v-3l1-3 3 1-1 4v2zm1-2v-4h2l1 6h-3v-2zm23-12l1 1v2l-1-2-3-2v-4l7 2v2l1 2 1 1-3-1-1-1c0-1-2-2-2 0zm15-10l1 2 1 2-6-4-1-4h6l2 3 2 2h-3l-1-2-1 1zm0-9c1-2 0-4-2-5v-2l8 5-2 5c-2 3-8 1-11-1l2-2c2 1 4 2 5 0zm-9 10c2-2 1-4-1-5l2-2 2 1c2 2 1 7-1 9-3 4-10 1-12-3h2l2-2c2 2 4 4 6 2zm-14 8c2-1 1-4 0-6l3-1 1 2v6c0 2-3 3-5 3-4 0-6-4-7-7l2-1c1 2 3 5 6 4zm-21-2h3l1 4 3 1c3-1 2-4 1-5l3-1 2 3c0 3 0 6-3 7-4 2-8 0-10-3v-6zm-1 8l3 2-1 5-3-1 1-6zm-1 8l6 3 8-1c2 0 5-3 6-6 3 2 7 3 10 0 2-1 4-4 3-7 4 3 8 3 12 1 3-2 4-7 3-11h5c2 0 3-1 5-3l2-6 7 4-2 8c-1 4-4 7-6 9-4 6-10 10-17 12-13 5-30 5-43 1l1-4zm82-145c-2-2-3-7 1-8l6 2-7 6zm-8 34c-2 0-5 0-7-2-4-4 2-8 6-9l1 11zm12 19h-3c-4 0-4-4-3-7v1l6 6zm-14-13c0-2 1-3 3-4l4 9h-4c-3 0-4-3-3-5zm-4-22c-2-2 0-6 3-6h4l-2 10h-1l-4-4zm5-15c1-3 6-3 8-2l-5 9c-2-1-4-4-3-7zm17-17c3-1 5 1 7 3l-7 4c-1-2-2-5 0-7zm9-1c0-5 6-3 8 0l-8 3v-3zm11-5c3-3 6 0 7 3l-8 1 1-4zM571 452l-2-1c2 0 4-2 5-3 1 3-1 5-3 4zm-3 3c-2 4-6 1-7-1l6-2 1 3zm-15 2l-2-2 8-1c0 3-3 5-6 3zm-10 1c-3 0-3-3-4-5l10 2c-1 2-3 3-6 3zm-14-10l8 4c-3 5-11 2-8-4zm-9 1c-3-1-1-4 0-7l7 5c-2 2-4 3-7 2zm-6-6c-5 0-4-6-1-8l6 6-5 2zm-7-9c-5-2-3-7 0-8l5 8h-5zm-6-13c-1-3 2-4 4-5l2 8c-3 0-6 0-6-3zm0-14l5-1a34 34 0 0 0-1 8c-2-1-7-4-4-7zm2-9c1-4 5-2 7-1l-3 7c-2-1-4-3-4-6zm10-10l3 2-5 5-1-3c-1-2 1-4 3-4zm7-6c2 0 3 1 4 3a23 23 0 0 0-7 4c0-3 0-6 3-7zm9-3c3-1 3 2 4 4l-8 1c0-2 2-4 4-5zm5 2c1-2 2-3 4-3 3 0 3 4 2 6a23 23 0 0 0-6-1v-2zm13 2c2 1 1 4 0 6l-6-4c1-2 3-3 6-2zm7 8c1 1-1 3-2 4l-2-3-2-2c2-2 4-2 6 1zm2 5l2 3c1 3-2 5-5 5 1-3 0-6-1-8h4zm-1 16h-4-1c2-2 3-5 3-7h2c2 1 3 6 0 7zm-8 7l-4-1-1-2 5-2 2-1h1c1 2 0 5-3 6zm-7 0l-4 1c-2-1-2-2-2-3v-2l7 2-1 2zm-13-10l3-3c0 2 0 4 2 6l1 2c-3 1-9-2-6-5zm190-162c-1-2-3-4-5-3-3 0-4 3-4 6-2-3-4-4-7-3-4 0-4 4-4 7-2-2-4-4-8-2-2 1-1 4 0 7-3-1-6-3-8-1-3 2-2 5 0 7-3 0-6 0-8 3-2 2-1 6 1 8-4 0-7 1-8 5 0 2 1 5 3 6l2 2c-4 1-7 3-6 7 0 4 5 5 8 6-2 2-4 4-3 8 2 3 5 3 9 2-2 2-2 5 0 7s6 1 8 0a27 27 0 0 0 31 0 19 19 0 0 0 4-27 13 13 0 0 0-18-2 9 9 0 0 0-2 12 7 7 0 0 0 9 2l2-3c1-2 0-3-1-4a4 4 0 0 0-5-1 1 1 0 1 0 2 2 1 1 0 0 1 1 1v3a4 4 0 0 1-6-1c-2-3-1-7 2-9 4-4 11-3 14 2a16 16 0 0 1-3 22 24 24 0 0 1-34-5c-12-16-9-37 8-49 26-19 59-9 77 10 16 16 23 40 18 62s-21 39-45 49c-37 14-65 8-105-20a133 133 0 0 0 105 4c35-19 35-45 34-56-2-15-9-27-19-33-3-3-6-6-10-7-6-2-12-1-17-2l-1 1 5 5 7 4c2 2 5 2 8 3l7-1c9 5 16 17 17 30 2 10 1 36-32 53-5 3-25 10-51 10a131 131 0 0 1-89-38v-1h-1a2533 2533 0 0 1-72-60v1l4 3 10 10c37 35 57 70 58 101 1 20-6 37-21 52-7 7-17 11-28 10-14-1-27-8-36-19-10-14-7-33 6-43a20 20 0 0 1 28 4 13 13 0 0 1-2 18c-4 3-9 2-12-1-2-3-1-6 1-8a3 3 0 0 1 4 1 2 2 0 0 1 0 2 1 1 0 1 0 2 2c1-1 2-4 0-6a6 6 0 0 0-8-1l-1 1-2 2-3 3-2 4c1 3 5 5 8 4l-1 2c1 2 2 4 4 4 2 1 5 0 6-3l1 1 5 1c2-1 4-4 3-7l1 1 5-2c2-2 1-6-1-7 2-1 4-4 3-7 0-2-3-3-4-3h-2c2-2 3-3 1-6-1-2-3-2-5-1 1-2 0-4-2-6-1-1-4-1-6 1 1-2 0-5-2-6a5 5 0 0 0-6 4c0-2-2-4-4-3s-4 3-4 5c-2-1-4-2-6-1-3 1-3 4-3 6-2-1-6-2-7 1-1 2 0 5 1 6-2-1-6-1-7 2-2 3 0 6 3 8-3 0-6 0-7 3s3 6 6 7c-3 1-6 3-5 7 0 3 3 3 6 3-3 2-4 5-2 8 1 2 4 3 7 2-2 2-3 5-1 7 2 3 6 2 8 1-1 2-2 4 0 6 4 3 6 1 9-1-1 3 0 7 3 7 3 1 6 1 8-1 1 2 1 5 5 5 3 1 5-1 7-3 1 2 3 4 6 4 2-1 4-2 4-5 2 2 4 3 7 2 2-1 2-2 2-4 1 1 3 2 4 1 3-2 3-4 2-6l5-4 2-2c0 2 1 4 3 5 4 2 7-3 10 0 2 1 3 4 6 4l4-3c2-1 3-3 3-5 2-6 2-13 2-20l2 1c0 8-4 17-2 26l1 2c0 2 1 4 4 4s6-1 8-3c4-3 6 2 9 1s3-3 4-5v-4l-1-8-2-11-1-2h3l3 16 4 7 5 6c3 1 6-1 8-3l2-2c1-2 2-1 4-1l4-2c2-1 2-4 2-6l-1-5c-2-7-7-12-11-17l1-1c5 5 9 12 15 15 3 2 5 2 8 1 2-1 2-4 3-7 0-2 3-2 5-3l2-3c1-1 0-3-1-5l-2-3c-5-5-12-9-18-10l1-2 15 7 1 1c5 2 11 1 11-5 0-2 0-3 2-5l1-2-1-2h3l-1 5-2 4v2l-2 3c0 1-1 4 1 4 1 1 2 0 3-1l1-1-1 1c0 2 1 3 3 3s3-1 3-2v-1c1 1 3 2 5 1 1-1 2-3 1-5l-1-1c2 0 4-1 4-3s-1-3-3-3h-1c2-1 3-3 3-5l-3-1 5-1c1 4 7 4 8 1 4 4 12 2 13-4 1 2 4 3 6 2 2 0 3-2 4-3l1-4c5 5 14 1 12-5 3 1 6 1 8-1 3-2 3-5 2-8h8c3-3 2-6 1-9 2 1 6 0 7-2 3-3 1-7-1-9 2 0 6 0 7-3 2-4 0-7-2-9 2 0 5-2 6-4 2-4-1-7-4-9 3-1 5-5 6-8 0-4-4-6-7-6 3-3 6-6 3-10l-5-3c2-1 3-4 3-6-1-5-4-5-8-5 2-3 4-6 1-10-2-2-4-2-7-2 2-2 2-5 0-8s-6-2-9 0c2-3 1-7-1-9s-6-1-8 0c1-2 0-4-2-6-3-3-6-1-10 1 2-6-6-7-10-3 0-3-1-5-3-6-3 0-6 1-7 3-1-2-2-4-5-4s-5 2-6 4z"/>
    <path stroke="black" d="M636 370a2 2 0 1 0-3 0 2 2 0 0 0 3 0zM632 374a2 2 0 1 0-3 0 2 2 0 0 0 3 0zM628 377a2 2 0 1 0-4 0 2 2 0 0 0 4 0zM621 382a2 2 0 1 0 0-3 2 2 0 0 0 0 3zM616 385a2 2 0 1 0 0-4 2 2 0 0 0 0 4z"/>
    <path stroke="black" d="M612 386a2 2 0 1 0 0-3 2 2 0 0 0 0 3zM608 386a2 2 0 1 0-4 0 2 2 0 0 0 4 0zM694 423l-1 1-4 2-1-1c0-2 3-5 5-5 2-1 2 2 1 3zm5 2c1 1 1 2-1 3-2 2-5 0-7 1v-1l-1-1 2-1 2-1 2-1 3 1zm-4 5l3 1c2 1 1 3-1 3-2 2-5-1-7-3l1-1h4zm-1 6c1 2 0 4-2 4-3-1-3-5-3-8l3 2 2 2zm-8 4c-3 0-1-4 0-5l1-3 1 1c0 2 1 6-2 7zm-6-4l2-4 2-2 2 2-2 2-4 2zm7-11c-2 1-3 2-3 4l-1 1-3 3c-1 1-2 3-1 4h4l1-1-1 1c0 1 0 3 2 4l3-2 1-1c0 2 2 3 4 3 2-1 3-3 2-4v-1c1 0 4 0 5-2s0-3-2-4h-1c2-1 4-2 4-4-1-3-4-3-6-2v-1-4c-4-1-8 3-8 6zM670 446c2 0 1 2 0 3l-2 1-4 1-1-2c1-2 4-4 7-3zm1 5l2 1c1 2 1 3-1 3-2 1-5-1-7-2v-1l2-1h4zm-3 5l3 2c1 1 0 3-2 3-3 0-4-3-6-6l1-1 4 2zm-3 5c1 2-1 4-3 3s-1-5-1-8h1l2 3 1 2zm-8 2c-4-1 0-5 1-5l2-2c0 3-1 7-3 7zm-5-6l4-3 2-1 1 2-3 2s-4 2-4 0zm10-8l-4 2-2 1-3 2c-1 1-3 2-2 4l3 1 2-1-1 1v4h4l1-1c0 2 1 4 3 4s3-2 3-4v-1c2 1 4 2 6 0 1-1 0-3-1-4l-1-1c2 1 4 0 5-2 0-3-2-4-5-4h1c1-1 2-4 0-5-3-2-8 1-9 4zM634 467c-3 0-4-4-6-5v-2l3 1h1l3 2 1 1c0 2-1 3-2 3zm-3 1c1 2-1 3-3 3-2-1-2-5-3-8h2l3 3 1 2zm-10 3c-2-2 1-6 3-8l1 4v2c0 2-3 3-4 2zm-5-4c-2-2 3-4 4-4l2-1h1l-1 1c-1 2-3 5-6 4zm-1-7l4-1h3v2h-4s-4 0-3-1zm13-3h8c1 1 0 3-2 3h-2l-4-1v-2zm6 4h1c1 0 3-2 2-4-2-3-7-2-10 0h-5-1l-4 1c-1 0-4 0-4 2s2 2 3 2h1v1c-2 1-3 2-2 4l4 1c0 1 0 4 2 4 2 1 4 0 4-1l1-1c1 1 3 3 5 2l1-4v-1h5c1-3-1-5-3-6zM588 456v4l-1 2c-1 2-4 2-4 0-1-2 2-5 5-6zm-8 1c-2-3 3-3 4-3l3 1c-2 1-5 4-7 2zm14-3v-2c2-1 6 0 7 3 1 1-1 2-2 2l-2-1-3-2zm-10-2c-1 0-5-1-3-2h4l3 1-1 2-3-1zm12 5h1l1 2 1 2c-1 2-2 2-3 2-2-1-3-5-4-7l1-1 2 1 1 1zm-3 6c0 3-2 3-3 2-3-2-1-6 0-8h1l1 3 1 1v2zm-11 1h5v-1c1 2 2 4 4 4s3-2 3-4v-1c1 2 3 3 5 2 2-2 1-4-1-6h1c2 0 4-1 3-3 0-3-5-5-9-4-1-1-3-2-4-1l-2-1-3-1-5 1c0 2 1 3 2 3l1 1c-2 0-4 1-3 3 0 2 1 3 3 3v5zM578 414c0 7-3 12-11 12v2c7 2 13 1 18-5 3-4 6-12 4-18 3-15 3-31-2-45a137 137 0 0 0-33-52l-1 1c7 7 13 13 18 21 6 9 10 18 14 28 6 14 6 30 3 46l-3-4c-3-1-5 1-7 3v11z"/>
    <path stroke="black" d="M570 405l1 1c4-1 16-20 7-32a79 79 0 0 0-27-57l12 15 10 19c2 7 4 15 4 22h-3c-2-1-5 2-5 5-2 3 1 6 2 9 3 6 2 13-1 18z"/>
    <path stroke="black" d="M562 383h1c2-2 6-15 1-22-1-5-3-26-21-38 0 0-1 0 0 0 18 15 18 31 19 36-2-1-6-2-8 1-1 3 0 6 2 9 1 1 6 5 6 14z"/>
    <path stroke="black" d="M537 342c0 3 3 5 5 7 4 4 6 7 5 12l1 1c7-9 2-20-3-24-2-5-5-8-11-12v1c5 3 8 8 10 11-3-1-7 0-7 4zM212 168a5 5 0 1 1 2 10 5 5 0 0 1-2-10zM222 163a4 4 0 1 1 2 8 4 4 0 0 1-2-8zM232 162a3 3 0 1 1 1 5 3 3 0 0 1-1-5zM85 360a5 5 0 1 1 2 10 5 5 0 0 1-2-10zM99 360a4 4 0 1 1 2 8 4 4 0 0 1-2-8zM110 356a3 3 0 1 1 1 6 3 3 0 0 1-1-6zM115 353c0 2 4 1 3-1 0-2-3-1-3 1zM118 346l2 1 1-2-1-1-2 2zM119 337c0 2 3 2 3 0-1-2-4-1-3 0zM116 331l2 1 1-1-2-2-1 2zM111 326c0 2 3 2 2 0 0-2-3-2-2 0zM105 323l2 1 1-1-1-2-2 2zM239 164c0 2 3 1 3-1s-4-2-3 1zM245 165c0 2 4 1 3-1 0-2-4-2-3 1zM251 168l2 1 1-2-2-1-1 2zM255 171c1 2 3 1 3 0-1-2-3-1-3 0zM259 174c0 2 3 2 2 0h-2zM261 178c0 2 2 1 2 0h-2zM262 183h2-2zM262 187h0zM261 192h2c-1-2-3-1-2 0z"/>
    <path stroke="black" d="M270 329a1 1 0 0 0 2-2c-51-36-97-57-136-62-40-5-63 7-76 18-18 15-22 35-19 49 0 4 1 8 5 11l14 7 1-1-4-5-5-6-4-5-4-2c-4-12 1-32 18-46 12-11 35-23 73-18 39 5 85 26 135 62z"/>
    <path stroke="black" d="M109 280c-2 0-3 1-4 3-1 0-2 2-1 3 2 2 5 1 7 0l12-6h3c-5 2-9 6-12 9l-7 7c-4 3-7-1-10-2-2-1-4 0-6 1l-1 1c-2 1-3-1-3-3l3-3c2-4 7-7 12-9l7-1zm46 5l-3 1c-2 0-4 2-3 4s5 1 6 1l14-2 4 1c-4 0-9 1-12 3l-9 6c-3 2-5-3-7-4-4-2-10 4-13-1-4-5 11-9 17-11l6 2zm31 14h11l4 2-8 1c-2 0-6 2-5 5 2 3 7 2 10 1l15-2 5 2c-5 0-11 1-16 4l-8 4c-5 2-6-2-9-5l-5-1h-5c-5-1-3-4-1-7 3-3 8-4 12-4zm54 20l-5 2-2 2v3c3 2 6 2 10 2l11-1 4 2h-6l-10 4c-4 1-9 5-12 1-1-3-3-5-5-5-3-1-6-1-8-3-6-2 2-6 5-7 5-1 12-2 18 0zM68 306c1 4 7 10 1 14l-6 3-3 3c-2 2-4 4-7 3s-4-4-4-6c-1-5 2-9 4-13l6-9v1c-1 2-1 5 1 6 4 1 7-2 8-5v3zm5-18c-10 4-16 12-21 21-4 6-9 18 1 22 3 1 6-3 9-5l6-4 5-3c2-5-3-10-3-15-1-5 4-11 8-15 6-3 12-6 18-7l-8 7c-1 2-5 10 1 9 4-1 5-4 10-2 2 2 5 3 8 2l8-8c3-4 8-8 13-10l17 2c-5 2-11 4-14 8-2 2-2 4 0 6 1 2 4 2 6 1h4c2-1 4 0 6 2s3 2 5 2c4-1 7-5 10-7 4-2 9-3 13-3 6 1 11 3 17 6-7 0-14 0-19 5-1 1-4 4-3 6 1 3 4 4 6 4h7c2 0 3 2 4 4 2 2 4 3 7 2l11-6 15-3 14 7-12 1c-3 1-7 2-8 5-2 2-1 4 1 6 3 2 7 1 10 2 3 2 4 6 7 7l5-1 8-3 9-3 6 1 6 3a1 1 0 1 0 1-2c-61-36-111-55-149-55-23-1-37 6-45 11z"/>
    <path stroke="black" d="M86 385l8-1c1 2 0 4-2 5-4 2-6-1-6-4zm-9 4l-2-4h9c-1 3-4 6-7 4zm-11-5l8 1c-3 5-11 6-8-1zm-7 3c-5 2-7-3-6-7l11 4-5 3zm-15-5c-3-1-3-5-2-7l10 5c-1 3-6 5-8 2zm-9-5c-5 0-4-7-2-9a72 72 0 0 0 8 6l-6 3zm-8-9c-3 1-5-3-5-5l3-4 7 8-5 1zm-9-10c-4-1-3-10 0-10l6 9-6 1zm-8-13c-2-3 1-6 3-8l4 10h-1c-2 1-5-1-6-2zm-5-13c-1-3 1-8 5-9l3 12c-3 0-6 0-8-3zm-1-16c-1-2 3-6 6-6l-1 3 1 8c-3 0-6-2-6-5zm5-7c-3-2-6-4-4-8 1-3 4-3 7-3l-2 11H9zm-1-20c2-3 5-3 8-2l-4 9c-2-2-5-4-4-7zm7-13h7l-5 9h-1c-2-3-4-6-1-9zm8-9c2-3 5-2 8-1l-7 8c-2-2-3-5-1-7zm17-9l-8 7c-6-5 3-11 8-7zm2-6c2-4 6-3 8 0a138 138 0 0 0-8 5h-1l1-5zm20-6l-10 5c-1-6 6-10 10-5zm7-3l-5 2c-1-3 3-4 5-2zm9-4v1l-2 1 2-2zm-5-2c1-2 5-3 7-4l1 1-2 2v1l-2 2-2 1c-2 0-2-1-2-3zm-1-3c-2 0-2-2-1-3 2-3 5-1 8-1v2l-4 2h-3zm1-6c-2-1-2-3 0-4 3-1 5 2 7 5h-5l-2-1zm6-7c2-2 2 3 2 4v3h-1c-1-3-4-5-1-7zm7 0c1 1 0 4-1 5l-1 2h-2l1-4s2-4 3-3zm-2 13v5l-5 1 1-2 2-3 2-1zm9-1c0-2-3-5-1-7 2-3 8-1 11-1l12 4v4c-3 0-8-3-11-1-2 2-2 4-2 7H90c-1-2 2-4 3-6zm8-13c-3-1-5-3-6-5-1-3 4-5 5-6 2-2 2-3 2-5 1-4 0-8 5-7 7 2 12 8 17 12l-1 2h-1c-2-2-5-5-9-5-2 0-4 2-5 4-3 5 4 12 9 12l-1 3-15-5zm25-13l-10-12c-2-2-4-4-4-7-1-4 6-2 8-4l3-6c1-5 6-4 9-2l6 9 4 12a75 75 0 0 0-3 1c-2-4-2-8-5-11-2-2-5-3-8-2-7 5-2 15 3 20l-3 2zm36-14c-2-5-1-19-10-16-7 3-3 13-1 17l-3 1-1-1-2-4-2-6-2-6c-1-2-2-6 1-7 3 0 6 3 9 1s4-7 8-8c3 0 4 5 5 8l1 21h-3zm7-9l-1-9 1-5c1-4 4-3 6-1s3 4 6 4l3-1 3-3c2-2 4 0 5 2l-5 8c-4-2-8-3-12 0-2 1-2 3-2 5v6l-1 2h-3v-8zm14 40l1 7c-6 2-12 6-18 10l-6 7-3 7-8-4c3-7 7-12 13-17 6-4 13-8 21-10zm4 22l1-5v-1l2 5-3 1zm-14 14l-1 2a446 446 0 0 0-5-4l6 2zm6-16l6 3-4 4-1 1-1-8zm-4 7l4 2-5 5c-1-3-4-5-4-8l5 1zm19 0l-11 7c-2 2-5 4-5 7l-5-3c1-4 5-7 8-10 3-2 6-5 10-6l3 5zm-34 0c1-3 5-7 7-9 5-4 12-8 18-10l2 5c-6 3-12 5-16 10-3 2-8 6-8 10l-5-2 2-4zm-31-7v-2l-1-1 3 1 4 1v2l-6-1zm3-5l2 1 2 1-1 2-6-3v-2l3 1zm3-1l2 1-1 1-2-1-4-2 1-2 4 3zm2-2l2 2-2 1-2-2-3-2 1-1h1l3 2zm4-8l3 1v4l-7-4v-3l4 2zm2-2l2 2v1l-4-2-4-2 2-2 4 3zm-1-5l2 2 3 3-1 1-7-5 2-2 1 1zm6 2l1 2-2 1c-1-2-2-5-4-6h3l2 3zm4-8l2 2 2 2-1 2-1-1-3-2 1-3zm4 0l2 2-2 1-2-2-2-2a7 7 0 0 1 2-2l2 3zm2-1l1 2v1h-1l-1-2-2-3 2-1 1 3zm2-3l2 4v1h-2l-1-2-1-3h2zm5 1l2 3v3l-4-2v-1l-2-3h1c0 2 3 2 2 0l-1-1v-1l2 2zm2-3l2 2-2 3-1-2-2-3 1-3 2 3zm2-5l2 3 1 3-3 1-3-6 3-1zm5-1h3v6h-3v-4-1-1zm-1 2l1 4-2 1c0-2-1-5-3-7h4v2zm-21 17l-1-1v-1-1l2 1 2 1 1 5c-2-1-4-2-7-1v-2l-2-2v-1l3 1v1h2zm-12 11l-2-1v0l-1-2 7 3 1 4h-6l-2-1-2-3h2v1l2 1 1-2zm1 10c-1 2 1 4 4 4l-1 2-8-3c-1-2 0-4 1-5 2-4 7-3 11-2l-2 3c-1-1-4-1-5 1zm7-12c-1 2 0 4 2 5l-2 2h-1c-2-2-2-7-1-9 2-5 9-3 12 0l-1 1-3 2c-1-1-4-3-6-1zm13-10c-2 1-1 4 1 6l-3 1-1-1-2-6c1-2 3-4 5-4 4-1 7 3 9 6l-3 1c-1-2-3-5-6-3zm21-3l-3 1-2-3h-3c-3 0-2 3 0 5l-3 1-2-2c-1-3-1-6 2-8 3-3 7-2 10 0l1 6zm-1-7l-3-1v-6l3 1v6zm0-8l-6-2-8 2c-2 1-5 4-5 7-3-1-7-1-10 2-1 2-3 5-2 7-4-1-8-1-11 2-4 2-4 7-2 11h-2l-3 1-4 4v6l-9-2 1-9 4-10c4-6 9-11 15-15 12-7 29-10 42-8v4zm-54 157c2 2 4 7 1 8h-7l6-8zm1-35c3 0 5-1 8 1 5 3-1 8-4 10h-1c0-4-1-8-3-11zm-15-16l3-1c4 0 5 3 4 6l-7-5zm17 10c0 2-2 3-3 4l-5-7 4-1c3-1 4 2 4 4zm7 21c2 2 1 6-1 7h-5l1-10c2 0 4 1 5 3zm-2 16c-1 3-5 4-8 3l4-10c2 1 4 4 4 7zm-14 19c-2 2-5 0-7-1l6-5c1 2 3 5 1 6zm-8 3c1 5-6 4-8 2l8-5v3zm-10 8c-3 3-6 0-7-3 2 0 5-1 7-3v6zm99-229h2l-5 4c0-2 1-5 3-4zm3-3c0-5 5-2 6-1l-5 3-1-2zm14-6l2 3-8 2c0-3 2-6 6-5zm9-2c3 0 4 2 5 5h-10c1-3 2-5 5-5zm16 7l-9-2c2-5 11-4 9 2zm9-2c2 0 2 4 1 6-3-1-5-3-8-3 2-2 4-3 7-3zm6 5c5-1 6 4 3 7l-7-5 4-2zm9 7c5 1 4 6 1 9-1-3-3-6-6-8l5-1zm9 12c1 3-2 4-4 6l-3-8c2-1 5-1 7 2zm2 14l-5 2a34 34 0 0 0-1-9c3 1 8 3 6 7zm-1 9c0 3-4 3-6 3l2-9c2 1 4 3 4 6zm-8 12l-3-1 4-7 2 3c1 2 0 4-3 5zm-6 6c-2 1-3 0-4-1a23 23 0 0 0 6-5c1 2 2 5-2 6zm-7 5c-3 2-4-1-5-3 3-1 5-1 7-3 1 3 0 5-2 6zm-6-1c0 2-1 3-3 4-3 0-4-4-3-6a23 23 0 0 0 6 0v2zm-13 1c-2-1-2-4-1-6l7 3c-1 2-3 4-6 3zm-8-7c-1-1 0-3 1-4a16 16 0 0 0 5 4c-2 2-4 2-6 0zm-3-5l-3-2c-1-3 1-5 4-6l2 8h-3zm-2-16h5l-2 7h-1c-3 0-5-5-2-7zm7-8l3 1 1 1-4 3-1 2h-1c-2-3-1-6 2-7zm6-1c1-2 3-2 4-2 2 0 3 2 3 3v2l-7-1v-2zm15 8l-3 3-2-6-2-1c3-2 9 0 7 4zM95 386c2 1 4 3 6 2 4-1 3-4 3-7 2 2 5 3 8 2 3-2 2-5 2-8 3 2 5 3 8 1 2-2 1-5-1-7 3 0 7 1 8-1 3-2 1-5-1-7 3 0 6-1 8-4 1-3-1-6-3-8 3 0 7-2 7-6 0-3-2-5-4-6l-2-1c3-2 5-5 4-8-1-5-6-5-9-4 2-3 4-6 1-9-2-3-5-2-8-1 0-2 0-4-2-6-3-2-6-1-8 1a27 27 0 0 0-30 6 19 19 0 0 0 0 27 13 13 0 0 0 19-1 9 9 0 0 0-1-13 7 7 0 0 0-9 0 5 5 0 0 0 0 7 4 4 0 0 0 5 0 1 1 0 1 0-2-2v1l-1-1v-3a4 4 0 0 1 5 0c3 3 3 7 1 9-4 4-11 5-15 1a16 16 0 0 1 0-23 24 24 0 0 1 34-1c14 14 15 35 1 50-22 23-57 20-78 4a69 69 0 0 1-29-57c1-23 14-43 36-57 33-21 62-20 107 0a133 133 0 0 0-105 16c-30 24-26 51-23 61 4 14 14 25 25 29l11 5c6 1 12-1 17-1l1-1-7-4c-2-1-4-3-7-3l-8-1-7 2c-9-4-18-14-22-26-3-10-7-36 22-59a131 131 0 0 1 143 3 2534 2534 0 0 1 82 46v-1l-4-2-12-8c-43-28-69-58-76-89-4-19 0-37 11-54 6-9 16-14 27-16 14-1 28 3 38 13 13 11 14 30 2 43a20 20 0 0 1-28 1 13 13 0 0 1-1-18c3-4 8-4 12-1 2 2 2 5 0 7a3 3 0 0 1-4 1l-1-1 1-2v-2l-2 1c-2 1-2 4 0 6a6 6 0 0 0 8-1l1-1h1l1-3 2-3c1-1 2-3 1-4-1-3-5-4-8-3v-2c0-2-2-3-4-3-2-1-5 2-5 4l-1-1h-5c-3 2-4 5-2 8h-2c-1 0-3 0-4 2s0 6 3 7c-3 1-4 4-3 7 1 2 4 2 5 2h2c-2 2-3 4 0 6h5c0 2 1 4 3 5s4 0 6-1c0 2 1 4 3 4a5 5 0 0 0 5-4c1 2 2 3 5 2 2-1 3-4 3-6 2 2 4 2 6 1 3-2 2-5 1-7 3 1 7 1 7-3 1-1 0-4-2-5 3 0 6 0 7-3s-1-6-4-7c2-1 5-2 5-5 1-3-3-5-6-6 3-2 5-4 3-8-1-2-4-2-6-2 2-2 3-5 0-8h-7c1-2 2-5 0-7-3-2-6-1-9 1 1-3 1-5-1-7-4-2-6 1-9 3 1-3 0-6-3-7-3 0-7 1-8 4-1-3-2-5-6-5-3 0-5 2-6 5-2-2-4-4-7-3-2 1-3 3-3 5-2-2-5-2-7-1s-2 3-1 5h-5c-2 2-2 4 0 6l-5 5-1 2-4-5c-4-1-7 5-10 3-2-2-4-4-6-3-2 0-3 1-4 3l-2 5c-1 7 0 14 2 20h-2c-2-8 0-17-3-25l-1-3c-1-1-3-3-5-3-3 0-6 2-8 5-3 3-6-1-9 0-2 2-2 4-2 6v4c0 3 1 5 3 7l4 11v2h-2l-6-15-5-6-7-5c-3 0-5 2-7 4l-1 3c-1 2-2 1-4 2l-3 2c-2 2-1 5-1 7l2 4c3 6 9 11 14 15l-1 1c-6-4-11-11-18-12h-7c-3 2-2 5-2 8 0 2-3 3-5 4l-1 3c-1 2 0 3 2 5l3 3c5 3 13 6 19 6l-1 2-16-4a10 10 0 0 0-1 0c-5-1-11 0-10 6l-1 5v2l1 3h-3l-1-5h1l1-5v-1l1-4-1-4c-1-1-2 1-3 2l-1 1v-1c0-1-1-3-3-3-2 1-2 2-2 4h-5c-2 2-1 4 0 5l1 1c-2 0-4 2-4 3 0 2 2 3 3 3h1c-1 1-2 3-1 5l3 1-4 1c-3-3-8-2-9 1-4-3-12 1-12 6-2-1-4-2-6-1l-4 5v3c-6-3-14 2-11 8-2-1-5 0-7 2-3 2-2 6 0 8-3 0-6 0-8 2-3 3-2 6 0 9-2-1-6 1-7 3-2 3 1 7 4 9-3 0-7 1-7 4-1 4 1 6 4 8-3 1-5 3-5 5-2 4 1 7 5 8-3 2-5 6-4 10 0 4 4 5 7 5-2 2-4 6-1 9l5 2-1 6c1 5 5 5 9 5-2 3-3 6 0 9 3 2 5 2 8 1-1 2-1 5 1 8s6 1 9-1c-1 3 0 6 2 8 3 1 6 0 8-2 0 2 1 5 3 6 4 2 7 0 10-3-1 6 7 6 10 2 1 2 2 4 5 4s5-2 6-4c1 3 3 4 6 4 3-1 4-3 4-5z"/>
    <path stroke="black" d="M153 250a2 2 0 1 0 3-1 2 2 0 0 0-3 1zM156 245a2 2 0 1 0 3 0 2 2 0 0 0-3 0zM159 241c1 1 2 2 3 1a2 2 0 1 0-3-1zM165 235a2 2 0 1 0 1 3 2 2 0 0 0-1-3zM169 232a2 2 0 1 0 1 3 2 2 0 0 0-1-3zM174 229a2 2 0 1 0 0 4 2 2 0 0 0 0-4zM178 229a2 2 0 1 0 3-1 2 2 0 0 0-3 1zM86 209l1-2 3-3 2 1c0 3-2 6-5 6-2 1-2-1-1-2zm-5-2v-3c2-2 5-1 7-2v1l1 1-2 1a13 13 0 0 0-1 1l-2 1h-3zm3-6h-3c-2 0-2-2 0-3 2-2 5 0 8 2l-1 1h-4zm0-6c-2-1-1-3 1-4 3 0 4 4 5 7l-1 1-3-2-2-2zm7-5c3-1 2 4 1 5l-1 3v-1c-1-2-3-6 0-7zm7 3l-2 4-2 2-1-1 1-3c1 0 3-4 4-2zm-5 12c2-1 3-3 2-4l1-2 2-3c1-1 2-3 0-4-1-1-2 0-3 1l-1 1v-1c0-2 0-4-2-4s-3 1-3 2v1c-1-1-3-2-5-1s-2 2-1 4v1l-4 2c-1 2 0 3 2 4h1c-2 1-3 3-3 5 1 2 4 2 6 0v1c-1 2-1 4 1 4 4 1 7-4 7-7zM106 181c-2 0-2-2-1-3l2-1 3-1 2 1c-1 2-4 4-6 4zm-3-5h-2c-1-2 0-3 1-3 2-2 5 0 7 0l1 2h-3l-1 1h-3zm2-5l-2-1c-2-1-1-3 1-4 3-1 4 3 7 5l-1 1-4-1h-1zm2-6c-1-2 1-4 3-3 3 0 2 5 2 8l-3-3-2-2zm9-3c3 0 0 5-1 6l-1 2h-1v-1c1-2 0-6 3-7zm5 5c0 2-2 3-3 4l-2 1-1-2 2-2c1 0 4-3 4-1zm-8 10c2 0 3-2 3-3l2-2 3-2c1-1 2-2 1-4h-3l-2 1 1-1c1-2 1-3-1-4-1-1-3 0-4 1v0c-1-1-2-3-4-2-2 0-3 2-3 3l1 1h-1l-5 1c-1 2 0 3 1 4l1 1c-1 0-4 1-4 3 1 3 3 4 6 3l-1 1v4c4 1 8-2 9-5zM137 154c3 0 5 3 7 4v1h-3-1l-3-1-1-1c-1-2 0-3 1-3zm3-2c-1-2 0-3 2-3 3 1 3 5 4 7l-1 1-3-3h-1l-1-2zm9-4c2 1 0 5-1 8h-1l-1-4v-2c-1-2 2-3 3-2zm5 3c3 1-1 4-2 4l-3 2v-1c2-2 3-6 5-5zm3 6c0 2-3 2-4 2l-2 1-1-2 3-1h4zm-12 5c-2 2-5 3-8 2-2-1 0-3 1-3l2-1 4 1 1 1zm-6-2h-2c-1 1-2 2-1 4 2 3 8 1 10-1 2 0 3 0 4-2h2l4-1c1 0 3-1 3-3l-3-2h-2 1c1-1 2-3 1-4-1-2-3-1-4-1l-1 1c1-2 0-4-2-5-2 0-4 1-4 3v1c-1-2-4-3-5-2-2 1-2 3-1 5h1c-2 0-5 0-5 2-2 3 1 4 4 5zM184 157v-1-4-2c1-2 3-2 5-1 1 3-2 6-5 8zm8-3c3 2-2 3-4 3l-3 1v-1h1c2-2 4-5 6-3zm-13 6l1 1c-3 2-7 1-8-1-2-1 0-2 1-2h3l3 2zm10-1c1 0 5 1 4 2l-5 1-2-1v-2h3zm-13-2l-2-2-2-2c1-2 2-2 3-2 3 1 4 4 5 6a3 3 0 0 0-1 1l-2-1h-1zm2-7c0-2 2-3 3-2 3 2 2 5 2 8h-2l-2-3-1-3zm11-2c-2-1-4-1-5 1v0c-1-1-3-3-5-3-2 1-2 2-2 4v1c-1-1-3-2-5 0s0 4 2 6l-1-1c-2 1-3 2-3 4 1 3 7 4 10 2h5l1 1h4c1 0 4 0 4-2l-2-2-2-1h1c2 0 3-2 3-4-1-1-3-2-4-1h-1v-5zM202 196c-2-7 1-12 8-14v-2c-7 0-13 2-17 8-2 5-3 14 0 18-1 16 2 32 10 45a137 137 0 0 0 42 44h1l-22-18-19-25c-8-13-11-29-11-44l4 2c3 1 5-1 5-4 2-3 0-7-1-10z"/>
    <path stroke="black" d="M211 203h-1c-4 1-11 22-1 32a79 79 0 0 0 37 51c-4-5-10-8-15-13-4-5-9-10-12-16-4-7-7-14-9-22l3 1c3-1 4-4 5-6 0-4-3-6-5-9-3-5-4-12-2-18z"/>
    <path stroke="black" d="M224 224l-1-1c-2 3-4 17 2 22 2 5 8 26 28 34v-1c-20-10-24-27-26-31 3 1 7 0 8-3s-1-6-3-8c-1-1-7-3-8-12z"/>
    <path stroke="black" d="M255 259c0-2-4-4-6-6-4-3-7-6-7-11h-1c-6 9 1 19 7 22 3 5 7 8 13 10-5-3-10-7-12-10 4 1 7-1 6-5zM447 461l2-5 1-1 2 4 1 3-3 3c-2 0-3-2-3-4zm-5 0c-1-1 0-3 1-4h1l3-2 1 1-1 4c-1 1-3 3-5 1zm-3-7l2-1h4l1 1-1 1-5 2c-2 0-2-2-1-3zm12-4l2-1 3-1c0 2 0 3 2 3 1 1 3 0 4-1 1 2 1 4-1 4h-4l-5-1a3 3 0 0 0-1-3zm-9 1l-4-1c-1-1 1-2 2-2l3 1a19 19 0 0 1 1 1l2 1-1 1-3-1zm2-7l2 3 1 2v1l-1-1-3-2c-1-1-2-4 1-3zm4-1c1 2 3 3 5 3l-1 1-2 2h-1-1l-1-1 1-5zm1-1c1-2 3-2 4-2l4-1 1 2v1l-3 2c-2 1-6 1-6-2zm17-5v-1h1l2-1c2 1 7 2 4 5-2 2-5 0-8-1l1-2zm-13 0c-2 0-6-1-4-3 0-2 3-2 4-2l5 2-1 3v1l-4-1zm3-7c-1-1-1-3 1-4h3l1 3-1 4-1 1-1-1-2-3zm12-2l2 3-2 3-3 1-3-2c1-3 3-7 6-5zm12 11c1 2-1 4-1 6-1-1-3-2-3-4-2-3 3-5 4-2zm7 6c2 2-3 2-5 3l-3-3h1c1-3 6-3 7 0zm-11 3v1l-4 2h-3l-1-2h1l2-1 3-1 2 1zm11 5c0 2-3 1-4 0l-2-3 1-1h1c2 0 5 2 4 4zm-5 1v3c-1 1-2 2-4 1l-1-4 1-2v-1a3 3 0 0 0 2 0l1 2 1 1zm-10 2c-2-1-1-2 0-3 1-2 3-2 5-3v1l-1 2-1 2c-1 1-2 2-3 1zm2-15h1v1l-1-1zm-3 6v-3l-2-2h3l4 2 1 1 1 1-2 1h-5zm-7-2l-2-3 3-2 2 1 2 2c1 1 2 5-1 5-2 0-3-2-4-3zm-12 4l1-1 1-2 2-2a13 13 0 0 0 0 3l-4 2zm6 1l-1-4 2-5 2 1 1 2v1c0 2-1 7-4 5zm-1 6c2 1 3 2 3 4h-4l-2-1-3-4v-1l6 2zm-9 9h5l1-5 1 1c1 1 4 2 5 0 2-2 0-3-1-5h-1 3c3-1 3-4 1-6l1-4 4 3c0 2 1 3 3 3h1c-1 1-2 3-1 5h4l2-2c0 2 1 4 3 4 2 1 3-1 4-3v-2l1 1c2 1 3 0 4-2 1-1-1-3-2-3l-2-1c3-1 6-3 4-5-2-3-6-2-8-1 1-2 2-5-1-6l-4 1c-1-2-2-3-4-3h-3l2-2c1-2 0-4-1-6-3-2-6 1-7 4l-1-6h-4c-2 0-3 2-3 4l1 3-2-1-5 2c-1 2 0 4 2 4l3 2h-2c-2 0-3 2-3 3l-2 3c-1-2-2-3-4-2v4h-2l-3 1 2 4h2c-2 0-4 1-4 4 0 2 3 2 5 2l-1 4h5l2 3z"/>
    <path stroke="black" d="M475 469l-4-4 3 3c2 1 5 2 6 0s-1-4-2-5l-6-2-1-1 4 1c3 1 5 1 7 3l3 5 4 3c-5 2-9 1-14-3zm-8-7v9c-1 3-4 4-6 5l-3 3c-4-3-4-7 0-12l6-5-2 4c-1 2-1 4 1 5 5 1 4-4 4-9zm24 9c-5 0-7-7-12-10-1-1-12-1-12-4h-2l-7 8-4 7c-2 4 1 7 5 9h1c0-4 4-5 6-7l2-4v-8c2 4 5 7 9 10 5 3 10 3 15 1l-1-2zM483 430c-2 2-5 2-7 2l1-1c1 0 2-1 1-2h-3c-2 0-2 2-3 3l1-3c1-3 4-3 7-3l7-1-4 5zm-9-4c-2 1-2 4-3 6l1 2c3 0 7 0 10-2 3-1 5-5 7-7l-1-1-8 1-6 1zM464 418l-2 3 1 4-2-2c-2-2 0-5 2-7l4-7 1 7-2 7v-2l-2-3zm3-11h-1l-4 8-2 5c-1 2 2 4 3 6h1l5-8c1-4-1-8-2-11z"/>
    <path stroke="black" d="M477 480v8l-6-7v-7 2c0 2 0 4 2 4 2 1 3-2 2-3l-1-5c2 2 4 4 3 8zm-5-10h-1v1l-2 9c1 5 5 6 8 10l1-1v-12c0-3-6-7-6-7zM346 165l-5 1-1-1 2-3 2-2c2-1 3-1 4 1 1 1 0 3-2 4zm3 5h-4-1l-2-1-1-2 4-1c2 0 5 1 4 4zm-5 6l-2-2-1-2-1-1 1-1h1l4 3c1 2 0 3-2 3zm-9-9l-1-1-3-2 2-4-3-3c1-2 3-2 4 0 1 0 2 1 2 3l1 5-2 2zm5 7l1 4c-1 2-2 1-3 0v-3-1-1-2h1l1 3zm-7 2c-1-1 1-2 1-3h1l1-2h1v4c-1 2-4 4-4 1zm-3-3c2-2 2-4 0-5l1-1h1l3 1v3c-2 2-3 2-5 2zm-1-1c-2 1-3-1-4-2l-2-3 1-2 4 2c1 1 4 5 1 5zm-12-12l-1 1-1-1-2-2c0-2-1-7 3-6 2 1 2 5 3 8h-2zm6 12c1 1 1 5-1 5s-3-2-4-3v-5l3-1h1l1 4zm-7 1c-1 1-3 2-5 1l-2-3 3-3 4-1 1 1v1l-1 4zm-9-10l3-3h3l2 2v4c-3 0-8 0-8-3zm4-16c2-2 5-1 7-2-2 1-2 3-3 5-2 3-6-1-4-3zm2-9c1-3 4 1 5 3l-1 3v1c-3-1-6-4-4-7zm8 8l1-1 3 3h1l1 3-1 1-1-1h-2l-1-3-1-2zm-1-12c2-1 3 2 2 3l-1 4h-2v-1c-1-2-1-6 1-6zm4 4l2-1 3 2c0 2-2 2-3 3l-2 1h-1v-1l-1-1 1-2 1-1zm7 8l-4 2-4-4h5c1 0 3 0 3 2zm-14 6l-2-1 1-1 1 2zm6-1l-3 2-1 2-1-2v-5-2h2l1 3 2 2zm2 7l-3 3-2-1v-3-2c1-2 4-5 5-2v5zm8 9h-3l-3-2 3-1 3 3zm-1-6c0 2-3 2-4 3h-4l-1-2 2-2h1c1-1 6-3 6 1zm5-2l2-4c2-1 3 2 3 3l-1 3-2 4-2-6zm13 4c0-2-1-4-3-4-2-1-3 0-4 1v-1c0-2-1-5-3-5-2-1-3 1-3 3v1l-2-2c-2-2-5-1-5 1h-1l-3 2v-6c2 0 3-2 2-3l-1-1c2 0 4 0 4-2 1-2 1-3-1-4l-3-1c2 0 3-2 3-4-1-2-3-2-5-2l-2 1 1-1c-1-2-2-3-4-3s-2 2-2 4v2c-2-2-5-4-6-1-2 2 1 6 3 7-2 0-5 1-5 4 0 1 1 3 3 3-2 1-1 3-1 5l1 2h-2c-2 0-4 1-4 4-1 3 3 4 6 4l-4 3c-1 2 0 4 1 4h5l2-2 1 3c0 1 2 3 4 3s3-2 3-4l-1-3 2 2 3 1h4c-1 1-2 3 0 4s3 0 4-2l1 2 2 2c2 0 2-2 2-3v-2c1 2 3 3 5 1 1-1 1-3-1-4l4-2c1-2-1-4-2-4l2-3z"/>
    <path stroke="black" d="M340 137l-2 6 1-5c1-2 0-5-3-5l-2 4v6l1 2-2-4v-8l2-5 1-5c4 3 5 8 4 14zm-2 10c2-2 5-4 8-4s5 2 7 3h4c0 6-5 8-10 7l-8-3h5c2 0 4-2 3-4-1-4-5-1-9 1zm-4-26c3 6-3 10-3 16 0 2 5 11 2 13l1 1 10 3h9c4-1 6-5 6-9h-1c-4 1-6-2-9-3h-5l-7 5c3-4 5-8 5-13 0-6-3-10-7-13h-1zM302 149c3 1 4 3 6 5l-2-1c-1 0-3-1-3 1l2 3h4l-3 1c-3 1-5-2-6-4l-4-7 6 2zm1 9c2 2 5 0 7 0l1-1-6-8c-3-2-7-2-10-3l-1 1 5 7 4 4zM301 171h4l2-2-1 2c-1 3-4 3-7 2h-7l5-4c2-1 4-2 7-1h-2c-1 1-2 2-1 3zm-11 3c-1 0 0 1 0 0h14c3-1 3-4 4-6v-1h-10c-3 1-6 4-8 7z"/>
    <path stroke="black" d="M348 130l7-4c0 3 0 6-2 8l-6 4 1-1c2-1 3-2 3-4-1-2-3-1-4 0l-3 3c0-2 1-5 4-6zm-5 9c3 0 7 0 9-2 4-3 3-8 5-12l-1-1c-3 3-8 4-11 6l-2 9zM609 271h-1c2-2 2-4 2-5l2-1 2 4v2c0 2-1 3-2 3-3 1-3-1-3-3zm-6 0c-1-1 0-3 2-4l3-2h1l-1 4c-1 2-3 4-5 2zm-3-7l3-1h4v1l-1 1-5 2c-1 0-2-2-1-3zm12-4l2-1 3-1 2 3c2 1 3 0 4-1 2 2 1 4-1 4h-4l-5-1v-1l-1-2zm-8 1l-4-1c-2-2 0-2 1-2l3 1h1l1 1h1v2l-3-1zm1-8l3 4 1 2-1 1-1-1-3-2c-1-1-1-4 1-4zm4 0h1c0 2 2 3 4 3v1l-2 2h-2l-1-2v-4zm2-1c0-2 2-2 4-2l3-1 1 2-3 3c-2 1-6 1-5-2zm16-5v-1h1l3-1c2 0 7 2 4 5-2 2-6 0-8-1v-2zm-13 0c-1 0-5-1-4-4l4-1 5 2-1 3v1l-4-1zm3-7c-1-1-1-3 1-4h3l1 3v4l-2 1-1-1-2-3zm12-2c2 1 2 2 2 3l-2 3-3 1-3-2c1-3 4-7 6-5zm12 11c1 2-1 4-1 6l-3-4c-2-3 3-5 4-2zm8 5c1 3-4 3-6 4 0-2-1-2-2-3 1-3 6-3 8-1zm-12 4v1l-3 2h-4l-1-2h2l1-2h4l1 1zm12 5c-1 2-4 1-5 0l-2-3 1-1h1c2 0 5 2 5 4zm-6 1v2c0 2-2 2-3 2l-1-4v-2-1h2l1 2h1v1zm-10 2v-3c1-2 3-2 5-3v3l-2 2c0 1-2 2-3 1zm2-15l1-1v2l-1-1zm-3 6v-3l-2-2h4l4 2 1 1v1l-1 1h-6zm-7-2l-1-3 2-2 2 1 2 2c1 1 2 5-1 5l-4-3zm-12 4l1-1 1-2 3-2-1 3-4 2zm6 1v-5l1-4 2 1 1 2v1c1 2-1 7-4 5zm-1 6c2 1 4 2 3 4h-4l-2-1-3-4 1-1 5 2zm-9 9h5l1-5 1 1h5c2-2 0-4-1-5h-1l3-1c3-1 4-4 1-5l1-1v-3c1 2 3 3 5 3-1 2 0 3 2 3h1v5h4l2-2c0 2 0 4 2 4s4-1 4-3v-2l1 1c2 0 4 0 4-2 1-1 0-3-2-4h-2c3-1 6-3 4-5-1-3-5-3-8-1 1-2 2-5-1-6-1-1-3 0-4 1 0-2-2-3-4-3h-2l1-2c1-2 1-4-1-6s-5 1-7 3l-1-5h-4c-2 0-3 2-2 4l1 3-3-1c-2 0-4 0-5 2s1 3 2 4l4 1-3 1-3 3-1 3c-1-2-3-4-5-2v4h-1l-4 1c0 2 1 3 3 3l1 1c-2 0-4 1-4 4 1 2 3 2 5 2v4h4l2 3z"/>
    <path stroke="black" d="M636 279l-4-5 4 4c1 1 5 2 5 0 1-2-1-4-2-5l-6-2-1-1 4 1c3 0 5 1 7 3l3 5 5 3c-6 2-10 1-15-3zm-8-7v9c-1 3-4 4-6 5l-2 3c-5-3-4-8-1-12l6-6-2 5c-1 2 0 4 2 5 4 1 4-5 3-9zm25 9c-6 0-8-7-12-10-2-1-13-1-13-4l-1-1-7 9-5 7c-1 4 1 7 5 9l1-1c0-3 4-4 6-6l3-4-1-8c2 4 5 7 9 10 5 3 10 3 15 0v-1zM644 240c-2 2-5 2-7 2l2-1s2-2 0-2h-3c-1 0-2 1-2 3v-3c1-3 5-3 7-3l7-1-4 5zm-8-4c-3 1-3 4-3 6v1c3 1 7 1 10-1 3-1 5-5 7-7v-1l-9 1-5 1zM625 228l-2 3 1 4-1-2c-2-3 0-6 1-7l4-7 1 7-2 6v-1c0-1 0-3-2-3zm3-11h-1c0 3-2 6-4 8l-2 5c-1 2 2 4 3 6h2c2-2 4-5 4-9 1-3-1-7-2-10z"/>
    <path stroke="black" d="M639 289l-1 9-6-7v-7 2l2 4c2 1 3-2 3-3l-2-5c2 2 4 4 4 7zm-6-9v1h-1c-1 2-2 5-1 8 0 5 4 7 7 10h1v-12c0-3-5-7-6-7zM191 366c-2 0-3 2-4 3h-2l1-4 1-3 4-1c2 1 1 3 0 5zm4 3c1 1-1 2-3 2h-4v-1l3-3c1-1 4-1 4 2zm-1 7h-3l-2-2-1-1v-1h1l6 1c1 1 1 3-1 3zm-12-3h-2l-3-1v-4c-1-1-2-2-4-1 0-3 1-4 3-3 2 0 2 1 3 2l4 4h-1v3zm8 4l2 3c1 2-1 1-2 1l-2-3a21 21 0 0 1-1-1v-2l1-1 2 3zm-6 5v-4l1-2h1l1 3c0 2-1 5-3 3zm-4-2c1-2 0-4-2-5h1l3-1 1 1h1l-1 2c0 2-1 3-3 3zm-1 1c-2 1-4 0-5-1l-3-2v-2h4c2 0 6 2 4 5zm-16-6l-1 1h-1l-3-1c-1-2-4-6 0-7 3 0 4 3 6 6l-1 1zm10 7c1 1 4 5 2 6l-5-2-2-4 2-2 3 2zm-6 4c0 2-1 4-3 4s-3-1-3-2l1-4 3-2h2v4zm-12-5l1-3 3-1h3l1 4c-2 2-6 3-8 0zm-3-15c0-3 3-3 4-5v5c0 4-5 2-4 0zm-3-9c0-3 4-1 6 1l1 3h-1c-2 1-7-1-6-4zm11 3l1-1 4 1 2 2v2l-1-1-2 1-3-2-1-2zm-7-10c2-1 4 1 4 2v4l-1 1-1-1c-2-2-3-5-2-6zm6 2l1-2c1-1 3 0 4 1l-2 4-1 1-1 1a3 3 0 0 0-1-1v-2l-1-1 1-1zm9 4c1 1-1 3-2 3-2 1-4 0-5-1l2-2 2-1c1 0 3-1 3 1zm-10 11h-1l1-1v1zm6-3l-2 3v3l-1-2h-1c-2-1-2-3-2-4l-1-2v-1h2l2 2 3 1zm5 6l-1 3h-3l-1-2-1-2c0-2 1-6 4-4l2 5zm11 3v1l-3 1h-3a13 13 0 0 0 2-3l4 1zm-4-4c1 1-1 3-2 4l-4 2-1-1 1-2v-1c1-2 5-6 6-2zm4-4v-5c1-1 3 0 4 1l1 3-1 5-4-4zm13-3c-1-2-2-2-4-2s-3 1-4 3v-1c-1-2-3-4-5-3-2 0-1 2-1 4v1l-2-1c-3-1-5 1-4 4h-1l-2 2-2-5c1-1 1-3-1-4 1 0 3-1 3-4l-3-2h-3v-4c-1-2-4-1-5 0l-1 2-1-2c-1-1-3-2-4-1-2 1-1 3 0 5l1 2c-3-2-6-2-6 1s3 5 6 5c-2 2-4 4-3 6 1 1 3 2 4 1l2 5 2 2h-2c-2 1-3 4-3 6 1 3 5 2 8 1l-2 5c0 1 1 3 3 3s3-1 4-3l1-3 2 3 5 1c2-1 2-4 1-5l-3-3 3 1 4-1 3-2c0 3 0 5 2 5 2-1 3-2 3-4l1 1c1 1 2 2 3 1 2-1 1-3 0-4l-1-1c2 1 5 1 6-1s-1-4-3-4l2-3c1-2-2-3-3-3v-4z"/>
    <path stroke="black" d="M173 343l1 7-1-5c-1-2-3-4-5-3s-1 3-1 5l4 5v1l-3-3c-2-2-3-3-4-7v-5l-1-5c5 1 8 5 10 10zm3 11c1-3 2-6 5-8h8l3-2c3 6-1 9-6 11l-8 1 4-3c2-1 3-2 1-4-2-4-5 1-7 5zm-16-22c5 4 2 11 5 16 1 2 9 7 8 11h1l10-2 8-4c3-2 3-7 1-10h-1c-3 2-6 1-9 1l-4 2c-2 2-4 5-4 8 0-5 0-9-2-14s-7-8-12-9l-1 1zM145 371l7 3-2-1-3 2c1 2 2 2 3 2l4-1-2 2c-2 2-5 0-7-1l-7-4 7-2zm4 9c3 0 5-2 6-4v-1l-8-5-11 2v1l8 4 5 3zM153 392l4-2 1-3v3c0 2-3 4-5 5-3 0-5 1-7 3l3-6 5-5-1 2v3zm-8 7v1l8-5 5-2c2-2 1-5 0-7v-1c-4 1-7 2-9 5-3 2-3 6-4 9z"/>
    <path stroke="black" d="M177 333l5-6 1 9-4 6 1-2c1-1 2-4 1-5-2-1-4 1-4 2l-1 4c-1-2-1-5 1-8zm-1 11v0h1c3-1 5-3 6-6 2-4 0-8 0-12l-1-1h-1l-6 10c-1 3 1 9 1 9z"/>
  </g>
</svg>
