<?xml version="1.0" encoding="UTF-8" standalone="no"?><!-- Generator: Gravit.io -->
<svg xmlns="http://www.w3.org/2000/svg" 
  xmlns:xlink="http://www.w3.org/1999/xlink" style="isolation:isolate" viewBox="0 0 27.892 11.598" width="27.892pt" height="11.598pt">
  <defs>
    <clipPath id="_clipPath_Vgi2sq6Qm3Ukk3nuFg88ChksO1U9vUoA">
      <rect width="27.892" height="11.598"/>
    </clipPath>
  </defs>
  <g clip-path="url(#_clipPath_Vgi2sq6Qm3Ukk3nuFg88ChksO1U9vUoA)">
    <path d=" M 0.392 0.598 C -0.608 0.598 0.392 2.598 2.392 2.598 C 5.392 3.598 6.392 4.598 5.392 5.598 C 5.392 7.598 8.392 11.598 10.392 11.598 L 11.392 9.598 C 12.392 6.598 12.392 6.598 18.392 7.598 C 23.392 9.598 24.392 9.598 26.392 7.598 C 28.392 6.598 28.392 5.598 26.392 5.598 L 26.392 4.598 L 26.392 2.598 L 23.392 3.598 L 18.392 4.598 C 16.392 3.598 16.392 3.598 19.392 2.598 C 25.392 -0.402 26.392 -0.402 21.392 0.598 L 0.392 0.598 Z " fill="rgb(0,0,0)"/>
  </g>
</svg>
