<svg xmlns="http://www.w3.org/2000/svg" version="1.0" width="498" height="284" viewBox="0 0 498 284">
<defs>
  <linearGradient id="gradient" x1="50%" y1="0%" x2="50%" y2="100%" >
      <stop offset="45%" stop-color="#f4c708">
          <animate attributeName="stop-color" values="#f4c708; #FFECB3; #f4c708" dur="2s" repeatCount="indefinite"></animate>
      </stop>
      <stop offset="50%" stop-color="#cfc09f">
          <animate attributeName="stop-color" values="#cfc09f; #FFECB3; #cfc09f" dur="2s" repeatCount="indefinite"></animate>
      </stop>
      <stop offset="60%" stop-color="#FFECB3">
          <animate attributeName="stop-color" values="#FFECB3; #f4c708; #FFECB3" dur="2s" repeatCount="indefinite"></animate>
      </stop>
  </linearGradient>
</defs>
  <path fill="url(#gradient)" d="M107 2l-7 1 2 2c3 3 12 15 11 16l-10 1-11 1 4 10 6 10v14c0 12 0 14-2 20l-2 6-2-9c-1-10-4-15-10-22-5-4-7-5-13-7-8-3-14-2-21 1-6 3-11 9-12 15-2 7 2 17 10 21 7 4 14 2 21-4 3-3 3-3 3-1 0 3-4 11-8 15a42 42 0 01-41 9C20 99 9 91 6 87s-3-4-4-2v114c1 2 1 2 4-2s14-12 19-14c13-5 31-1 41 9 4 4 8 12 8 15 0 2 0 2-3-1-7-6-14-7-21-4-8 4-12 14-10 22 1 5 6 11 12 14 7 3 13 4 21 1 6-2 8-3 13-7 6-7 9-12 10-22l2-8 2 6c2 5 2 7 2 19v14l-6 10-4 10 11 1 10 1c1 1-6 11-10 16l-3 3h298l-3-3c-4-5-11-15-10-16l10-1h11c1-1-2-6-4-11l-5-10-1-14c0-12 0-14 2-19l2-6 2 8c1 10 4 15 10 22 5 4 7 5 13 7 9 3 14 2 21-1 6-3 11-9 12-14 2-8-2-18-10-22-7-3-14-2-21 4-3 3-3 3-3 1 0-3 4-11 8-15 10-10 28-14 41-9 5 2 16 10 19 14s3 4 4 2V85c-1-2-1-2-4 2s-14 12-19 14c-13 5-31 1-41-9-4-4-8-12-8-15 0-2 0-2 3 1 7 6 14 7 21 4 8-4 12-14 10-21-1-6-6-12-12-15-7-3-13-4-21-1-6 2-8 3-12 7-7 7-10 12-11 22l-2 9-2-6c-2-6-2-8-2-20V43l6-10c2-5 5-10 4-11h-11l-10-1c-1-1 6-11 10-16l3-3H107zm275 3c1 1-10 17-12 17l-15 1c-12 1-17 2-24 7-6 4-10 17-7 22 2 1 2 1 5-2 5-4 8-5 13-4 5 2 7 5 7 12 0 4 0 5-3 8l-7 5c-12 4-25-5-25-16l-1-8c0-3 0-3-2-1-3 3-9 4-13 3-3-1-6-6-6-9 0-4 3-9 7-13l3-4H196l3 4c4 4 7 9 7 13 0 3-3 8-6 9-4 2-10 0-13-3-2-2-2-2-2 1l-1 8c0 11-13 20-24 16l-8-5c-3-3-3-4-3-8 0-7 2-10 7-12 5-1 8 0 13 4 3 3 3 3 5 2 3-5-1-18-7-22-7-5-12-6-24-7l-15-1c-1 0-4-3-7-8l-5-8 2-1h264zM120 35l2 19c0 14-1 15-4 22-8 21-25 37-46 43a97 97 0 01-43-2 274 274 0 000 50l6-2c9-2 28-2 37 0 21 6 38 22 46 43 3 7 4 8 4 22l-2 19-1 4h-9l-9-1 2-9c6-19 1-41-12-54l-6-6c-1 0 0 4 2 7 4 9 5 15 4 22-3 16-14 25-29 25-8-1-14-4-17-10-7-13 5-28 18-21 4 1 7 7 7 10s0 3 3 2c4-2 5-11 2-19-4-10-11-17-22-20-11-4-22-2-35 4l-7 4v-23-67l7 4c13 6 24 7 35 4s18-10 22-20c3-8 2-17-2-19-3-1-3-1-3 2s-3 8-7 10c-13 6-25-8-18-21 3-6 9-9 17-10 15-1 26 9 29 25 1 7 0 13-4 22-2 3-3 6-2 7l6-6c13-14 18-35 12-54l-2-9 9-1h9l1 4zm44-1c4 2 8 8 8 11v3l-4-3c-5-3-7-3-12-2-8 2-13 12-10 20 2 6 5 9 10 12 16 7 32-3 32-20v-3l6 1c4 0 6 0 9-2 4-2 7-8 8-14v-5h76v5c1 6 4 12 8 14 3 2 5 2 9 2l6-1v3c0 13 10 22 23 22 5 0 13-4 16-8 7-10 4-23-7-26-5-1-7-1-12 2l-4 3v-3c0-3 4-9 8-11 2-2 6-2 18-3l16 1-1 8a77 77 0 0062 89c8 1 26 1 35-1h3v28h-3c-9-2-27-2-35-1-24 5-44 20-55 43-7 13-9 32-7 46l1 8-16 1c-12-1-16-1-18-3-4-2-8-7-8-11v-3l4 3c5 3 7 4 12 2 8-2 13-12 10-20-2-6-5-9-10-12-15-7-32 4-32 20v3h-6c-4-1-6-1-9 1-4 2-7 8-8 14v5h-76v-5c-1-6-4-12-8-14-3-2-5-2-9-1h-6v-3c0-13-10-22-23-22-5 0-13 4-16 8-7 10-4 23 7 26 5 2 7 1 12-2l4-3v3c0 4-4 9-8 11-2 2-6 2-18 3l-16-1 1-8a77 77 0 00-62-89c-8-1-26-1-35 1h-3v-28h3c9 2 27 2 35 1 24-5 44-20 55-43 7-13 9-32 7-46l-1-8 16-1c12 1 16 1 18 3zm233-2l-2 9c-6 19-1 41 12 54 3 4 6 6 7 6l-3-7c-4-9-5-15-4-22 3-16 14-25 29-25 8 1 14 4 17 10 7 13-5 28-18 21-3-1-7-7-7-10s0-3-3-2c-4 2-5 11-2 19 4 10 11 17 22 20 11 4 23 2 35-4l7-4v90l-7-4c-12-6-24-7-35-4s-18 10-22 20c-3 8-2 17 2 19 3 1 3 1 3-2s4-8 7-10c13-6 25 8 18 21-3 6-9 9-17 10-15 1-26-9-29-25-1-7 0-13 4-22l3-7c-1 0-4 2-7 6a55 55 0 00-12 54l2 9-9 1h-9l-1-4-1-19c0-14 0-15 3-22 8-21 25-37 46-43a97 97 0 0143 2 276 276 0 000-50l-6 2c-9 2-28 2-37 0-21-6-38-22-46-43-3-7-3-8-3-22l1-19 1-4h9l9 1zM175 215c5 2 9 8 9 14l1 8c0 3 0 3 2 1 3-3 9-4 13-3 3 1 6 6 6 9 0 4-3 9-7 13l-3 4h106l-3-4c-4-4-7-9-7-13 0-3 3-8 6-9 4-1 10 0 13 3 2 2 2 2 2-1l1-8c0-11 13-20 25-16l7 5c3 3 3 4 3 8 0 7-2 10-7 12-5 1-8 0-13-4-3-3-3-3-5-2-3 5 1 18 7 22 7 5 12 6 24 7l15 1c2 0 13 16 12 17H117c-2-1 9-17 11-17l15-1c12-1 17-2 24-7 6-4 10-17 7-22-2-1-2-1-5 2-5 4-8 5-13 4-5-2-7-5-7-11s2-10 8-13c5-2 12-2 18 1z"/>
</svg>
