<svg xmlns="https://www.w3.org/2000/svg" width="1200" height="1200" version="1">
  <g>
    <path d="M601 50l1 12 4 35a3253 3253 0 0 1 13 208c1 30 3 61 3 93l2 49v50l1 103-1 103v50l-2 49a6245 6245 0 0 1-16 301l-3 35-2 12h-2l-2-12-3-35a3309 3309 0 0 1-9-125l-2-40-2-43c-1-30-3-61-3-93l-2-49v-25-25l-1-103 1-103v-25-25l2-49a6164 6164 0 0 1 16-301l3-35 2-12h2z"/>
    <path d="M1150 601l-12 1-35 4a3283 3283 0 0 1-208 13c-30 1-61 3-93 3l-49 2h-50l-103 1-103-1h-50l-49-2c-32 0-63-2-93-3l-43-2-40-2a4630 4630 0 0 1-125-9l-35-3-12-2v-2l12-2 35-3a3253 3253 0 0 1 208-13c30-1 61-3 93-3l49-2h50l103-1 103 1h50l49 2a6151 6151 0 0 1 301 16l35 3 12 2v2z"/>
    <path d="M304 302l7 6 20 18 31 28 39 36 47 43 51 49 27 27 28 26 55 56 56 55a4348 4348 0 0 1 102 106l22 24 21 22 19 21 17 19 28 31 18 20 6 7-2 2-7-6-20-18-31-28-19-17-21-19-22-21-24-22-51-49-27-27-28-26-55-56a9432 9432 0 0 1-82-83l-27-27-49-51-43-47-36-39-28-31-18-20-6-7 2-2z"/>
    <path d="M898 304l-6 7-18 20-28 31-36 39-43 47-49 51-27 27-26 28-56 55-55 56-28 26-27 27-51 49-24 22-22 21-21 19-19 17-31 28-20 18-7 6-2-2 6-7 18-20 28-31 17-19 19-21 21-22 22-24a7244 7244 0 0 1 102-106l56-55 55-56 28-26 27-27 51-49 47-43 39-36 31-28 20-18 7-6 2 2z"/>
    <path d="M304 302l7 6 20 18 31 28 39 36 47 43 51 49 27 27 28 26 55 56 56 55a4348 4348 0 0 1 102 106l22 24 21 22 19 21 17 19 28 31 18 20 6 7-2 2-7-6-20-18-31-28-19-17-21-19-22-21-24-22-51-49-27-27-28-26-55-56a9432 9432 0 0 1-82-83l-27-27-49-51-43-47-36-39-28-31-18-20-6-7 2-2z"/>
    <path d="M898 304l-6 7-18 20-28 31-36 39-43 47-49 51-27 27-26 28-56 55-55 56-28 26-27 27-51 49-24 22-22 21-21 19-19 17-31 28-20 18-7 6-2-2 6-7 18-20 28-31 17-19 19-21 21-22 22-24a7244 7244 0 0 1 102-106l56-55 55-56 28-26 27-27 51-49 47-43 39-36 31-28 20-18 7-6 2 2z"/>
    <path d="M489 340l3 6 8 16 27 58 18 39 19 43 21 47 21 48 21 49 19 47 19 44a4098 4098 0 0 1 39 99l7 17 2 6-2 1-3-6a20394 20394 0 0 0-53-113l-19-43-21-47-21-48-21-49-19-47-19-44a4252 4252 0 0 1-46-116l-2-6 2-1z"/>
    <path d="M705 338l-2 6a65047 65047 0 0 0-27 77l-15 40-17 45-19 47-19 49-20 49-19 47-18 45a3987 3987 0 0 1-42 98l-8 16-2 6-2-1 2-6a28052 28052 0 0 1 42-117l17-45 19-47 19-49 20-49 19-47 18-45 17-39a4354 4354 0 0 1 35-81l2 1z"/>
    <path d="M860 489l-6 3-16 8a4330 4330 0 0 1-97 45l-44 19-46 21a334462 334462 0 0 1-97 42l-47 19-44 19a4141 4141 0 0 1-99 39l-17 7-6 2-1-2 6-3 16-8a4286 4286 0 0 1 97-45l43-19 47-21 48-21 49-21 47-19 44-19 40-16 59-23 17-7 6-2 1 2z"/>
    <path d="M862 705l-6-2-17-6a4361 4361 0 0 1-100-36l-45-17-47-19-49-19-49-20-47-19-45-18a3955 3955 0 0 1-98-42l-16-8-6-2 1-2 6 2 17 6a4210 4210 0 0 1 100 36l45 17 47 19 49 19 49 20 47 19 45 18a4063 4063 0 0 1 98 42l16 8 6 2-1 2z"/>
  </g>
</svg>
